<svg width="2048" height="1014" viewBox="0 0 2048 1014" fill="none" xmlns="http://www.w3.org/2000/svg">
<g id="Abstract_03a" clip-path="url(#clip0_1_18225)">
<rect width="2048" height="1014" fill="white"/>
<g id="Background_Abstract_03">
<rect id="Mask" width="2048" height="1014" fill="white"/>
<mask id="mask0_1_18225" style="mask-type:luminance" maskUnits="userSpaceOnUse" x="0" y="0" width="2048" height="1014">
<rect id="Mask_2" width="2048" height="1014" fill="white"/>
</mask>
<g mask="url(#mask0_1_18225)">
<g id="background">
<g id="Group">
<g id="Fill 1 Copy 6">
<path fill-rule="evenodd" clip-rule="evenodd" d="M1614.21 1489.52C1614.21 1489.52 1510.48 1471.27 1473.88 1434.8C1437.25 1398.35 1418.96 1351.78 1418.96 1295.09V793.728C1418.96 638.983 1473.67 507.345 1583.1 398.779C1692.5 290.225 1824.92 235.96 1980.29 235.96C2135.67 235.96 2268.09 290.225 2377.47 398.779C2486.92 507.345 2541.62 638.983 2541.62 793.728V1295.09C2541.62 1351.78 2523.33 1398.35 2486.69 1434.8C2450.11 1471.27 2346.38 1489.52 2346.38 1489.52C2289.43 1489.52 1614.21 1489.52 1614.21 1489.52Z" fill="url(#paint0_linear_1_18225)"/>
<path fill-rule="evenodd" clip-rule="evenodd" d="M1614.21 1489.52C1614.21 1489.52 1510.48 1471.27 1473.88 1434.8C1437.25 1398.35 1418.96 1351.78 1418.96 1295.09V793.728C1418.96 638.983 1473.67 507.345 1583.1 398.779C1692.5 290.225 1824.92 235.96 1980.29 235.96C2135.67 235.96 2268.09 290.225 2377.47 398.779C2486.92 507.345 2541.62 638.983 2541.62 793.728V1295.09C2541.62 1351.78 2523.33 1398.35 2486.69 1434.8C2450.11 1471.27 2346.38 1489.52 2346.38 1489.52C2289.43 1489.52 1614.21 1489.52 1614.21 1489.52Z" fill="url(#paint1_linear_1_18225)"/>
</g>
<circle id="Oval Copy 13" cx="1077.08" cy="905.94" r="401.94" fill="url(#paint2_linear_1_18225)"/>
<g id="Fill 1 Copy 3">
<path fill-rule="evenodd" clip-rule="evenodd" d="M1313.37 1086.79C1293.27 1066.77 1283.24 1041.19 1283.24 1010.04V488.877C1283.24 463.055 1274.09 441.034 1255.79 422.79C1237.49 404.531 1215.4 395.422 1189.5 395.422C1163.61 395.422 1141.5 404.531 1123.21 422.79C1104.91 441.034 1095.76 463.055 1095.76 488.877V1010.04C1095.76 1041.19 1085.72 1066.77 1065.62 1086.79C1045.55 1106.82 1019.88 1116.84 988.63 1116.84C957.384 1116.84 931.716 1106.82 911.634 1086.79C891.538 1066.77 881.5 1041.2 881.5 1010.07V488.353C881.5 403.376 911.519 331.089 971.563 271.47C1031.59 211.859 1104.25 182.06 1189.5 182.06C1274.75 182.06 1347.41 211.859 1407.43 271.47C1467.49 331.089 1497.5 403.376 1497.5 488.353V1010.07C1497.5 1041.2 1487.46 1066.77 1467.36 1086.79C1447.29 1106.82 1421.62 1116.84 1390.37 1116.84C1359.12 1116.84 1333.45 1106.82 1313.37 1086.79Z" fill="#EBDDF5"/>
<path fill-rule="evenodd" clip-rule="evenodd" d="M1313.37 1086.79C1293.27 1066.77 1283.24 1041.19 1283.24 1010.04V488.877C1283.24 463.055 1274.09 441.034 1255.79 422.79C1237.49 404.531 1215.4 395.422 1189.5 395.422C1163.61 395.422 1141.5 404.531 1123.21 422.79C1104.91 441.034 1095.76 463.055 1095.76 488.877V1010.04C1095.76 1041.19 1085.72 1066.77 1065.62 1086.79C1045.55 1106.82 1019.88 1116.84 988.63 1116.84C957.384 1116.84 931.716 1106.82 911.634 1086.79C891.538 1066.77 881.5 1041.2 881.5 1010.07V488.353C881.5 403.376 911.519 331.089 971.563 271.47C1031.59 211.859 1104.25 182.06 1189.5 182.06C1274.75 182.06 1347.41 211.859 1407.43 271.47C1467.49 331.089 1497.5 403.376 1497.5 488.353V1010.07C1497.5 1041.2 1487.46 1066.77 1467.36 1086.79C1447.29 1106.82 1421.62 1116.84 1390.37 1116.84C1359.12 1116.84 1333.45 1106.82 1313.37 1086.79Z" fill="url(#paint3_linear_1_18225)"/>
<path fill-rule="evenodd" clip-rule="evenodd" d="M1313.37 1086.79C1293.27 1066.77 1283.24 1041.19 1283.24 1010.04V488.877C1283.24 463.055 1274.09 441.034 1255.79 422.79C1237.49 404.531 1215.4 395.422 1189.5 395.422C1163.61 395.422 1141.5 404.531 1123.21 422.79C1104.91 441.034 1095.76 463.055 1095.76 488.877V1010.04C1095.76 1041.19 1085.72 1066.77 1065.62 1086.79C1045.55 1106.82 1019.88 1116.84 988.63 1116.84C957.384 1116.84 931.716 1106.82 911.634 1086.79C891.538 1066.77 881.5 1041.2 881.5 1010.07V488.353C881.5 403.376 911.519 331.089 971.563 271.47C1031.59 211.859 1104.25 182.06 1189.5 182.06C1274.75 182.06 1347.41 211.859 1407.43 271.47C1467.49 331.089 1497.5 403.376 1497.5 488.353V1010.07C1497.5 1041.2 1487.46 1066.77 1467.36 1086.79C1447.29 1106.82 1421.62 1116.84 1390.37 1116.84C1359.12 1116.84 1333.45 1106.82 1313.37 1086.79Z" fill="url(#paint4_linear_1_18225)"/>
</g>
<path id="Fill 3 Copy 2" fill-rule="evenodd" clip-rule="evenodd" d="M730.396 440.276C705.815 440.276 681.93 444.247 658.742 452.159V287.821C658.742 263.711 651.053 243.901 635.707 228.401C620.346 212.905 600.715 205.16 576.851 205.16C552.946 205.16 533.346 212.905 517.98 228.401C502.634 243.901 494.961 263.711 494.961 287.821V910.487C494.961 934.596 502.634 954.396 517.98 969.891C533.346 985.397 552.946 993.147 576.851 993.147C600.715 993.147 620.346 985.397 635.707 969.876C651.053 954.36 658.742 934.529 658.742 910.403V678.015C658.742 658.017 665.713 640.955 679.723 626.808C693.713 612.676 710.606 605.608 730.396 605.608C750.171 605.608 767.064 612.676 781.054 626.808C795.038 640.955 802.051 658.017 802.051 678.015V910.403C802.051 934.529 809.724 954.36 825.069 969.876C840.431 985.397 860.036 993.147 883.941 993.147C907.811 993.147 927.431 985.397 942.797 969.886C958.138 954.37 965.831 934.549 965.831 910.419V677.614C965.831 611.776 942.87 555.754 896.987 509.57C851.084 463.376 795.564 440.276 730.396 440.276Z" fill="url(#paint5_linear_1_18225)"/>
<g id="Fill 3 Copy 3">
<path fill-rule="evenodd" clip-rule="evenodd" d="M966 1819.98C966 1871.9 949.476 1914.57 916.495 1947.95C883.48 1981.32 841.289 1998 790 1998C738.622 1998 696.498 1981.32 663.472 1947.95C630.491 1914.57 614 1871.9 614 1819.98V479.017C614 427.095 630.491 384.454 663.472 351.084C696.498 317.691 738.622 301 790 301C841.289 301 883.48 317.691 916.495 351.117C949.476 384.533 966 427.241 966 479.197V1819.98Z" fill="#EBDDF5"/>
<path fill-rule="evenodd" clip-rule="evenodd" d="M966 1819.98C966 1871.9 949.476 1914.57 916.495 1947.95C883.48 1981.32 841.289 1998 790 1998C738.622 1998 696.498 1981.32 663.472 1947.95C630.491 1914.57 614 1871.9 614 1819.98V479.017C614 427.095 630.491 384.454 663.472 351.084C696.498 317.691 738.622 301 790 301C841.289 301 883.48 317.691 916.495 351.117C949.476 384.533 966 427.241 966 479.197V1819.98Z" fill="url(#paint6_linear_1_18225)"/>
</g>
<path id="Fill 1 Copy 3_2" fill-rule="evenodd" clip-rule="evenodd" d="M81.5767 144.788C96.8044 159.969 104.403 179.374 104.403 202.998V522.253C104.403 541.837 111.332 558.536 125.195 572.373C139.059 586.22 155.794 593.128 175.411 593.128C195.023 593.128 211.768 586.22 225.626 572.373C239.484 558.536 246.419 541.837 246.419 522.253V202.998C246.419 179.374 254.022 159.969 269.25 144.788C284.452 129.601 303.9 122 327.57 122C351.239 122 370.682 129.601 385.895 144.788C401.117 159.969 408.721 179.364 408.721 202.972V411.771C408.721 476.216 408.721 791.9 408.721 791.9H-57.8993C-57.8993 791.9 -57.8993 470.452 -57.8993 411.771V202.972C-57.8993 179.364 -50.2957 159.969 -35.0681 144.788C-19.866 129.601 -0.417511 122 23.2518 122C46.9211 122 66.3695 129.601 81.5767 144.788Z" fill="url(#paint7_linear_1_18225)"/>
<g id="Oval Copy">
<circle cx="1647.38" cy="862.38" r="380.38" fill="url(#paint8_linear_1_18225)"/>
<circle cx="1647.38" cy="862.38" r="380.38" fill="url(#paint9_linear_1_18225)"/>
</g>
<g id="Fill 3 Copy 4">
<path fill-rule="evenodd" clip-rule="evenodd" d="M2145.16 518.538C2112.36 518.538 2080.49 523.831 2049.55 534.376V315.336C2049.55 283.201 2039.29 256.797 2018.81 236.136C1998.31 215.483 1972.12 205.16 1940.27 205.16C1908.37 205.16 1882.22 215.483 1861.72 236.136C1841.24 256.797 1831 283.201 1831 315.336V1145.26C1831 1177.4 1841.24 1203.79 1861.72 1224.44C1882.22 1245.11 1908.37 1255.44 1940.27 1255.44C1972.12 1255.44 1998.31 1245.11 2018.81 1224.42C2039.29 1203.74 2049.55 1177.31 2049.55 1145.15V835.411C2049.55 808.757 2058.85 786.016 2077.54 767.159C2096.21 748.324 2118.75 738.903 2145.16 738.903C2171.55 738.903 2194.09 748.324 2212.76 767.159C2231.42 786.016 2240.77 808.757 2240.77 835.411V1145.15C2240.77 1177.31 2251.01 1203.74 2271.49 1224.42C2291.99 1245.11 2318.15 1255.44 2350.05 1255.44C2381.9 1255.44 2408.08 1245.11 2428.58 1224.44C2449.05 1203.76 2459.32 1177.34 2459.32 1145.17V834.877C2459.32 747.124 2428.68 672.455 2367.46 610.897C2306.2 549.326 2232.12 518.538 2145.16 518.538Z" fill="url(#paint10_linear_1_18225)"/>
<path fill-rule="evenodd" clip-rule="evenodd" d="M2145.16 518.538C2112.36 518.538 2080.49 523.831 2049.55 534.376V315.336C2049.55 283.201 2039.29 256.797 2018.81 236.136C1998.31 215.483 1972.12 205.16 1940.27 205.16C1908.37 205.16 1882.22 215.483 1861.72 236.136C1841.24 256.797 1831 283.201 1831 315.336V1145.26C1831 1177.4 1841.24 1203.79 1861.72 1224.44C1882.22 1245.11 1908.37 1255.44 1940.27 1255.44C1972.12 1255.44 1998.31 1245.11 2018.81 1224.42C2039.29 1203.74 2049.55 1177.31 2049.55 1145.15V835.411C2049.55 808.757 2058.85 786.016 2077.54 767.159C2096.21 748.324 2118.75 738.903 2145.16 738.903C2171.55 738.903 2194.09 748.324 2212.76 767.159C2231.42 786.016 2240.77 808.757 2240.77 835.411V1145.15C2240.77 1177.31 2251.01 1203.74 2271.49 1224.42C2291.99 1245.11 2318.15 1255.44 2350.05 1255.44C2381.9 1255.44 2408.08 1245.11 2428.58 1224.44C2449.05 1203.76 2459.32 1177.34 2459.32 1145.17V834.877C2459.32 747.124 2428.68 672.455 2367.46 610.897C2306.2 549.326 2232.12 518.538 2145.16 518.538Z" fill="url(#paint11_linear_1_18225)"/>
</g>
<circle id="Oval" cx="297.7" cy="961.7" r="469.7" fill="url(#paint12_linear_1_18225)"/>
<g id="Fill 1 Copy 3_3">
<path fill-rule="evenodd" clip-rule="evenodd" d="M273.87 924.34C242.623 924.34 216.949 914.317 196.873 894.292C176.771 874.274 166.74 848.687 166.74 817.538V542.777C166.74 516.955 157.592 494.934 139.291 476.69C120.99 458.431 98.8972 449.322 73 449.322C47.1096 449.322 25.0036 458.431 6.70897 476.69C-11.5857 494.934 -20.7397 516.955 -20.7397 542.777V817.538C-20.7397 848.687 -30.7775 874.274 -50.88 894.292C-70.9487 914.317 -96.6233 924.34 -127.87 924.34C-159.116 924.34 -184.784 914.317 -204.866 894.292C-224.962 874.274 -235 848.7 -235 817.571V542.253C-235 457.276 -204.981 384.988 -144.937 325.37C-84.9126 265.759 -12.2535 235.96 73 235.96C158.253 235.96 230.913 265.759 290.93 325.37C350.988 384.988 381 457.276 381 542.253V817.571C381 848.7 370.962 874.274 350.86 894.292C330.791 914.317 305.116 924.34 273.87 924.34Z" fill="url(#paint13_linear_1_18225)"/>
<path fill-rule="evenodd" clip-rule="evenodd" d="M273.87 924.34C242.623 924.34 216.949 914.317 196.873 894.292C176.771 874.274 166.74 848.687 166.74 817.538V542.777C166.74 516.955 157.592 494.934 139.291 476.69C120.99 458.431 98.8972 449.322 73 449.322C47.1096 449.322 25.0036 458.431 6.70897 476.69C-11.5857 494.934 -20.7397 516.955 -20.7397 542.777V817.538C-20.7397 848.687 -30.7775 874.274 -50.88 894.292C-70.9487 914.317 -96.6233 924.34 -127.87 924.34C-159.116 924.34 -184.784 914.317 -204.866 894.292C-224.962 874.274 -235 848.7 -235 817.571V542.253C-235 457.276 -204.981 384.988 -144.937 325.37C-84.9126 265.759 -12.2535 235.96 73 235.96C158.253 235.96 230.913 265.759 290.93 325.37C350.988 384.988 381 457.276 381 542.253V817.571C381 848.7 370.962 874.274 350.86 894.292C330.791 914.317 305.116 924.34 273.87 924.34Z" fill="url(#paint14_linear_1_18225)"/>
</g>
</g>
<path id="Path 3" fill-rule="evenodd" clip-rule="evenodd" d="M0 663H2050L2049.98 1017H0V663Z" fill="url(#paint15_linear_1_18225)"/>
</g>
</g>
</g>
</g>
<defs>
<linearGradient id="paint0_linear_1_18225" x1="2591.82" y1="3778.76" x2="-301.592" y2="1587.72" gradientUnits="userSpaceOnUse">
<stop stop-color="#D3CBEC"/>
<stop offset="1" stop-color="white"/>
</linearGradient>
<linearGradient id="paint1_linear_1_18225" x1="1670.64" y1="754.207" x2="1264.65" y2="335.645" gradientUnits="userSpaceOnUse">
<stop stop-color="white" stop-opacity="0.01"/>
<stop offset="1" stop-color="white"/>
</linearGradient>
<linearGradient id="paint2_linear_1_18225" x1="1442.27" y1="1891.02" x2="2232.27" y2="491.439" gradientUnits="userSpaceOnUse">
<stop stop-color="#D3CBEC"/>
<stop offset="1" stop-color="white"/>
</linearGradient>
<linearGradient id="paint3_linear_1_18225" x1="1088.12" y1="819.078" x2="896.948" y2="846.684" gradientUnits="userSpaceOnUse">
<stop stop-color="#999DCF" stop-opacity="0.01"/>
<stop offset="1" stop-color="#999DCF"/>
</linearGradient>
<linearGradient id="paint4_linear_1_18225" x1="917.446" y1="195.049" x2="1339.85" y2="35.2794" gradientUnits="userSpaceOnUse">
<stop stop-color="white" stop-opacity="0.01"/>
<stop offset="1" stop-color="#FAFCFD"/>
</linearGradient>
<linearGradient id="paint5_linear_1_18225" x1="562.436" y1="1190.48" x2="1141.15" y2="760.021" gradientUnits="userSpaceOnUse">
<stop stop-color="#BABDE4"/>
<stop offset="1" stop-color="white"/>
</linearGradient>
<linearGradient id="paint6_linear_1_18225" x1="727.366" y1="1211.41" x2="522.192" y2="1223.03" gradientUnits="userSpaceOnUse">
<stop stop-color="#999DCF" stop-opacity="0.01"/>
<stop offset="1" stop-color="#999DCF"/>
</linearGradient>
<linearGradient id="paint7_linear_1_18225" x1="-507.943" y1="578.739" x2="315.24" y2="-8.94136" gradientUnits="userSpaceOnUse">
<stop stop-color="#EBDDF5"/>
<stop offset="1" stop-color="#F7F1FB"/>
</linearGradient>
<linearGradient id="paint8_linear_1_18225" x1="1619.43" y1="294.955" x2="1146.16" y2="686.764" gradientUnits="userSpaceOnUse">
<stop stop-color="#BABDE4"/>
<stop offset="0.511824" stop-color="#EBDDF5"/>
<stop offset="1" stop-color="#ECBACB"/>
</linearGradient>
<linearGradient id="paint9_linear_1_18225" x1="1563.08" y1="303.372" x2="1563.08" y2="577.853" gradientUnits="userSpaceOnUse">
<stop stop-color="white"/>
<stop offset="1" stop-color="white" stop-opacity="0.01"/>
</linearGradient>
<linearGradient id="paint10_linear_1_18225" x1="1656.06" y1="572.247" x2="2279.66" y2="916.913" gradientUnits="userSpaceOnUse">
<stop stop-color="#DEE0F3"/>
<stop offset="1" stop-color="#BABDE4"/>
</linearGradient>
<linearGradient id="paint11_linear_1_18225" x1="2034.56" y1="727.027" x2="1881.1" y2="987.829" gradientUnits="userSpaceOnUse">
<stop stop-color="#999DCF" stop-opacity="0.01"/>
<stop offset="1" stop-color="#999DCF"/>
<stop offset="1" stop-color="#999DCF"/>
</linearGradient>
<linearGradient id="paint12_linear_1_18225" x1="-49.7975" y1="197.76" x2="-638.277" y2="988.851" gradientUnits="userSpaceOnUse">
<stop stop-color="#EBDDF5"/>
<stop offset="1" stop-color="#ECBACB"/>
</linearGradient>
<linearGradient id="paint13_linear_1_18225" x1="-609.558" y1="353.423" x2="377.536" y2="-635.736" gradientUnits="userSpaceOnUse">
<stop stop-color="#D3CBEC"/>
<stop offset="1" stop-color="white"/>
</linearGradient>
<linearGradient id="paint14_linear_1_18225" x1="592.975" y1="463.886" x2="772.826" y2="1077.63" gradientUnits="userSpaceOnUse">
<stop stop-color="#172687" stop-opacity="0.01"/>
<stop offset="1" stop-color="#151A21"/>
</linearGradient>
<linearGradient id="paint15_linear_1_18225" x1="-2478.43" y1="-217.186" x2="-2467.46" y2="912.901" gradientUnits="userSpaceOnUse">
<stop stop-color="#ECBACB"/>
<stop offset="0.44753" stop-color="#EBDDF5"/>
<stop offset="1" stop-color="white"/>
</linearGradient>
<clipPath id="clip0_1_18225">
<rect width="2048" height="1014" fill="white"/>
</clipPath>
</defs>
</svg>
