<svg width="2048" height="1014" viewBox="0 0 2048 1014" fill="none" xmlns="http://www.w3.org/2000/svg">
<g id="Abstract_06a" clip-path="url(#clip0_1_18311)">
<rect width="2048" height="1014" fill="white"/>
<g id="Background_Abstract_06">
<rect id="Rectangle" width="2050" height="1014" fill="white"/>
<mask id="mask0_1_18311" style="mask-type:luminance" maskUnits="userSpaceOnUse" x="0" y="0" width="2050" height="1014">
<rect id="Rectangle_2" width="2050" height="1014" fill="white"/>
</mask>
<g mask="url(#mask0_1_18311)">
<g id="Group 6">
<rect id="Mask" width="2048" height="1014" fill="url(#paint0_linear_1_18311)"/>
<g id="Oval" filter="url(#filter0_f_1_18311)">
<circle cy="591" r="774" fill="url(#paint1_radial_1_18311)"/>
</g>
<g id="Oval_2" filter="url(#filter1_f_1_18311)">
<circle cx="1331" cy="286" r="507" fill="url(#paint2_radial_1_18311)"/>
</g>
<g id="Path 3 Copy 3">
<path fill-rule="evenodd" clip-rule="evenodd" d="M-2 667C-2 667 550.307 396.543 1300.42 564.346C2050.54 732.149 2047.98 348 2047.98 348V1014H-2V667Z" fill="url(#paint3_linear_1_18311)"/>
<path fill-rule="evenodd" clip-rule="evenodd" d="M-2 667C-2 667 550.307 396.543 1300.42 564.346C2050.54 732.149 2047.98 348 2047.98 348V1014H-2V667Z" fill="#F7F1FB"/>
</g>
<g id="Combined Shape">
<path d="M1199 64C1479.22 64 1708.16 283.539 1723.21 560H1724.23C1728.91 652.467 1805.37 726 1899 726C1992.63 726 2069.09 652.467 2073.77 560H2074V910H-26V484C-26 387.35 52.3502 309 149 309C245.65 309 324 387.35 324 484V560H324.228C328.912 652.467 405.369 726 499 726C592.631 726 669.088 652.467 673.772 560H674.79C689.841 283.539 918.781 64 1199 64Z" fill="url(#paint4_linear_1_18311)"/>
<path d="M1199 64C1479.22 64 1708.16 283.539 1723.21 560H1724.23C1728.91 652.467 1805.37 726 1899 726C1992.63 726 2069.09 652.467 2073.77 560H2074V910H-26V484C-26 387.35 52.3502 309 149 309C245.65 309 324 387.35 324 484V560H324.228C328.912 652.467 405.369 726 499 726C592.631 726 669.088 652.467 673.772 560H674.79C689.841 283.539 918.781 64 1199 64Z" fill="url(#paint5_linear_1_18311)"/>
</g>
<g id="Oval_3" filter="url(#filter2_f_1_18311)">
<circle cx="39.5" cy="1014.5" r="581.5" fill="url(#paint6_radial_1_18311)"/>
</g>
<rect id="Rectangle_3" width="2050" height="1014" fill="url(#paint7_linear_1_18311)"/>
</g>
<g id="Rectangle Copy 9">
<path fill-rule="evenodd" clip-rule="evenodd" d="M1802 410C1802 373.549 1772.45 344 1736 344C1699.55 344 1670 373.549 1670 410V724H1802V410Z" fill="#EBDDF5"/>
<path fill-rule="evenodd" clip-rule="evenodd" d="M1802 410C1802 373.549 1772.45 344 1736 344C1699.55 344 1670 373.549 1670 410V724H1802V410Z" fill="url(#paint8_linear_1_18311)"/>
<path fill-rule="evenodd" clip-rule="evenodd" d="M1802 410C1802 373.549 1772.45 344 1736 344C1699.55 344 1670 373.549 1670 410V724H1802V410Z" fill="url(#paint9_linear_1_18311)"/>
</g>
<g id="Rectangle Copy 11">
<path fill-rule="evenodd" clip-rule="evenodd" d="M300 658C300 613.817 264.183 578 220 578C175.817 578 140 613.817 140 658V724H300V658Z" fill="#EBDDF5"/>
<path fill-rule="evenodd" clip-rule="evenodd" d="M300 658C300 613.817 264.183 578 220 578C175.817 578 140 613.817 140 658V724H300V658Z" fill="url(#paint10_linear_1_18311)"/>
<path fill-rule="evenodd" clip-rule="evenodd" d="M300 658C300 613.817 264.183 578 220 578C175.817 578 140 613.817 140 658V724H300V658Z" fill="url(#paint11_linear_1_18311)"/>
</g>
<g id="Rectangle Copy 13">
<path fill-rule="evenodd" clip-rule="evenodd" d="M1897 658C1897 613.817 1861.18 578 1817 578C1772.82 578 1737 613.817 1737 658V724H1897V658Z" fill="#EBDDF5"/>
<path fill-rule="evenodd" clip-rule="evenodd" d="M1897 658C1897 613.817 1861.18 578 1817 578C1772.82 578 1737 613.817 1737 658V724H1897V658Z" fill="url(#paint12_linear_1_18311)"/>
<path fill-rule="evenodd" clip-rule="evenodd" d="M1897 658C1897 613.817 1861.18 578 1817 578C1772.82 578 1737 613.817 1737 658V724H1897V658Z" fill="url(#paint13_linear_1_18311)"/>
</g>
<rect id="Rectangle_4" width="2050" height="1014" fill="url(#paint14_linear_1_18311)"/>
</g>
</g>
</g>
<defs>
<filter id="filter0_f_1_18311" x="-909.914" y="-318.914" width="1819.83" height="1819.83" filterUnits="userSpaceOnUse" color-interpolation-filters="sRGB">
<feFlood flood-opacity="0" result="BackgroundImageFix"/>
<feBlend mode="normal" in="SourceGraphic" in2="BackgroundImageFix" result="shape"/>
<feGaussianBlur stdDeviation="67.957" result="effect1_foregroundBlur_1_18311"/>
</filter>
<filter id="filter1_f_1_18311" x="688.086" y="-356.914" width="1285.83" height="1285.83" filterUnits="userSpaceOnUse" color-interpolation-filters="sRGB">
<feFlood flood-opacity="0" result="BackgroundImageFix"/>
<feBlend mode="normal" in="SourceGraphic" in2="BackgroundImageFix" result="shape"/>
<feGaussianBlur stdDeviation="67.957" result="effect1_foregroundBlur_1_18311"/>
</filter>
<filter id="filter2_f_1_18311" x="-677.914" y="297.086" width="1434.83" height="1434.83" filterUnits="userSpaceOnUse" color-interpolation-filters="sRGB">
<feFlood flood-opacity="0" result="BackgroundImageFix"/>
<feBlend mode="normal" in="SourceGraphic" in2="BackgroundImageFix" result="shape"/>
<feGaussianBlur stdDeviation="67.957" result="effect1_foregroundBlur_1_18311"/>
</filter>
<linearGradient id="paint0_linear_1_18311" x1="-1097.88" y1="-561.922" x2="-1097.88" y2="1539.23" gradientUnits="userSpaceOnUse">
<stop stop-color="#9ED6EF"/>
<stop offset="0.498068" stop-color="white"/>
<stop offset="1" stop-color="white"/>
</linearGradient>
<radialGradient id="paint1_radial_1_18311" cx="0" cy="0" r="1" gradientUnits="userSpaceOnUse" gradientTransform="translate(1.69347e-06 591) rotate(-88.5421) scale(634.808)">
<stop stop-color="white" stop-opacity="0.7"/>
<stop offset="0.366949" stop-color="white" stop-opacity="0.5"/>
<stop offset="0.991715" stop-color="white" stop-opacity="0.5"/>
<stop offset="1" stop-color="white" stop-opacity="0.138358"/>
</radialGradient>
<radialGradient id="paint2_radial_1_18311" cx="0" cy="0" r="1" gradientUnits="userSpaceOnUse" gradientTransform="translate(1331 286) rotate(-88.5421) scale(415.824)">
<stop stop-color="white" stop-opacity="0.7"/>
<stop offset="0.366949" stop-color="white" stop-opacity="0.5"/>
<stop offset="0.991715" stop-color="white" stop-opacity="0.5"/>
<stop offset="1" stop-color="white" stop-opacity="0.138358"/>
</radialGradient>
<linearGradient id="paint3_linear_1_18311" x1="-2128" y1="-597.699" x2="-2149.45" y2="1334.11" gradientUnits="userSpaceOnUse">
<stop stop-color="#ECBACB"/>
<stop offset="0.44753" stop-color="#EBDDF5"/>
<stop offset="1" stop-color="white"/>
</linearGradient>
<linearGradient id="paint4_linear_1_18311" x1="415.279" y1="-636.509" x2="-232.221" y2="1335.24" gradientUnits="userSpaceOnUse">
<stop stop-color="#ECBACB"/>
<stop offset="0.488176" stop-color="#EBDDF5"/>
<stop offset="1" stop-color="#9ADBED"/>
<stop offset="1" stop-color="#9ADBED"/>
</linearGradient>
<linearGradient id="paint5_linear_1_18311" x1="2256.71" y1="421.246" x2="2110.22" y2="-185.395" gradientUnits="userSpaceOnUse">
<stop stop-color="white"/>
<stop offset="1" stop-color="white" stop-opacity="0.01"/>
</linearGradient>
<radialGradient id="paint6_radial_1_18311" cx="0" cy="0" r="1" gradientUnits="userSpaceOnUse" gradientTransform="translate(39.5 1014.5) rotate(-90) scale(489.173)">
<stop stop-color="white"/>
<stop offset="0.366949" stop-color="white" stop-opacity="0.729048"/>
<stop offset="1" stop-color="white" stop-opacity="0.5"/>
</radialGradient>
<linearGradient id="paint7_linear_1_18311" x1="610.236" y1="391.578" x2="610.236" y2="634.805" gradientUnits="userSpaceOnUse">
<stop stop-color="white" stop-opacity="0.01"/>
<stop offset="1" stop-color="white"/>
</linearGradient>
<linearGradient id="paint8_linear_1_18311" x1="1888.04" y1="365.691" x2="1705.2" y2="423.3" gradientUnits="userSpaceOnUse">
<stop stop-color="white"/>
<stop offset="1" stop-color="white" stop-opacity="0.01"/>
</linearGradient>
<linearGradient id="paint9_linear_1_18311" x1="1689.66" y1="419.805" x2="1813.56" y2="384.002" gradientUnits="userSpaceOnUse">
<stop stop-color="white"/>
<stop offset="1" stop-color="white" stop-opacity="0.01"/>
</linearGradient>
<linearGradient id="paint10_linear_1_18311" x1="485.703" y1="508.401" x2="339.975" y2="723.877" gradientUnits="userSpaceOnUse">
<stop stop-color="white"/>
<stop offset="1" stop-color="white" stop-opacity="0.01"/>
</linearGradient>
<linearGradient id="paint11_linear_1_18311" x1="162.694" y1="666.406" x2="220.79" y2="480.859" gradientUnits="userSpaceOnUse">
<stop stop-color="white"/>
<stop offset="1" stop-color="white" stop-opacity="0.01"/>
</linearGradient>
<linearGradient id="paint12_linear_1_18311" x1="2082.7" y1="508.401" x2="1936.97" y2="723.877" gradientUnits="userSpaceOnUse">
<stop stop-color="white"/>
<stop offset="1" stop-color="white" stop-opacity="0.01"/>
</linearGradient>
<linearGradient id="paint13_linear_1_18311" x1="1759.69" y1="666.406" x2="1817.79" y2="480.859" gradientUnits="userSpaceOnUse">
<stop stop-color="white"/>
<stop offset="1" stop-color="white" stop-opacity="0.01"/>
</linearGradient>
<linearGradient id="paint14_linear_1_18311" x1="764.122" y1="625.758" x2="764.122" y2="731.937" gradientUnits="userSpaceOnUse">
<stop stop-color="white" stop-opacity="0.01"/>
<stop offset="1" stop-color="white"/>
</linearGradient>
<clipPath id="clip0_1_18311">
<rect width="2048" height="1014" fill="white"/>
</clipPath>
</defs>
</svg>
