<svg width="2048" height="1014" viewBox="0 0 2048 1014" fill="none" xmlns="http://www.w3.org/2000/svg">
<g id="Abstract_04a" clip-path="url(#clip0_1_18242)">
<rect width="2048" height="1014" fill="white"/>
<g id="Background_Abstract_04">
<rect id="Rectangle" width="2050" height="1014" fill="white"/>
<mask id="mask0_1_18242" style="mask-type:luminance" maskUnits="userSpaceOnUse" x="0" y="0" width="2050" height="1014">
<rect id="Rectangle_2" width="2050" height="1014" fill="white"/>
</mask>
<g mask="url(#mask0_1_18242)">
<g id="Group">
<g id="Fill 1 Copy 6">
<path fill-rule="evenodd" clip-rule="evenodd" d="M1614.21 1489.52C1614.21 1489.52 1510.48 1471.27 1473.88 1434.8C1437.25 1398.35 1418.96 1351.78 1418.96 1295.09V793.728C1418.96 638.983 1473.67 507.345 1583.1 398.779C1692.5 290.225 1824.92 235.96 1980.29 235.96C2135.67 235.96 2268.09 290.225 2377.47 398.779C2486.92 507.345 2541.62 638.983 2541.62 793.728V1295.09C2541.62 1351.78 2523.33 1398.35 2486.69 1434.8C2450.11 1471.27 2346.38 1489.52 2346.38 1489.52C2289.43 1489.52 1614.21 1489.52 1614.21 1489.52Z" fill="url(#paint0_linear_1_18242)"/>
<path fill-rule="evenodd" clip-rule="evenodd" d="M1614.21 1489.52C1614.21 1489.52 1510.48 1471.27 1473.88 1434.8C1437.25 1398.35 1418.96 1351.78 1418.96 1295.09V793.728C1418.96 638.983 1473.67 507.345 1583.1 398.779C1692.5 290.225 1824.92 235.96 1980.29 235.96C2135.67 235.96 2268.09 290.225 2377.47 398.779C2486.92 507.345 2541.62 638.983 2541.62 793.728V1295.09C2541.62 1351.78 2523.33 1398.35 2486.69 1434.8C2450.11 1471.27 2346.38 1489.52 2346.38 1489.52C2289.43 1489.52 1614.21 1489.52 1614.21 1489.52Z" fill="url(#paint1_linear_1_18242)"/>
</g>
<circle id="Oval Copy 13" cx="1077.08" cy="905.94" r="401.94" fill="url(#paint2_linear_1_18242)"/>
<g id="Fill 1 Copy 3">
<path fill-rule="evenodd" clip-rule="evenodd" d="M1313.37 1086.79C1293.27 1066.77 1283.24 1041.19 1283.24 1010.04V488.877C1283.24 463.055 1274.09 441.034 1255.79 422.79C1237.49 404.531 1215.4 395.422 1189.5 395.422C1163.61 395.422 1141.5 404.531 1123.21 422.79C1104.91 441.034 1095.76 463.055 1095.76 488.877V1010.04C1095.76 1041.19 1085.72 1066.77 1065.62 1086.79C1045.55 1106.82 1019.88 1116.84 988.63 1116.84C957.384 1116.84 931.716 1106.82 911.634 1086.79C891.538 1066.77 881.5 1041.2 881.5 1010.07V488.353C881.5 403.376 911.519 331.089 971.563 271.47C1031.59 211.859 1104.25 182.06 1189.5 182.06C1274.75 182.06 1347.41 211.859 1407.43 271.47C1467.49 331.089 1497.5 403.376 1497.5 488.353V1010.07C1497.5 1041.2 1487.46 1066.77 1467.36 1086.79C1447.29 1106.82 1421.62 1116.84 1390.37 1116.84C1359.12 1116.84 1333.45 1106.82 1313.37 1086.79Z" fill="#EBDDF5"/>
<path fill-rule="evenodd" clip-rule="evenodd" d="M1313.37 1086.79C1293.27 1066.77 1283.24 1041.19 1283.24 1010.04V488.877C1283.24 463.055 1274.09 441.034 1255.79 422.79C1237.49 404.531 1215.4 395.422 1189.5 395.422C1163.61 395.422 1141.5 404.531 1123.21 422.79C1104.91 441.034 1095.76 463.055 1095.76 488.877V1010.04C1095.76 1041.19 1085.72 1066.77 1065.62 1086.79C1045.55 1106.82 1019.88 1116.84 988.63 1116.84C957.384 1116.84 931.716 1106.82 911.634 1086.79C891.538 1066.77 881.5 1041.2 881.5 1010.07V488.353C881.5 403.376 911.519 331.089 971.563 271.47C1031.59 211.859 1104.25 182.06 1189.5 182.06C1274.75 182.06 1347.41 211.859 1407.43 271.47C1467.49 331.089 1497.5 403.376 1497.5 488.353V1010.07C1497.5 1041.2 1487.46 1066.77 1467.36 1086.79C1447.29 1106.82 1421.62 1116.84 1390.37 1116.84C1359.12 1116.84 1333.45 1106.82 1313.37 1086.79Z" fill="url(#paint3_linear_1_18242)"/>
<path fill-rule="evenodd" clip-rule="evenodd" d="M1313.37 1086.79C1293.27 1066.77 1283.24 1041.19 1283.24 1010.04V488.877C1283.24 463.055 1274.09 441.034 1255.79 422.79C1237.49 404.531 1215.4 395.422 1189.5 395.422C1163.61 395.422 1141.5 404.531 1123.21 422.79C1104.91 441.034 1095.76 463.055 1095.76 488.877V1010.04C1095.76 1041.19 1085.72 1066.77 1065.62 1086.79C1045.55 1106.82 1019.88 1116.84 988.63 1116.84C957.384 1116.84 931.716 1106.82 911.634 1086.79C891.538 1066.77 881.5 1041.2 881.5 1010.07V488.353C881.5 403.376 911.519 331.089 971.563 271.47C1031.59 211.859 1104.25 182.06 1189.5 182.06C1274.75 182.06 1347.41 211.859 1407.43 271.47C1467.49 331.089 1497.5 403.376 1497.5 488.353V1010.07C1497.5 1041.2 1487.46 1066.77 1467.36 1086.79C1447.29 1106.82 1421.62 1116.84 1390.37 1116.84C1359.12 1116.84 1333.45 1106.82 1313.37 1086.79Z" fill="url(#paint4_linear_1_18242)"/>
</g>
<path id="Fill 3 Copy 2" fill-rule="evenodd" clip-rule="evenodd" d="M730.396 440.276C705.815 440.276 681.93 444.247 658.742 452.159V287.821C658.742 263.711 651.053 243.901 635.707 228.401C620.346 212.905 600.715 205.16 576.851 205.16C552.946 205.16 533.346 212.905 517.98 228.401C502.634 243.901 494.961 263.711 494.961 287.821V910.487C494.961 934.596 502.634 954.396 517.98 969.891C533.346 985.397 552.946 993.147 576.851 993.147C600.715 993.147 620.346 985.397 635.707 969.876C651.053 954.36 658.742 934.529 658.742 910.403V678.015C658.742 658.017 665.713 640.955 679.723 626.808C693.713 612.676 710.606 605.608 730.396 605.608C750.171 605.608 767.064 612.676 781.054 626.808C795.038 640.955 802.051 658.017 802.051 678.015V910.403C802.051 934.529 809.724 954.36 825.069 969.876C840.431 985.397 860.036 993.147 883.941 993.147C907.811 993.147 927.431 985.397 942.797 969.886C958.138 954.37 965.831 934.549 965.831 910.419V677.614C965.831 611.776 942.87 555.754 896.987 509.57C851.084 463.376 795.564 440.276 730.396 440.276Z" fill="url(#paint5_linear_1_18242)"/>
<g id="Fill 3 Copy 3">
<path fill-rule="evenodd" clip-rule="evenodd" d="M972 1845.94C972 1898.75 955.194 1942.14 921.651 1976.09C888.074 2010.04 845.164 2027 793 2027C740.746 2027 697.904 2010.04 664.315 1976.09C630.772 1942.14 614 1898.75 614 1845.94V482.06C614 429.25 630.772 385.88 664.315 351.94C697.904 317.976 740.746 301 793 301C845.164 301 888.074 317.976 921.651 351.974C955.194 385.96 972 429.398 972 482.242V1845.94Z" fill="#EBDDF5"/>
<path fill-rule="evenodd" clip-rule="evenodd" d="M972 1845.94C972 1898.75 955.194 1942.14 921.651 1976.09C888.074 2010.04 845.164 2027 793 2027C740.746 2027 697.904 2010.04 664.315 1976.09C630.772 1942.14 614 1898.75 614 1845.94V482.06C614 429.25 630.772 385.88 664.315 351.94C697.904 317.976 740.746 301 793 301C845.164 301 888.074 317.976 921.651 351.974C955.194 385.96 972 429.398 972 482.242V1845.94Z" fill="url(#paint6_linear_1_18242)"/>
</g>
<path id="Fill 1 Copy 3_2" fill-rule="evenodd" clip-rule="evenodd" d="M81.5767 144.788C96.8044 159.969 104.403 179.374 104.403 202.998V522.253C104.403 541.837 111.332 558.536 125.195 572.373C139.059 586.22 155.794 593.128 175.411 593.128C195.023 593.128 211.768 586.22 225.626 572.373C239.484 558.536 246.419 541.837 246.419 522.253V202.998C246.419 179.374 254.022 159.969 269.25 144.788C284.452 129.601 303.9 122 327.57 122C351.239 122 370.682 129.601 385.895 144.788C401.117 159.969 408.721 179.364 408.721 202.972V411.771C408.721 476.216 408.721 791.9 408.721 791.9H-57.8993C-57.8993 791.9 -57.8993 470.452 -57.8993 411.771V202.972C-57.8993 179.364 -50.2957 159.969 -35.0681 144.788C-19.866 129.601 -0.417511 122 23.2518 122C46.9211 122 66.3695 129.601 81.5767 144.788Z" fill="url(#paint7_linear_1_18242)"/>
<g id="Oval Copy">
<circle cx="1647.38" cy="862.38" r="380.38" fill="url(#paint8_linear_1_18242)"/>
<circle cx="1647.38" cy="862.38" r="380.38" fill="url(#paint9_linear_1_18242)"/>
</g>
<g id="Fill 3 Copy 4">
<path fill-rule="evenodd" clip-rule="evenodd" d="M2145.16 518.538C2112.36 518.538 2080.49 523.831 2049.55 534.376V315.336C2049.55 283.201 2039.29 256.797 2018.81 236.136C1998.31 215.483 1972.12 205.16 1940.27 205.16C1908.37 205.16 1882.22 215.483 1861.72 236.136C1841.24 256.797 1831 283.201 1831 315.336V1145.26C1831 1177.4 1841.24 1203.79 1861.72 1224.44C1882.22 1245.11 1908.37 1255.44 1940.27 1255.44C1972.12 1255.44 1998.31 1245.11 2018.81 1224.42C2039.29 1203.74 2049.55 1177.31 2049.55 1145.15V835.411C2049.55 808.757 2058.85 786.016 2077.54 767.159C2096.21 748.324 2118.75 738.903 2145.16 738.903C2171.55 738.903 2194.09 748.324 2212.76 767.159C2231.42 786.016 2240.77 808.757 2240.77 835.411V1145.15C2240.77 1177.31 2251.01 1203.74 2271.49 1224.42C2291.99 1245.11 2318.15 1255.44 2350.05 1255.44C2381.9 1255.44 2408.08 1245.11 2428.58 1224.44C2449.05 1203.76 2459.32 1177.34 2459.32 1145.17V834.877C2459.32 747.124 2428.68 672.455 2367.46 610.897C2306.2 549.326 2232.12 518.538 2145.16 518.538Z" fill="url(#paint10_linear_1_18242)"/>
<path fill-rule="evenodd" clip-rule="evenodd" d="M2145.16 518.538C2112.36 518.538 2080.49 523.831 2049.55 534.376V315.336C2049.55 283.201 2039.29 256.797 2018.81 236.136C1998.31 215.483 1972.12 205.16 1940.27 205.16C1908.37 205.16 1882.22 215.483 1861.72 236.136C1841.24 256.797 1831 283.201 1831 315.336V1145.26C1831 1177.4 1841.24 1203.79 1861.72 1224.44C1882.22 1245.11 1908.37 1255.44 1940.27 1255.44C1972.12 1255.44 1998.31 1245.11 2018.81 1224.42C2039.29 1203.74 2049.55 1177.31 2049.55 1145.15V835.411C2049.55 808.757 2058.85 786.016 2077.54 767.159C2096.21 748.324 2118.75 738.903 2145.16 738.903C2171.55 738.903 2194.09 748.324 2212.76 767.159C2231.42 786.016 2240.77 808.757 2240.77 835.411V1145.15C2240.77 1177.31 2251.01 1203.74 2271.49 1224.42C2291.99 1245.11 2318.15 1255.44 2350.05 1255.44C2381.9 1255.44 2408.08 1245.11 2428.58 1224.44C2449.05 1203.76 2459.32 1177.34 2459.32 1145.17V834.877C2459.32 747.124 2428.68 672.455 2367.46 610.897C2306.2 549.326 2232.12 518.538 2145.16 518.538Z" fill="url(#paint11_linear_1_18242)"/>
</g>
<circle id="Oval" cx="297.7" cy="961.7" r="469.7" fill="url(#paint12_linear_1_18242)"/>
<g id="Fill 1 Copy 3_3">
<path fill-rule="evenodd" clip-rule="evenodd" d="M273.87 924.34C242.623 924.34 216.949 914.317 196.873 894.292C176.771 874.274 166.74 848.687 166.74 817.538V542.777C166.74 516.955 157.592 494.934 139.291 476.69C120.99 458.431 98.8972 449.322 73 449.322C47.1096 449.322 25.0036 458.431 6.70897 476.69C-11.5857 494.934 -20.7397 516.955 -20.7397 542.777V817.538C-20.7397 848.687 -30.7775 874.274 -50.88 894.292C-70.9487 914.317 -96.6233 924.34 -127.87 924.34C-159.116 924.34 -184.784 914.317 -204.866 894.292C-224.962 874.274 -235 848.7 -235 817.571V542.253C-235 457.276 -204.981 384.988 -144.937 325.37C-84.9126 265.759 -12.2535 235.96 73 235.96C158.253 235.96 230.913 265.759 290.93 325.37C350.988 384.988 381 457.276 381 542.253V817.571C381 848.7 370.962 874.274 350.86 894.292C330.791 914.317 305.116 924.34 273.87 924.34Z" fill="url(#paint13_linear_1_18242)"/>
<path fill-rule="evenodd" clip-rule="evenodd" d="M273.87 924.34C242.623 924.34 216.949 914.317 196.873 894.292C176.771 874.274 166.74 848.687 166.74 817.538V542.777C166.74 516.955 157.592 494.934 139.291 476.69C120.99 458.431 98.8972 449.322 73 449.322C47.1096 449.322 25.0036 458.431 6.70897 476.69C-11.5857 494.934 -20.7397 516.955 -20.7397 542.777V817.538C-20.7397 848.687 -30.7775 874.274 -50.88 894.292C-70.9487 914.317 -96.6233 924.34 -127.87 924.34C-159.116 924.34 -184.784 914.317 -204.866 894.292C-224.962 874.274 -235 848.7 -235 817.571V542.253C-235 457.276 -204.981 384.988 -144.937 325.37C-84.9126 265.759 -12.2535 235.96 73 235.96C158.253 235.96 230.913 265.759 290.93 325.37C350.988 384.988 381 457.276 381 542.253V817.571C381 848.7 370.962 874.274 350.86 894.292C330.791 914.317 305.116 924.34 273.87 924.34Z" fill="url(#paint14_linear_1_18242)"/>
</g>
</g>
<g id="Combined Shape">
<path id="Mask" fill-rule="evenodd" clip-rule="evenodd" d="M0 879H2048V1014H0V879Z" fill="url(#paint15_linear_1_18242)"/>
<mask id="mask1_1_18242" style="mask-type:luminance" maskUnits="userSpaceOnUse" x="0" y="879" width="2048" height="135">
<path id="Mask_2" fill-rule="evenodd" clip-rule="evenodd" d="M0 879H2048V1014H0V879Z" fill="white"/>
</mask>
<g mask="url(#mask1_1_18242)">
<path id="Combined Shape_2" d="M2048 875L2048 873H2048V875ZM2050 877H2052V876.999L2050 877ZM2048 879V881H2048L2048 879ZM1365.36 879V877L1365.33 880.999L1365.36 879ZM2048.02 887L2048.05 885L2048.05 885L2048.02 887ZM2050 889.023L2052 889.046V889.046L2050 889.023ZM2047.98 891L2047.95 892.999L2047.95 892.999L2047.98 891ZM1396.43 883.364L1396.45 881.364L1396.39 885.363L1396.43 883.364ZM2048.05 898L2048.09 896.001L2048.09 896.001L2048.05 898ZM2050 900.044L2052 900.089V900.089L2050 900.044ZM2047.96 901.999L2047.91 903.998L2047.91 903.998L2047.96 901.999ZM1316.69 885.573L1316.74 883.573L1316.62 887.571L1316.69 885.573ZM2048.07 912L2048.15 910.002L2048.15 910.002L2048.07 912ZM2050 914.072L2052 914.144V914.144L2050 914.072ZM2047.93 915.999L2047.86 917.997L2047.86 917.997L2047.93 915.999ZM1251.82 887.233L1251.9 885.234L1251.72 889.23L1251.82 887.233ZM2048.11 930.002L2048.22 928.005L2048.22 928.005L2048.11 930.002ZM2050 932.107L2052 932.214V932.214L2050 932.107ZM2047.89 933.997L2047.79 935.994L2047.79 935.994L2047.89 933.997ZM1219.46 889.5L1219.57 887.503L1219.32 891.495L1219.46 889.5ZM2048.15 951.005L2048.3 949.011L2048.3 949.011L2048.15 951.005ZM2050 953.148L2051.99 953.296L2051.99 953.296L2050 953.148ZM2047.85 954.994L2047.7 956.988L2047.7 956.988L2047.85 954.994ZM1229.53 894.258L1229.68 892.264L1229.35 896.25L1229.53 894.258ZM2048.19 971.008L2048.37 969.017L2048.37 969.017L2048.19 971.008ZM2049.99 973.186L2051.98 973.373V973.372L2049.99 973.186ZM2047.81 974.991L2047.63 976.982L2047.63 976.982L2047.81 974.991ZM1195.64 895.099L1195.82 893.108L1195.4 897.086L1195.64 895.099ZM2048.23 995.013L2048.47 993.027L2048.47 993.027L2048.23 995.013ZM2049.99 997.232L2051.97 997.465L2051.97 997.464L2049.99 997.232ZM2047.77 998.986L2047.54 1000.97L2047.54 1000.97L2047.77 998.986ZM1166.48 895.709L1166.72 893.723L1166.2 897.689L1166.48 895.709ZM2048.29 1024.02L2048.58 1022.04L2048.58 1022.04L2048.29 1024.02ZM2049.98 1026.29L2051.96 1026.58V1026.58L2049.98 1026.29ZM2047.71 1027.98L2047.42 1029.96L2047.43 1029.96L2047.71 1027.98ZM1150.3 897.398L1150.59 895.419L1149.95 899.367L1150.3 897.398ZM1863.35 1024.03L1863.7 1022.06L1863.7 1022.06L1863.35 1024.03ZM1864.97 1026.35L1866.94 1026.7V1026.7L1864.97 1026.35ZM1862.65 1027.97L1862.3 1029.94L1862.3 1029.94L1862.65 1027.97ZM1155.04 902.3L1155.39 900.331L1154.63 904.258L1155.04 902.3ZM1738.41 1024.04L1738.82 1022.08L1738.82 1022.08L1738.41 1024.04ZM1739.96 1026.41L1741.92 1026.82L1741.92 1026.82L1739.96 1026.41ZM1737.59 1027.96L1737.18 1029.92L1737.18 1029.92L1737.59 1027.96ZM1129.71 901.102L1130.12 899.144L1129.23 903.043L1129.71 901.102ZM1626.48 1024.06L1626.96 1022.12L1626.96 1022.12L1626.48 1024.06ZM1627.94 1026.48L1629.88 1026.96L1629.88 1026.96L1627.94 1026.48ZM1625.52 1027.94L1625.04 1029.88L1625.04 1029.88L1625.52 1027.94ZM1110.15 900.381L1110.63 898.44L1109.58 902.299L1110.15 900.381ZM1528.57 1024.08L1529.14 1022.16L1529.14 1022.16L1528.57 1024.08ZM1529.92 1026.57L1531.84 1027.13L1531.84 1027.13L1529.92 1026.57ZM1527.43 1027.92L1526.87 1029.84L1526.87 1029.84L1527.43 1027.92ZM1109.27 904.292L1109.83 902.375L1108.62 906.183L1109.27 904.292ZM1456.65 1024.11L1457.31 1022.22L1457.31 1022.22L1456.65 1024.11ZM1457.89 1026.65L1459.78 1027.3L1459.78 1027.3L1457.89 1026.65ZM1455.35 1027.89L1454.7 1029.78L1454.7 1029.78L1455.35 1027.89ZM1083.11 899.501L1083.76 897.611L1082.34 901.347L1083.11 899.501ZM1381.77 1024.15L1382.54 1022.31L1382.54 1022.31L1381.77 1024.15ZM1382.85 1026.77L1384.69 1027.54L1384.69 1027.54L1382.85 1026.77ZM1380.23 1027.85L1379.46 1029.69L1379.46 1029.69L1380.23 1027.85ZM1080.65 902.809L1081.42 900.963L1079.76 904.601L1080.65 902.809ZM1325.89 1024.21L1326.78 1022.42L1326.78 1022.42L1325.89 1024.21ZM1326.79 1026.89L1328.59 1027.77L1328.59 1027.77L1326.79 1026.89ZM1324.11 1027.79L1323.23 1029.58L1323.23 1029.58L1324.11 1027.79ZM1089.28 911.542L1090.16 909.75L1088.29 913.284L1089.28 911.542ZM1288.98 1024.26L1289.97 1022.52L1289.97 1022.52L1288.98 1024.26ZM1289.74 1026.98L1291.48 1027.97L1291.49 1027.97L1289.74 1026.98ZM1287.02 1027.74L1286.03 1029.48L1286.03 1029.48L1287.02 1027.74ZM1070.62 905.609L1071.61 903.867L1069.51 907.274L1070.62 905.609ZM1249.11 1024.33L1250.22 1022.67L1250.22 1022.67L1249.11 1024.33ZM1249.67 1027.11L1251.33 1028.21L1251.33 1028.21L1249.67 1027.11ZM1246.89 1027.66L1245.79 1029.33L1245.79 1029.33L1246.89 1027.66ZM1068.5 909.002L1069.61 907.337L1067.28 910.582L1068.5 909.002ZM1217.23 1024.42L1218.45 1022.84L1218.45 1022.84L1217.23 1024.42ZM1217.58 1027.23L1219.16 1028.45L1219.16 1028.45L1217.58 1027.23ZM1214.77 1027.58L1213.55 1029.16L1213.55 1029.16L1214.77 1027.58ZM1057.92 905.858L1059.15 904.278L1056.56 907.322L1057.92 905.858ZM1185.36 1024.54L1186.73 1023.07L1186.73 1023.07L1185.36 1024.54ZM1185.46 1027.36L1186.93 1028.73L1186.93 1028.73L1185.46 1027.36ZM1182.64 1027.46L1181.27 1028.93L1181.27 1028.93L1182.64 1027.46ZM1048.92 902.943L1050.29 901.479L1047.41 904.246L1048.92 902.943ZM1153.52 1024.7L1155.03 1023.39V1023.39L1153.52 1024.7ZM1153.3 1027.52L1154.61 1029.03L1154.61 1029.03L1153.3 1027.52ZM1150.48 1027.3L1148.97 1028.61L1148.97 1028.61L1150.48 1027.3ZM1041.43 900.355L1042.94 899.052L1039.75 901.438L1041.43 900.355ZM1121.68 1024.92L1123.36 1023.83L1123.36 1023.83L1121.68 1024.92ZM1121.08 1027.68L1122.17 1029.36L1122.17 1029.36L1121.08 1027.68ZM1118.32 1027.08L1120 1026V1026L1118.32 1027.08ZM1035.29 898.214L1036.97 897.131L1033.45 899.004L1035.29 898.214ZM1089.84 1025.21L1091.68 1024.42L1091.68 1024.42L1089.84 1025.21ZM1088.79 1027.84L1089.58 1029.68L1089.58 1029.67L1088.79 1027.84ZM1086.16 1026.79L1088 1026V1026L1086.16 1026.79ZM1030.27 896.658L1032.11 895.868L1028.31 897.078L1030.27 896.658ZM1057.96 1025.58L1059.91 1025.16V1025.16L1057.96 1025.58ZM1056.42 1027.95L1056.84 1029.91L1056.84 1029.91L1056.42 1027.95ZM1054.05 1026.42L1052.09 1026.84V1026.84L1054.05 1026.42ZM1026 895.834L1027.96 895.415L1024 895.834H1026ZM1024.21 1028.44L1024.41 1030.43L1024.21 1028.44ZM1024 1028.45V1030.45H1024L1024 1028.45ZM1023.8 1028.44L1024 1026.45L1023.8 1028.44ZM1022 895.834H1024L1020.05 895.415L1022 895.834ZM993.956 1026.42L995.911 1026.84V1026.84L993.956 1026.42ZM991.581 1027.95L991.161 1029.91L991.161 1029.91L991.581 1027.95ZM990.046 1025.58L992.001 1026L992.001 1026L990.046 1025.58ZM1017.73 896.661L1019.69 897.081L1015.89 895.871L1017.73 896.661ZM961.839 1026.79L963.677 1027.58V1027.58L961.839 1026.79ZM959.212 1027.84L958.423 1029.68L958.423 1029.68L959.212 1027.84ZM958.163 1025.21L956.325 1024.42L956.325 1024.42L958.163 1025.21ZM1012.71 898.213L1014.55 899.003L1011.03 897.13L1012.71 898.213ZM929.683 1027.08L931.364 1028.17V1028.17L929.683 1027.08ZM926.918 1027.68L925.835 1029.36L925.835 1029.36L926.918 1027.68ZM926.319 1024.92L924.638 1023.83L924.638 1023.83L926.319 1024.92ZM1006.57 900.355L1008.25 901.438L1005.06 899.052L1006.57 900.355ZM897.518 1027.3L899.034 1028.61L899.035 1028.61L897.518 1027.3ZM894.697 1027.52L893.393 1029.03L893.394 1029.03L894.697 1027.52ZM894.484 1024.7L896.001 1026V1026L894.484 1024.7ZM999.07 902.949L1000.59 904.252L997.707 901.485L999.07 902.949ZM865.364 1027.46L864.001 1026V1026L865.364 1027.46ZM862.537 1027.36L861.073 1028.73L861.074 1028.73L862.537 1027.36ZM862.638 1024.54L861.275 1023.07V1023.07L862.638 1024.54ZM990.071 905.862L991.434 907.325L988.845 904.282L990.071 905.862ZM833.228 1027.58L832.001 1026V1026L833.228 1027.58ZM830.421 1027.23L828.841 1028.45L828.841 1028.45L830.421 1027.23ZM830.774 1024.42L829.548 1022.84L829.548 1022.84L830.774 1024.42ZM979.49 909.007L980.716 910.587L978.383 907.342L979.49 909.007ZM801.108 1027.66L802.216 1029.33L802.216 1029.33L801.108 1027.66ZM798.336 1027.11L796.671 1028.21L796.671 1028.21L798.336 1027.11ZM798.894 1024.33L800.001 1026L800.001 1026L798.894 1024.33ZM977.361 905.62L978.469 907.285L976.378 903.878L977.361 905.62ZM760.984 1027.74L761.967 1029.48V1029.48L760.984 1027.74ZM758.259 1026.98L756.517 1027.97L756.517 1027.97L758.259 1026.98ZM759.018 1024.26L758.035 1022.52L758.034 1022.52L759.018 1024.26ZM958.737 911.536L959.72 913.277L957.85 909.743L958.737 911.536ZM723.889 1027.79L724.776 1029.58V1029.58L723.889 1027.79ZM721.209 1026.89L719.417 1027.77L719.417 1027.77L721.209 1026.89ZM722.113 1024.21L721.226 1022.42L721.226 1022.42L722.113 1024.21ZM967.354 902.809L968.242 904.601L966.584 900.963L967.354 902.809ZM667.771 1027.85L667.001 1026V1026L667.771 1027.85ZM665.155 1026.77L663.31 1027.54L663.31 1027.54L665.155 1026.77ZM666.23 1024.15L665.46 1022.31L665.46 1022.31L666.23 1024.15ZM964.88 899.506L965.65 901.352L964.228 897.616L964.88 899.506ZM592.653 1027.89L593.305 1029.78V1029.78L592.653 1027.89ZM590.11 1026.65L588.22 1027.3L588.22 1027.3L590.11 1026.65ZM591.349 1024.11L590.697 1022.22L590.696 1022.22L591.349 1024.11ZM938.728 904.294L939.38 906.185L938.161 902.376L938.728 904.294ZM520.568 1027.92L521.135 1029.84V1029.84L520.568 1027.92ZM518.083 1026.57L516.165 1027.13L516.165 1027.13L518.083 1026.57ZM519.434 1024.08L518.867 1022.16L518.866 1022.16L519.434 1024.08ZM937.847 900.383L938.414 902.301L937.366 898.442L937.847 900.383ZM422.481 1027.94L422.962 1029.88L422.962 1029.88L422.481 1027.94ZM420.06 1026.48L418.118 1026.96L418.118 1026.96L420.06 1026.48ZM421.521 1024.06L422.001 1026V1026L421.521 1024.06ZM918.289 901.102L918.77 903.043L917.88 899.144L918.289 901.102ZM310.409 1027.96L310.817 1029.92L310.818 1029.92L310.409 1027.96ZM308.043 1026.41L306.085 1026.82L306.085 1026.82L308.043 1026.41ZM309.593 1024.04L310.001 1026V1026L309.593 1024.04ZM892.95 902.303L893.359 904.261L892.6 900.334L892.95 902.303ZM185.351 1027.97L185.7 1029.94L185.7 1029.94L185.351 1027.97ZM183.032 1026.35L181.063 1026.7L181.063 1026.7L183.032 1026.35ZM184.651 1024.03L184.302 1022.06L184.302 1022.06L184.651 1024.03ZM897.688 897.4L898.037 899.369L897.4 895.421L897.688 897.4ZM0.289062 1027.98L0.577045 1029.96H0.577047L0.289062 1027.98ZM-1.97852 1026.29L-3.95771 1026.58L-3.95766 1026.58L-1.97852 1026.29ZM-0.287109 1024.02L-0.575094 1022.04L-0.575162 1022.04L-0.287109 1024.02ZM881.508 895.711L881.796 897.691L881.275 893.725L881.508 895.711ZM0.233398 998.986L0.465841 1000.97L0.466181 1000.97L0.233398 998.986ZM-1.98535 997.232L-3.97184 997.464L-3.97174 997.465L-1.98535 997.232ZM-0.231445 995.013L-0.46423 993.027H-0.464232L-0.231445 995.013ZM852.36 895.099L852.593 897.086L852.174 893.108L852.36 895.099ZM0.1875 974.991L0.373992 976.982L0.374182 976.982L0.1875 974.991ZM-1.99023 973.186L-3.98154 973.372L-3.98152 973.373L-1.99023 973.186ZM-0.185547 971.008L-0.372231 969.017L-0.372235 969.017L-0.185547 971.008ZM818.471 894.258L818.657 896.25L818.323 892.264L818.471 894.258ZM0.149414 954.994L0.00138235 952.999H0.00137544L0.149414 954.994ZM-1.99316 953.148L-3.9877 953.296L-3.98764 953.296L-1.99316 953.148ZM-0.147461 951.005L-0.295492 949.011L-0.295891 949.011L-0.147461 951.005ZM828.559 889.5L828.707 891.494L828.451 887.502L828.559 889.5ZM0.108398 933.997L0.00113058 931.999H0.00112963L0.108398 933.997ZM-1.99609 932.107L-3.99322 932.214L-3.99321 932.214L-1.99609 932.107ZM-0.106445 930.002L-0.213715 928.005L-0.213842 928.005L-0.106445 930.002ZM796.187 887.232L796.294 889.229L796.114 885.233L796.187 887.232ZM0.0732422 915.999L0.00102162 914H0.00101948L0.0732422 915.999ZM-1.99805 914.072L-3.99675 914.144L-3.99675 914.144L-1.99805 914.072ZM-0.0712891 912L-0.143508 910.002H-0.143516L-0.0712891 912ZM731.303 885.574L731.375 887.572L731.258 883.574L731.303 885.574ZM0.0458984 901.999L0.00098753 899.999H0.000986576L0.0458984 901.999ZM-1.99902 900.044L-3.99853 900.089L-3.99852 900.089L-1.99902 900.044ZM-0.0439453 898L-0.0888585 896.001L-0.088871 896.001L-0.0439453 898ZM651.57 883.364L651.615 885.363L651.547 881.364L651.57 883.364ZM0.0244141 891L0.0478485 892.999H0.0478513L0.0244141 891ZM-1.99902 889.023L-3.99889 889.046L-3.99889 889.046L-1.99902 889.023ZM-0.0224609 887L0.000974894 888.999H0.000975132L-0.0224609 887ZM682.639 879L682.662 880.999L682.639 877V879ZM-1.99902 877L-3.99902 876.999V877H-1.99902ZM2048 875L2048 877L2048 877L2050 877L2052 876.999C2052 874.791 2050.21 873 2048 873L2048 875ZM2050 877H2048H2048L2048 879L2048 881C2050.21 880.999 2052 879.209 2052 877H2050ZM2048 879V877H1365.36V879V881H2048V879ZM1365.36 879L1365.33 880.999L2048 888.999L2048.02 887L2048.05 885L1365.38 877L1365.36 879ZM2048.02 887L2048 888.999L2048 889L2050 889.023L2052 889.046C2052.03 886.838 2050.26 885.026 2048.05 885L2048.02 887ZM2050 889.023L2048 889L2048 889L2047.98 891L2047.95 892.999C2050.16 893.025 2051.97 891.256 2052 889.046L2050 889.023ZM2047.98 891L2048 889L1396.45 881.364L1396.43 883.364L1396.41 885.364L2047.95 892.999L2047.98 891ZM1396.43 883.364L1396.39 885.363L2048 900L2048.05 898L2048.09 896.001L1396.48 881.364L1396.43 883.364ZM2048.05 898L2048 900L2048 900L2050 900.044L2052 900.089C2052.05 897.88 2050.3 896.051 2048.09 896.001L2048.05 898ZM2050 900.044L2048 900C2048 900.002 2048 900.002 2048 900.001C2048 900 2048 899.999 2048 899.998C2048 899.996 2048 899.997 2048 899.999C2048 900 2048 900 2048 900C2048 899.999 2048 899.999 2048 899.999C2048 899.999 2048 899.999 2048 899.999L2047.96 901.999L2047.91 903.998C2050.12 904.047 2051.95 902.3 2052 900.089L2050 900.044ZM2047.96 901.999L2048 899.999L1316.74 883.573L1316.69 885.573L1316.65 887.572L2047.91 903.998L2047.96 901.999ZM1316.69 885.573L1316.62 887.571L2048 913.999L2048.07 912L2048.15 910.002L1316.77 883.574L1316.69 885.573ZM2048.07 912L2048 913.999C2048 913.999 2048 913.999 2048 913.999C2048 913.999 2048 913.999 2048 913.998C2048 913.998 2048 913.998 2048 914C2048 914.001 2048 914.002 2048 914.001C2048 914 2048 913.999 2048 913.998C2048 913.997 2048 913.997 2048 914L2050 914.072L2052 914.144C2052.08 911.936 2050.35 910.082 2048.15 910.002L2048.07 912ZM2050 914.072L2048 914L2048 914L2047.93 915.999L2047.86 917.997C2050.06 918.076 2051.92 916.352 2052 914.144L2050 914.072ZM2047.93 915.999L2048 914L1251.9 885.234L1251.82 887.233L1251.75 889.232L2047.86 917.997L2047.93 915.999ZM1251.82 887.233L1251.72 889.23L2048 932L2048.11 930.002L2048.22 928.005L1251.93 885.236L1251.82 887.233ZM2048.11 930.002L2048 932L2048 932L2050 932.107L2052 932.214C2052.11 930.009 2050.42 928.124 2048.22 928.005L2048.11 930.002ZM2050 932.107L2048 932L2048 931.999L2047.89 933.997L2047.79 935.994C2049.99 936.112 2051.88 934.421 2052 932.214L2050 932.107ZM2047.89 933.997L2048 931.999L1219.57 887.503L1219.46 889.5L1219.36 891.498L2047.79 935.994L2047.89 933.997ZM1219.46 889.5L1219.32 891.495L2048 953L2048.15 951.005L2048.3 949.011L1219.61 887.506L1219.46 889.5ZM2048.15 951.005L2048 953V953L2050 953.148L2051.99 953.296C2052.15 951.094 2050.5 949.175 2048.3 949.011L2048.15 951.005ZM2050 953.148L2048 952.999L2048 952.999L2047.85 954.994L2047.7 956.988C2049.91 957.151 2051.83 955.5 2051.99 953.296L2050 953.148ZM2047.85 954.994L2048 952.999L1229.68 892.264L1229.53 894.258L1229.39 896.253L2047.7 956.988L2047.85 954.994ZM1229.53 894.258L1229.35 896.25L2048 973L2048.19 971.008L2048.37 969.017L1229.72 892.267L1229.53 894.258ZM2048.19 971.008L2048 973L2048 973L2049.99 973.186L2051.98 973.372C2052.19 971.173 2050.57 969.224 2048.37 969.017L2048.19 971.008ZM2049.99 973.186L2048 972.999L2048 972.999L2047.81 974.991L2047.63 976.982C2049.83 977.187 2051.78 975.572 2051.98 973.373L2049.99 973.186ZM2047.81 974.991L2048 972.999L1195.82 893.108L1195.64 895.099L1195.45 897.09L2047.63 976.982L2047.81 974.991ZM1195.64 895.099L1195.4 897.086L2048 997L2048.23 995.013L2048.47 993.027L1195.87 893.113L1195.64 895.099ZM2048.23 995.013L2048 997L2048 997L2049.99 997.232L2051.97 997.464C2052.23 995.27 2050.66 993.284 2048.47 993.027L2048.23 995.013ZM2049.99 997.232L2048 996.999L2048 996.999L2047.77 998.986L2047.54 1000.97C2049.73 1001.23 2051.72 999.658 2051.97 997.465L2049.99 997.232ZM2047.77 998.986L2048 996.999L1166.72 893.723L1166.48 895.709L1166.25 897.696L2047.54 1000.97L2047.77 998.986ZM1166.48 895.709L1166.2 897.689L2048 1026L2048.29 1024.02L2048.58 1022.04L1166.77 893.73L1166.48 895.709ZM2048.29 1024.02L2048 1026C2048 1026 2048 1026 2048 1026C2048 1026 2048 1026 2048 1026C2048 1026 2048 1026 2048 1026C2048 1026 2048 1026 2048 1026C2048 1026 2048 1026 2048 1026C2048 1026 2048 1026 2048 1026L2049.98 1026.29L2051.96 1026.58C2052.28 1024.39 2050.76 1022.36 2048.58 1022.04L2048.29 1024.02ZM2049.98 1026.29L2048 1026L2048 1026L2047.71 1027.98L2047.43 1029.96C2049.61 1030.28 2051.64 1028.76 2051.96 1026.58L2049.98 1026.29ZM2047.71 1027.98L2048 1026L1150.59 895.419L1150.3 897.398L1150.01 899.377L2047.42 1029.96L2047.71 1027.98ZM1150.3 897.398L1149.95 899.367L1863 1026L1863.35 1024.03L1863.7 1022.06L1150.65 895.429L1150.3 897.398ZM1863.35 1024.03L1863 1026V1026L1864.97 1026.35L1866.94 1026.7C1867.32 1024.52 1865.87 1022.45 1863.7 1022.06L1863.35 1024.03ZM1864.97 1026.35L1863 1026L1863 1026L1862.65 1027.97L1862.3 1029.94C1864.48 1030.32 1866.55 1028.87 1866.94 1026.7L1864.97 1026.35ZM1862.65 1027.97L1863 1026L1155.39 900.331L1155.04 902.3L1154.69 904.269L1862.3 1029.94L1862.65 1027.97ZM1155.04 902.3L1154.63 904.258L1738 1026L1738.41 1024.04L1738.82 1022.08L1155.44 900.342L1155.04 902.3ZM1738.41 1024.04L1738 1026C1738 1026 1738 1026 1738 1026C1738 1026 1738 1026 1738 1026C1738 1026 1738 1026 1738 1026C1738 1026 1738 1026 1738 1026C1738 1026 1738 1026 1738 1026C1738 1026 1738 1026 1738 1026L1739.96 1026.41L1741.92 1026.82C1742.37 1024.65 1740.98 1022.54 1738.82 1022.08L1738.41 1024.04ZM1739.96 1026.41L1738 1026L1738 1026L1737.59 1027.96L1737.18 1029.92C1739.35 1030.37 1741.47 1028.98 1741.92 1026.82L1739.96 1026.41ZM1737.59 1027.96L1738 1026L1130.12 899.144L1129.71 901.102L1129.3 903.06L1737.18 1029.92L1737.59 1027.96ZM1129.71 901.102L1129.23 903.043L1626 1026L1626.48 1024.06L1626.96 1022.12L1130.19 899.161L1129.71 901.102ZM1626.48 1024.06L1626 1026L1626 1026L1627.94 1026.48L1629.88 1026.96C1630.41 1024.82 1629.11 1022.65 1626.96 1022.12L1626.48 1024.06ZM1627.94 1026.48L1626 1026L1626 1026L1625.52 1027.94L1625.04 1029.88C1627.18 1030.41 1629.35 1029.11 1629.88 1026.96L1627.94 1026.48ZM1625.52 1027.94L1626 1026L1110.63 898.44L1110.15 900.381L1109.67 902.323L1625.04 1029.88L1625.52 1027.94ZM1110.15 900.381L1109.58 902.299L1528 1026L1528.57 1024.08L1529.14 1022.16L1110.72 898.463L1110.15 900.381ZM1528.57 1024.08L1528 1026C1528 1026 1528 1026 1528 1026C1528 1026 1528 1026 1528 1026C1528 1026 1528 1026 1528 1026C1528 1026 1528 1026 1528 1026C1528 1026 1528 1026 1528 1026C1528 1026 1528 1026 1528 1026L1529.92 1026.57L1531.84 1027.13C1532.46 1025.02 1531.25 1022.79 1529.14 1022.16L1528.57 1024.08ZM1529.92 1026.57L1528 1026L1528 1026L1527.43 1027.92L1526.87 1029.84C1528.98 1030.46 1531.21 1029.25 1531.84 1027.13L1529.92 1026.57ZM1527.43 1027.92L1528 1026L1109.83 902.375L1109.27 904.292L1108.7 906.21L1526.87 1029.84L1527.43 1027.92ZM1109.27 904.292L1108.62 906.183L1456 1026L1456.65 1024.11L1457.31 1022.22L1109.92 902.402L1109.27 904.292ZM1456.65 1024.11L1456 1026L1456 1026L1457.89 1026.65L1459.78 1027.3C1460.5 1025.22 1459.39 1022.94 1457.31 1022.22L1456.65 1024.11ZM1457.89 1026.65L1456 1026L1456 1026L1455.35 1027.89L1454.7 1029.78C1456.78 1030.5 1459.06 1029.39 1459.78 1027.3L1457.89 1026.65ZM1455.35 1027.89L1456 1026L1083.76 897.611L1083.11 899.501L1082.46 901.392L1454.7 1029.78L1455.35 1027.89ZM1083.11 899.501L1082.34 901.347L1381 1026L1381.77 1024.15L1382.54 1022.31L1083.88 897.656L1083.11 899.501ZM1381.77 1024.15L1381 1026L1381 1026L1382.85 1026.77L1384.69 1027.54C1385.54 1025.5 1384.58 1023.16 1382.54 1022.31L1381.77 1024.15ZM1382.85 1026.77L1381 1026L1381 1026L1380.23 1027.85L1379.46 1029.69C1381.5 1030.54 1383.84 1029.58 1384.69 1027.54L1382.85 1026.77ZM1380.23 1027.85L1381 1026L1081.42 900.963L1080.65 902.809L1079.88 904.655L1379.46 1029.69L1380.23 1027.85ZM1080.65 902.809L1079.76 904.601L1325 1026L1325.89 1024.21L1326.78 1022.42L1081.54 901.017L1080.65 902.809ZM1325.89 1024.21L1325 1026L1325 1026L1326.79 1026.89L1328.59 1027.77C1329.56 1025.8 1328.76 1023.4 1326.78 1022.42L1325.89 1024.21ZM1326.79 1026.89L1325 1026L1325 1026L1324.11 1027.79L1323.23 1029.58C1325.2 1030.56 1327.6 1029.75 1328.59 1027.77L1326.79 1026.89ZM1324.11 1027.79L1325 1026L1090.16 909.75L1089.28 911.542L1088.39 913.335L1323.23 1029.58L1324.11 1027.79ZM1089.28 911.542L1088.29 913.284L1288 1026L1288.98 1024.26L1289.97 1022.52L1090.26 909.801L1089.28 911.542ZM1288.98 1024.26L1288 1026C1288 1026 1288 1026 1288 1026C1288 1026 1288 1026 1288 1026C1288 1026 1288 1026 1288 1026C1288 1026 1288 1026 1288 1026C1288 1026 1288 1026 1288 1026C1288 1026 1288 1026 1288 1026L1289.74 1026.98L1291.49 1027.97C1292.57 1026.04 1291.89 1023.6 1289.97 1022.52L1288.98 1024.26ZM1289.74 1026.98L1288 1026C1288 1026 1288 1026 1288 1026C1288 1026 1288 1026 1288 1026C1288 1026 1288 1026 1288 1026C1288 1026 1288 1026 1288 1026C1288 1026 1288 1026 1288 1026C1288 1026 1288 1026 1288 1026L1287.02 1027.74L1286.03 1029.48C1287.96 1030.57 1290.4 1029.89 1291.48 1027.97L1289.74 1026.98ZM1287.02 1027.74L1288 1026L1071.61 903.867L1070.62 905.609L1069.64 907.351L1286.03 1029.48L1287.02 1027.74ZM1070.62 905.609L1069.51 907.274L1248 1026L1249.11 1024.33L1250.22 1022.67L1071.73 903.944L1070.62 905.609ZM1249.11 1024.33L1248 1026L1248 1026L1249.67 1027.11L1251.33 1028.21C1252.55 1026.38 1252.06 1023.89 1250.22 1022.67L1249.11 1024.33ZM1249.67 1027.11L1248 1026L1248 1026L1246.89 1027.66L1245.79 1029.33C1247.63 1030.55 1250.11 1030.05 1251.33 1028.21L1249.67 1027.11ZM1246.89 1027.66L1248 1026L1069.61 907.337L1068.5 909.002L1067.39 910.668L1245.79 1029.33L1246.89 1027.66ZM1068.5 909.002L1067.28 910.582L1216 1026L1217.23 1024.42L1218.45 1022.84L1069.73 907.422L1068.5 909.002ZM1217.23 1024.42L1216 1026C1216 1026 1216 1026 1216 1026C1216 1026 1216 1026 1216 1026C1216 1026 1216 1026 1216 1026C1216 1026 1216 1026 1216 1026C1216 1026 1216 1026 1216 1026C1216 1026 1216 1026 1216 1026L1217.58 1027.23L1219.16 1028.45C1220.51 1026.71 1220.2 1024.19 1218.45 1022.84L1217.23 1024.42ZM1217.58 1027.23L1216 1026L1216 1026L1214.77 1027.58L1213.55 1029.16C1215.29 1030.51 1217.81 1030.2 1219.16 1028.45L1217.58 1027.23ZM1214.77 1027.58L1216 1026L1059.15 904.278L1057.92 905.858L1056.7 907.438L1213.55 1029.16L1214.77 1027.58ZM1057.92 905.858L1056.56 907.322L1184 1026L1185.36 1024.54L1186.73 1023.07L1059.29 904.394L1057.92 905.858ZM1185.36 1024.54L1184 1026C1184 1026 1184 1026 1184 1026C1184 1026 1184 1026 1184 1026C1184 1026 1184 1026 1184 1026C1184 1026 1184 1026 1184 1026C1184 1026 1184 1026 1184 1026C1184 1026 1184 1026 1184 1026L1185.46 1027.36L1186.93 1028.73C1188.43 1027.11 1188.34 1024.58 1186.73 1023.07L1185.36 1024.54ZM1185.46 1027.36L1184 1026L1184 1026L1182.64 1027.46L1181.27 1028.93C1182.89 1030.43 1185.42 1030.34 1186.93 1028.73L1185.46 1027.36ZM1182.64 1027.46L1184 1026L1050.29 901.479L1048.92 902.943L1047.56 904.406L1181.27 1028.93L1182.64 1027.46ZM1048.92 902.943L1047.41 904.246L1152 1026L1153.52 1024.7L1155.03 1023.39L1050.44 901.64L1048.92 902.943ZM1153.52 1024.7L1152 1026V1026L1153.3 1027.52L1154.61 1029.03C1156.28 1027.59 1156.47 1025.07 1155.03 1023.39L1153.52 1024.7ZM1153.3 1027.52L1152 1026L1152 1026L1150.48 1027.3L1148.97 1028.61C1150.41 1030.28 1152.93 1030.47 1154.61 1029.03L1153.3 1027.52ZM1150.48 1027.3L1152 1026L1042.94 899.052L1041.43 900.355L1039.91 901.658L1148.97 1028.61L1150.48 1027.3ZM1041.43 900.355L1039.75 901.438L1120 1026L1121.68 1024.92L1123.36 1023.83L1043.11 899.272L1041.43 900.355ZM1121.68 1024.92L1120 1026C1120 1026 1120 1026 1120 1026C1120 1026 1120 1026 1120 1026C1120 1026 1120 1026 1120 1026C1120 1026 1120 1026 1120 1026C1120 1026 1120 1026 1120 1026C1120 1026 1120 1026 1120 1026L1121.08 1027.68L1122.17 1029.36C1124.02 1028.17 1124.56 1025.69 1123.36 1023.83L1121.68 1024.92ZM1121.08 1027.68L1120 1026L1120 1026L1118.32 1027.08L1116.64 1028.17C1117.83 1030.02 1120.31 1030.56 1122.17 1029.36L1121.08 1027.68ZM1118.32 1027.08L1120 1026L1036.97 897.131L1035.29 898.214L1033.61 899.298L1116.64 1028.17L1118.32 1027.08ZM1035.29 898.214L1033.45 899.004L1088 1026L1089.84 1025.21L1091.68 1024.42L1037.13 897.425L1035.29 898.214ZM1089.84 1025.21L1088 1026C1088 1026 1088 1026 1088 1026C1088 1026 1088 1026 1088 1026C1088 1026 1088 1026 1088 1026C1088 1026 1088 1026 1088 1026C1088 1026 1088 1026 1088 1026C1088 1026 1088 1026 1088 1026L1088.79 1027.84L1089.58 1029.67C1091.61 1028.8 1092.55 1026.45 1091.68 1024.42L1089.84 1025.21ZM1088.79 1027.84L1088 1026L1088 1026L1086.16 1026.79L1084.33 1027.58C1085.2 1029.61 1087.55 1030.55 1089.58 1029.68L1088.79 1027.84ZM1086.16 1026.79L1088 1026L1032.11 895.868L1030.27 896.658L1028.43 897.447L1084.33 1027.58L1086.16 1026.79ZM1030.27 896.658L1028.31 897.078L1056 1026L1057.96 1025.58L1059.91 1025.16L1032.22 896.238L1030.27 896.658ZM1057.96 1025.58L1056 1026L1056 1026L1056.42 1027.95L1056.84 1029.91C1059 1029.45 1060.38 1027.32 1059.91 1025.16L1057.96 1025.58ZM1056.42 1027.95L1056 1026L1056 1026L1054.05 1026.42L1052.09 1026.84C1052.55 1029 1054.68 1030.37 1056.84 1029.91L1056.42 1027.95ZM1054.05 1026.42L1056 1026L1027.96 895.415L1026 895.834L1024.05 896.254L1052.09 1026.84L1054.05 1026.42ZM1026 895.834H1024V1026.45H1026H1028V895.834H1026ZM1026 1026.45H1024C1024 1026.45 1024 1026.45 1024 1026.45C1024 1026.45 1024 1026.45 1024 1026.45C1024 1026.45 1024 1026.45 1024 1026.45C1024 1026.45 1024 1026.45 1024 1026.45C1024 1026.45 1024 1026.45 1024 1026.45C1024 1026.45 1024 1026.45 1024 1026.45L1024.21 1028.44L1024.41 1030.43C1026.43 1030.22 1028 1028.52 1028 1026.45H1026ZM1024.21 1028.44L1024 1026.45C1024.01 1026.45 1024.01 1026.45 1024 1026.45L1024 1028.45L1024 1030.45C1024.13 1030.45 1024.26 1030.44 1024.41 1030.43L1024.21 1028.44ZM1024 1028.45V1026.45C1023.99 1026.45 1023.99 1026.45 1023.99 1026.45C1023.99 1026.45 1023.99 1026.45 1024 1026.45L1023.8 1028.44L1023.59 1030.43C1023.74 1030.44 1023.88 1030.45 1024 1030.45V1028.45ZM1023.8 1028.44L1024 1026.45C1024 1026.45 1024 1026.45 1024 1026.45C1024 1026.45 1024 1026.45 1024 1026.45C1024 1026.45 1024 1026.45 1024 1026.45C1024 1026.45 1024 1026.45 1024 1026.45C1024 1026.45 1024 1026.45 1024 1026.45C1024 1026.45 1024 1026.45 1024 1026.45H1022H1020C1020 1028.52 1021.57 1030.22 1023.59 1030.43L1023.8 1028.44ZM1022 1026.45H1024V895.834H1022H1020V1026.45H1022ZM1022 895.834L1020.05 895.415L992.001 1026L993.956 1026.42L995.911 1026.84L1023.96 896.254L1022 895.834ZM993.956 1026.42L992.001 1026L992.001 1026L991.581 1027.95L991.161 1029.91C993.321 1030.37 995.448 1029 995.911 1026.84L993.956 1026.42ZM991.581 1027.95L992.001 1026L992.001 1026L990.046 1025.58L988.091 1025.16C987.627 1027.32 989.001 1029.45 991.161 1029.91L991.581 1027.95ZM990.046 1025.58L992.001 1026L1019.69 897.081L1017.73 896.661L1015.78 896.241L988.09 1025.16L990.046 1025.58ZM1017.73 896.661L1015.89 895.871L960.001 1026L961.839 1026.79L963.677 1027.58L1019.57 897.45L1017.73 896.661ZM961.839 1026.79L960.001 1026L960.001 1026L959.212 1027.84L958.423 1029.68C960.453 1030.55 962.805 1029.61 963.677 1027.58L961.839 1026.79ZM959.212 1027.84L960.001 1026L960.001 1026L958.163 1025.21L956.325 1024.42C955.454 1026.45 956.393 1028.8 958.423 1029.68L959.212 1027.84ZM958.163 1025.21L960.001 1026L1014.55 899.003L1012.71 898.213L1010.87 897.424L956.325 1024.42L958.163 1025.21ZM1012.71 898.213L1011.03 897.13L928.001 1026L929.683 1027.08L931.364 1028.17L1014.39 899.297L1012.71 898.213ZM929.683 1027.08L928.001 1026L928.001 1026L926.918 1027.68L925.835 1029.36C927.692 1030.56 930.168 1030.02 931.364 1028.17L929.683 1027.08ZM926.918 1027.68L928.001 1026L928.001 1026L926.319 1024.92L924.638 1023.83C923.442 1025.69 923.978 1028.17 925.835 1029.36L926.918 1027.68ZM926.319 1024.92L928.001 1026L1008.25 901.438L1006.57 900.355L1004.89 899.272L924.638 1023.83L926.319 1024.92ZM1006.57 900.355L1005.06 899.052L896 1026L897.518 1027.3L899.035 1028.61L1008.09 901.658L1006.57 900.355ZM897.518 1027.3L896.001 1026L896 1026L894.697 1027.52L893.394 1029.03C895.069 1030.47 897.594 1030.28 899.034 1028.61L897.518 1027.3ZM894.697 1027.52L896.001 1026L896.001 1026L894.484 1024.7L892.967 1023.39C891.529 1025.07 891.718 1027.59 893.393 1029.03L894.697 1027.52ZM894.484 1024.7L896.001 1026L1000.59 904.252L999.07 902.949L997.553 901.645L892.967 1023.39L894.484 1024.7ZM999.07 902.949L997.707 901.485L864.001 1026L865.364 1027.46L866.727 1028.93L1000.43 904.412L999.07 902.949ZM865.364 1027.46L864.001 1026L864.001 1026L862.537 1027.36L861.074 1028.73C862.579 1030.34 865.111 1030.43 866.727 1028.93L865.364 1027.46ZM862.537 1027.36L864.001 1026V1026L862.638 1024.54L861.275 1023.07C859.658 1024.58 859.568 1027.11 861.073 1028.73L862.537 1027.36ZM862.638 1024.54L864.001 1026L991.434 907.325L990.071 905.862L988.708 904.398L861.275 1023.07L862.638 1024.54ZM990.071 905.862L988.845 904.282L832.001 1026L833.228 1027.58L834.454 1029.16L991.297 907.442L990.071 905.862ZM833.228 1027.58L832.001 1026L832.001 1026L830.421 1027.23L828.841 1028.45C830.196 1030.2 832.709 1030.51 834.454 1029.16L833.228 1027.58ZM830.421 1027.23L832.001 1026L832.001 1026L830.774 1024.42L829.548 1022.84C827.803 1024.19 827.487 1026.71 828.841 1028.45L830.421 1027.23ZM830.774 1024.42L832.001 1026L980.716 910.587L979.49 909.007L978.264 907.427L829.548 1022.84L830.774 1024.42ZM979.49 909.007L978.383 907.342L800.001 1026L801.108 1027.66L802.216 1029.33L980.598 910.673L979.49 909.007ZM801.108 1027.66L800.001 1026H800.001L798.336 1027.11L796.671 1028.21C797.894 1030.05 800.377 1030.55 802.216 1029.33L801.108 1027.66ZM798.336 1027.11L800.001 1026V1026L798.894 1024.33L797.786 1022.67C795.947 1023.89 795.447 1026.38 796.671 1028.21L798.336 1027.11ZM798.894 1024.33L800.001 1026L978.469 907.285L977.361 905.62L976.254 903.954L797.786 1022.67L798.894 1024.33ZM977.361 905.62L976.378 903.878L760.001 1026L760.984 1027.74L761.967 1029.48L978.344 907.361L977.361 905.62ZM760.984 1027.74L760.001 1026L760 1026L758.259 1026.98L756.517 1027.97C757.603 1029.89 760.044 1030.57 761.967 1029.48L760.984 1027.74ZM758.259 1026.98L760.001 1026L760.001 1026L759.018 1024.26L758.034 1022.52C756.111 1023.6 755.431 1026.04 756.517 1027.97L758.259 1026.98ZM759.018 1024.26L760.001 1026L959.72 913.277L958.737 911.536L957.754 909.794L758.035 1022.52L759.018 1024.26ZM958.737 911.536L957.85 909.743L723.001 1026L723.889 1027.79L724.776 1029.58L959.625 913.328L958.737 911.536ZM723.889 1027.79L723.001 1026L723.001 1026L721.209 1026.89L719.417 1027.77C720.398 1029.75 722.797 1030.56 724.776 1029.58L723.889 1027.79ZM721.209 1026.89L723.001 1026L723.001 1026L722.113 1024.21L721.226 1022.42C719.246 1023.4 718.437 1025.8 719.417 1027.77L721.209 1026.89ZM722.113 1024.21L723.001 1026L968.242 904.601L967.354 902.809L966.467 901.017L721.226 1022.42L722.113 1024.21ZM967.354 902.809L966.584 900.963L667.001 1026L667.771 1027.85L668.542 1029.69L968.125 904.655L967.354 902.809ZM667.771 1027.85L667.001 1026L667.001 1026L665.155 1026.77L663.31 1027.54C664.161 1029.58 666.503 1030.54 668.542 1029.69L667.771 1027.85ZM665.155 1026.77L667.001 1026L667.001 1026L666.23 1024.15L665.46 1022.31C663.421 1023.16 662.459 1025.5 663.31 1027.54L665.155 1026.77ZM666.23 1024.15L667.001 1026L965.65 901.352L964.88 899.506L964.11 897.661L665.46 1022.31L666.23 1024.15ZM964.88 899.506L964.228 897.616L592.001 1026L592.653 1027.89L593.305 1029.78L965.532 901.397L964.88 899.506ZM592.653 1027.89L592.001 1026L592.001 1026L590.11 1026.65L588.22 1027.3C588.94 1029.39 591.217 1030.5 593.305 1029.78L592.653 1027.89ZM590.11 1026.65L592.001 1026L592.001 1026L591.349 1024.11L590.696 1022.22C588.608 1022.94 587.5 1025.22 588.22 1027.3L590.11 1026.65ZM591.349 1024.11L592.001 1026L939.38 906.185L938.728 904.294L938.075 902.404L590.697 1022.22L591.349 1024.11ZM938.728 904.294L938.161 902.376L520.001 1026L520.568 1027.92L521.135 1029.84L939.295 906.212L938.728 904.294ZM520.568 1027.92L520.001 1026L520.001 1026L518.083 1026.57L516.165 1027.13C516.792 1029.25 519.018 1030.46 521.135 1029.84L520.568 1027.92ZM518.083 1026.57L520.001 1026L520.001 1026L519.434 1024.08L518.866 1022.16C516.748 1022.79 515.539 1025.02 516.165 1027.13L518.083 1026.57ZM519.434 1024.08L520.001 1026L938.414 902.301L937.847 900.383L937.28 898.465L518.867 1022.16L519.434 1024.08ZM937.847 900.383L937.366 898.442L422.001 1026L422.481 1027.94L422.962 1029.88L938.327 902.325L937.847 900.383ZM422.481 1027.94L422.001 1026V1026L420.06 1026.48L418.118 1026.96C418.649 1029.1 420.818 1030.41 422.962 1029.88L422.481 1027.94ZM420.06 1026.48L422.001 1026V1026L421.521 1024.06L421.04 1022.12C418.896 1022.65 417.588 1024.82 418.118 1026.96L420.06 1026.48ZM421.521 1024.06L422.001 1026L918.77 903.043L918.289 901.102L917.809 899.161L421.04 1022.12L421.521 1024.06ZM918.289 901.102L917.88 899.144L310.001 1026L310.409 1027.96L310.818 1029.92L918.698 903.06L918.289 901.102ZM310.409 1027.96L310.001 1026L310.001 1026L308.043 1026.41L306.085 1026.82C306.536 1028.98 308.655 1030.37 310.817 1029.92L310.409 1027.96ZM308.043 1026.41L310.001 1026L310.001 1026L309.593 1024.04L309.184 1022.08C307.022 1022.53 305.634 1024.65 306.085 1026.82L308.043 1026.41ZM309.593 1024.04L310.001 1026L893.359 904.261L892.95 902.303L892.542 900.345L309.184 1022.08L309.593 1024.04ZM892.95 902.303L892.6 900.334L185.001 1026L185.351 1027.97L185.7 1029.94L893.3 904.272L892.95 902.303ZM185.351 1027.97L185.001 1026L185.001 1026L183.032 1026.35L181.063 1026.7C181.449 1028.87 183.525 1030.32 185.7 1029.94L185.351 1027.97ZM183.032 1026.35L185.001 1026L185.001 1026L184.651 1024.03L184.302 1022.06C182.127 1022.45 180.677 1024.52 181.063 1026.7L183.032 1026.35ZM184.651 1024.03L185.001 1026L898.037 899.369L897.688 897.4L897.338 895.431L184.302 1022.06L184.651 1024.03ZM897.688 897.4L897.4 895.421L0.00107813 1026L0.289062 1027.98L0.577047 1029.96L897.975 899.379L897.688 897.4ZM0.289062 1027.98L0.00108004 1026L0.000632524 1026L-1.97852 1026.29L-3.95766 1026.58C-3.63949 1028.76 -1.60891 1030.28 0.577045 1029.96L0.289062 1027.98ZM-1.97852 1026.29L0.000678778 1026L0.000943184 1026L-0.287109 1024.02L-0.575162 1022.04C-2.76135 1022.36 -4.27543 1024.39 -3.95771 1026.58L-1.97852 1026.29ZM-0.287109 1024.02L0.000874758 1026L881.796 897.691L881.508 895.711L881.22 893.732L-0.575094 1022.04L-0.287109 1024.02ZM881.508 895.711L881.275 893.725L0.000616312 996.999L0.233398 998.986L0.466181 1000.97L881.741 897.698L881.508 895.711ZM0.233398 998.986L0.000956059 996.999L0.0010345 996.999L-1.98535 997.232L-3.97174 997.465C-3.71453 999.658 -1.72859 1001.23 0.465841 1000.97L0.233398 998.986ZM-1.98535 997.232L0.00113225 997L0.00134182 997L-0.231445 995.013L-0.464232 993.027C-2.65786 993.284 -4.22817 995.27 -3.97184 997.464L-1.98535 997.232ZM-0.231445 995.013L0.00133896 997L852.593 897.086L852.36 895.099L852.128 893.113L-0.46423 993.027L-0.231445 995.013ZM852.36 895.099L852.174 893.108L0.000817776 972.999L0.1875 974.991L0.374182 976.982L852.547 897.09L852.36 895.099ZM0.1875 974.991L0.0010078 972.999L0.00104642 972.999L-1.99023 973.186L-3.98152 973.373C-3.77547 975.572 -1.82546 977.188 0.373992 976.982L0.1875 974.991ZM-1.99023 973.186L0.00106835 973L0.00114131 973L-0.185547 971.008L-0.372235 969.017C-2.57151 969.223 -4.18729 971.173 -3.98154 973.372L-1.99023 973.186ZM-0.185547 971.008L0.00113678 973L818.657 896.25L818.471 894.258L818.284 892.267L-0.372231 969.017L-0.185547 971.008ZM818.471 894.258L818.323 892.264L0.00138235 952.999L0.149414 954.994L0.297446 956.988L818.619 896.253L818.471 894.258ZM0.149414 954.994L0.00137544 952.999L0.00131464 952.999L-1.99316 953.148L-3.98764 953.296C-3.8236 955.5 -1.90478 957.152 0.297453 956.988L0.149414 954.994ZM-1.99316 953.148L0.00136876 953L0.000969172 953L-0.147461 951.005L-0.295891 949.011C-2.49916 949.175 -4.15083 951.094 -3.9877 953.296L-1.99316 953.148ZM-0.147461 951.005L0.000570297 953L828.707 891.494L828.559 889.5L828.411 887.505L-0.295492 949.011L-0.147461 951.005ZM828.559 889.5L828.451 887.502L0.00113058 931.999L0.108398 933.997L0.215666 935.994L828.666 891.497L828.559 889.5ZM0.108398 933.997L0.00112963 931.999L0.00102305 932L-1.99609 932.107L-3.99321 932.214C-3.87462 934.42 -1.9899 936.112 0.215667 935.994L0.108398 933.997ZM-1.99609 932.107L0.00103664 932L0.00095129 932L-0.106445 930.002L-0.213842 928.005C-2.41986 928.124 -4.11149 930.009 -3.99322 932.214L-1.99609 932.107ZM-0.106445 930.002L0.000824213 932L796.294 889.229L796.187 887.232L796.079 885.235L-0.213715 928.005L-0.106445 930.002ZM796.187 887.232L796.114 885.233L0.00102162 914L0.0732422 915.999L0.145463 917.997L796.259 889.231L796.187 887.232ZM0.0732422 915.999L0.00101948 914L0.000653505 914L-1.99805 914.072L-3.99675 914.144C-3.91711 916.352 -2.06198 918.077 0.145465 917.997L0.0732422 915.999ZM-1.99805 914.072L0.000658512 914L0.0009377 913.999L-0.0712891 912L-0.143516 910.002C-2.3513 910.082 -4.0762 911.937 -3.99675 914.144L-1.99805 914.072ZM-0.0712891 912L0.000929832 913.999L731.375 887.572L731.303 885.574L731.231 883.575L-0.143508 910.002L-0.0712891 912ZM731.303 885.574L731.258 883.574L0.00098753 899.999L0.0458984 901.999L0.0908093 903.998L731.348 887.573L731.303 885.574ZM0.0458984 901.999L0.000986576 899.999L0.000473261 900L-1.99902 900.044L-3.99852 900.089C-3.94893 902.299 -2.11636 904.048 0.0908103 903.998L0.0458984 901.999ZM-1.99902 900.044L0.000480652 900L0.000980377 900L-0.0439453 898L-0.088871 896.001C-2.29637 896.051 -4.04773 897.88 -3.99853 900.089L-1.99902 900.044ZM-0.0439453 898L0.000967741 900L651.615 885.363L651.57 883.364L651.525 881.364L-0.0888585 896.001L-0.0439453 898ZM651.57 883.364L651.547 881.364L0.000976801 889L0.0244141 891L0.0478513 892.999L651.594 885.364L651.57 883.364ZM0.0244141 891L0.000979662 889L0.000839233 889L-1.99902 889.023L-3.99889 889.046C-3.97301 891.255 -2.16113 893.025 0.0478485 892.999L0.0244141 891ZM-1.99902 889.023L0.000843287 889L0.000974894 888.999L-0.0224609 887L-0.0458969 885C-2.25511 885.026 -4.02439 886.838 -3.99889 889.046L-1.99902 889.023ZM-0.0224609 887L0.000975132 888.999L682.662 880.999L682.639 879L682.615 877L-0.045897 885L-0.0224609 887ZM682.639 879V877H0.000976562V879V881H682.639V879ZM0.000976562 879V877H-1.99902H-3.99902C-3.99902 879.209 -2.20824 881 0.000976562 881V879ZM-1.99902 877L0.000976562 877V877V875V873C-2.20846 873 -3.99864 874.791 -3.99902 876.999L-1.99902 877ZM0.000976562 875V877H2048V875V873H0.000976562V875Z" fill="url(#paint16_linear_1_18242)"/>
</g>
</g>
</g>
</g>
</g>
<defs>
<linearGradient id="paint0_linear_1_18242" x1="2591.82" y1="3778.76" x2="-301.592" y2="1587.72" gradientUnits="userSpaceOnUse">
<stop stop-color="#D3CBEC"/>
<stop offset="1" stop-color="white"/>
</linearGradient>
<linearGradient id="paint1_linear_1_18242" x1="1670.64" y1="754.207" x2="1264.65" y2="335.645" gradientUnits="userSpaceOnUse">
<stop stop-color="white" stop-opacity="0.01"/>
<stop offset="1" stop-color="white"/>
</linearGradient>
<linearGradient id="paint2_linear_1_18242" x1="1442.27" y1="1891.02" x2="2232.27" y2="491.439" gradientUnits="userSpaceOnUse">
<stop stop-color="#D3CBEC"/>
<stop offset="1" stop-color="white"/>
</linearGradient>
<linearGradient id="paint3_linear_1_18242" x1="1088.12" y1="819.078" x2="896.948" y2="846.684" gradientUnits="userSpaceOnUse">
<stop stop-color="#999DCF" stop-opacity="0.01"/>
<stop offset="1" stop-color="#999DCF"/>
</linearGradient>
<linearGradient id="paint4_linear_1_18242" x1="917.446" y1="195.049" x2="1339.85" y2="35.2794" gradientUnits="userSpaceOnUse">
<stop stop-color="white" stop-opacity="0.01"/>
<stop offset="1" stop-color="#FAFCFD"/>
</linearGradient>
<linearGradient id="paint5_linear_1_18242" x1="562.436" y1="1190.48" x2="1141.15" y2="760.021" gradientUnits="userSpaceOnUse">
<stop stop-color="#BABDE4"/>
<stop offset="1" stop-color="white"/>
</linearGradient>
<linearGradient id="paint6_linear_1_18242" x1="729.299" y1="1226.97" x2="520.627" y2="1238.79" gradientUnits="userSpaceOnUse">
<stop stop-color="#999DCF" stop-opacity="0.01"/>
<stop offset="1" stop-color="#999DCF"/>
</linearGradient>
<linearGradient id="paint7_linear_1_18242" x1="-507.943" y1="578.739" x2="315.24" y2="-8.94136" gradientUnits="userSpaceOnUse">
<stop stop-color="#EBDDF5"/>
<stop offset="1" stop-color="#F7F1FB"/>
</linearGradient>
<linearGradient id="paint8_linear_1_18242" x1="1619.43" y1="294.955" x2="1146.16" y2="686.764" gradientUnits="userSpaceOnUse">
<stop stop-color="#BABDE4"/>
<stop offset="0.511824" stop-color="#EBDDF5"/>
<stop offset="1" stop-color="#ECBACB"/>
</linearGradient>
<linearGradient id="paint9_linear_1_18242" x1="1563.08" y1="303.372" x2="1563.08" y2="577.853" gradientUnits="userSpaceOnUse">
<stop stop-color="white"/>
<stop offset="1" stop-color="white" stop-opacity="0.01"/>
</linearGradient>
<linearGradient id="paint10_linear_1_18242" x1="1656.06" y1="572.247" x2="2279.66" y2="916.913" gradientUnits="userSpaceOnUse">
<stop stop-color="#DEE0F3"/>
<stop offset="1" stop-color="#BABDE4"/>
</linearGradient>
<linearGradient id="paint11_linear_1_18242" x1="2034.56" y1="727.027" x2="1881.1" y2="987.829" gradientUnits="userSpaceOnUse">
<stop stop-color="#999DCF" stop-opacity="0.01"/>
<stop offset="1" stop-color="#999DCF"/>
<stop offset="1" stop-color="#999DCF"/>
</linearGradient>
<linearGradient id="paint12_linear_1_18242" x1="-49.7975" y1="197.76" x2="-638.277" y2="988.851" gradientUnits="userSpaceOnUse">
<stop stop-color="#EBDDF5"/>
<stop offset="1" stop-color="#ECBACB"/>
</linearGradient>
<linearGradient id="paint13_linear_1_18242" x1="-609.558" y1="353.423" x2="377.536" y2="-635.736" gradientUnits="userSpaceOnUse">
<stop stop-color="#D3CBEC"/>
<stop offset="1" stop-color="white"/>
</linearGradient>
<linearGradient id="paint14_linear_1_18242" x1="592.975" y1="463.886" x2="772.826" y2="1077.63" gradientUnits="userSpaceOnUse">
<stop stop-color="#172687" stop-opacity="0.01"/>
<stop offset="1" stop-color="#151A21"/>
</linearGradient>
<linearGradient id="paint15_linear_1_18242" x1="1024" y1="811.5" x2="1006.28" y2="1080.33" gradientUnits="userSpaceOnUse">
<stop stop-color="#E4F4FA"/>
<stop offset="1" stop-color="#C9E8F5"/>
<stop offset="1" stop-color="#C9E8F5"/>
</linearGradient>
<linearGradient id="paint16_linear_1_18242" x1="-615.872" y1="834.879" x2="-622.476" y2="1112.54" gradientUnits="userSpaceOnUse">
<stop stop-color="#C9E8F5"/>
<stop offset="1" stop-color="#78C6E7"/>
</linearGradient>
<clipPath id="clip0_1_18242">
<rect width="2048" height="1014" fill="white"/>
</clipPath>
</defs>
</svg>
