<svg width="359" height="588" viewBox="0 0 359 588" fill="none" xmlns="http://www.w3.org/2000/svg">
<g id="YuhPerson_SP_9a">
<g id="Group 4">
<g id="Combined Shape">
<path id="Mask" fill-rule="evenodd" clip-rule="evenodd" d="M231.831 490.432C231.634 496.917 236.838 502.28 243.325 502.28H292.472C292.472 494.192 286.246 487.466 278.181 486.842L260.385 485.467C258.901 485.352 257.606 484.422 257.141 483.009C256.253 480.309 254.972 475.508 254.972 470.28C254.972 462.28 254.972 440.78 254.972 440.78H231.472L231.972 485.78L231.831 490.432Z" fill="#151A21"/>
<mask id="mask0_1_12839" style="mask-type:luminance" maskUnits="userSpaceOnUse" x="231" y="440" width="62" height="63">
<path id="Mask_2" fill-rule="evenodd" clip-rule="evenodd" d="M231.831 490.432C231.634 496.917 236.838 502.28 243.325 502.28H292.472C292.472 494.192 286.246 487.466 278.181 486.842L260.385 485.467C258.901 485.352 257.606 484.422 257.141 483.009C256.253 480.309 254.972 475.508 254.972 470.28C254.972 462.28 254.972 440.78 254.972 440.78H231.472L231.972 485.78L231.831 490.432Z" fill="white"/>
</mask>
<g mask="url(#mask0_1_12839)">
<path id="Combined Shape_2" d="M290.033 494.28H268.972V476.28H255.972V494.28H232.014C233.494 498.92 237.841 502.28 242.972 502.28H292.472C292.472 499.318 291.573 496.565 290.033 494.28Z" fill="url(#paint0_linear_1_12839)"/>
</g>
</g>
<g id="Combined Shape Copy 10">
<path id="Mask_3" fill-rule="evenodd" clip-rule="evenodd" d="M86.138 367.524C80.6376 364.349 73.6043 366.233 70.4287 371.734L45.6787 414.602C52.6838 418.646 61.6215 416.617 66.1937 409.945L76.283 395.221C77.124 393.993 78.5773 393.336 80.0338 393.64C82.8154 394.221 87.6139 395.512 92.1415 398.126C99.0697 402.126 117.689 412.876 117.689 412.876L129.439 392.524L86.138 367.524Z" fill="#151A21"/>
<mask id="mask1_1_12839" style="mask-type:luminance" maskUnits="userSpaceOnUse" x="45" y="365" width="85" height="52">
<path id="Mask_4" fill-rule="evenodd" clip-rule="evenodd" d="M86.138 367.524C80.6376 364.349 73.6043 366.233 70.4287 371.734L45.6787 414.602C52.6838 418.646 61.6215 416.617 66.1937 409.945L76.283 395.221C77.124 393.993 78.5773 393.336 80.0338 393.64C82.8154 394.221 87.6139 395.512 92.1415 398.126C99.0697 402.126 117.689 412.876 117.689 412.876L129.439 392.524L86.138 367.524Z" fill="white"/>
</mask>
<g mask="url(#mask1_1_12839)">
<path id="Combined Shape_3" d="M53.8261 416.491L64.3569 398.251L79.9453 407.251L86.4453 395.993L70.8569 386.993L82.8359 366.244C78.0773 365.207 72.9941 367.291 70.4287 371.734L45.6787 414.603C48.2443 416.084 51.0775 416.682 53.8261 416.491Z" fill="url(#paint1_linear_1_12839)"/>
</g>
</g>
<g id="legs copy 3">
<g id="back leg copy">
<path id="Path" d="M203.433 245.927L151.472 275.927L161.149 292.841L161.431 293.355C175.456 319.068 176.648 338.99 166.982 356.466L166.5 357.327C161.949 365.586 157.413 368.959 151.148 369.867C142.385 371.138 129.16 368.087 111.847 359.569L110.471 358.885L83.536 412.5C111.555 426.576 136.829 432.571 159.758 429.246C185.161 425.562 205.355 410.698 218.649 387.004L218.979 386.409L219.496 385.488C239.8 348.79 237.383 307.457 214.218 264.833L213.33 263.216L203.433 245.927Z" fill="#CCB1DA"/>
<mask id="mask2_1_12839" style="mask-type:luminance" maskUnits="userSpaceOnUse" x="83" y="245" width="151" height="186">
<path id="Path_2" d="M203.433 245.927L151.472 275.927L161.149 292.841L161.431 293.355C175.456 319.068 176.648 338.99 166.982 356.466L166.5 357.327C161.949 365.586 157.413 368.959 151.148 369.867C142.385 371.138 129.16 368.087 111.847 359.569L110.471 358.885L83.536 412.5C111.555 426.576 136.829 432.571 159.758 429.246C185.161 425.562 205.355 410.698 218.649 387.004L218.979 386.409L219.496 385.488C239.8 348.79 237.383 307.457 214.218 264.833L213.33 263.216L203.433 245.927Z" fill="white"/>
</mask>
<g mask="url(#mask2_1_12839)">
<path id="Path_3" d="M189.288 276.818L182.778 281.468C203.405 310.348 205.149 339.946 188.054 370.97C171.575 400.876 142.455 405.374 98.9056 383.874L97.5815 383.214L93.9901 390.363C141.724 414.344 176.029 409.369 195.06 374.831C213.456 341.446 211.74 308.86 189.954 277.76L189.288 276.818Z" fill="white"/>
</g>
</g>
<g id="front leg copy">
<g id="Mask_5">
<path d="M221.62 235.426L168.793 265.926C187.447 295.337 202.63 325.595 210.459 354.292C217.75 381.019 218.045 416.242 210.805 459.776L210.583 461.098L269.743 471.106C278.552 419.03 278.271 374.891 268.344 338.501C259.015 304.306 243.661 270.292 222.386 236.472L221.62 235.426Z" fill="#CCB1DA"/>
<path d="M221.62 235.426L168.793 265.926C187.447 295.337 202.63 325.595 210.459 354.292C217.75 381.019 218.045 416.242 210.805 459.776L210.583 461.098L269.743 471.106C278.552 419.03 278.271 374.891 268.344 338.501C259.015 304.306 243.661 270.292 222.386 236.472L221.62 235.426Z" fill="url(#paint2_linear_1_12839)"/>
</g>
<mask id="mask3_1_12839" style="mask-type:luminance" maskUnits="userSpaceOnUse" x="168" y="235" width="109" height="237">
<g id="Mask_6">
<path d="M221.62 235.426L168.793 265.926C187.447 295.337 202.63 325.595 210.459 354.292C217.75 381.019 218.045 416.242 210.805 459.776L210.583 461.098L269.743 471.106C278.552 419.03 278.271 374.891 268.344 338.501C259.015 304.306 243.661 270.292 222.386 236.472L221.62 235.426Z" fill="white"/>
<path d="M221.62 235.426L168.793 265.926C187.447 295.337 202.63 325.595 210.459 354.292C217.75 381.019 218.045 416.242 210.805 459.776L210.583 461.098L269.743 471.106C278.552 419.03 278.271 374.891 268.344 338.501C259.015 304.306 243.661 270.292 222.386 236.472L221.62 235.426Z" stroke="white"/>
</g>
</mask>
<g mask="url(#mask3_1_12839)">
<path id="Path_4" d="M192.175 252.427C212.174 283.957 227.1 316.036 235.637 347.33C243.943 377.776 243.482 419.887 235.92 466.194L244.482 467.024C252.71 418.385 252.172 377.544 243.355 345.225C234.73 313.61 219.04 280.128 199.104 248.427L192.175 252.427Z" fill="white"/>
</g>
</g>
</g>
</g>
<g id="Group 30">
<ellipse id="Oval" cx="17.25" cy="23" rx="17.25" ry="23" transform="matrix(-0.866025 0.5 0.5 0.866025 178.016 9.31641)" stroke="#93D1EC" stroke-width="15.5"/>
<circle id="Oval Copy 106" cx="18" cy="18" r="18" transform="matrix(-0.866025 0.5 0.5 0.866025 208.205 24.3369)" fill="#151A21"/>
<g id="Oval_2">
<ellipse cx="18.067" cy="10.9486" rx="18.067" ry="10.9486" transform="matrix(-0.866025 0.5 0.5 0.866025 206.205 20.873)" fill="#78C6E7"/>
<ellipse cx="18.067" cy="10.9486" rx="18.067" ry="10.9486" transform="matrix(-0.866025 0.5 0.5 0.866025 206.205 20.873)" fill="url(#paint3_linear_1_12839)"/>
</g>
<rect id="Rectangle Copy 62" width="25" height="7.5" rx="3.75" transform="matrix(-0.866025 0.5 0.5 0.866025 198.841 20.3867)" fill="#151A21"/>
</g>
<g id="Group 60">
<g id="Group 5">
<path id="Combined Shape Copy 36" d="M172.54 80.1445C160.864 80.1445 149.526 84.1731 141.258 92.417C122.664 110.957 91.0205 147.723 91.0205 183.216V188.216H91.1406C92.302 207.754 101.898 225.068 115.917 234.694C116.964 261.623 139.014 283.454 166.302 283.454H217.412C230.612 283.454 242.613 278.333 251.544 269.973C280.608 255.622 296.292 233.97 298.021 199.791V183.216C298.021 155.316 266.763 116.132 247.895 95.0205C239.158 85.2452 226.549 80.1446 213.438 80.1445H172.54Z" fill="url(#paint4_linear_1_12839)"/>
<mask id="mask4_1_12839" style="mask-type:luminance" maskUnits="userSpaceOnUse" x="91" y="80" width="208" height="204">
<path id="Combined Shape Copy 36_2" d="M172.54 80.1445C160.864 80.1445 149.526 84.1731 141.258 92.417C122.664 110.957 91.0205 147.723 91.0205 183.216V188.216H91.1406C92.302 207.754 101.898 225.068 115.917 234.694C116.964 261.623 139.014 283.454 166.302 283.454H217.412C230.612 283.454 242.613 278.333 251.544 269.973C280.608 255.622 296.292 233.97 298.021 199.791V183.216C298.021 155.316 266.763 116.132 247.895 95.0205C239.158 85.2452 226.549 80.1446 213.438 80.1445H172.54Z" fill="white"/>
</mask>
<g mask="url(#mask4_1_12839)">
<path id="Combined Shape_4" fill-rule="evenodd" clip-rule="evenodd" d="M80.4416 162.961C73.8735 157.852 67.692 157.852 62.4601 163.084C61.8743 163.67 61.8744 164.619 62.4601 165.205C63.0459 165.791 63.9954 165.791 64.5812 165.205C68.6094 161.177 73.0079 161.105 78.3097 165.106L78.5998 165.329C84.9625 170.278 90.9628 170.432 96.088 165.68L96.5812 165.205C100.609 161.177 105.008 161.105 110.31 165.106L110.6 165.329C117.168 170.437 123.349 170.437 128.581 165.205C129.167 164.619 129.167 163.67 128.581 163.084C127.995 162.498 127.046 162.498 126.46 163.084C122.432 167.112 118.033 167.184 112.732 163.182L112.442 162.961C105.873 157.852 99.692 157.852 94.4601 163.084C90.4319 167.112 86.0335 167.184 80.7316 163.182L80.4416 162.961ZM102.442 132.961C95.8735 127.852 89.692 127.852 84.4601 133.084C83.8743 133.67 83.8744 134.619 84.4601 135.205C85.0459 135.791 85.9954 135.791 86.5812 135.205C90.6094 131.177 95.0079 131.105 100.31 135.106L100.6 135.329C106.962 140.278 112.963 140.432 118.088 135.68L118.581 135.205C122.609 131.177 127.008 131.105 132.31 135.106L132.6 135.329C138.962 140.278 144.963 140.432 150.088 135.68L150.581 135.205C154.609 131.177 159.008 131.105 164.31 135.106L164.6 135.329C171.168 140.437 177.349 140.437 182.581 135.205C183.167 134.619 183.167 133.67 182.581 133.084C181.995 132.498 181.046 132.498 180.46 133.084C176.432 137.112 172.033 137.184 166.732 133.182L166.442 132.961C159.873 127.852 153.692 127.852 148.46 133.084C144.432 137.112 140.033 137.184 134.732 133.182L134.442 132.961C127.873 127.852 121.692 127.852 116.46 133.084C112.432 137.112 108.033 137.184 102.732 133.182L102.442 132.961ZM58.4416 102.961C51.8735 97.8523 45.692 97.852 40.4601 103.084C39.8744 103.67 39.8744 104.619 40.4601 105.205C41.0459 105.791 41.9954 105.791 42.5812 105.205C46.6094 101.177 51.0079 101.105 56.3097 105.106L56.5998 105.329C62.9625 110.278 68.9628 110.432 74.088 105.68L74.5812 105.205C78.6094 101.177 83.0079 101.105 88.3097 105.106L88.5998 105.329C94.9625 110.278 100.963 110.432 106.088 105.68L106.581 105.205C110.609 101.177 115.008 101.105 120.31 105.106L120.6 105.329C126.962 110.278 132.963 110.432 138.088 105.68L138.581 105.205C142.609 101.177 147.008 101.105 152.31 105.106L152.6 105.329C158.962 110.278 164.963 110.432 170.088 105.68L170.581 105.205C174.609 101.177 179.008 101.105 184.31 105.106L184.6 105.329C190.962 110.278 196.963 110.432 202.088 105.68L202.581 105.205C206.609 101.177 211.008 101.105 216.31 105.106L216.6 105.329C222.962 110.278 228.963 110.432 234.088 105.68L234.581 105.205C238.609 101.177 243.008 101.105 248.31 105.106L248.6 105.329C254.962 110.278 260.963 110.432 266.088 105.68L266.581 105.205C270.609 101.177 275.008 101.105 280.31 105.106L280.6 105.329C287.168 110.437 293.349 110.437 298.581 105.205C299.167 104.619 299.167 103.67 298.581 103.084C297.995 102.498 297.046 102.498 296.46 103.084C292.432 107.112 288.033 107.184 282.732 103.182L282.442 102.961C275.873 97.8523 269.692 97.852 264.46 103.084C260.432 107.112 256.033 107.184 250.732 103.182L250.442 102.961C243.873 97.8523 237.692 97.852 232.46 103.084C228.432 107.112 224.033 107.184 218.732 103.182L218.442 102.961C211.873 97.8523 205.692 97.852 200.46 103.084C196.432 107.112 192.033 107.184 186.732 103.182L186.442 102.961C179.873 97.8523 173.692 97.852 168.46 103.084C164.432 107.112 160.033 107.184 154.732 103.182L154.442 102.961C147.873 97.8523 141.692 97.852 136.46 103.084C132.432 107.112 128.033 107.184 122.732 103.182L122.442 102.961C115.873 97.8523 109.692 97.852 104.46 103.084C100.432 107.112 96.0335 107.184 90.7316 103.182L90.4416 102.961C83.8735 97.8523 77.692 97.852 72.4601 103.084C68.4319 107.112 64.0335 107.184 58.7316 103.182L58.4416 102.961Z" fill="white"/>
</g>
</g>
<path id="Combined Shape Copy 8" d="M116.432 180.051C116.432 181.437 116.428 182.826 116.425 184.216H224.021C209.922 213.528 183.299 230.205 157.555 239.693C142.162 245.366 127.524 242.665 115.917 234.695C116.964 261.624 139.014 283.454 166.302 283.454H217.412C245 283.454 267.365 261.095 267.365 233.507V180.051H116.432Z" fill="url(#paint5_linear_1_12839)"/>
<path id="Combined Shape Copy 37" d="M267.365 233.507C267.365 247.895 261.279 260.859 251.544 269.973C280.608 255.622 296.292 233.97 298.021 199.791V188.216H267.365V233.507Z" fill="url(#paint6_linear_1_12839)"/>
<path id="Rectangle Copy 166" fill-rule="evenodd" clip-rule="evenodd" d="M224.021 184.216H91.0205C91.0205 221.778 122.31 252.682 157.555 239.693C183.3 230.205 209.922 213.528 224.021 184.216Z" fill="url(#paint7_linear_1_12839)"/>
<g id="Combined Shape Copy 38">
<path fill-rule="evenodd" clip-rule="evenodd" d="M200.804 178.78C198.274 179.458 196.594 181.722 196.544 184.216H224.02C224.012 184.233 224.003 184.251 223.995 184.269L233.621 181.689C239.651 180.074 243.231 173.875 241.615 167.845L200.804 178.78Z" fill="#151A21"/>
<path fill-rule="evenodd" clip-rule="evenodd" d="M200.804 178.78C198.274 179.458 196.594 181.722 196.544 184.216H224.02C224.012 184.233 224.003 184.251 223.995 184.269L233.621 181.689C239.651 180.074 243.231 173.875 241.615 167.845L200.804 178.78Z" fill="url(#paint8_linear_1_12839)"/>
</g>
<rect id="Rectangle Copy 37" width="29.9719" height="60.4432" rx="4.99531" transform="matrix(-0.965926 -0.258819 -0.258819 0.965926 245.332 107.124)" fill="#151A21"/>
</g>
</g>
<defs>
<linearGradient id="paint0_linear_1_12839" x1="360.564" y1="443.352" x2="354.751" y2="504.249" gradientUnits="userSpaceOnUse">
<stop stop-color="#C9E8F5"/>
<stop offset="1" stop-color="#78C6E7"/>
</linearGradient>
<linearGradient id="paint1_linear_1_12839" x1="62.6656" y1="503.036" x2="12.8337" y2="467.553" gradientUnits="userSpaceOnUse">
<stop stop-color="#C9E8F5"/>
<stop offset="1" stop-color="#78C6E7"/>
</linearGradient>
<linearGradient id="paint2_linear_1_12839" x1="305.364" y1="394.075" x2="216.338" y2="416.079" gradientUnits="userSpaceOnUse">
<stop stop-color="#D6C1E1" stop-opacity="0.01"/>
<stop offset="1" stop-color="#D6C1E1"/>
</linearGradient>
<linearGradient id="paint3_linear_1_12839" x1="-18.067" y1="10.9486" x2="1.3439" y2="42.9798" gradientUnits="userSpaceOnUse">
<stop stop-color="#C9E8F5"/>
<stop offset="1" stop-color="#78C6E7"/>
</linearGradient>
<linearGradient id="paint4_linear_1_12839" x1="-6.59328" y1="181.799" x2="196.897" y2="-13.6023" gradientUnits="userSpaceOnUse">
<stop stop-color="#FA5B35"/>
<stop offset="0.504253" stop-color="#FA5B35"/>
<stop offset="1" stop-color="#FC9D86"/>
</linearGradient>
<linearGradient id="paint5_linear_1_12839" x1="303.537" y1="224.503" x2="277.272" y2="356.021" gradientUnits="userSpaceOnUse">
<stop stop-color="#AE3B1B" stop-opacity="0.01"/>
<stop offset="1" stop-color="#AE3B1B"/>
</linearGradient>
<linearGradient id="paint6_linear_1_12839" x1="311.208" y1="212.076" x2="266.922" y2="267.184" gradientUnits="userSpaceOnUse">
<stop stop-color="#AE3B1B" stop-opacity="0.01"/>
<stop offset="1" stop-color="#AE3B1B"/>
</linearGradient>
<linearGradient id="paint7_linear_1_12839" x1="362.341" y1="269.446" x2="116.38" y2="269.446" gradientUnits="userSpaceOnUse">
<stop stop-color="white"/>
<stop offset="1" stop-color="white" stop-opacity="0.01"/>
</linearGradient>
<linearGradient id="paint8_linear_1_12839" x1="214.427" y1="170.094" x2="201.978" y2="170.094" gradientUnits="userSpaceOnUse">
<stop stop-color="#44484D" stop-opacity="0.01"/>
<stop offset="1" stop-color="#44484D"/>
</linearGradient>
</defs>
</svg>
