<svg width="444" height="433" viewBox="0 0 444 433" fill="none" xmlns="http://www.w3.org/2000/svg">
<g id="YuhPerson_DP_3d">
<g id="boot">
<path id="Rectangle Copy 4" fill-rule="evenodd" clip-rule="evenodd" d="M138.913 407.239C138.913 413.591 133.764 418.739 127.413 418.739H77.9131C77.9131 410.823 84.3303 404.406 92.2464 404.406H105.518C106.91 404.406 108.139 403.499 108.551 402.17L114.224 383.839C115.715 379.023 120.169 375.739 125.21 375.739H127.413C133.764 375.739 138.913 380.888 138.913 387.239V407.239Z" fill="#548BA3"/>
<g id="Path 20">
<path id="Mask" fill-rule="evenodd" clip-rule="evenodd" d="M80.3516 410.739C78.8119 413.024 77.9131 415.777 77.9131 418.739H127.413C132.544 418.739 136.89 415.379 138.371 410.739H80.3516Z" fill="#151A21"/>
<mask id="mask0_1_11212" style="mask-type:luminance" maskUnits="userSpaceOnUse" x="77" y="410" width="62" height="9">
<path id="Mask_2" fill-rule="evenodd" clip-rule="evenodd" d="M80.3516 410.739C78.8119 413.024 77.9131 415.777 77.9131 418.739H127.413C132.544 418.739 136.89 415.379 138.371 410.739H80.3516Z" fill="white"/>
</mask>
<g mask="url(#mask0_1_11212)">
</g>
</g>
<path id="Rectangle" d="M121.913 382.239C121.913 379.754 123.928 377.739 126.413 377.739H133.052C133.527 377.739 133.913 378.125 133.913 378.601V385.739C133.913 392.367 128.541 397.739 121.913 397.739V382.239Z" fill="#151A21"/>
</g>
<g id="Path 2">
<path d="M248.913 304.739C248.913 304.739 136.913 264.739 136.913 361.739" stroke="#FA5B35" stroke-width="60" stroke-linecap="round"/>
<path d="M248.913 304.739C248.913 304.739 136.913 264.739 136.913 361.739" stroke="url(#paint0_linear_1_11212)" stroke-width="60" stroke-linecap="round"/>
</g>
<g id="Group 31">
<g id="Group 77">
<circle id="Oval Copy 146" cx="231.137" cy="131.763" r="18" transform="rotate(15 231.137 131.763)" fill="#FA5B35"/>
<g id="Group 55 Copy 4">
<g id="Group 18">
<path id="Oval Copy 122" d="M261.534 84.0032C275.513 87.749 281.742 104.373 277.531 120.883L277.4 121.383L271.965 141.668L256.51 137.527L261.945 117.242C264.374 108.179 261.584 100.581 257.393 99.458C253.262 98.3511 247.167 103.371 244.666 112.192L244.558 112.583L229.104 108.442C233.571 91.7688 247.413 80.2195 261.534 84.0032Z" fill="#CCB1DA"/>
</g>
<g id="Oval Copy 123">
<ellipse cx="234.113" cy="120.655" rx="18" ry="10.5" transform="rotate(15 234.113 120.655)" fill="#CCB1DA"/>
<ellipse cx="234.113" cy="120.655" rx="18" ry="10.5" transform="rotate(15 234.113 120.655)" fill="url(#paint1_linear_1_11212)"/>
</g>
<rect id="Rectangle Copy 101" x="226.275" y="103.543" width="24" height="8" rx="3.75" transform="rotate(15 226.275 103.543)" fill="#151A21"/>
</g>
</g>
<g id="Group 87">
<g id="Rectangle_2">
<path fill-rule="evenodd" clip-rule="evenodd" d="M364.12 207.208C365.764 201.073 372.07 197.433 378.205 199.077L420.223 210.335C418.364 217.27 411.236 221.386 404.301 219.528L392.144 216.27C391.281 216.039 390.359 216.212 389.639 216.742L384.915 220.217C382.101 222.288 378.498 222.966 375.124 222.062L372.252 221.293C366.117 219.649 362.476 213.343 364.12 207.208Z" fill="#FA5B35"/>
<path fill-rule="evenodd" clip-rule="evenodd" d="M364.12 207.208C365.764 201.073 372.07 197.433 378.205 199.077L420.223 210.335C418.364 217.27 411.236 221.386 404.301 219.528L392.144 216.27C391.281 216.039 390.359 216.212 389.639 216.742L384.915 220.217C382.101 222.288 378.498 222.966 375.124 222.062L372.252 221.293C366.117 219.649 362.476 213.343 364.12 207.208Z" fill="url(#paint2_linear_1_11212)"/>
</g>
<g id="Rectangle_3">
<path fill-rule="evenodd" clip-rule="evenodd" d="M112.98 139.915C114.623 133.78 110.983 127.475 104.848 125.831L62.8301 114.572C60.9719 121.507 65.0875 128.636 72.0225 130.494L84.1795 133.751C85.0429 133.983 85.7543 134.594 86.113 135.413L88.4666 140.784C89.8686 143.984 92.6491 146.373 96.0236 147.278L98.8951 148.047C105.03 149.691 111.336 146.05 112.98 139.915Z" fill="#FA5B35"/>
<path fill-rule="evenodd" clip-rule="evenodd" d="M112.98 139.915C114.623 133.78 110.983 127.475 104.848 125.831L62.8301 114.572C60.9719 121.507 65.0875 128.636 72.0225 130.494L84.1795 133.751C85.0429 133.983 85.7543 134.594 86.113 135.413L88.4666 140.784C89.8686 143.984 92.6491 146.373 96.0236 147.278L98.8951 148.047C105.03 149.691 111.336 146.05 112.98 139.915Z" fill="url(#paint3_linear_1_11212)"/>
</g>
</g>
<g id="Combined Shape">
<path id="Mask_3" d="M382.551 200.241C375.976 224.781 350.752 239.343 326.213 232.768L286.72 222.186L304.024 311.715L214.185 300.628L194.04 197.352L133.028 181.004C108.488 174.429 93.9257 149.205 100.501 124.666L382.551 200.241Z" fill="url(#paint4_linear_1_11212)"/>
<mask id="mask1_1_11212" style="mask-type:luminance" maskUnits="userSpaceOnUse" x="98" y="124" width="285" height="188">
<path id="Mask_4" d="M382.551 200.241C375.976 224.781 350.752 239.343 326.213 232.768L286.72 222.186L304.024 311.715L214.185 300.628L194.04 197.352L133.028 181.004C108.488 174.429 93.9257 149.205 100.501 124.666L382.551 200.241Z" fill="white"/>
</mask>
<g mask="url(#mask1_1_11212)">
<path id="Combined Shape_2" d="M75.2385 242.13C76.3054 242.416 76.9386 243.513 76.6527 244.58C76.3668 245.647 75.2701 246.28 74.2032 245.994C73.1362 245.708 72.5031 244.611 72.789 243.544C73.0749 242.477 74.1715 241.844 75.2385 242.13ZM86.8296 245.236C87.8965 245.522 88.5297 246.618 88.2438 247.685C87.9579 248.752 86.8612 249.386 85.7943 249.1C84.7274 248.814 84.0942 247.717 84.3801 246.65C84.666 245.583 85.7626 244.95 86.8296 245.236ZM98.4207 248.342C99.4876 248.628 100.121 249.724 99.8349 250.791C99.549 251.858 98.4523 252.491 97.3854 252.205C96.3185 251.92 95.6853 250.823 95.9712 249.756C96.2571 248.689 97.3537 248.056 98.4207 248.342ZM110.012 251.448C111.079 251.733 111.712 252.83 111.426 253.897C111.14 254.964 110.043 255.597 108.977 255.311C107.91 255.025 107.276 253.929 107.562 252.862C107.848 251.795 108.945 251.162 110.012 251.448ZM121.603 254.553C122.67 254.839 123.303 255.936 123.017 257.003C122.731 258.07 121.635 258.703 120.568 258.417C119.501 258.131 118.868 257.035 119.153 255.968C119.439 254.901 120.536 254.268 121.603 254.553ZM133.194 257.659C134.261 257.945 134.894 259.042 134.608 260.109C134.322 261.176 133.226 261.809 132.159 261.523C131.092 261.237 130.459 260.14 130.745 259.073C131.03 258.007 132.127 257.373 133.194 257.659ZM144.785 260.765C145.852 261.051 146.485 262.148 146.199 263.215C145.913 264.281 144.817 264.915 143.75 264.629C142.683 264.343 142.05 263.246 142.336 262.179C142.622 261.112 143.718 260.479 144.785 260.765ZM156.376 263.871C157.443 264.157 158.076 265.253 157.79 266.32C157.505 267.387 156.408 268.02 155.341 267.735C154.274 267.449 153.641 266.352 153.927 265.285C154.213 264.218 155.309 263.585 156.376 263.871ZM167.967 266.977C169.034 267.263 169.667 268.359 169.382 269.426C169.096 270.493 167.999 271.126 166.932 270.84C165.865 270.555 165.232 269.458 165.518 268.391C165.804 267.324 166.9 266.691 167.967 266.977ZM179.558 270.083C180.625 270.368 181.259 271.465 180.973 272.532C180.687 273.599 179.59 274.232 178.523 273.946C177.456 273.66 176.823 272.564 177.109 271.497C177.395 270.43 178.492 269.797 179.558 270.083ZM191.15 273.188C192.216 273.474 192.85 274.571 192.564 275.638C192.278 276.705 191.181 277.338 190.114 277.052C189.047 276.766 188.414 275.67 188.7 274.603C188.986 273.536 190.083 272.902 191.15 273.188ZM202.741 276.294C203.808 276.58 204.441 277.677 204.155 278.744C203.869 279.811 202.772 280.444 201.705 280.158C200.638 279.872 200.005 278.775 200.291 277.708C200.577 276.641 201.674 276.008 202.741 276.294ZM214.332 279.4C215.399 279.686 216.032 280.783 215.746 281.85C215.46 282.916 214.363 283.55 213.296 283.264C212.23 282.978 211.596 281.881 211.882 280.814C212.168 279.747 213.265 279.114 214.332 279.4ZM225.923 282.506C226.99 282.792 227.623 283.888 227.337 284.955C227.051 286.022 225.955 286.655 224.888 286.37C223.821 286.084 223.188 284.987 223.473 283.92C223.759 282.853 224.856 282.22 225.923 282.506ZM237.514 285.612C238.581 285.898 239.214 286.994 238.928 288.061C238.642 289.128 237.546 289.761 236.479 289.475C235.412 289.19 234.779 288.093 235.065 287.026C235.35 285.959 236.447 285.326 237.514 285.612ZM249.105 288.718C250.172 289.003 250.805 290.1 250.519 291.167C250.233 292.234 249.137 292.867 248.07 292.581C247.003 292.295 246.37 291.199 246.656 290.132C246.941 289.065 248.038 288.432 249.105 288.718ZM260.696 291.823C261.763 292.109 262.396 293.206 262.11 294.273C261.825 295.34 260.728 295.973 259.661 295.687C258.594 295.401 257.961 294.304 258.247 293.238C258.533 292.171 259.629 291.537 260.696 291.823ZM272.287 294.929C273.354 295.215 273.987 296.312 273.702 297.379C273.416 298.446 272.319 299.079 271.252 298.793C270.185 298.507 269.552 297.41 269.838 296.343C270.124 295.276 271.22 294.643 272.287 294.929ZM283.878 298.035C284.945 298.321 285.579 299.418 285.293 300.484C285.007 301.551 283.91 302.185 282.843 301.899C281.776 301.613 281.143 300.516 281.429 299.449C281.715 298.382 282.812 297.749 283.878 298.035ZM295.47 301.141C296.536 301.427 297.17 302.523 296.884 303.59C296.598 304.657 295.501 305.29 294.434 305.005C293.367 304.719 292.734 303.622 293.02 302.555C293.306 301.488 294.403 300.855 295.47 301.141ZM307.061 304.247C308.128 304.533 308.761 305.629 308.475 306.696C308.189 307.763 307.092 308.396 306.025 308.11C304.958 307.824 304.325 306.728 304.611 305.661C304.897 304.594 305.994 303.961 307.061 304.247ZM318.652 307.352C319.719 307.638 320.352 308.735 320.066 309.802C319.78 310.869 318.683 311.502 317.616 311.216C316.55 310.93 315.916 309.834 316.202 308.767C316.488 307.7 317.585 307.067 318.652 307.352ZM330.243 310.458C331.31 310.744 331.943 311.841 331.657 312.908C331.371 313.975 330.275 314.608 329.208 314.322C328.141 314.036 327.507 312.939 327.793 311.873C328.079 310.806 329.176 310.172 330.243 310.458ZM341.834 313.564C342.901 313.85 343.534 314.947 343.248 316.014C342.962 317.081 341.866 317.714 340.799 317.428C339.732 317.142 339.099 316.045 339.384 314.978C339.67 313.911 340.767 313.278 341.834 313.564ZM353.425 316.67C354.492 316.956 355.125 318.053 354.839 319.119C354.553 320.186 353.457 320.82 352.39 320.534C351.323 320.248 350.69 319.151 350.976 318.084C351.261 317.017 352.358 316.384 353.425 316.67ZM71.5135 232.85C72.5804 233.136 73.2136 234.232 72.9277 235.299C72.6418 236.366 71.5451 236.999 70.4782 236.713C69.4112 236.428 68.7781 235.331 69.064 234.264C69.3498 233.197 70.4465 232.564 71.5135 232.85ZM83.1046 235.956C84.1715 236.241 84.8047 237.338 84.5188 238.405C84.2329 239.472 83.1362 240.105 82.0693 239.819C81.0024 239.533 80.3692 238.437 80.6551 237.37C80.941 236.303 82.0376 235.67 83.1046 235.956ZM94.6957 239.061C95.7626 239.347 96.3958 240.444 96.1099 241.511C95.824 242.578 94.7273 243.211 93.6604 242.925C92.5935 242.639 91.9603 241.543 92.2462 240.476C92.5321 239.409 93.6287 238.776 94.6957 239.061ZM106.287 242.167C107.354 242.453 107.987 243.55 107.701 244.617C107.415 245.684 106.318 246.317 105.252 246.031C104.185 245.745 103.551 244.648 103.837 243.581C104.123 242.515 105.22 241.881 106.287 242.167ZM117.878 245.273C118.945 245.559 119.578 246.656 119.292 247.723C119.006 248.79 117.91 249.423 116.843 249.137C115.776 248.851 115.143 247.754 115.428 246.687C115.714 245.62 116.811 244.987 117.878 245.273ZM129.469 248.379C130.536 248.665 131.169 249.761 130.883 250.828C130.597 251.895 129.501 252.528 128.434 252.243C127.367 251.957 126.734 250.86 127.02 249.793C127.305 248.726 128.402 248.093 129.469 248.379ZM141.06 251.485C142.127 251.771 142.76 252.867 142.474 253.934C142.188 255.001 141.092 255.634 140.025 255.348C138.958 255.063 138.325 253.966 138.611 252.899C138.897 251.832 139.993 251.199 141.06 251.485ZM152.651 254.591C153.718 254.876 154.351 255.973 154.065 257.04C153.78 258.107 152.683 258.74 151.616 258.454C150.549 258.168 149.916 257.072 150.202 256.005C150.488 254.938 151.584 254.305 152.651 254.591ZM164.242 257.696C165.309 257.982 165.942 259.079 165.657 260.146C165.371 261.213 164.274 261.846 163.207 261.56C162.14 261.274 161.507 260.178 161.793 259.111C162.079 258.044 163.175 257.411 164.242 257.696ZM175.833 260.802C176.9 261.088 177.534 262.185 177.248 263.252C176.962 264.319 175.865 264.952 174.798 264.666C173.731 264.38 173.098 263.283 173.384 262.216C173.67 261.15 174.767 260.516 175.833 260.802ZM187.425 263.908C188.491 264.194 189.125 265.291 188.839 266.358C188.553 267.424 187.456 268.058 186.389 267.772C185.322 267.486 184.689 266.389 184.975 265.322C185.261 264.255 186.358 263.622 187.425 263.908ZM199.016 267.014C200.083 267.3 200.716 268.396 200.43 269.463C200.144 270.53 199.047 271.163 197.98 270.878C196.913 270.592 196.28 269.495 196.566 268.428C196.852 267.361 197.949 266.728 199.016 267.014ZM210.607 270.12C211.674 270.406 212.307 271.502 212.021 272.569C211.735 273.636 210.638 274.269 209.571 273.983C208.505 273.698 207.871 272.601 208.157 271.534C208.443 270.467 209.54 269.834 210.607 270.12ZM222.198 273.226C223.265 273.511 223.898 274.608 223.612 275.675C223.326 276.742 222.23 277.375 221.163 277.089C220.096 276.803 219.463 275.707 219.748 274.64C220.034 273.573 221.131 272.94 222.198 273.226ZM233.789 276.331C234.856 276.617 235.489 277.714 235.203 278.781C234.917 279.848 233.821 280.481 232.754 280.195C231.687 279.909 231.054 278.813 231.34 277.746C231.625 276.679 232.722 276.045 233.789 276.331ZM245.38 279.437C246.447 279.723 247.08 280.82 246.794 281.887C246.508 282.954 245.412 283.587 244.345 283.301C243.278 283.015 242.645 281.918 242.931 280.851C243.216 279.784 244.313 279.151 245.38 279.437ZM256.971 282.543C258.038 282.829 258.671 283.926 258.385 284.993C258.1 286.059 257.003 286.693 255.936 286.407C254.869 286.121 254.236 285.024 254.522 283.957C254.808 282.89 255.904 282.257 256.971 282.543ZM268.562 285.649C269.629 285.935 270.262 287.031 269.977 288.098C269.691 289.165 268.594 289.798 267.527 289.513C266.46 289.227 265.827 288.13 266.113 287.063C266.399 285.996 267.495 285.363 268.562 285.649ZM280.153 288.755C281.22 289.041 281.854 290.137 281.568 291.204C281.282 292.271 280.185 292.904 279.118 292.618C278.051 292.332 277.418 291.236 277.704 290.169C277.99 289.102 279.086 288.469 280.153 288.755ZM291.745 291.861C292.811 292.146 293.445 293.243 293.159 294.31C292.873 295.377 291.776 296.01 290.709 295.724C289.642 295.438 289.009 294.342 289.295 293.275C289.581 292.208 290.678 291.575 291.745 291.861ZM303.336 294.966C304.403 295.252 305.036 296.349 304.75 297.416C304.464 298.483 303.367 299.116 302.3 298.83C301.233 298.544 300.6 297.447 300.886 296.381C301.172 295.314 302.269 294.68 303.336 294.966ZM314.927 298.072C315.994 298.358 316.627 299.455 316.341 300.522C316.055 301.589 314.958 302.222 313.891 301.936C312.825 301.65 312.191 300.553 312.477 299.486C312.763 298.419 313.86 297.786 314.927 298.072ZM326.518 301.178C327.585 301.464 328.218 302.561 327.932 303.627C327.646 304.694 326.55 305.328 325.483 305.042C324.416 304.756 323.782 303.659 324.068 302.592C324.354 301.525 325.451 300.892 326.518 301.178ZM338.109 304.284C339.176 304.57 339.809 305.666 339.523 306.733C339.237 307.8 338.141 308.433 337.074 308.148C336.007 307.862 335.374 306.765 335.659 305.698C335.945 304.631 337.042 303.998 338.109 304.284ZM349.7 307.39C350.767 307.676 351.4 308.772 351.114 309.839C350.828 310.906 349.732 311.539 348.665 311.253C347.598 310.967 346.965 309.871 347.251 308.804C347.536 307.737 348.633 307.104 349.7 307.39ZM79.3796 226.675C80.4465 226.961 81.0797 228.058 80.7938 229.125C80.5079 230.192 79.4112 230.825 78.3443 230.539C77.2774 230.253 76.6442 229.156 76.9301 228.089C77.216 227.023 78.3126 226.389 79.3796 226.675ZM90.9707 229.781C92.0376 230.067 92.6708 231.164 92.3849 232.231C92.099 233.298 91.0023 233.931 89.9354 233.645C88.8685 233.359 88.2353 232.262 88.5212 231.195C88.8071 230.128 89.9037 229.495 90.9707 229.781ZM102.562 232.887C103.629 233.173 104.262 234.269 103.976 235.336C103.69 236.403 102.593 237.037 101.527 236.751C100.46 236.465 99.8264 235.368 100.112 234.301C100.398 233.234 101.495 232.601 102.562 232.887ZM114.153 235.993C115.22 236.279 115.853 237.375 115.567 238.442C115.281 239.509 114.185 240.142 113.118 239.856C112.051 239.571 111.418 238.474 111.703 237.407C111.989 236.34 113.086 235.707 114.153 235.993ZM125.744 239.099C126.811 239.384 127.444 240.481 127.158 241.548C126.872 242.615 125.776 243.248 124.709 242.962C123.642 242.676 123.009 241.58 123.295 240.513C123.58 239.446 124.677 238.813 125.744 239.099ZM137.335 242.204C138.402 242.49 139.035 243.587 138.749 244.654C138.463 245.721 137.367 246.354 136.3 246.068C135.233 245.782 134.6 244.686 134.886 243.619C135.172 242.552 136.268 241.919 137.335 242.204ZM148.926 245.31C149.993 245.596 150.626 246.693 150.34 247.76C150.055 248.827 148.958 249.46 147.891 249.174C146.824 248.888 146.191 247.791 146.477 246.724C146.763 245.658 147.859 245.024 148.926 245.31ZM160.517 248.416C161.584 248.702 162.217 249.799 161.932 250.866C161.646 251.932 160.549 252.566 159.482 252.28C158.415 251.994 157.782 250.897 158.068 249.83C158.354 248.763 159.45 248.13 160.517 248.416ZM172.108 251.522C173.175 251.808 173.809 252.904 173.523 253.971C173.237 255.038 172.14 255.671 171.073 255.386C170.006 255.1 169.373 254.003 169.659 252.936C169.945 251.869 171.042 251.236 172.108 251.522ZM183.7 254.628C184.766 254.914 185.4 256.01 185.114 257.077C184.828 258.144 183.731 258.777 182.664 258.491C181.597 258.206 180.964 257.109 181.25 256.042C181.536 254.975 182.633 254.342 183.7 254.628ZM195.291 257.734C196.358 258.019 196.991 259.116 196.705 260.183C196.419 261.25 195.322 261.883 194.255 261.597C193.188 261.311 192.555 260.215 192.841 259.148C193.127 258.081 194.224 257.448 195.291 257.734ZM206.882 260.839C207.949 261.125 208.582 262.222 208.296 263.289C208.01 264.356 206.913 264.989 205.846 264.703C204.78 264.417 204.146 263.321 204.432 262.254C204.718 261.187 205.815 260.554 206.882 260.839ZM218.473 263.945C219.54 264.231 220.173 265.328 219.887 266.395C219.601 267.462 218.505 268.095 217.438 267.809C216.371 267.523 215.738 266.426 216.023 265.359C216.309 264.292 217.406 263.659 218.473 263.945ZM230.064 267.051C231.131 267.337 231.764 268.434 231.478 269.501C231.192 270.567 230.096 271.201 229.029 270.915C227.962 270.629 227.329 269.532 227.614 268.465C227.9 267.398 228.997 266.765 230.064 267.051ZM241.655 270.157C242.722 270.443 243.355 271.539 243.069 272.606C242.783 273.673 241.687 274.306 240.62 274.021C239.553 273.735 238.92 272.638 239.206 271.571C239.491 270.504 240.588 269.871 241.655 270.157ZM253.246 273.263C254.313 273.549 254.946 274.645 254.66 275.712C254.375 276.779 253.278 277.412 252.211 277.126C251.144 276.841 250.511 275.744 250.797 274.677C251.083 273.61 252.179 272.977 253.246 273.263ZM264.837 276.369C265.904 276.654 266.537 277.751 266.252 278.818C265.966 279.885 264.869 280.518 263.802 280.232C262.735 279.946 262.102 278.85 262.388 277.783C262.674 276.716 263.77 276.083 264.837 276.369ZM276.428 279.474C277.495 279.76 278.129 280.857 277.843 281.924C277.557 282.991 276.46 283.624 275.393 283.338C274.326 283.052 273.693 281.956 273.979 280.889C274.265 279.822 275.361 279.188 276.428 279.474ZM288.02 282.58C289.086 282.866 289.72 283.963 289.434 285.03C289.148 286.097 288.051 286.73 286.984 286.444C285.917 286.158 285.284 285.061 285.57 283.994C285.856 282.927 286.953 282.294 288.02 282.58ZM299.611 285.686C300.678 285.972 301.311 287.069 301.025 288.136C300.739 289.202 299.642 289.836 298.575 289.55C297.508 289.264 296.875 288.167 297.161 287.1C297.447 286.033 298.544 285.4 299.611 285.686ZM311.202 288.792C312.269 289.078 312.902 290.174 312.616 291.241C312.33 292.308 311.233 292.941 310.166 292.656C309.1 292.37 308.466 291.273 308.752 290.206C309.038 289.139 310.135 288.506 311.202 288.792ZM322.793 291.898C323.86 292.184 324.493 293.28 324.207 294.347C323.921 295.414 322.825 296.047 321.758 295.761C320.691 295.475 320.057 294.379 320.343 293.312C320.629 292.245 321.726 291.612 322.793 291.898ZM334.384 295.004C335.451 295.289 336.084 296.386 335.798 297.453C335.512 298.52 334.416 299.153 333.349 298.867C332.282 298.581 331.649 297.485 331.934 296.418C332.22 295.351 333.317 294.718 334.384 295.004ZM345.975 298.109C347.042 298.395 347.675 299.492 347.389 300.559C347.103 301.626 346.007 302.259 344.94 301.973C343.873 301.687 343.24 300.59 343.526 299.524C343.811 298.457 344.908 297.823 345.975 298.109ZM357.566 301.215C358.633 301.501 359.266 302.598 358.98 303.665C358.695 304.732 357.598 305.365 356.531 305.079C355.464 304.793 354.831 303.696 355.117 302.629C355.403 301.562 356.499 300.929 357.566 301.215ZM75.6546 217.395C76.7215 217.681 77.3547 218.778 77.0688 219.844C76.7829 220.911 75.6862 221.545 74.6193 221.259C73.5524 220.973 72.9192 219.876 73.2051 218.809C73.491 217.742 74.5876 217.109 75.6546 217.395ZM87.2457 220.501C88.3126 220.787 88.9458 221.883 88.6599 222.95C88.374 224.017 87.2773 224.65 86.2104 224.364C85.1435 224.079 84.5103 222.982 84.7962 221.915C85.0821 220.848 86.1787 220.215 87.2457 220.501ZM98.8368 223.607C99.9037 223.892 100.537 224.989 100.251 226.056C99.9651 227.123 98.8684 227.756 97.8015 227.47C96.7346 227.184 96.1014 226.088 96.3873 225.021C96.6732 223.954 97.7698 223.321 98.8368 223.607ZM110.428 226.712C111.495 226.998 112.128 228.095 111.842 229.162C111.556 230.229 110.46 230.862 109.393 230.576C108.326 230.29 107.693 229.194 107.978 228.127C108.264 227.06 109.361 226.427 110.428 226.712ZM122.019 229.818C123.086 230.104 123.719 231.201 123.433 232.268C123.147 233.335 122.051 233.968 120.984 233.682C119.917 233.396 119.284 232.299 119.57 231.232C119.855 230.166 120.952 229.532 122.019 229.818ZM133.61 232.924C134.677 233.21 135.31 234.307 135.024 235.374C134.738 236.441 133.642 237.074 132.575 236.788C131.508 236.502 130.875 235.405 131.161 234.338C131.447 233.271 132.543 232.638 133.61 232.924ZM145.201 236.03C146.268 236.316 146.901 237.412 146.615 238.479C146.33 239.546 145.233 240.18 144.166 239.894C143.099 239.608 142.466 238.511 142.752 237.444C143.038 236.377 144.134 235.744 145.201 236.03ZM156.792 239.136C157.859 239.422 158.492 240.518 158.207 241.585C157.921 242.652 156.824 243.285 155.757 242.999C154.69 242.714 154.057 241.617 154.343 240.55C154.629 239.483 155.725 238.85 156.792 239.136ZM168.383 242.242C169.45 242.527 170.084 243.624 169.798 244.691C169.512 245.758 168.415 246.391 167.348 246.105C166.281 245.819 165.648 244.723 165.934 243.656C166.22 242.589 167.317 241.956 168.383 242.242ZM179.975 245.347C181.041 245.633 181.675 246.73 181.389 247.797C181.103 248.864 180.006 249.497 178.939 249.211C177.872 248.925 177.239 247.829 177.525 246.762C177.811 245.695 178.908 245.062 179.975 245.347ZM191.566 248.453C192.633 248.739 193.266 249.836 192.98 250.903C192.694 251.97 191.597 252.603 190.53 252.317C189.463 252.031 188.83 250.934 189.116 249.867C189.402 248.801 190.499 248.167 191.566 248.453ZM203.157 251.559C204.224 251.845 204.857 252.942 204.571 254.009C204.285 255.075 203.188 255.709 202.121 255.423C201.055 255.137 200.421 254.04 200.707 252.973C200.993 251.906 202.09 251.273 203.157 251.559ZM214.748 254.665C215.815 254.951 216.448 256.047 216.162 257.114C215.876 258.181 214.78 258.814 213.713 258.529C212.646 258.243 212.013 257.146 212.298 256.079C212.584 255.012 213.681 254.379 214.748 254.665ZM226.339 257.771C227.406 258.057 228.039 259.153 227.753 260.22C227.467 261.287 226.371 261.92 225.304 261.634C224.237 261.349 223.604 260.252 223.889 259.185C224.175 258.118 225.272 257.485 226.339 257.771ZM237.93 260.877C238.997 261.162 239.63 262.259 239.344 263.326C239.058 264.393 237.962 265.026 236.895 264.74C235.828 264.454 235.195 263.358 235.481 262.291C235.766 261.224 236.863 260.591 237.93 260.877ZM249.521 263.982C250.588 264.268 251.221 265.365 250.935 266.432C250.65 267.499 249.553 268.132 248.486 267.846C247.419 267.56 246.786 266.464 247.072 265.397C247.358 264.33 248.454 263.696 249.521 263.982ZM261.112 267.088C262.179 267.374 262.812 268.471 262.527 269.538C262.241 270.605 261.144 271.238 260.077 270.952C259.01 270.666 258.377 269.569 258.663 268.502C258.949 267.435 260.045 266.802 261.112 267.088ZM272.703 270.194C273.77 270.48 274.404 271.577 274.118 272.644C273.832 273.71 272.735 274.344 271.668 274.058C270.601 273.772 269.968 272.675 270.254 271.608C270.54 270.541 271.636 269.908 272.703 270.194ZM284.295 273.3C285.361 273.586 285.995 274.682 285.709 275.749C285.423 276.816 284.326 277.449 283.259 277.164C282.192 276.878 281.559 275.781 281.845 274.714C282.131 273.647 283.228 273.014 284.295 273.3ZM295.886 276.406C296.953 276.692 297.586 277.788 297.3 278.855C297.014 279.922 295.917 280.555 294.85 280.269C293.783 279.984 293.15 278.887 293.436 277.82C293.722 276.753 294.819 276.12 295.886 276.406ZM307.477 279.512C308.544 279.797 309.177 280.894 308.891 281.961C308.605 283.028 307.508 283.661 306.441 283.375C305.375 283.089 304.741 281.993 305.027 280.926C305.313 279.859 306.41 279.226 307.477 279.512ZM319.068 282.617C320.135 282.903 320.768 284 320.482 285.067C320.196 286.134 319.1 286.767 318.033 286.481C316.966 286.195 316.332 285.098 316.618 284.032C316.904 282.965 318.001 282.331 319.068 282.617ZM330.659 285.723C331.726 286.009 332.359 287.106 332.073 288.173C331.787 289.24 330.691 289.873 329.624 289.587C328.557 289.301 327.924 288.204 328.209 287.137C328.495 286.07 329.592 285.437 330.659 285.723ZM342.25 288.829C343.317 289.115 343.95 290.212 343.664 291.278C343.378 292.345 342.282 292.979 341.215 292.693C340.148 292.407 339.515 291.31 339.801 290.243C340.086 289.176 341.183 288.543 342.25 288.829ZM353.841 291.935C354.908 292.221 355.541 293.317 355.255 294.384C354.97 295.451 353.873 296.084 352.806 295.799C351.739 295.513 351.106 294.416 351.392 293.349C351.678 292.282 352.774 291.649 353.841 291.935ZM83.5207 211.22C84.5876 211.506 85.2208 212.603 84.9349 213.67C84.649 214.737 83.5523 215.37 82.4854 215.084C81.4185 214.798 80.7853 213.702 81.0712 212.635C81.3571 211.568 82.4537 210.935 83.5207 211.22ZM95.1118 214.326C96.1787 214.612 96.8119 215.709 96.526 216.776C96.2401 217.843 95.1434 218.476 94.0765 218.19C93.0096 217.904 92.3764 216.807 92.6623 215.741C92.9482 214.674 94.0448 214.04 95.1118 214.326ZM106.703 217.432C107.77 217.718 108.403 218.815 108.117 219.882C107.831 220.949 106.735 221.582 105.668 221.296C104.601 221.01 103.968 219.913 104.253 218.846C104.539 217.779 105.636 217.146 106.703 217.432ZM118.294 220.538C119.361 220.824 119.994 221.921 119.708 222.987C119.422 224.054 118.326 224.688 117.259 224.402C116.192 224.116 115.559 223.019 115.845 221.952C116.13 220.885 117.227 220.252 118.294 220.538ZM129.885 223.644C130.952 223.93 131.585 225.026 131.299 226.093C131.013 227.16 129.917 227.793 128.85 227.507C127.783 227.222 127.15 226.125 127.436 225.058C127.721 223.991 128.818 223.358 129.885 223.644ZM141.476 226.75C142.543 227.035 143.176 228.132 142.89 229.199C142.605 230.266 141.508 230.899 140.441 230.613C139.374 230.327 138.741 229.231 139.027 228.164C139.313 227.097 140.409 226.464 141.476 226.75ZM153.067 229.855C154.134 230.141 154.767 231.238 154.482 232.305C154.196 233.372 153.099 234.005 152.032 233.719C150.965 233.433 150.332 232.337 150.618 231.27C150.904 230.203 152 229.57 153.067 229.855ZM164.658 232.961C165.725 233.247 166.359 234.344 166.073 235.411C165.787 236.478 164.69 237.111 163.623 236.825C162.556 236.539 161.923 235.442 162.209 234.375C162.495 233.309 163.592 232.675 164.658 232.961ZM176.25 236.067C177.316 236.353 177.95 237.45 177.664 238.517C177.378 239.584 176.281 240.217 175.214 239.931C174.147 239.645 173.514 238.548 173.8 237.481C174.086 236.414 175.183 235.781 176.25 236.067ZM187.841 239.173C188.908 239.459 189.541 240.555 189.255 241.622C188.969 242.689 187.872 243.323 186.805 243.037C185.738 242.751 185.105 241.654 185.391 240.587C185.677 239.52 186.774 238.887 187.841 239.173ZM199.432 242.279C200.499 242.565 201.132 243.661 200.846 244.728C200.56 245.795 199.463 246.428 198.396 246.142C197.33 245.857 196.696 244.76 196.982 243.693C197.268 242.626 198.365 241.993 199.432 242.279ZM211.023 245.385C212.09 245.67 212.723 246.767 212.437 247.834C212.151 248.901 211.055 249.534 209.988 249.248C208.921 248.962 208.288 247.866 208.573 246.799C208.859 245.732 209.956 245.099 211.023 245.385ZM222.614 248.49C223.681 248.776 224.314 249.873 224.028 250.94C223.742 252.007 222.646 252.64 221.579 252.354C220.512 252.068 219.879 250.972 220.164 249.905C220.45 248.838 221.547 248.205 222.614 248.49ZM234.205 251.596C235.272 251.882 235.905 252.979 235.619 254.046C235.333 255.113 234.237 255.746 233.17 255.46C232.103 255.174 231.47 254.077 231.756 253.01C232.041 251.944 233.138 251.31 234.205 251.596ZM245.796 254.702C246.863 254.988 247.496 256.085 247.21 257.152C246.925 258.218 245.828 258.852 244.761 258.566C243.694 258.28 243.061 257.183 243.347 256.116C243.633 255.049 244.729 254.416 245.796 254.702ZM257.387 257.808C258.454 258.094 259.087 259.19 258.802 260.257C258.516 261.324 257.419 261.957 256.352 261.672C255.285 261.386 254.652 260.289 254.938 259.222C255.224 258.155 256.32 257.522 257.387 257.808ZM268.978 260.914C270.045 261.2 270.679 262.296 270.393 263.363C270.107 264.43 269.01 265.063 267.943 264.777C266.876 264.492 266.243 263.395 266.529 262.328C266.815 261.261 267.911 260.628 268.978 260.914ZM280.57 264.02C281.636 264.305 282.27 265.402 281.984 266.469C281.698 267.536 280.601 268.169 279.534 267.883C278.467 267.597 277.834 266.501 278.12 265.434C278.406 264.367 279.503 263.734 280.57 264.02ZM292.161 267.125C293.228 267.411 293.861 268.508 293.575 269.575C293.289 270.642 292.192 271.275 291.125 270.989C290.058 270.703 289.425 269.607 289.711 268.54C289.997 267.473 291.094 266.839 292.161 267.125ZM303.752 270.231C304.819 270.517 305.452 271.614 305.166 272.681C304.88 273.748 303.783 274.381 302.716 274.095C301.65 273.809 301.016 272.712 301.302 271.645C301.588 270.578 302.685 269.945 303.752 270.231ZM315.343 273.337C316.41 273.623 317.043 274.72 316.757 275.787C316.471 276.853 315.375 277.487 314.308 277.201C313.241 276.915 312.607 275.818 312.893 274.751C313.179 273.684 314.276 273.051 315.343 273.337ZM326.934 276.443C328.001 276.729 328.634 277.825 328.348 278.892C328.062 279.959 326.966 280.592 325.899 280.307C324.832 280.021 324.199 278.924 324.484 277.857C324.77 276.79 325.867 276.157 326.934 276.443ZM338.525 279.549C339.592 279.835 340.225 280.931 339.939 281.998C339.653 283.065 338.557 283.698 337.49 283.412C336.423 283.127 335.79 282.03 336.076 280.963C336.361 279.896 337.458 279.263 338.525 279.549ZM350.116 282.655C351.183 282.94 351.816 284.037 351.53 285.104C351.245 286.171 350.148 286.804 349.081 286.518C348.014 286.232 347.381 285.136 347.667 284.069C347.953 283.002 349.049 282.369 350.116 282.655ZM361.707 285.76C362.774 286.046 363.407 287.143 363.122 288.21C362.836 289.277 361.739 289.91 360.672 289.624C359.605 289.338 358.972 288.241 359.258 287.175C359.544 286.108 360.64 285.474 361.707 285.76ZM79.7957 201.94C80.8626 202.226 81.4958 203.323 81.2099 204.39C80.924 205.457 79.8273 206.09 78.7604 205.804C77.6935 205.518 77.0603 204.421 77.3462 203.354C77.6321 202.287 78.7287 201.654 79.7957 201.94ZM91.3868 205.046C92.4537 205.332 93.0869 206.429 92.801 207.495C92.5151 208.562 91.4184 209.196 90.3515 208.91C89.2846 208.624 88.6514 207.527 88.9373 206.46C89.2232 205.393 90.3198 204.76 91.3868 205.046ZM102.978 208.152C104.045 208.438 104.678 209.534 104.392 210.601C104.106 211.668 103.01 212.301 101.943 212.016C100.876 211.73 100.243 210.633 100.528 209.566C100.814 208.499 101.911 207.866 102.978 208.152ZM114.569 211.258C115.636 211.544 116.269 212.64 115.983 213.707C115.697 214.774 114.601 215.407 113.534 215.121C112.467 214.835 111.834 213.739 112.12 212.672C112.405 211.605 113.502 210.972 114.569 211.258ZM126.16 214.363C127.227 214.649 127.86 215.746 127.574 216.813C127.288 217.88 126.192 218.513 125.125 218.227C124.058 217.941 123.425 216.845 123.711 215.778C123.996 214.711 125.093 214.078 126.16 214.363ZM137.751 217.469C138.818 217.755 139.451 218.852 139.165 219.919C138.88 220.986 137.783 221.619 136.716 221.333C135.649 221.047 135.016 219.95 135.302 218.883C135.588 217.817 136.684 217.183 137.751 217.469ZM149.342 220.575C150.409 220.861 151.042 221.958 150.757 223.025C150.471 224.092 149.374 224.725 148.307 224.439C147.24 224.153 146.607 223.056 146.893 221.989C147.179 220.922 148.275 220.289 149.342 220.575ZM160.933 223.681C162 223.967 162.634 225.063 162.348 226.13C162.062 227.197 160.965 227.831 159.898 227.545C158.831 227.259 158.198 226.162 158.484 225.095C158.77 224.028 159.867 223.395 160.933 223.681ZM172.525 226.787C173.591 227.073 174.225 228.169 173.939 229.236C173.653 230.303 172.556 230.936 171.489 230.65C170.422 230.365 169.789 229.268 170.075 228.201C170.361 227.134 171.458 226.501 172.525 226.787ZM184.116 229.893C185.183 230.178 185.816 231.275 185.53 232.342C185.244 233.409 184.147 234.042 183.08 233.756C182.013 233.47 181.38 232.374 181.666 231.307C181.952 230.24 183.049 229.607 184.116 229.893ZM195.707 232.998C196.774 233.284 197.407 234.381 197.121 235.448C196.835 236.515 195.738 237.148 194.671 236.862C193.605 236.576 192.971 235.48 193.257 234.413C193.543 233.346 194.64 232.713 195.707 232.998ZM207.298 236.104C208.365 236.39 208.998 237.487 208.712 238.554C208.426 239.621 207.33 240.254 206.263 239.968C205.196 239.682 204.562 238.585 204.848 237.518C205.134 236.452 206.231 235.818 207.298 236.104ZM218.889 239.21C219.956 239.496 220.589 240.593 220.303 241.66C220.017 242.727 218.921 243.36 217.854 243.074C216.787 242.788 216.154 241.691 216.439 240.624C216.725 239.557 217.822 238.924 218.889 239.21ZM230.48 242.316C231.547 242.602 232.18 243.698 231.894 244.765C231.608 245.832 230.512 246.465 229.445 246.18C228.378 245.894 227.745 244.797 228.031 243.73C228.316 242.663 229.413 242.03 230.48 242.316ZM242.071 245.422C243.138 245.708 243.771 246.804 243.485 247.871C243.2 248.938 242.103 249.571 241.036 249.285C239.969 249 239.336 247.903 239.622 246.836C239.908 245.769 241.004 245.136 242.071 245.422ZM253.662 248.528C254.729 248.813 255.362 249.91 255.077 250.977C254.791 252.044 253.694 252.677 252.627 252.391C251.56 252.105 250.927 251.009 251.213 249.942C251.499 248.875 252.595 248.242 253.662 248.528ZM265.253 251.633C266.32 251.919 266.954 253.016 266.668 254.083C266.382 255.15 265.285 255.783 264.218 255.497C263.151 255.211 262.518 254.115 262.804 253.048C263.09 251.981 264.186 251.348 265.253 251.633ZM276.845 254.739C277.911 255.025 278.545 256.122 278.259 257.189C277.973 258.256 276.876 258.889 275.809 258.603C274.742 258.317 274.109 257.22 274.395 256.153C274.681 255.087 275.778 254.453 276.845 254.739ZM288.436 257.845C289.503 258.131 290.136 259.228 289.85 260.295C289.564 261.361 288.467 261.995 287.4 261.709C286.333 261.423 285.7 260.326 285.986 259.259C286.272 258.192 287.369 257.559 288.436 257.845ZM300.027 260.951C301.094 261.237 301.727 262.333 301.441 263.4C301.155 264.467 300.058 265.1 298.991 264.815C297.925 264.529 297.291 263.432 297.577 262.365C297.863 261.298 298.96 260.665 300.027 260.951ZM311.618 264.057C312.685 264.343 313.318 265.439 313.032 266.506C312.746 267.573 311.65 268.206 310.583 267.92C309.516 267.635 308.882 266.538 309.168 265.471C309.454 264.404 310.551 263.771 311.618 264.057ZM323.209 267.163C324.276 267.448 324.909 268.545 324.623 269.612C324.337 270.679 323.241 271.312 322.174 271.026C321.107 270.74 320.474 269.644 320.759 268.577C321.045 267.51 322.142 266.877 323.209 267.163ZM334.8 270.268C335.867 270.554 336.5 271.651 336.214 272.718C335.928 273.785 334.832 274.418 333.765 274.132C332.698 273.846 332.065 272.75 332.351 271.683C332.636 270.616 333.733 269.982 334.8 270.268ZM346.391 273.374C347.458 273.66 348.091 274.757 347.805 275.824C347.52 276.891 346.423 277.524 345.356 277.238C344.289 276.952 343.656 275.855 343.942 274.788C344.228 273.721 345.324 273.088 346.391 273.374ZM357.982 276.48C359.049 276.766 359.682 277.863 359.397 278.93C359.111 279.996 358.014 280.63 356.947 280.344C355.88 280.058 355.247 278.961 355.533 277.894C355.819 276.827 356.915 276.194 357.982 276.48ZM87.6618 195.766C88.7287 196.052 89.3619 197.148 89.076 198.215C88.7901 199.282 87.6934 199.915 86.6265 199.629C85.5596 199.343 84.9264 198.247 85.2123 197.18C85.4982 196.113 86.5948 195.48 87.6618 195.766ZM99.2529 198.871C100.32 199.157 100.953 200.254 100.667 201.321C100.381 202.388 99.2845 203.021 98.2176 202.735C97.1507 202.449 96.5175 201.353 96.8034 200.286C97.0893 199.219 98.1859 198.586 99.2529 198.871ZM110.844 201.977C111.911 202.263 112.544 203.36 112.258 204.427C111.972 205.494 110.876 206.127 109.809 205.841C108.742 205.555 108.109 204.458 108.395 203.392C108.68 202.325 109.777 201.691 110.844 201.977ZM122.435 205.083C123.502 205.369 124.135 206.466 123.849 207.533C123.563 208.6 122.467 209.233 121.4 208.947C120.333 208.661 119.7 207.564 119.986 206.497C120.271 205.43 121.368 204.797 122.435 205.083ZM134.026 208.189C135.093 208.475 135.726 209.572 135.44 210.638C135.155 211.705 134.058 212.339 132.991 212.053C131.924 211.767 131.291 210.67 131.577 209.603C131.863 208.536 132.959 207.903 134.026 208.189ZM145.617 211.295C146.684 211.581 147.317 212.677 147.032 213.744C146.746 214.811 145.649 215.444 144.582 215.158C143.515 214.873 142.882 213.776 143.168 212.709C143.454 211.642 144.55 211.009 145.617 211.295ZM157.208 214.401C158.275 214.687 158.909 215.783 158.623 216.85C158.337 217.917 157.24 218.55 156.173 218.264C155.106 217.978 154.473 216.882 154.759 215.815C155.045 214.748 156.141 214.115 157.208 214.401ZM168.8 217.506C169.866 217.792 170.5 218.889 170.214 219.956C169.928 221.023 168.831 221.656 167.764 221.37C166.697 221.084 166.064 219.988 166.35 218.921C166.636 217.854 167.733 217.221 168.8 217.506ZM180.391 220.612C181.458 220.898 182.091 221.995 181.805 223.062C181.519 224.129 180.422 224.762 179.355 224.476C178.288 224.19 177.655 223.093 177.941 222.026C178.227 220.96 179.324 220.326 180.391 220.612ZM191.982 223.718C193.049 224.004 193.682 225.101 193.396 226.168C193.11 227.235 192.013 227.868 190.946 227.582C189.88 227.296 189.246 226.199 189.532 225.132C189.818 224.065 190.915 223.432 191.982 223.718ZM203.573 226.824C204.64 227.11 205.273 228.206 204.987 229.273C204.701 230.34 203.605 230.974 202.538 230.688C201.471 230.402 200.837 229.305 201.123 228.238C201.409 227.171 202.506 226.538 203.573 226.824ZM215.164 229.93C216.231 230.216 216.864 231.312 216.578 232.379C216.292 233.446 215.196 234.079 214.129 233.793C213.062 233.508 212.429 232.411 212.714 231.344C213 230.277 214.097 229.644 215.164 229.93ZM226.755 233.036C227.822 233.321 228.455 234.418 228.169 235.485C227.883 236.552 226.787 237.185 225.72 236.899C224.653 236.613 224.02 235.517 224.306 234.45C224.591 233.383 225.688 232.75 226.755 233.036ZM238.346 236.141C239.413 236.427 240.046 237.524 239.76 238.591C239.475 239.658 238.378 240.291 237.311 240.005C236.244 239.719 235.611 238.623 235.897 237.556C236.183 236.489 237.279 235.856 238.346 236.141ZM249.937 239.247C251.004 239.533 251.637 240.63 251.352 241.697C251.066 242.764 249.969 243.397 248.902 243.111C247.835 242.825 247.202 241.728 247.488 240.661C247.774 239.595 248.87 238.961 249.937 239.247ZM261.528 242.353C262.595 242.639 263.229 243.736 262.943 244.803C262.657 245.869 261.56 246.503 260.493 246.217C259.426 245.931 258.793 244.834 259.079 243.767C259.365 242.7 260.461 242.067 261.528 242.353ZM273.12 245.459C274.186 245.745 274.82 246.841 274.534 247.908C274.248 248.975 273.151 249.608 272.084 249.323C271.017 249.037 270.384 247.94 270.67 246.873C270.956 245.806 272.053 245.173 273.12 245.459ZM284.711 248.565C285.778 248.851 286.411 249.947 286.125 251.014C285.839 252.081 284.742 252.714 283.675 252.428C282.608 252.143 281.975 251.046 282.261 249.979C282.547 248.912 283.644 248.279 284.711 248.565ZM296.302 251.671C297.369 251.956 298.002 253.053 297.716 254.12C297.43 255.187 296.333 255.82 295.266 255.534C294.2 255.248 293.566 254.152 293.852 253.085C294.138 252.018 295.235 251.385 296.302 251.671ZM307.893 254.776C308.96 255.062 309.593 256.159 309.307 257.226C309.021 258.293 307.925 258.926 306.858 258.64C305.791 258.354 305.157 257.258 305.443 256.191C305.729 255.124 306.826 254.491 307.893 254.776ZM319.484 257.882C320.551 258.168 321.184 259.265 320.898 260.332C320.612 261.399 319.516 262.032 318.449 261.746C317.382 261.46 316.749 260.363 317.034 259.296C317.32 258.23 318.417 257.596 319.484 257.882ZM331.075 260.988C332.142 261.274 332.775 262.371 332.489 263.438C332.203 264.504 331.107 265.138 330.04 264.852C328.973 264.566 328.34 263.469 328.626 262.402C328.911 261.335 330.008 260.702 331.075 260.988ZM342.666 264.094C343.733 264.38 344.366 265.476 344.08 266.543C343.795 267.61 342.698 268.243 341.631 267.958C340.564 267.672 339.931 266.575 340.217 265.508C340.503 264.441 341.599 263.808 342.666 264.094ZM354.257 267.2C355.324 267.486 355.957 268.582 355.672 269.649C355.386 270.716 354.289 271.349 353.222 271.063C352.155 270.778 351.522 269.681 351.808 268.614C352.094 267.547 353.19 266.914 354.257 267.2ZM365.848 270.306C366.915 270.591 367.549 271.688 367.263 272.755C366.977 273.822 365.88 274.455 364.813 274.169C363.746 273.883 363.113 272.787 363.399 271.72C363.685 270.653 364.781 270.02 365.848 270.306ZM83.9368 186.485C85.0037 186.771 85.6369 187.868 85.351 188.935C85.0651 190.002 83.9684 190.635 82.9015 190.349C81.8346 190.063 81.2014 188.966 81.4873 187.9C81.7732 186.833 82.8698 186.199 83.9368 186.485ZM95.5279 189.591C96.5948 189.877 97.228 190.974 96.9421 192.041C96.6562 193.108 95.5595 193.741 94.4926 193.455C93.4257 193.169 92.7925 192.072 93.0784 191.005C93.3643 189.938 94.4609 189.305 95.5279 189.591ZM107.119 192.697C108.186 192.983 108.819 194.08 108.533 195.146C108.247 196.213 107.151 196.847 106.084 196.561C105.017 196.275 104.384 195.178 104.669 194.111C104.955 193.044 106.052 192.411 107.119 192.697ZM118.71 195.803C119.777 196.089 120.41 197.185 120.124 198.252C119.838 199.319 118.742 199.952 117.675 199.667C116.608 199.381 115.975 198.284 116.261 197.217C116.546 196.15 117.643 195.517 118.71 195.803ZM130.301 198.909C131.368 199.195 132.001 200.291 131.715 201.358C131.43 202.425 130.333 203.058 129.266 202.772C128.199 202.486 127.566 201.39 127.852 200.323C128.138 199.256 129.234 198.623 130.301 198.909ZM141.892 202.014C142.959 202.3 143.592 203.397 143.307 204.464C143.021 205.531 141.924 206.164 140.857 205.878C139.79 205.592 139.157 204.496 139.443 203.429C139.729 202.362 140.825 201.729 141.892 202.014ZM153.483 205.12C154.55 205.406 155.184 206.503 154.898 207.57C154.612 208.637 153.515 209.27 152.448 208.984C151.381 208.698 150.748 207.601 151.034 206.535C151.32 205.468 152.416 204.834 153.483 205.12ZM165.075 208.226C166.141 208.512 166.775 209.609 166.489 210.676C166.203 211.743 165.106 212.376 164.039 212.09C162.972 211.804 162.339 210.707 162.625 209.64C162.911 208.573 164.008 207.94 165.075 208.226ZM176.666 211.332C177.733 211.618 178.366 212.715 178.08 213.781C177.794 214.848 176.697 215.482 175.63 215.196C174.563 214.91 173.93 213.813 174.216 212.746C174.502 211.679 175.599 211.046 176.666 211.332ZM188.257 214.438C189.324 214.724 189.957 215.82 189.671 216.887C189.385 217.954 188.288 218.587 187.221 218.301C186.155 218.016 185.521 216.919 185.807 215.852C186.093 214.785 187.19 214.152 188.257 214.438ZM199.848 217.544C200.915 217.829 201.548 218.926 201.262 219.993C200.976 221.06 199.88 221.693 198.813 221.407C197.746 221.121 197.112 220.025 197.398 218.958C197.684 217.891 198.781 217.258 199.848 217.544ZM211.439 220.649C212.506 220.935 213.139 222.032 212.853 223.099C212.567 224.166 211.471 224.799 210.404 224.513C209.337 224.227 208.704 223.131 208.989 222.064C209.275 220.997 210.372 220.364 211.439 220.649ZM223.03 223.755C224.097 224.041 224.73 225.138 224.444 226.205C224.158 227.272 223.062 227.905 221.995 227.619C220.928 227.333 220.295 226.236 220.581 225.169C220.866 224.103 221.963 223.469 223.03 223.755ZM234.621 226.861C235.688 227.147 236.321 228.244 236.035 229.311C235.75 230.378 234.653 231.011 233.586 230.725C232.519 230.439 231.886 229.342 232.172 228.275C232.458 227.208 233.554 226.575 234.621 226.861ZM246.212 229.967C247.279 230.253 247.912 231.349 247.627 232.416C247.341 233.483 246.244 234.117 245.177 233.831C244.11 233.545 243.477 232.448 243.763 231.381C244.049 230.314 245.145 229.681 246.212 229.967ZM257.803 233.073C258.87 233.359 259.504 234.455 259.218 235.522C258.932 236.589 257.835 237.222 256.768 236.936C255.701 236.651 255.068 235.554 255.354 234.487C255.64 233.42 256.736 232.787 257.803 233.073ZM269.395 236.179C270.461 236.464 271.095 237.561 270.809 238.628C270.523 239.695 269.426 240.328 268.359 240.042C267.292 239.756 266.659 238.66 266.945 237.593C267.231 236.526 268.328 235.893 269.395 236.179ZM280.986 239.284C282.053 239.57 282.686 240.667 282.4 241.734C282.114 242.801 281.017 243.434 279.95 243.148C278.883 242.862 278.25 241.766 278.536 240.699C278.822 239.632 279.919 238.999 280.986 239.284ZM292.577 242.39C293.644 242.676 294.277 243.773 293.991 244.84C293.705 245.907 292.608 246.54 291.541 246.254C290.475 245.968 289.841 244.871 290.127 243.804C290.413 242.738 291.51 242.104 292.577 242.39ZM304.168 245.496C305.235 245.782 305.868 246.879 305.582 247.946C305.296 249.012 304.2 249.646 303.133 249.36C302.066 249.074 301.432 247.977 301.718 246.91C302.004 245.843 303.101 245.21 304.168 245.496ZM315.759 248.602C316.826 248.888 317.459 249.984 317.173 251.051C316.887 252.118 315.791 252.751 314.724 252.466C313.657 252.18 313.024 251.083 313.309 250.016C313.595 248.949 314.692 248.316 315.759 248.602ZM327.35 251.708C328.417 251.994 329.05 253.09 328.764 254.157C328.478 255.224 327.382 255.857 326.315 255.571C325.248 255.286 324.615 254.189 324.901 253.122C325.186 252.055 326.283 251.422 327.35 251.708ZM338.941 254.814C340.008 255.099 340.641 256.196 340.355 257.263C340.07 258.33 338.973 258.963 337.906 258.677C336.839 258.391 336.206 257.295 336.492 256.228C336.778 255.161 337.874 254.528 338.941 254.814ZM350.532 257.919C351.599 258.205 352.232 259.302 351.947 260.369C351.661 261.436 350.564 262.069 349.497 261.783C348.43 261.497 347.797 260.401 348.083 259.334C348.369 258.267 349.465 257.633 350.532 257.919ZM362.123 261.025C363.19 261.311 363.823 262.408 363.538 263.475C363.252 264.542 362.155 265.175 361.088 264.889C360.021 264.603 359.388 263.506 359.674 262.439C359.96 261.372 361.056 260.739 362.123 261.025ZM91.8029 180.311C92.8698 180.597 93.503 181.693 93.2171 182.76C92.9312 183.827 91.8345 184.46 90.7676 184.175C89.7007 183.889 89.0675 182.792 89.3534 181.725C89.6393 180.658 90.7359 180.025 91.8029 180.311ZM103.394 183.417C104.461 183.703 105.094 184.799 104.808 185.866C104.522 186.933 103.426 187.566 102.359 187.28C101.292 186.994 100.659 185.898 100.944 184.831C101.23 183.764 102.327 183.131 103.394 183.417ZM114.985 186.522C116.052 186.808 116.685 187.905 116.399 188.972C116.113 190.039 115.017 190.672 113.95 190.386C112.883 190.1 112.25 189.004 112.536 187.937C112.821 186.87 113.918 186.237 114.985 186.522ZM126.576 189.628C127.643 189.914 128.276 191.011 127.99 192.078C127.705 193.145 126.608 193.778 125.541 193.492C124.474 193.206 123.841 192.109 124.127 191.043C124.413 189.976 125.509 189.342 126.576 189.628ZM138.167 192.734C139.234 193.02 139.867 194.117 139.582 195.184C139.296 196.251 138.199 196.884 137.132 196.598C136.065 196.312 135.432 195.215 135.718 194.148C136.004 193.081 137.1 192.448 138.167 192.734ZM149.758 195.84C150.825 196.126 151.459 197.223 151.173 198.289C150.887 199.356 149.79 199.99 148.723 199.704C147.656 199.418 147.023 198.321 147.309 197.254C147.595 196.187 148.691 195.554 149.758 195.84ZM161.35 198.946C162.416 199.232 163.05 200.328 162.764 201.395C162.478 202.462 161.381 203.095 160.314 202.81C159.247 202.524 158.614 201.427 158.9 200.36C159.186 199.293 160.283 198.66 161.35 198.946ZM172.941 202.052C174.008 202.338 174.641 203.434 174.355 204.501C174.069 205.568 172.972 206.201 171.905 205.915C170.838 205.629 170.205 204.533 170.491 203.466C170.777 202.399 171.874 201.766 172.941 202.052ZM184.532 205.157C185.599 205.443 186.232 206.54 185.946 207.607C185.66 208.674 184.563 209.307 183.496 209.021C182.43 208.735 181.796 207.639 182.082 206.572C182.368 205.505 183.465 204.872 184.532 205.157ZM196.123 208.263C197.19 208.549 197.823 209.646 197.537 210.713C197.251 211.78 196.155 212.413 195.088 212.127C194.021 211.841 193.387 210.744 193.673 209.678C193.959 208.611 195.056 207.977 196.123 208.263ZM207.714 211.369C208.781 211.655 209.414 212.752 209.128 213.819C208.842 214.886 207.746 215.519 206.679 215.233C205.612 214.947 204.979 213.85 205.264 212.783C205.55 211.716 206.647 211.083 207.714 211.369ZM219.305 214.475C220.372 214.761 221.005 215.858 220.719 216.924C220.433 217.991 219.337 218.625 218.27 218.339C217.203 218.053 216.57 216.956 216.856 215.889C217.141 214.822 218.238 214.189 219.305 214.475ZM230.896 217.581C231.963 217.867 232.596 218.963 232.31 220.03C232.025 221.097 230.928 221.73 229.861 221.444C228.794 221.159 228.161 220.062 228.447 218.995C228.733 217.928 229.829 217.295 230.896 217.581ZM242.487 220.687C243.554 220.972 244.187 222.069 243.902 223.136C243.616 224.203 242.519 224.836 241.452 224.55C240.385 224.264 239.752 223.168 240.038 222.101C240.324 221.034 241.42 220.401 242.487 220.687ZM254.078 223.792C255.145 224.078 255.779 225.175 255.493 226.242C255.207 227.309 254.11 227.942 253.043 227.656C251.976 227.37 251.343 226.274 251.629 225.207C251.915 224.14 253.011 223.507 254.078 223.792ZM265.67 226.898C266.736 227.184 267.37 228.281 267.084 229.348C266.798 230.415 265.701 231.048 264.634 230.762C263.567 230.476 262.934 229.379 263.22 228.312C263.506 227.246 264.603 226.612 265.67 226.898ZM277.261 230.004C278.328 230.29 278.961 231.387 278.675 232.454C278.389 233.521 277.292 234.154 276.225 233.868C275.158 233.582 274.525 232.485 274.811 231.418C275.097 230.351 276.194 229.718 277.261 230.004ZM288.852 233.11C289.919 233.396 290.552 234.492 290.266 235.559C289.98 236.626 288.883 237.26 287.816 236.974C286.75 236.688 286.116 235.591 286.402 234.524C286.688 233.457 287.785 232.824 288.852 233.11ZM300.443 236.216C301.51 236.502 302.143 237.598 301.857 238.665C301.571 239.732 300.475 240.365 299.408 240.079C298.341 239.794 297.707 238.697 297.993 237.63C298.279 236.563 299.376 235.93 300.443 236.216ZM312.034 239.322C313.101 239.607 313.734 240.704 313.448 241.771C313.162 242.838 312.066 243.471 310.999 243.185C309.932 242.899 309.299 241.803 309.584 240.736C309.87 239.669 310.967 239.036 312.034 239.322ZM323.625 242.427C324.692 242.713 325.325 243.81 325.039 244.877C324.753 245.944 323.657 246.577 322.59 246.291C321.523 246.005 320.89 244.909 321.176 243.842C321.461 242.775 322.558 242.142 323.625 242.427ZM335.216 245.533C336.283 245.819 336.916 246.916 336.63 247.983C336.345 249.05 335.248 249.683 334.181 249.397C333.114 249.111 332.481 248.014 332.767 246.947C333.053 245.881 334.149 245.247 335.216 245.533ZM346.807 248.639C347.874 248.925 348.507 250.022 348.222 251.089C347.936 252.155 346.839 252.789 345.772 252.503C344.705 252.217 344.072 251.12 344.358 250.053C344.644 248.986 345.74 248.353 346.807 248.639ZM358.398 251.745C359.465 252.031 360.098 253.127 359.813 254.194C359.527 255.261 358.43 255.894 357.363 255.609C356.296 255.323 355.663 254.226 355.949 253.159C356.235 252.092 357.331 251.459 358.398 251.745ZM369.99 254.851C371.056 255.137 371.69 256.233 371.404 257.3C371.118 258.367 370.021 259 368.954 258.714C367.887 258.429 367.254 257.332 367.54 256.265C367.826 255.198 368.923 254.565 369.99 254.851ZM88.0779 171.031C89.1448 171.316 89.778 172.413 89.4921 173.48C89.2062 174.547 88.1095 175.18 87.0426 174.894C85.9757 174.608 85.3425 173.512 85.6284 172.445C85.9143 171.378 87.0109 170.745 88.0779 171.031ZM99.669 174.136C100.736 174.422 101.369 175.519 101.083 176.586C100.797 177.653 99.7006 178.286 98.6337 178C97.5668 177.714 96.9336 176.617 97.2195 175.551C97.5054 174.484 98.6021 173.85 99.669 174.136ZM111.26 177.242C112.327 177.528 112.96 178.625 112.674 179.692C112.388 180.759 111.292 181.392 110.225 181.106C109.158 180.82 108.525 179.723 108.811 178.656C109.096 177.589 110.193 176.956 111.26 177.242ZM122.851 180.348C123.918 180.634 124.551 181.731 124.265 182.797C123.98 183.864 122.883 184.498 121.816 184.212C120.749 183.926 120.116 182.829 120.402 181.762C120.688 180.695 121.784 180.062 122.851 180.348ZM134.442 183.454C135.509 183.74 136.142 184.836 135.857 185.903C135.571 186.97 134.474 187.603 133.407 187.318C132.34 187.032 131.707 185.935 131.993 184.868C132.279 183.801 133.375 183.168 134.442 183.454ZM146.033 186.56C147.1 186.846 147.734 187.942 147.448 189.009C147.162 190.076 146.065 190.709 144.998 190.423C143.931 190.137 143.298 189.041 143.584 187.974C143.87 186.907 144.966 186.274 146.033 186.56ZM157.625 189.665C158.691 189.951 159.325 191.048 159.039 192.115C158.753 193.182 157.656 193.815 156.589 193.529C155.522 193.243 154.889 192.147 155.175 191.08C155.461 190.013 156.558 189.38 157.625 189.665ZM169.216 192.771C170.283 193.057 170.916 194.154 170.63 195.221C170.344 196.288 169.247 196.921 168.18 196.635C167.113 196.349 166.48 195.252 166.766 194.186C167.052 193.119 168.149 192.485 169.216 192.771ZM180.807 195.877C181.874 196.163 182.507 197.26 182.221 198.327C181.935 199.394 180.838 200.027 179.771 199.741C178.705 199.455 178.071 198.358 178.357 197.291C178.643 196.224 179.74 195.591 180.807 195.877ZM192.398 198.983C193.465 199.269 194.098 200.366 193.812 201.432C193.526 202.499 192.43 203.133 191.363 202.847C190.296 202.561 189.662 201.464 189.948 200.397C190.234 199.33 191.331 198.697 192.398 198.983ZM203.989 202.089C205.056 202.375 205.689 203.471 205.403 204.538C205.117 205.605 204.021 206.238 202.954 205.953C201.887 205.667 201.254 204.57 201.539 203.503C201.825 202.436 202.922 201.803 203.989 202.089ZM215.58 205.195C216.647 205.481 217.28 206.577 216.994 207.644C216.708 208.711 215.612 209.344 214.545 209.058C213.478 208.772 212.845 207.676 213.131 206.609C213.416 205.542 214.513 204.909 215.58 205.195ZM227.171 208.3C228.238 208.586 228.871 209.683 228.585 210.75C228.3 211.817 227.203 212.45 226.136 212.164C225.069 211.878 224.436 210.782 224.722 209.715C225.008 208.648 226.104 208.015 227.171 208.3ZM238.762 211.406C239.829 211.692 240.462 212.789 240.177 213.856C239.891 214.923 238.794 215.556 237.727 215.27C236.66 214.984 236.027 213.887 236.313 212.82C236.599 211.754 237.695 211.12 238.762 211.406ZM250.353 214.512C251.42 214.798 252.054 215.895 251.768 216.962C251.482 218.029 250.385 218.662 249.318 218.376C248.251 218.09 247.618 216.993 247.904 215.926C248.19 214.859 249.286 214.226 250.353 214.512ZM261.945 217.618C263.011 217.904 263.645 219.001 263.359 220.067C263.073 221.134 261.976 221.768 260.909 221.482C259.842 221.196 259.209 220.099 259.495 219.032C259.781 217.965 260.878 217.332 261.945 217.618ZM273.536 220.724C274.603 221.01 275.236 222.106 274.95 223.173C274.664 224.24 273.567 224.873 272.5 224.587C271.433 224.302 270.8 223.205 271.086 222.138C271.372 221.071 272.469 220.438 273.536 220.724ZM285.127 223.83C286.194 224.115 286.827 225.212 286.541 226.279C286.255 227.346 285.158 227.979 284.091 227.693C283.025 227.407 282.391 226.311 282.677 225.244C282.963 224.177 284.06 223.544 285.127 223.83ZM296.718 226.935C297.785 227.221 298.418 228.318 298.132 229.385C297.846 230.452 296.75 231.085 295.683 230.799C294.616 230.513 293.982 229.417 294.268 228.35C294.554 227.283 295.651 226.65 296.718 226.935ZM308.309 230.041C309.376 230.327 310.009 231.424 309.723 232.491C309.437 233.558 308.341 234.191 307.274 233.905C306.207 233.619 305.574 232.522 305.859 231.455C306.145 230.389 307.242 229.755 308.309 230.041ZM319.9 233.147C320.967 233.433 321.6 234.53 321.314 235.597C321.028 236.664 319.932 237.297 318.865 237.011C317.798 236.725 317.165 235.628 317.451 234.561C317.736 233.494 318.833 232.861 319.9 233.147ZM331.491 236.253C332.558 236.539 333.191 237.635 332.905 238.702C332.62 239.769 331.523 240.403 330.456 240.117C329.389 239.831 328.756 238.734 329.042 237.667C329.328 236.6 330.424 235.967 331.491 236.253ZM343.082 239.359C344.149 239.645 344.782 240.741 344.497 241.808C344.211 242.875 343.114 243.508 342.047 243.222C340.98 242.937 340.347 241.84 340.633 240.773C340.919 239.706 342.015 239.073 343.082 239.359ZM354.673 242.465C355.74 242.75 356.373 243.847 356.088 244.914C355.802 245.981 354.705 246.614 353.638 246.328C352.571 246.042 351.938 244.946 352.224 243.879C352.51 242.812 353.606 242.179 354.673 242.465ZM366.265 245.57C367.331 245.856 367.965 246.953 367.679 248.02C367.393 249.087 366.296 249.72 365.229 249.434C364.162 249.148 363.529 248.052 363.815 246.985C364.101 245.918 365.198 245.285 366.265 245.57ZM95.944 164.856C97.0109 165.142 97.6441 166.239 97.3582 167.306C97.0723 168.372 95.9756 169.006 94.9087 168.72C93.8418 168.434 93.2086 167.337 93.4945 166.27C93.7804 165.203 94.877 164.57 95.944 164.856ZM107.535 167.962C108.602 168.248 109.235 169.344 108.949 170.411C108.663 171.478 107.567 172.111 106.5 171.826C105.433 171.54 104.8 170.443 105.086 169.376C105.371 168.309 106.468 167.676 107.535 167.962ZM119.126 171.068C120.193 171.354 120.826 172.45 120.54 173.517C120.255 174.584 119.158 175.217 118.091 174.931C117.024 174.645 116.391 173.549 116.677 172.482C116.963 171.415 118.059 170.782 119.126 171.068ZM130.717 174.174C131.784 174.459 132.417 175.556 132.132 176.623C131.846 177.69 130.749 178.323 129.682 178.037C128.615 177.751 127.982 176.655 128.268 175.588C128.554 174.521 129.65 173.888 130.717 174.174ZM142.308 177.279C143.375 177.565 144.009 178.662 143.723 179.729C143.437 180.796 142.34 181.429 141.273 181.143C140.206 180.857 139.573 179.76 139.859 178.694C140.145 177.627 141.241 176.993 142.308 177.279ZM153.9 180.385C154.966 180.671 155.6 181.768 155.314 182.835C155.028 183.902 153.931 184.535 152.864 184.249C151.797 183.963 151.164 182.866 151.45 181.799C151.736 180.732 152.833 180.099 153.9 180.385ZM165.491 183.491C166.558 183.777 167.191 184.874 166.905 185.94C166.619 187.007 165.522 187.641 164.455 187.355C163.388 187.069 162.755 185.972 163.041 184.905C163.327 183.838 164.424 183.205 165.491 183.491ZM177.082 186.597C178.149 186.883 178.782 187.979 178.496 189.046C178.21 190.113 177.113 190.746 176.046 190.461C174.98 190.175 174.346 189.078 174.632 188.011C174.918 186.944 176.015 186.311 177.082 186.597ZM188.673 189.703C189.74 189.989 190.373 191.085 190.087 192.152C189.801 193.219 188.705 193.852 187.638 193.566C186.571 193.28 185.937 192.184 186.223 191.117C186.509 190.05 187.606 189.417 188.673 189.703ZM200.264 192.808C201.331 193.094 201.964 194.191 201.678 195.258C201.392 196.325 200.296 196.958 199.229 196.672C198.162 196.386 197.529 195.29 197.814 194.223C198.1 193.156 199.197 192.523 200.264 192.808ZM211.855 195.914C212.922 196.2 213.555 197.297 213.269 198.364C212.983 199.431 211.887 200.064 210.82 199.778C209.753 199.492 209.12 198.395 209.406 197.329C209.691 196.262 210.788 195.628 211.855 195.914ZM223.446 199.02C224.513 199.306 225.146 200.403 224.86 201.47C224.575 202.537 223.478 203.17 222.411 202.884C221.344 202.598 220.711 201.501 220.997 200.434C221.283 199.367 222.379 198.734 223.446 199.02ZM235.037 202.126C236.104 202.412 236.737 203.509 236.452 204.575C236.166 205.642 235.069 206.276 234.002 205.99C232.935 205.704 232.302 204.607 232.588 203.54C232.874 202.473 233.97 201.84 235.037 202.126ZM246.628 205.232C247.695 205.518 248.329 206.614 248.043 207.681C247.757 208.748 246.66 209.381 245.593 209.095C244.526 208.81 243.893 207.713 244.179 206.646C244.465 205.579 245.561 204.946 246.628 205.232ZM258.22 208.338C259.286 208.624 259.92 209.72 259.634 210.787C259.348 211.854 258.251 212.487 257.184 212.201C256.117 211.915 255.484 210.819 255.77 209.752C256.056 208.685 257.153 208.052 258.22 208.338ZM269.811 211.443C270.878 211.729 271.511 212.826 271.225 213.893C270.939 214.96 269.842 215.593 268.775 215.307C267.708 215.021 267.075 213.925 267.361 212.858C267.647 211.791 268.744 211.158 269.811 211.443ZM281.402 214.549C282.469 214.835 283.102 215.932 282.816 216.999C282.53 218.066 281.433 218.699 280.366 218.413C279.3 218.127 278.666 217.03 278.952 215.963C279.238 214.897 280.335 214.263 281.402 214.549ZM292.993 217.655C294.06 217.941 294.693 219.038 294.407 220.105C294.121 221.172 293.025 221.805 291.958 221.519C290.891 221.233 290.257 220.136 290.543 219.069C290.829 218.002 291.926 217.369 292.993 217.655ZM304.584 220.761C305.651 221.047 306.284 222.143 305.998 223.21C305.712 224.277 304.616 224.911 303.549 224.625C302.482 224.339 301.849 223.242 302.134 222.175C302.42 221.108 303.517 220.475 304.584 220.761ZM316.175 223.867C317.242 224.153 317.875 225.249 317.589 226.316C317.303 227.383 316.207 228.016 315.14 227.73C314.073 227.445 313.44 226.348 313.726 225.281C314.011 224.214 315.108 223.581 316.175 223.867ZM327.766 226.973C328.833 227.258 329.466 228.355 329.18 229.422C328.895 230.489 327.798 231.122 326.731 230.836C325.664 230.55 325.031 229.454 325.317 228.387C325.603 227.32 326.699 226.687 327.766 226.973ZM339.357 230.078C340.424 230.364 341.057 231.461 340.771 232.528C340.486 233.595 339.389 234.228 338.322 233.942C337.255 233.656 336.622 232.56 336.908 231.493C337.194 230.426 338.29 229.793 339.357 230.078ZM350.948 233.184C352.015 233.47 352.648 234.567 352.363 235.634C352.077 236.701 350.98 237.334 349.913 237.048C348.846 236.762 348.213 235.665 348.499 234.598C348.785 233.532 349.881 232.898 350.948 233.184ZM362.54 236.29C363.606 236.576 364.24 237.673 363.954 238.74C363.668 239.806 362.571 240.44 361.504 240.154C360.437 239.868 359.804 238.771 360.09 237.704C360.376 236.637 361.473 236.004 362.54 236.29ZM374.131 239.396C375.198 239.682 375.831 240.778 375.545 241.845C375.259 242.912 374.162 243.545 373.095 243.26C372.028 242.974 371.395 241.877 371.681 240.81C371.967 239.743 373.064 239.11 374.131 239.396ZM92.219 155.576C93.2859 155.862 93.9191 156.958 93.6332 158.025C93.3473 159.092 92.2506 159.725 91.1837 159.439C90.1168 159.154 89.4836 158.057 89.7695 156.99C90.0554 155.923 91.152 155.29 92.219 155.576ZM103.81 158.682C104.877 158.967 105.51 160.064 105.224 161.131C104.938 162.198 103.842 162.831 102.775 162.545C101.708 162.259 101.075 161.163 101.361 160.096C101.646 159.029 102.743 158.396 103.81 158.682ZM115.401 161.787C116.468 162.073 117.101 163.17 116.815 164.237C116.53 165.304 115.433 165.937 114.366 165.651C113.299 165.365 112.666 164.269 112.952 163.202C113.238 162.135 114.334 161.501 115.401 161.787ZM126.992 164.893C128.059 165.179 128.692 166.276 128.407 167.343C128.121 168.41 127.024 169.043 125.957 168.757C124.89 168.471 124.257 167.374 124.543 166.307C124.829 165.24 125.925 164.607 126.992 164.893ZM138.583 167.999C139.65 168.285 140.284 169.382 139.998 170.449C139.712 171.515 138.615 172.149 137.548 171.863C136.481 171.577 135.848 170.48 136.134 169.413C136.42 168.346 137.516 167.713 138.583 167.999ZM150.175 171.105C151.241 171.391 151.875 172.487 151.589 173.554C151.303 174.621 150.206 175.254 149.139 174.969C148.072 174.683 147.439 173.586 147.725 172.519C148.011 171.452 149.108 170.819 150.175 171.105ZM161.766 174.211C162.833 174.497 163.466 175.593 163.18 176.66C162.894 177.727 161.797 178.36 160.73 178.074C159.663 177.788 159.03 176.692 159.316 175.625C159.602 174.558 160.699 173.925 161.766 174.211ZM173.357 177.317C174.424 177.602 175.057 178.699 174.771 179.766C174.485 180.833 173.388 181.466 172.321 181.18C171.255 180.894 170.621 179.798 170.907 178.731C171.193 177.664 172.29 177.031 173.357 177.317ZM184.948 180.422C186.015 180.708 186.648 181.805 186.362 182.872C186.076 183.939 184.98 184.572 183.913 184.286C182.846 184 182.212 182.903 182.498 181.837C182.784 180.77 183.881 180.136 184.948 180.422ZM196.539 183.528C197.606 183.814 198.239 184.911 197.953 185.978C197.667 187.045 196.571 187.678 195.504 187.392C194.437 187.106 193.804 186.009 194.089 184.942C194.375 183.875 195.472 183.242 196.539 183.528ZM208.13 186.634C209.197 186.92 209.83 188.017 209.544 189.083C209.258 190.15 208.162 190.784 207.095 190.498C206.028 190.212 205.395 189.115 205.681 188.048C205.966 186.981 207.063 186.348 208.13 186.634ZM219.721 189.74C220.788 190.026 221.421 191.122 221.135 192.189C220.85 193.256 219.753 193.889 218.686 193.604C217.619 193.318 216.986 192.221 217.272 191.154C217.558 190.087 218.654 189.454 219.721 189.74ZM231.312 192.846C232.379 193.132 233.012 194.228 232.727 195.295C232.441 196.362 231.344 196.995 230.277 196.709C229.21 196.423 228.577 195.327 228.863 194.26C229.149 193.193 230.245 192.56 231.312 192.846ZM242.903 195.951C243.97 196.237 244.604 197.334 244.318 198.401C244.032 199.468 242.935 200.101 241.868 199.815C240.801 199.529 240.168 198.433 240.454 197.366C240.74 196.299 241.836 195.666 242.903 195.951ZM254.495 199.057C255.561 199.343 256.195 200.44 255.909 201.507C255.623 202.574 254.526 203.207 253.459 202.921C252.392 202.635 251.759 201.538 252.045 200.472C252.331 199.405 253.428 198.771 254.495 199.057ZM266.086 202.163C267.153 202.449 267.786 203.546 267.5 204.613C267.214 205.68 266.117 206.313 265.05 206.027C263.983 205.741 263.35 204.644 263.636 203.577C263.922 202.51 265.019 201.877 266.086 202.163ZM277.677 205.269C278.744 205.555 279.377 206.652 279.091 207.718C278.805 208.785 277.708 209.419 276.641 209.133C275.575 208.847 274.941 207.75 275.227 206.683C275.513 205.616 276.61 204.983 277.677 205.269ZM289.268 208.375C290.335 208.661 290.968 209.757 290.682 210.824C290.396 211.891 289.299 212.524 288.233 212.238C287.166 211.953 286.532 210.856 286.818 209.789C287.104 208.722 288.201 208.089 289.268 208.375ZM300.859 211.481C301.926 211.766 302.559 212.863 302.273 213.93C301.987 214.997 300.891 215.63 299.824 215.344C298.757 215.058 298.124 213.962 298.409 212.895C298.695 211.828 299.792 211.195 300.859 211.481ZM312.45 214.586C313.517 214.872 314.15 215.969 313.864 217.036C313.578 218.103 312.482 218.736 311.415 218.45C310.348 218.164 309.715 217.068 310.001 216.001C310.286 214.934 311.383 214.301 312.45 214.586ZM324.041 217.692C325.108 217.978 325.741 219.075 325.455 220.142C325.17 221.209 324.073 221.842 323.006 221.556C321.939 221.27 321.306 220.173 321.592 219.106C321.878 218.04 322.974 217.406 324.041 217.692ZM335.632 220.798C336.699 221.084 337.332 222.181 337.046 223.248C336.761 224.315 335.664 224.948 334.597 224.662C333.53 224.376 332.897 223.279 333.183 222.212C333.469 221.145 334.565 220.512 335.632 220.798ZM347.223 223.904C348.29 224.19 348.923 225.286 348.638 226.353C348.352 227.42 347.255 228.054 346.188 227.768C345.121 227.482 344.488 226.385 344.774 225.318C345.06 224.251 346.156 223.618 347.223 223.904ZM358.815 227.01C359.881 227.296 360.515 228.392 360.229 229.459C359.943 230.526 358.846 231.159 357.779 230.873C356.712 230.588 356.079 229.491 356.365 228.424C356.651 227.357 357.748 226.724 358.815 227.01ZM370.406 230.116C371.473 230.401 372.106 231.498 371.82 232.565C371.534 233.632 370.437 234.265 369.37 233.979C368.303 233.693 367.67 232.597 367.956 231.53C368.242 230.463 369.339 229.83 370.406 230.116ZM100.085 149.401C101.152 149.687 101.785 150.784 101.499 151.851C101.213 152.918 100.117 153.551 99.0498 153.265C97.9829 152.979 97.3497 151.882 97.6356 150.815C97.9215 149.748 99.0182 149.115 100.085 149.401ZM111.676 152.507C112.743 152.793 113.376 153.89 113.09 154.957C112.805 156.023 111.708 156.657 110.641 156.371C109.574 156.085 108.941 154.988 109.227 153.921C109.513 152.854 110.609 152.221 111.676 152.507ZM123.267 155.613C124.334 155.899 124.967 156.995 124.682 158.062C124.396 159.129 123.299 159.762 122.232 159.477C121.165 159.191 120.532 158.094 120.818 157.027C121.104 155.96 122.2 155.327 123.267 155.613ZM134.858 158.719C135.925 159.005 136.559 160.101 136.273 161.168C135.987 162.235 134.89 162.868 133.823 162.582C132.756 162.297 132.123 161.2 132.409 160.133C132.695 159.066 133.791 158.433 134.858 158.719ZM146.45 161.825C147.516 162.11 148.15 163.207 147.864 164.274C147.578 165.341 146.481 165.974 145.414 165.688C144.347 165.402 143.714 164.306 144 163.239C144.286 162.172 145.383 161.539 146.45 161.825ZM158.041 164.93C159.108 165.216 159.741 166.313 159.455 167.38C159.169 168.447 158.072 169.08 157.005 168.794C155.938 168.508 155.305 167.411 155.591 166.345C155.877 165.278 156.974 164.644 158.041 164.93ZM169.632 168.036C170.699 168.322 171.332 169.419 171.046 170.486C170.76 171.553 169.663 172.186 168.596 171.9C167.53 171.614 166.896 170.517 167.182 169.45C167.468 168.383 168.565 167.75 169.632 168.036ZM181.223 171.142C182.29 171.428 182.923 172.525 182.637 173.591C182.351 174.658 181.255 175.292 180.188 175.006C179.121 174.72 178.487 173.623 178.773 172.556C179.059 171.489 180.156 170.856 181.223 171.142ZM192.814 174.248C193.881 174.534 194.514 175.63 194.228 176.697C193.942 177.764 192.846 178.397 191.779 178.112C190.712 177.826 190.079 176.729 190.364 175.662C190.65 174.595 191.747 173.962 192.814 174.248ZM204.405 177.354C205.472 177.64 206.105 178.736 205.819 179.803C205.533 180.87 204.437 181.503 203.37 181.217C202.303 180.931 201.67 179.835 201.956 178.768C202.241 177.701 203.338 177.068 204.405 177.354ZM215.996 180.459C217.063 180.745 217.696 181.842 217.41 182.909C217.125 183.976 216.028 184.609 214.961 184.323C213.894 184.037 213.261 182.941 213.547 181.874C213.833 180.807 214.929 180.174 215.996 180.459ZM227.587 183.565C228.654 183.851 229.287 184.948 229.002 186.015C228.716 187.082 227.619 187.715 226.552 187.429C225.485 187.143 224.852 186.046 225.138 184.98C225.424 183.913 226.52 183.279 227.587 183.565ZM239.178 186.671C240.245 186.957 240.878 188.054 240.593 189.121C240.307 190.188 239.21 190.821 238.143 190.535C237.076 190.249 236.443 189.152 236.729 188.085C237.015 187.018 238.111 186.385 239.178 186.671ZM250.77 189.777C251.836 190.063 252.47 191.16 252.184 192.226C251.898 193.293 250.801 193.927 249.734 193.641C248.667 193.355 248.034 192.258 248.32 191.191C248.606 190.124 249.703 189.491 250.77 189.777ZM262.361 192.883C263.428 193.169 264.061 194.265 263.775 195.332C263.489 196.399 262.392 197.032 261.325 196.747C260.258 196.461 259.625 195.364 259.911 194.297C260.197 193.23 261.294 192.597 262.361 192.883ZM273.952 195.989C275.019 196.275 275.652 197.371 275.366 198.438C275.08 199.505 273.983 200.138 272.916 199.852C271.85 199.566 271.216 198.47 271.502 197.403C271.788 196.336 272.885 195.703 273.952 195.989ZM285.543 199.094C286.61 199.38 287.243 200.477 286.957 201.544C286.671 202.611 285.574 203.244 284.508 202.958C283.441 202.672 282.807 201.576 283.093 200.509C283.379 199.442 284.476 198.809 285.543 199.094ZM297.134 202.2C298.201 202.486 298.834 203.583 298.548 204.65C298.262 205.717 297.166 206.35 296.099 206.064C295.032 205.778 294.399 204.681 294.684 203.615C294.97 202.548 296.067 201.914 297.134 202.2ZM308.725 205.306C309.792 205.592 310.425 206.689 310.139 207.756C309.853 208.823 308.757 209.456 307.69 209.17C306.623 208.884 305.99 207.787 306.276 206.72C306.561 205.653 307.658 205.02 308.725 205.306ZM320.316 208.412C321.383 208.698 322.016 209.795 321.73 210.861C321.445 211.928 320.348 212.562 319.281 212.276C318.214 211.99 317.581 210.893 317.867 209.826C318.153 208.759 319.249 208.126 320.316 208.412ZM331.907 211.518C332.974 211.804 333.607 212.9 333.321 213.967C333.036 215.034 331.939 215.667 330.872 215.381C329.805 215.096 329.172 213.999 329.458 212.932C329.744 211.865 330.84 211.232 331.907 211.518ZM343.498 214.624C344.565 214.909 345.198 216.006 344.913 217.073C344.627 218.14 343.53 218.773 342.463 218.487C341.396 218.201 340.763 217.105 341.049 216.038C341.335 214.971 342.431 214.338 343.498 214.624ZM355.089 217.729C356.156 218.015 356.79 219.112 356.504 220.179C356.218 221.246 355.121 221.879 354.054 221.593C352.987 221.307 352.354 220.211 352.64 219.144C352.926 218.077 354.023 217.444 355.089 217.729ZM366.681 220.835C367.748 221.121 368.381 222.218 368.095 223.285C367.809 224.352 366.712 224.985 365.645 224.699C364.578 224.413 363.945 223.316 364.231 222.249C364.517 221.183 365.614 220.549 366.681 220.835ZM378.272 223.941C379.339 224.227 379.972 225.324 379.686 226.391C379.4 227.458 378.303 228.091 377.236 227.805C376.169 227.519 375.536 226.422 375.822 225.355C376.108 224.288 377.205 223.655 378.272 223.941ZM96.3601 140.121C97.427 140.407 98.0602 141.503 97.7743 142.57C97.4884 143.637 96.3917 144.27 95.3248 143.985C94.2579 143.699 93.6247 142.602 93.9106 141.535C94.1965 140.468 95.2932 139.835 96.3601 140.121ZM107.951 143.227C109.018 143.513 109.651 144.609 109.365 145.676C109.08 146.743 107.983 147.376 106.916 147.09C105.849 146.805 105.216 145.708 105.502 144.641C105.788 143.574 106.884 142.941 107.951 143.227ZM119.542 146.333C120.609 146.618 121.242 147.715 120.957 148.782C120.671 149.849 119.574 150.482 118.507 150.196C117.44 149.91 116.807 148.814 117.093 147.747C117.379 146.68 118.475 146.047 119.542 146.333ZM131.133 149.438C132.2 149.724 132.834 150.821 132.548 151.888C132.262 152.955 131.165 153.588 130.098 153.302C129.031 153.016 128.398 151.92 128.684 150.853C128.97 149.786 130.066 149.152 131.133 149.438ZM142.725 152.544C143.791 152.83 144.425 153.927 144.139 154.994C143.853 156.061 142.756 156.694 141.689 156.408C140.622 156.122 139.989 155.025 140.275 153.958C140.561 152.891 141.658 152.258 142.725 152.544ZM154.316 155.65C155.383 155.936 156.016 157.033 155.73 158.1C155.444 159.166 154.347 159.8 153.28 159.514C152.213 159.228 151.58 158.131 151.866 157.064C152.152 155.997 153.249 155.364 154.316 155.65ZM165.907 158.756C166.974 159.042 167.607 160.138 167.321 161.205C167.035 162.272 165.938 162.905 164.871 162.62C163.805 162.334 163.171 161.237 163.457 160.17C163.743 159.103 164.84 158.47 165.907 158.756ZM177.498 161.862C178.565 162.148 179.198 163.244 178.912 164.311C178.626 165.378 177.53 166.011 176.463 165.725C175.396 165.44 174.762 164.343 175.048 163.276C175.334 162.209 176.431 161.576 177.498 161.862ZM189.089 164.968C190.156 165.253 190.789 166.35 190.503 167.417C190.217 168.484 189.121 169.117 188.054 168.831C186.987 168.545 186.354 167.449 186.639 166.382C186.925 165.315 188.022 164.682 189.089 164.968ZM200.68 168.073C201.747 168.359 202.38 169.456 202.094 170.523C201.808 171.59 200.712 172.223 199.645 171.937C198.578 171.651 197.945 170.554 198.231 169.488C198.516 168.421 199.613 167.787 200.68 168.073ZM212.271 171.179C213.338 171.465 213.971 172.562 213.685 173.629C213.4 174.696 212.303 175.329 211.236 175.043C210.169 174.757 209.536 173.66 209.822 172.593C210.108 171.526 211.204 170.893 212.271 171.179ZM223.862 174.285C224.929 174.571 225.562 175.668 225.277 176.734C224.991 177.801 223.894 178.435 222.827 178.149C221.76 177.863 221.127 176.766 221.413 175.699C221.699 174.632 222.795 173.999 223.862 174.285ZM235.453 177.391C236.52 177.677 237.153 178.773 236.868 179.84C236.582 180.907 235.485 181.54 234.418 181.255C233.351 180.969 232.718 179.872 233.004 178.805C233.29 177.738 234.386 177.105 235.453 177.391ZM247.045 180.497C248.111 180.783 248.745 181.879 248.459 182.946C248.173 184.013 247.076 184.646 246.009 184.36C244.942 184.074 244.309 182.978 244.595 181.911C244.881 180.844 245.978 180.211 247.045 180.497ZM258.636 183.602C259.703 183.888 260.336 184.985 260.05 186.052C259.764 187.119 258.667 187.752 257.6 187.466C256.533 187.18 255.9 186.084 256.186 185.017C256.472 183.95 257.569 183.317 258.636 183.602ZM270.227 186.708C271.294 186.994 271.927 188.091 271.641 189.158C271.355 190.225 270.258 190.858 269.191 190.572C268.125 190.286 267.491 189.189 267.777 188.123C268.063 187.056 269.16 186.422 270.227 186.708ZM281.818 189.814C282.885 190.1 283.518 191.197 283.232 192.264C282.946 193.331 281.849 193.964 280.783 193.678C279.716 193.392 279.082 192.295 279.368 191.228C279.654 190.161 280.751 189.528 281.818 189.814ZM293.409 192.92C294.476 193.206 295.109 194.303 294.823 195.369C294.537 196.436 293.441 197.07 292.374 196.784C291.307 196.498 290.674 195.401 290.959 194.334C291.245 193.267 292.342 192.634 293.409 192.92ZM305 196.026C306.067 196.312 306.7 197.408 306.414 198.475C306.128 199.542 305.032 200.175 303.965 199.89C302.898 199.604 302.265 198.507 302.551 197.44C302.836 196.373 303.933 195.74 305 196.026ZM316.591 199.132C317.658 199.418 318.291 200.514 318.005 201.581C317.719 202.648 316.623 203.281 315.556 202.995C314.489 202.709 313.856 201.613 314.142 200.546C314.428 199.479 315.524 198.846 316.591 199.132ZM328.182 202.237C329.249 202.523 329.882 203.62 329.596 204.687C329.311 205.754 328.214 206.387 327.147 206.101C326.08 205.815 325.447 204.719 325.733 203.652C326.019 202.585 327.115 201.952 328.182 202.237ZM339.773 205.343C340.84 205.629 341.473 206.726 341.188 207.793C340.902 208.86 339.805 209.493 338.738 209.207C337.671 208.921 337.038 207.824 337.324 206.758C337.61 205.691 338.706 205.057 339.773 205.343ZM351.364 208.449C352.431 208.735 353.065 209.832 352.779 210.899C352.493 211.966 351.396 212.599 350.329 212.313C349.262 212.027 348.629 210.93 348.915 209.863C349.201 208.796 350.298 208.163 351.364 208.449ZM362.956 211.555C364.023 211.841 364.656 212.938 364.37 214.004C364.084 215.071 362.987 215.705 361.92 215.419C360.853 215.133 360.22 214.036 360.506 212.969C360.792 211.902 361.889 211.269 362.956 211.555ZM374.547 214.661C375.614 214.947 376.247 216.043 375.961 217.11C375.675 218.177 374.578 218.81 373.511 218.524C372.444 218.239 371.811 217.142 372.097 216.075C372.383 215.008 373.48 214.375 374.547 214.661ZM104.226 133.946C105.293 134.232 105.926 135.329 105.64 136.396C105.355 137.463 104.258 138.096 103.191 137.81C102.124 137.524 101.491 136.428 101.777 135.361C102.063 134.294 103.159 133.661 104.226 133.946ZM115.817 137.052C116.884 137.338 117.517 138.435 117.232 139.502C116.946 140.569 115.849 141.202 114.782 140.916C113.715 140.63 113.082 139.533 113.368 138.466C113.654 137.4 114.75 136.766 115.817 137.052ZM127.408 140.158C128.475 140.444 129.109 141.541 128.823 142.608C128.537 143.674 127.44 144.308 126.373 144.022C125.306 143.736 124.673 142.639 124.959 141.572C125.245 140.505 126.341 139.872 127.408 140.158ZM139 143.264C140.066 143.55 140.7 144.646 140.414 145.713C140.128 146.78 139.031 147.413 137.964 147.128C136.897 146.842 136.264 145.745 136.55 144.678C136.836 143.611 137.933 142.978 139 143.264ZM150.591 146.37C151.658 146.656 152.291 147.752 152.005 148.819C151.719 149.886 150.622 150.519 149.555 150.233C148.488 149.948 147.855 148.851 148.141 147.784C148.427 146.717 149.524 146.084 150.591 146.37ZM162.182 149.476C163.249 149.761 163.882 150.858 163.596 151.925C163.31 152.992 162.213 153.625 161.146 153.339C160.08 153.053 159.446 151.957 159.732 150.89C160.018 149.823 161.115 149.19 162.182 149.476ZM173.773 152.581C174.84 152.867 175.473 153.964 175.187 155.031C174.901 156.098 173.805 156.731 172.738 156.445C171.671 156.159 171.037 155.063 171.323 153.996C171.609 152.929 172.706 152.295 173.773 152.581ZM185.364 155.687C186.431 155.973 187.064 157.07 186.778 158.137C186.492 159.204 185.396 159.837 184.329 159.551C183.262 159.265 182.629 158.168 182.914 157.101C183.2 156.034 184.297 155.401 185.364 155.687ZM196.955 158.793C198.022 159.079 198.655 160.176 198.369 161.243C198.083 162.309 196.987 162.943 195.92 162.657C194.853 162.371 194.22 161.274 194.506 160.207C194.791 159.14 195.888 158.507 196.955 158.793ZM208.546 161.899C209.613 162.185 210.246 163.281 209.96 164.348C209.675 165.415 208.578 166.048 207.511 165.763C206.444 165.477 205.811 164.38 206.097 163.313C206.383 162.246 207.479 161.613 208.546 161.899ZM220.137 165.005C221.204 165.291 221.837 166.387 221.552 167.454C221.266 168.521 220.169 169.154 219.102 168.868C218.035 168.583 217.402 167.486 217.688 166.419C217.974 165.352 219.07 164.719 220.137 165.005ZM231.728 168.111C232.795 168.396 233.428 169.493 233.143 170.56C232.857 171.627 231.76 172.26 230.693 171.974C229.626 171.688 228.993 170.592 229.279 169.525C229.565 168.458 230.661 167.825 231.728 168.111ZM243.32 171.216C244.386 171.502 245.02 172.599 244.734 173.666C244.448 174.733 243.351 175.366 242.284 175.08C241.217 174.794 240.584 173.697 240.87 172.631C241.156 171.564 242.253 170.93 243.32 171.216ZM254.911 174.322C255.978 174.608 256.611 175.705 256.325 176.772C256.039 177.839 254.942 178.472 253.875 178.186C252.808 177.9 252.175 176.803 252.461 175.736C252.747 174.669 253.844 174.036 254.911 174.322ZM266.502 177.428C267.569 177.714 268.202 178.811 267.916 179.877C267.63 180.944 266.533 181.578 265.466 181.292C264.4 181.006 263.766 179.909 264.052 178.842C264.338 177.775 265.435 177.142 266.502 177.428ZM278.093 180.534C279.16 180.82 279.793 181.916 279.507 182.983C279.221 184.05 278.124 184.683 277.058 184.398C275.991 184.112 275.357 183.015 275.643 181.948C275.929 180.881 277.026 180.248 278.093 180.534ZM289.684 183.64C290.751 183.926 291.384 185.022 291.098 186.089C290.812 187.156 289.716 187.789 288.649 187.503C287.582 187.217 286.949 186.121 287.234 185.054C287.52 183.987 288.617 183.354 289.684 183.64ZM301.275 186.745C302.342 187.031 302.975 188.128 302.689 189.195C302.403 190.262 301.307 190.895 300.24 190.609C299.173 190.323 298.54 189.227 298.826 188.16C299.111 187.093 300.208 186.46 301.275 186.745ZM312.866 189.851C313.933 190.137 314.566 191.234 314.28 192.301C313.994 193.368 312.898 194.001 311.831 193.715C310.764 193.429 310.131 192.332 310.417 191.266C310.703 190.199 311.799 189.565 312.866 189.851ZM324.457 192.957C325.524 193.243 326.157 194.34 325.871 195.407C325.586 196.474 324.489 197.107 323.422 196.821C322.355 196.535 321.722 195.438 322.008 194.371C322.294 193.304 323.39 192.671 324.457 192.957ZM336.048 196.063C337.115 196.349 337.748 197.446 337.463 198.512C337.177 199.579 336.08 200.213 335.013 199.927C333.946 199.641 333.313 198.544 333.599 197.477C333.885 196.41 334.981 195.777 336.048 196.063ZM347.639 199.169C348.706 199.455 349.34 200.551 349.054 201.618C348.768 202.685 347.671 203.318 346.604 203.032C345.537 202.747 344.904 201.65 345.19 200.583C345.476 199.516 346.573 198.883 347.639 199.169ZM359.231 202.275C360.298 202.561 360.931 203.657 360.645 204.724C360.359 205.791 359.262 206.424 358.195 206.138C357.128 205.852 356.495 204.756 356.781 203.689C357.067 202.622 358.164 201.989 359.231 202.275ZM370.822 205.38C371.889 205.666 372.522 206.763 372.236 207.83C371.95 208.897 370.853 209.53 369.786 209.244C368.719 208.958 368.086 207.862 368.372 206.795C368.658 205.728 369.755 205.095 370.822 205.38ZM382.413 208.486C383.48 208.772 384.113 209.869 383.827 210.936C383.541 212.003 382.444 212.636 381.378 212.35C380.311 212.064 379.677 210.967 379.963 209.9C380.249 208.834 381.346 208.2 382.413 208.486ZM100.501 124.666C101.568 124.952 102.201 126.049 101.915 127.116C101.63 128.182 100.533 128.816 99.4659 128.53C98.399 128.244 97.7658 127.147 98.0517 126.08C98.3376 125.013 99.4343 124.38 100.501 124.666ZM112.092 127.772C113.159 128.058 113.792 129.154 113.507 130.221C113.221 131.288 112.124 131.921 111.057 131.636C109.99 131.35 109.357 130.253 109.643 129.186C109.929 128.119 111.025 127.486 112.092 127.772ZM123.683 130.878C124.75 131.164 125.384 132.26 125.098 133.327C124.812 134.394 123.715 135.027 122.648 134.741C121.581 134.456 120.948 133.359 121.234 132.292C121.52 131.225 122.616 130.592 123.683 130.878ZM135.275 133.984C136.341 134.269 136.975 135.366 136.689 136.433C136.403 137.5 135.306 138.133 134.239 137.847C133.172 137.561 132.539 136.465 132.825 135.398C133.111 134.331 134.208 133.698 135.275 133.984ZM146.866 137.089C147.933 137.375 148.566 138.472 148.28 139.539C147.994 140.606 146.897 141.239 145.83 140.953C144.763 140.667 144.13 139.571 144.416 138.504C144.702 137.437 145.799 136.804 146.866 137.089ZM158.457 140.195C159.524 140.481 160.157 141.578 159.871 142.645C159.585 143.712 158.488 144.345 157.421 144.059C156.355 143.773 155.721 142.676 156.007 141.609C156.293 140.542 157.39 139.909 158.457 140.195ZM170.048 143.301C171.115 143.587 171.748 144.684 171.462 145.751C171.176 146.817 170.08 147.451 169.013 147.165C167.946 146.879 167.312 145.782 167.598 144.715C167.884 143.648 168.981 143.015 170.048 143.301ZM181.639 146.407C182.706 146.693 183.339 147.789 183.053 148.856C182.767 149.923 181.671 150.556 180.604 150.271C179.537 149.985 178.904 148.888 179.189 147.821C179.475 146.754 180.572 146.121 181.639 146.407ZM193.23 149.513C194.297 149.799 194.93 150.895 194.644 151.962C194.358 153.029 193.262 153.662 192.195 153.376C191.128 153.091 190.495 151.994 190.781 150.927C191.066 149.86 192.163 149.227 193.23 149.513ZM204.821 152.619C205.888 152.904 206.521 154.001 206.235 155.068C205.95 156.135 204.853 156.768 203.786 156.482C202.719 156.196 202.086 155.1 202.372 154.033C202.658 152.966 203.754 152.333 204.821 152.619ZM216.412 155.724C217.479 156.01 218.112 157.107 217.826 158.174C217.541 159.241 216.444 159.874 215.377 159.588C214.31 159.302 213.677 158.206 213.963 157.139C214.249 156.072 215.345 155.438 216.412 155.724ZM228.003 158.83C229.07 159.116 229.703 160.213 229.418 161.28C229.132 162.347 228.035 162.98 226.968 162.694C225.901 162.408 225.268 161.311 225.554 160.244C225.84 159.177 226.936 158.544 228.003 158.83ZM239.595 161.936C240.661 162.222 241.295 163.319 241.009 164.386C240.723 165.452 239.626 166.086 238.559 165.8C237.492 165.514 236.859 164.417 237.145 163.35C237.431 162.283 238.528 161.65 239.595 161.936ZM251.186 165.042C252.253 165.328 252.886 166.424 252.6 167.491C252.314 168.558 251.217 169.191 250.15 168.906C249.083 168.62 248.45 167.523 248.736 166.456C249.022 165.389 250.119 164.756 251.186 165.042ZM262.777 168.148C263.844 168.434 264.477 169.53 264.191 170.597C263.905 171.664 262.808 172.297 261.741 172.011C260.675 171.725 260.041 170.629 260.327 169.562C260.613 168.495 261.71 167.862 262.777 168.148ZM274.368 171.254C275.435 171.539 276.068 172.636 275.782 173.703C275.496 174.77 274.399 175.403 273.333 175.117C272.266 174.831 271.632 173.735 271.918 172.668C272.204 171.601 273.301 170.968 274.368 171.254ZM285.959 174.359C287.026 174.645 287.659 175.742 287.373 176.809C287.087 177.876 285.991 178.509 284.924 178.223C283.857 177.937 283.224 176.84 283.509 175.774C283.795 174.707 284.892 174.073 285.959 174.359ZM297.55 177.465C298.617 177.751 299.25 178.848 298.964 179.915C298.678 180.982 297.582 181.615 296.515 181.329C295.448 181.043 294.815 179.946 295.101 178.879C295.386 177.812 296.483 177.179 297.55 177.465ZM309.141 180.571C310.208 180.857 310.841 181.954 310.555 183.02C310.269 184.087 309.173 184.721 308.106 184.435C307.039 184.149 306.406 183.052 306.692 181.985C306.978 180.918 308.074 180.285 309.141 180.571ZM320.732 183.677C321.799 183.963 322.432 185.059 322.146 186.126C321.861 187.193 320.764 187.826 319.697 187.541C318.63 187.255 317.997 186.158 318.283 185.091C318.569 184.024 319.665 183.391 320.732 183.677ZM332.323 186.783C333.39 187.069 334.023 188.165 333.738 189.232C333.452 190.299 332.355 190.932 331.288 190.646C330.221 190.36 329.588 189.264 329.874 188.197C330.16 187.13 331.256 186.497 332.323 186.783ZM343.914 189.888C344.981 190.174 345.615 191.271 345.329 192.338C345.043 193.405 343.946 194.038 342.879 193.752C341.812 193.466 341.179 192.37 341.465 191.303C341.751 190.236 342.848 189.603 343.914 189.888ZM355.506 192.994C356.573 193.28 357.206 194.377 356.92 195.444C356.634 196.511 355.537 197.144 354.47 196.858C353.403 196.572 352.77 195.475 353.056 194.409C353.342 193.342 354.439 192.708 355.506 192.994ZM367.097 196.1C368.164 196.386 368.797 197.483 368.511 198.55C368.225 199.617 367.128 200.25 366.061 199.964C364.994 199.678 364.361 198.581 364.647 197.514C364.933 196.447 366.03 195.814 367.097 196.1ZM378.688 199.206C379.755 199.492 380.388 200.589 380.102 201.655C379.816 202.722 378.719 203.356 377.653 203.07C376.586 202.784 375.952 201.687 376.238 200.62C376.524 199.553 377.621 198.92 378.688 199.206Z" fill="url(#paint5_linear_1_11212)"/>
<path id="Mask_5" fill-rule="evenodd" clip-rule="evenodd" d="M188.803 249.79C197.988 247.899 220.534 246.933 246.534 264.933C272.522 282.925 299.509 280.935 299.534 280.933L300.216 281.809C307.383 290.812 318.23 298.1 325.38 299.827C335.575 302.291 349.299 299.275 367.118 288.987C381.467 280.703 399.814 285.619 408.099 299.967C416.383 314.316 411.467 332.663 397.118 340.948C336.483 375.955 281.978 363.868 247.068 306.933H218.534C199.815 306.933 187.938 311.092 181.015 318.366C173.784 325.963 169.534 339.357 169.534 359.933C169.534 376.501 156.103 389.933 139.534 389.933C122.966 389.933 109.534 376.501 109.534 359.933C109.534 299.284 137.837 260.286 188.803 249.79Z" fill="url(#paint6_linear_1_11212)"/>
</g>
</g>
</g>
<g id="boot_2">
<path id="Rectangle Copy 4_2" fill-rule="evenodd" clip-rule="evenodd" d="M163.913 421.239C163.913 427.591 158.764 432.739 152.413 432.739H102.913C102.913 424.823 109.33 418.406 117.246 418.406H130.518C131.91 418.406 133.139 417.499 133.551 416.17L139.224 397.839C140.715 393.023 145.169 389.739 150.21 389.739H152.413C158.764 389.739 163.913 394.888 163.913 401.239V421.239Z" fill="#78C6E7"/>
<g id="Path 20_2">
<path id="Mask_6" fill-rule="evenodd" clip-rule="evenodd" d="M105.352 424.739C103.812 427.024 102.913 429.777 102.913 432.739H152.413C157.544 432.739 161.89 429.379 163.371 424.739H105.352Z" fill="#151A21"/>
<mask id="mask2_1_11212" style="mask-type:luminance" maskUnits="userSpaceOnUse" x="102" y="424" width="62" height="9">
<path id="Mask_7" fill-rule="evenodd" clip-rule="evenodd" d="M105.352 424.739C103.812 427.024 102.913 429.777 102.913 432.739H152.413C157.544 432.739 161.89 429.379 163.371 424.739H105.352Z" fill="white"/>
</mask>
<g mask="url(#mask2_1_11212)">
</g>
</g>
<path id="Rectangle_4" d="M146.913 396.239C146.913 393.754 148.928 391.739 151.413 391.739H158.052C158.527 391.739 158.913 392.125 158.913 392.601V399.739C158.913 406.367 153.541 411.739 146.913 411.739V396.239Z" fill="#548BA3"/>
</g>
<g id="Path 2_2">
<path d="M262.913 318.739C262.913 318.739 150.913 278.739 150.913 375.739" stroke="#FA5B35" stroke-width="60" stroke-linecap="round"/>
<path d="M262.913 318.739C262.913 318.739 150.913 278.739 150.913 375.739" stroke="url(#paint7_linear_1_11212)" stroke-width="60" stroke-linecap="round"/>
</g>
<g id="wheels">
<g id="Oval Copy 114">
<circle cx="276.569" cy="359.674" r="53" fill="#78C6E7"/>
<circle cx="276.569" cy="359.674" r="53" fill="url(#paint8_linear_1_11212)"/>
<circle cx="276.569" cy="359.674" r="53" stroke="#151A21" stroke-width="40"/>
<circle cx="276.569" cy="359.674" r="53" stroke="url(#paint9_linear_1_11212)" stroke-width="40"/>
</g>
<g id="Group 45 Copy 7">
<ellipse id="Oval" cx="227.227" cy="334.723" rx="11.7952" ry="2.24401" transform="rotate(128 227.227 334.723)" stroke="white" stroke-width="4" stroke-linecap="round"/>
<ellipse id="Oval_2" cx="231.286" cy="343.626" rx="12.5695" ry="2.91441" transform="rotate(124 231.286 343.626)" stroke="white" stroke-width="4" stroke-linecap="round"/>
<ellipse id="Oval_3" cx="237.975" cy="346.053" rx="7.52359" ry="1.17685" transform="rotate(120 237.975 346.053)" stroke="white" stroke-width="4" stroke-linecap="round"/>
</g>
<g id="Group 45 Copy 8">
<ellipse id="Oval_4" cx="329.81" cy="330.083" rx="11.7952" ry="2.24401" transform="rotate(-112 329.81 330.083)" stroke="white" stroke-width="4" stroke-linecap="round"/>
<ellipse id="Oval_5" cx="320.07" cy="329.147" rx="12.5695" ry="2.91441" transform="rotate(-116 320.07 329.147)" stroke="white" stroke-width="4" stroke-linecap="round"/>
<ellipse id="Oval_6" cx="314.623" cy="333.727" rx="7.52359" ry="1.17685" transform="rotate(-120 314.623 333.727)" stroke="white" stroke-width="4" stroke-linecap="round"/>
</g>
<g id="Group 45 Copy 9">
<ellipse id="Oval_7" cx="281.043" cy="418.824" rx="11.7952" ry="2.24401" transform="rotate(8 281.043 418.824)" stroke="white" stroke-width="4" stroke-linecap="round"/>
<ellipse id="Oval_8" cx="286.723" cy="410.858" rx="12.5695" ry="2.91441" transform="rotate(4 286.723 410.858)" stroke="white" stroke-width="4" stroke-linecap="round"/>
<ellipse id="Oval_9" cx="285.481" cy="403.85" rx="7.52359" ry="1.17685" stroke="white" stroke-width="4" stroke-linecap="round"/>
</g>
</g>
</g>
<defs>
<linearGradient id="paint0_linear_1_11212" x1="266.248" y1="303.154" x2="234.686" y2="228.828" gradientUnits="userSpaceOnUse">
<stop stop-color="#FA5B35"/>
<stop offset="0.504253" stop-color="#FA5B35"/>
<stop offset="1" stop-color="#FC9D86"/>
</linearGradient>
<linearGradient id="paint1_linear_1_11212" x1="218.506" y1="129.369" x2="233.355" y2="155.967" gradientUnits="userSpaceOnUse">
<stop stop-color="#999DCF" stop-opacity="0.01"/>
<stop offset="1" stop-color="#999DCF"/>
</linearGradient>
<linearGradient id="paint2_linear_1_11212" x1="382.504" y1="213.158" x2="363.864" y2="208.163" gradientUnits="userSpaceOnUse">
<stop stop-color="#AE3B1B" stop-opacity="0.01"/>
<stop offset="1" stop-color="#AE3B1B"/>
</linearGradient>
<linearGradient id="paint3_linear_1_11212" x1="82.3959" y1="138.848" x2="94.4859" y2="127.089" gradientUnits="userSpaceOnUse">
<stop stop-color="#AE3B1B" stop-opacity="0.01"/>
<stop offset="1" stop-color="#AE3B1B"/>
</linearGradient>
<linearGradient id="paint4_linear_1_11212" x1="268.117" y1="410.62" x2="454.42" y2="163.511" gradientUnits="userSpaceOnUse">
<stop stop-color="#93D1EC"/>
<stop offset="0.393872" stop-color="#78C6E7"/>
<stop offset="1" stop-color="white"/>
<stop offset="1" stop-color="#AEDDF1"/>
</linearGradient>
<linearGradient id="paint5_linear_1_11212" x1="207.644" y1="189.823" x2="371.096" y2="233.62" gradientUnits="userSpaceOnUse">
<stop stop-color="#78C6E7"/>
<stop offset="1" stop-color="white"/>
</linearGradient>
<linearGradient id="paint6_linear_1_11212" x1="254.565" y1="239.402" x2="149.366" y2="239.402" gradientUnits="userSpaceOnUse">
<stop stop-color="#78C6E7"/>
<stop offset="1" stop-color="#548BA3"/>
</linearGradient>
<linearGradient id="paint7_linear_1_11212" x1="280.248" y1="317.154" x2="248.686" y2="242.828" gradientUnits="userSpaceOnUse">
<stop stop-color="#FA5B35"/>
<stop offset="0.504253" stop-color="#FA5B35"/>
<stop offset="1" stop-color="#FC9D86"/>
</linearGradient>
<linearGradient id="paint8_linear_1_11212" x1="251.853" y1="340.315" x2="213.134" y2="389.748" gradientUnits="userSpaceOnUse">
<stop stop-color="#44484D" stop-opacity="0.01"/>
<stop offset="1" stop-color="#44484D"/>
</linearGradient>
<linearGradient id="paint9_linear_1_11212" x1="313.069" y1="396.174" x2="386.069" y2="323.174" gradientUnits="userSpaceOnUse">
<stop stop-color="#44484D" stop-opacity="0.01"/>
<stop offset="0.685766" stop-color="#73767A"/>
<stop offset="1" stop-color="#73767A"/>
</linearGradient>
</defs>
</svg>
