<svg width="327" height="407" viewBox="0 0 327 407" fill="none" xmlns="http://www.w3.org/2000/svg">
<g id="YuhPerson_SP_8g">
<g id="Oval Copy 115">
<circle cx="189" cy="57" r="18" fill="#151A21"/>
<circle cx="189" cy="57" r="18" fill="url(#paint0_linear_1_13986)"/>
</g>
<g id="Group 54 Copy">
<path id="Combined Shape" fill-rule="evenodd" clip-rule="evenodd" d="M207 0C197.059 0 189 8.05887 189 18V39C179.059 39 171 43.0294 171 48C171 52.9706 179.059 57 189 57H207V48V0Z" fill="#151A21"/>
<rect id="Rectangle" x="189" y="35" width="18" height="4" fill="#78C6E7"/>
</g>
<g id="Group 19">
<path id="Rectangle Copy 4" fill-rule="evenodd" clip-rule="evenodd" d="M61 381.5C61 387.851 55.8513 393 49.5 393H0C0 385.084 6.41725 378.667 14.3333 378.667H27.6049C28.9966 378.667 30.226 377.76 30.6375 376.431L36.3112 358.1C37.8018 353.284 42.2555 350 47.297 350H49.5C55.8513 350 61 355.149 61 361.5V381.5Z" fill="#BABDE4"/>
<g id="Path 20">
<path id="Mask" fill-rule="evenodd" clip-rule="evenodd" d="M2.43853 385C0.898775 387.285 0 390.037 0 393H49.5C54.6309 393 58.9769 389.64 60.4577 385H2.43853Z" fill="white"/>
<mask id="mask0_1_13986" style="mask-type:luminance" maskUnits="userSpaceOnUse" x="0" y="385" width="61" height="8">
<path id="Mask_2" fill-rule="evenodd" clip-rule="evenodd" d="M2.43853 385C0.898775 387.285 0 390.037 0 393H49.5C54.6309 393 58.9769 389.64 60.4577 385H2.43853Z" fill="white"/>
</mask>
<g mask="url(#mask0_1_13986)">
</g>
</g>
<path id="Rectangle_2" d="M44 356.5C44 354.015 46.0147 352 48.5 352H55.1388C55.6144 352 56 352.386 56 352.861V360C56 366.627 50.6274 372 44 372V356.5Z" fill="#EBDDF5"/>
<path id="Rectangle Copy 4_2" fill-rule="evenodd" clip-rule="evenodd" d="M61 381.5C61 387.851 55.8513 393 49.5 393H0C0 385.084 6.41725 378.667 14.3333 378.667H27.6049C28.9966 378.667 30.226 377.76 30.6375 376.431L36.3112 358.1C37.8018 353.284 42.2555 350 47.297 350H49.5C55.8513 350 61 355.149 61 361.5V381.5Z" fill="url(#paint1_linear_1_13986)"/>
</g>
<g id="Group 19 Copy">
<path id="Rectangle Copy 4_3" fill-rule="evenodd" clip-rule="evenodd" d="M86 395.5C86 401.851 80.8513 407 74.5 407H25C25 399.084 31.4173 392.667 39.3333 392.667H52.6049C53.9966 392.667 55.226 391.76 55.6375 390.431L61.3112 372.1C62.8018 367.284 67.2555 364 72.297 364H74.5C80.8513 364 86 369.149 86 375.5L86 395.5Z" fill="#BABDE4"/>
<g id="Path 20_2">
<path id="Mask_3" fill-rule="evenodd" clip-rule="evenodd" d="M27.4385 399C25.8988 401.285 25 404.037 25 407H74.5C79.6309 407 83.9769 403.64 85.4577 399H27.4385Z" fill="white"/>
<mask id="mask1_1_13986" style="mask-type:luminance" maskUnits="userSpaceOnUse" x="25" y="399" width="61" height="8">
<path id="Mask_4" fill-rule="evenodd" clip-rule="evenodd" d="M27.4385 399C25.8988 401.285 25 404.037 25 407H74.5C79.6309 407 83.9769 403.64 85.4577 399H27.4385Z" fill="white"/>
</mask>
<g mask="url(#mask1_1_13986)">
</g>
</g>
<path id="Rectangle_3" d="M69 370.5C69 368.015 71.0147 366 73.5 366H80.1388C80.6144 366 81 366.386 81 366.861V374C81 380.627 75.6274 386 69 386V370.5Z" fill="#EBDDF5"/>
<path id="Rectangle Copy 4_4" fill-rule="evenodd" clip-rule="evenodd" d="M86 395.5C86 401.851 80.8513 407 74.5 407H25C25 399.084 31.4173 392.667 39.3333 392.667H52.6049C53.9966 392.667 55.226 391.76 55.6375 390.431L61.3112 372.1C62.8018 367.284 67.2555 364 72.297 364H74.5C80.8513 364 86 369.149 86 375.5L86 395.5Z" fill="url(#paint2_linear_1_13986)"/>
</g>
<g id="Group 48">
<g id="Rectangle Copy 162">
<path fill-rule="evenodd" clip-rule="evenodd" d="M270.188 292.946C267.171 293.926 265.519 297.167 266.5 300.184L274.604 325.126C283.878 323.8 288.215 313.54 289.562 309.556C289.908 308.533 289.866 307.436 289.532 306.409L285.503 294.01C284.523 290.992 281.282 289.341 278.264 290.321L270.188 292.946Z" fill="#151A21"/>
<path fill-rule="evenodd" clip-rule="evenodd" d="M270.188 292.946C267.171 293.926 265.519 297.167 266.5 300.184L274.604 325.126C283.878 323.8 288.215 313.54 289.562 309.556C289.908 308.533 289.866 307.436 289.532 306.409L285.503 294.01C284.523 290.992 281.282 289.341 278.264 290.321L270.188 292.946Z" fill="url(#paint3_linear_1_13986)"/>
</g>
<path id="Combined Shape Copy 9" fill-rule="evenodd" clip-rule="evenodd" d="M208.501 84C220.164 84.0001 231.491 88.0213 239.765 96.2422C255.999 112.374 282.216 142.335 288.899 173.192C293.123 187.051 322.108 288.839 268.117 306.382L255.233 266.729C246.064 279.181 231.367 287.31 214.719 287.31H163.608C146.775 287.309 131.888 278.984 122.838 266.228L112.413 305.136C53.5889 289.374 85.0479 171.798 85.0928 171.63L85.5723 171.758C93.4272 146.176 117.516 116.342 133.126 98.876C141.863 89.1005 154.472 84 167.583 84H208.501Z" fill="url(#paint4_linear_1_13986)"/>
<path id="Combined Shape Copy 22" d="M250.629 183.906L230.452 190.462L255.232 266.729C246.063 279.18 231.367 287.31 214.719 287.31H163.608C136.02 287.31 113.655 264.95 113.655 237.362V183.906H250.629Z" fill="url(#paint5_linear_1_13986)"/>
<path id="Rectangle Copy 164" fill-rule="evenodd" clip-rule="evenodd" d="M268.117 306.382L230.452 190.462L288.413 171.629C288.413 171.629 326.077 287.549 268.117 306.382Z" fill="url(#paint6_linear_1_13986)"/>
<path id="Combined Shape_2" fill-rule="evenodd" clip-rule="evenodd" d="M113.655 179.283V237.359C113.655 248.115 117.055 258.075 122.838 266.227L112.413 305.136C53.5723 289.369 85.0657 171.731 85.0928 171.63L113.655 179.283Z" fill="url(#paint7_linear_1_13986)"/>
</g>
<g id="Group 63">
<mask id="mask2_1_13986" style="mask-type:luminance" maskUnits="userSpaceOnUse" x="19" y="233" width="192" height="137">
<path id="Rectangle_4" fill-rule="evenodd" clip-rule="evenodd" d="M113.975 236.879C113.799 264.653 136.311 287.237 164.086 287.149L211 287V370L19.9995 370C19.9995 370 18.7539 289.049 37.9995 261C57.2451 232.951 114 233 114 233L113.975 236.879Z" fill="white"/>
</mask>
<g mask="url(#mask2_1_13986)">
<path id="Path 2" d="M171 279.652C171 279.652 59 239.652 59 336.652" stroke="#151A21" stroke-width="60" stroke-linecap="round"/>
</g>
</g>
<g id="Group 32">
<g id="Path 2_2">
<path d="M185 293.652C185 293.652 73 253.652 73 350.652" stroke="#151A21" stroke-width="60" stroke-linecap="round"/>
<path d="M185 293.652C185 293.652 73 253.652 73 350.652" stroke="url(#paint8_linear_1_13986)" stroke-width="60" stroke-linecap="round"/>
</g>
</g>
<g id="wheels">
<g id="Oval Copy 114">
<circle cx="191.656" cy="333.587" r="53" fill="#78C6E7"/>
<circle cx="191.656" cy="333.587" r="53" fill="url(#paint9_linear_1_13986)"/>
<circle cx="191.656" cy="333.587" r="53" stroke="#151A21" stroke-width="40"/>
<circle cx="191.656" cy="333.587" r="53" stroke="url(#paint10_linear_1_13986)" stroke-width="40"/>
</g>
<g id="Group 45 Copy 7">
<ellipse id="Oval" cx="142.314" cy="308.637" rx="11.7952" ry="2.24401" transform="rotate(128 142.314 308.637)" stroke="white" stroke-width="4" stroke-linecap="round"/>
<ellipse id="Oval_2" cx="146.372" cy="317.539" rx="12.5695" ry="2.91441" transform="rotate(124 146.372 317.539)" stroke="white" stroke-width="4" stroke-linecap="round"/>
<ellipse id="Oval_3" cx="153.062" cy="319.967" rx="7.52359" ry="1.17685" transform="rotate(120 153.062 319.967)" stroke="white" stroke-width="4" stroke-linecap="round"/>
</g>
<g id="Group 45 Copy 8">
<ellipse id="Oval_4" cx="244.896" cy="303.996" rx="11.7952" ry="2.24401" transform="rotate(-112 244.896 303.996)" stroke="white" stroke-width="4" stroke-linecap="round"/>
<ellipse id="Oval_5" cx="235.157" cy="303.06" rx="12.5695" ry="2.91441" transform="rotate(-116 235.157 303.06)" stroke="white" stroke-width="4" stroke-linecap="round"/>
<ellipse id="Oval_6" cx="229.71" cy="307.64" rx="7.52359" ry="1.17685" transform="rotate(-120 229.71 307.64)" stroke="white" stroke-width="4" stroke-linecap="round"/>
</g>
<g id="Group 45 Copy 9">
<ellipse id="Oval_7" cx="196.13" cy="392.737" rx="11.7952" ry="2.24401" transform="rotate(8 196.13 392.737)" stroke="white" stroke-width="4" stroke-linecap="round"/>
<ellipse id="Oval_8" cx="201.81" cy="384.771" rx="12.5695" ry="2.91441" transform="rotate(4 201.81 384.771)" stroke="white" stroke-width="4" stroke-linecap="round"/>
<ellipse id="Oval_9" cx="200.568" cy="377.764" rx="7.52359" ry="1.17685" stroke="white" stroke-width="4" stroke-linecap="round"/>
</g>
</g>
</g>
<defs>
<linearGradient id="paint0_linear_1_13986" x1="203.777" y1="46.1982" x2="182.174" y2="52.6436" gradientUnits="userSpaceOnUse">
<stop stop-color="#44484D" stop-opacity="0.01"/>
<stop offset="1" stop-color="#44484D"/>
</linearGradient>
<linearGradient id="paint1_linear_1_13986" x1="55.9394" y1="369.107" x2="60.6301" y2="344.133" gradientUnits="userSpaceOnUse">
<stop stop-color="#999DCF" stop-opacity="0.01"/>
<stop offset="1" stop-color="#999DCF"/>
</linearGradient>
<linearGradient id="paint2_linear_1_13986" x1="87.7091" y1="385.5" x2="87.7091" y2="364" gradientUnits="userSpaceOnUse">
<stop stop-color="#999DCF" stop-opacity="0.01"/>
<stop offset="1" stop-color="#999DCF"/>
</linearGradient>
<linearGradient id="paint3_linear_1_13986" x1="297.543" y1="309.471" x2="286.074" y2="327.567" gradientUnits="userSpaceOnUse">
<stop stop-color="#44484D" stop-opacity="0.01"/>
<stop offset="1" stop-color="#44484D"/>
</linearGradient>
<linearGradient id="paint4_linear_1_13986" x1="203.481" y1="-26.8632" x2="-18.3558" y2="178.833" gradientUnits="userSpaceOnUse">
<stop stop-color="#ECBACB"/>
<stop offset="0.488176" stop-color="#EBDDF5"/>
<stop offset="1" stop-color="#9ADBED"/>
</linearGradient>
<linearGradient id="paint5_linear_1_13986" x1="122.056" y1="221.027" x2="138.538" y2="353.756" gradientUnits="userSpaceOnUse">
<stop stop-color="#999DCF" stop-opacity="0.01"/>
<stop offset="1" stop-color="#999DCF"/>
</linearGradient>
<linearGradient id="paint6_linear_1_13986" x1="220.976" y1="387.542" x2="314.919" y2="346.946" gradientUnits="userSpaceOnUse">
<stop stop-color="white"/>
<stop offset="1" stop-color="white" stop-opacity="0.01"/>
</linearGradient>
<linearGradient id="paint7_linear_1_13986" x1="76.6504" y1="171.63" x2="76.6504" y2="305.136" gradientUnits="userSpaceOnUse">
<stop stop-color="#999DCF" stop-opacity="0.01"/>
<stop offset="1" stop-color="#999DCF"/>
</linearGradient>
<linearGradient id="paint8_linear_1_13986" x1="181.007" y1="311.161" x2="174.586" y2="246.35" gradientUnits="userSpaceOnUse">
<stop stop-color="#44484D" stop-opacity="0.01"/>
<stop offset="1" stop-color="#44484D"/>
</linearGradient>
<linearGradient id="paint9_linear_1_13986" x1="166.939" y1="314.228" x2="128.221" y2="363.661" gradientUnits="userSpaceOnUse">
<stop stop-color="#44484D" stop-opacity="0.01"/>
<stop offset="1" stop-color="#44484D"/>
</linearGradient>
<linearGradient id="paint10_linear_1_13986" x1="228.156" y1="370.087" x2="301.156" y2="297.087" gradientUnits="userSpaceOnUse">
<stop stop-color="#44484D" stop-opacity="0.01"/>
<stop offset="0.685766" stop-color="#73767A"/>
<stop offset="1" stop-color="#73767A"/>
</linearGradient>
</defs>
</svg>
