<svg width="375" height="481" viewBox="0 0 375 481" fill="none" xmlns="http://www.w3.org/2000/svg">
<g id="YuhPerson_DP_2e">
<g id="Group 84 Copy">
<g id="Group 19">
<path id="Rectangle Copy 4" fill-rule="evenodd" clip-rule="evenodd" d="M257.551 421.537C263.052 424.712 264.936 431.746 261.761 437.246L237.011 480.114C230.155 476.156 227.806 467.39 231.764 460.534L238.4 449.041C239.096 447.836 238.926 446.318 237.98 445.297L224.942 431.218C221.516 427.519 220.899 422.02 223.42 417.654L224.522 415.746C227.697 410.246 234.731 408.361 240.231 411.537L257.551 421.537Z" fill="#78C6E7"/>
<g id="Path 20">
<path id="Mask" fill-rule="evenodd" clip-rule="evenodd" d="M231.301 474.002C232.51 476.478 234.445 478.633 237.01 480.114L261.76 437.246C264.326 432.803 263.589 427.359 260.311 423.756L231.301 474.002Z" fill="#151A21"/>
<mask id="mask0_1_8825" style="mask-type:luminance" maskUnits="userSpaceOnUse" x="231" y="423" width="33" height="58">
<path id="Mask_2" fill-rule="evenodd" clip-rule="evenodd" d="M231.301 474.002C232.51 476.478 234.445 478.633 237.01 480.114L261.76 437.246C264.326 432.803 263.589 427.359 260.311 423.756L231.301 474.002Z" fill="white"/>
</mask>
<g mask="url(#mask0_1_8825)">
</g>
</g>
<path id="Rectangle" d="M227.4 423.759C225.248 422.517 224.51 419.764 225.753 417.612L229.072 411.863C229.31 411.451 229.837 411.31 230.249 411.548L236.431 415.117C242.171 418.431 244.137 425.77 240.823 431.509L227.4 423.759Z" fill="#548BA3"/>
</g>
<g id="Group 19 Copy">
<path id="Rectangle Copy 4_2" fill-rule="evenodd" clip-rule="evenodd" d="M316.228 265.04C319.403 259.539 326.436 257.655 331.937 260.831L374.805 285.581C370.847 292.436 362.081 294.785 355.225 290.827L343.732 284.191C342.527 283.495 341.009 283.666 339.988 284.611L325.909 297.649C322.21 301.075 316.711 301.692 312.345 299.171L310.437 298.07C304.936 294.894 303.052 287.861 306.228 282.36L316.228 265.04Z" fill="#78C6E7"/>
<g id="Path 20_2">
<path id="Mask_3" fill-rule="evenodd" clip-rule="evenodd" d="M368.693 291.29C371.169 290.081 373.323 288.146 374.805 285.581L331.936 260.831C327.493 258.265 322.049 259.002 318.447 262.28L368.693 291.29Z" fill="#151A21"/>
<mask id="mask1_1_8825" style="mask-type:luminance" maskUnits="userSpaceOnUse" x="318" y="259" width="57" height="33">
<path id="Mask_4" fill-rule="evenodd" clip-rule="evenodd" d="M368.693 291.29C371.169 290.081 373.323 288.146 374.805 285.581L331.936 260.831C327.493 258.265 322.049 259.002 318.447 262.28L368.693 291.29Z" fill="white"/>
</mask>
<g mask="url(#mask1_1_8825)">
</g>
</g>
<path id="Rectangle_2" d="M318.449 295.191C317.207 297.343 314.454 298.081 312.302 296.838L306.553 293.519C306.141 293.281 306 292.754 306.238 292.342L309.807 286.16C313.121 280.42 320.46 278.454 326.199 281.767L318.449 295.191Z" fill="#548BA3"/>
</g>
</g>
<g id="Rectangle Copy 148">
<path fill-rule="evenodd" clip-rule="evenodd" d="M302.319 167.459C305.495 161.959 312.528 160.074 318.029 163.25L355.701 185C352.111 191.218 344.16 193.348 337.942 189.758L327.043 183.465C326.269 183.018 325.333 182.948 324.501 183.273L319.038 185.407C315.784 186.679 312.129 186.402 309.103 184.655L306.529 183.169C301.028 179.993 299.144 172.96 302.319 167.459Z" fill="#151A21"/>
<path fill-rule="evenodd" clip-rule="evenodd" d="M302.319 167.459C305.495 161.959 312.528 160.074 318.029 163.25L355.701 185C352.111 191.218 344.16 193.348 337.942 189.758L327.043 183.465C326.269 183.018 325.333 182.948 324.501 183.273L319.038 185.407C315.784 186.679 312.129 186.402 309.103 184.655L306.529 183.169C301.028 179.993 299.144 172.96 302.319 167.459Z" fill="url(#paint0_linear_1_8825)"/>
</g>
<path id="Rectangle Copy 149" fill-rule="evenodd" clip-rule="evenodd" d="M77.1533 37.4593C80.329 31.9589 78.4444 24.9256 72.944 21.75L35.2719 0C31.6821 6.2178 33.8124 14.1685 40.0303 17.7583L50.9299 24.0512C51.704 24.4982 52.233 25.2727 52.3675 26.1564L53.2506 31.9544C53.7766 35.4081 55.844 38.4354 58.8695 40.1822L61.444 41.6686C66.9444 44.8442 73.9777 42.9597 77.1533 37.4593Z" fill="#151A21"/>
<g id="legs copy 2">
<g id="back leg copy">
<path id="Path" d="M155.655 215.999L215.655 215.999L215.731 235.486L215.743 236.073C216.455 265.353 225.383 283.202 242.492 293.503L243.339 294.007C251.41 298.884 257.025 299.538 262.905 297.192C271.129 293.911 281.057 284.656 291.792 268.623L292.641 267.343L342.775 300.307C325.548 326.507 306.658 344.335 285.137 352.921C261.296 362.432 236.376 359.657 213.015 345.783L212.432 345.433L211.524 344.894C175.591 323.265 157.018 286.261 155.767 237.765L155.728 235.921L155.655 215.999Z" fill="#151A21"/>
<mask id="mask2_1_8825" style="mask-type:luminance" maskUnits="userSpaceOnUse" x="155" y="215" width="188" height="144">
<path id="Path_2" d="M155.655 215.999L215.655 215.999L215.731 235.486L215.743 236.073C216.455 265.353 225.383 283.202 242.492 293.503L243.339 294.007C251.41 298.884 257.025 299.538 262.905 297.192C271.129 293.911 281.057 284.656 291.792 268.623L292.641 267.343L342.775 300.307C325.548 326.507 306.658 344.335 285.137 352.921C261.296 362.432 236.376 359.657 213.015 345.783L212.432 345.433L211.524 344.894C175.591 323.265 157.018 286.261 155.767 237.765L155.728 235.921L155.655 215.999Z" fill="white"/>
</mask>
<g mask="url(#mask2_1_8825)">
<path id="Path_3" d="M183.351 235.679L191.314 236.451C187.89 271.775 201.179 298.28 231.496 316.6C260.72 334.26 288.187 323.595 315.152 283.201L315.969 281.967L322.653 286.363C293.305 330.998 261.109 343.842 227.358 323.447C194.735 303.733 179.928 274.654 183.245 236.828L183.351 235.679Z" fill="#FA5B35"/>
</g>
</g>
<g id="front leg copy">
<g id="Mask_5">
<path d="M134.656 215.999L195.656 215.999C194.206 250.796 196.186 284.593 203.755 313.359C210.804 340.151 228.159 370.803 256.197 404.884L257.05 405.918L210.82 444.165C177.153 403.47 155.327 365.105 145.729 328.626C136.711 294.348 133.001 257.214 134.516 217.288L134.656 215.999Z" fill="#151A21"/>
<path d="M134.656 215.999L195.656 215.999C194.206 250.796 196.186 284.593 203.755 313.359C210.804 340.151 228.159 370.803 256.197 404.884L257.05 405.918L210.82 444.165C177.153 403.47 155.327 365.105 145.729 328.626C136.711 294.348 133.001 257.214 134.516 217.288L134.656 215.999Z" fill="url(#paint1_linear_1_8825)"/>
</g>
<mask id="mask3_1_8825" style="mask-type:luminance" maskUnits="userSpaceOnUse" x="134" y="215" width="124" height="230">
<g id="Mask_6">
<path d="M134.656 215.999L195.656 215.999C194.206 250.796 196.186 284.593 203.755 313.359C210.804 340.151 228.159 370.803 256.197 404.884L257.05 405.918L210.82 444.165C177.153 403.47 155.327 365.105 145.729 328.626C136.711 294.348 133.001 257.214 134.516 217.288L134.656 215.999Z" fill="white"/>
<path d="M134.656 215.999L195.656 215.999C194.206 250.796 196.186 284.593 203.755 313.359C210.804 340.151 228.159 370.803 256.197 404.884L257.05 405.918L210.82 444.165C177.153 403.47 155.327 365.105 145.729 328.626C136.711 294.348 133.001 257.214 134.516 217.288L134.656 215.999Z" stroke="white"/>
</g>
</mask>
<g mask="url(#mask3_1_8825)">
<path id="Path_4" d="M168.655 215.999C167.101 253.305 170.215 288.549 178.468 319.919C186.498 350.439 207.953 386.678 237.655 422.999L230.655 427.999C199.21 389.991 179.256 354.353 170.731 321.954C162.393 290.263 159.24 253.422 160.655 215.999L168.655 215.999Z" fill="#FA5B35"/>
</g>
</g>
</g>
<g id="Combined Shape Copy 23">
<path id="Mask_7" d="M323.151 164.896C310.448 186.897 282.315 194.435 260.314 181.733L224.906 161.29L218.448 252.247L134.539 218.286L141.81 113.315L87.1087 81.7327C65.1072 69.0301 57.5689 40.897 70.2715 18.8955L323.151 164.896Z" fill="url(#paint2_linear_1_8825)"/>
<mask id="mask4_1_8825" style="mask-type:luminance" maskUnits="userSpaceOnUse" x="64" y="18" width="260" height="235">
<path id="Mask_8" d="M323.151 164.896C310.448 186.897 282.315 194.435 260.314 181.733L224.906 161.29L218.448 252.247L134.539 218.286L141.81 113.315L87.1087 81.7327C65.1072 69.0301 57.5689 40.897 70.2715 18.8955L323.151 164.896Z" fill="white"/>
</mask>
<g mask="url(#mask4_1_8825)">
<path id="Combined Shape" fill-rule="evenodd" clip-rule="evenodd" d="M231.966 204.991C240.208 203.85 245.562 206.941 247.477 214.088C247.691 214.888 247.216 215.71 246.416 215.925C245.616 216.139 244.794 215.664 244.579 214.864C243.105 209.362 239.331 207.1 232.739 207.915L232.377 207.962C224.392 209.067 219.119 206.2 217.056 199.523L216.866 198.864C215.392 193.362 211.619 191.1 205.027 191.915L204.664 191.962C196.422 193.102 191.069 190.011 189.154 182.864C188.939 182.064 189.414 181.242 190.214 181.027C191.014 180.813 191.837 181.288 192.051 182.088C193.526 187.59 197.299 189.852 203.891 189.037L204.253 188.991C212.495 187.85 217.849 190.941 219.764 198.088C221.238 203.59 225.012 205.852 231.604 205.037L231.966 204.991ZM227.913 168.01C236.156 166.87 241.509 169.96 243.424 177.107C243.639 177.907 243.164 178.73 242.364 178.944C241.563 179.158 240.741 178.684 240.527 177.883C239.052 172.381 235.279 170.12 228.687 170.934L228.324 170.982C220.34 172.086 215.066 169.22 213.003 162.542L212.814 161.883C211.339 156.381 207.566 154.12 200.974 154.934L200.611 154.982C192.627 156.086 187.353 153.22 185.29 146.542L185.101 145.883C183.627 140.381 179.853 138.12 173.261 138.934L172.899 138.982C164.656 140.122 159.303 137.03 157.388 129.883C157.174 129.083 157.649 128.261 158.449 128.047C159.249 127.832 160.071 128.307 160.286 129.107C161.76 134.61 165.534 136.871 172.126 136.057L172.488 136.01C180.73 134.87 186.084 137.96 187.999 145.107C189.473 150.61 193.246 152.871 199.839 152.057L200.201 152.01C208.443 150.87 213.796 153.96 215.711 161.107C217.186 166.61 220.959 168.871 227.551 168.057L227.913 168.01ZM281.018 164.029C289.261 162.889 294.614 165.979 296.529 173.126C296.744 173.926 296.269 174.749 295.469 174.963C294.669 175.178 293.846 174.703 293.632 173.903C292.157 168.4 288.384 166.139 281.792 166.953L281.429 167.001C273.445 168.105 268.171 165.239 266.108 158.561L265.919 157.903C264.445 152.4 260.671 150.139 254.079 150.953L253.717 151.001C245.732 152.105 240.458 149.239 238.396 142.561L238.206 141.903C236.732 136.4 232.958 134.139 226.366 134.953L226.004 135.001C218.019 136.105 212.746 133.239 210.683 126.561L210.493 125.903C209.019 120.4 205.246 118.139 198.653 118.953L198.291 119.001C190.306 120.105 185.033 117.239 182.97 110.561L182.781 109.903C181.306 104.4 177.533 102.139 170.941 102.953L170.578 103.001C162.594 104.105 157.32 101.239 155.257 94.5611L155.068 93.9027C153.593 88.4001 149.82 86.1388 143.228 86.953L142.865 87.0008C134.881 88.1051 129.607 85.2388 127.544 78.5611L127.355 77.9027C125.881 72.4001 122.107 70.1388 115.515 70.953L115.153 71.0008C107.168 72.1051 101.894 69.2388 99.8315 62.5611L99.6422 61.9027C98.1677 56.4001 94.3944 54.1388 87.8023 54.953L87.4397 55.0008C79.1975 56.1408 73.8443 53.0495 71.9294 45.9027C71.715 45.1025 72.1897 44.2801 72.9899 44.0657C73.79 43.8514 74.6124 44.3262 74.8268 45.1263C76.3013 50.6289 80.0746 52.8902 86.6668 52.076L87.0288 52.029C95.2711 50.8889 100.625 53.9795 102.54 61.1263C104.014 66.6289 107.787 68.8902 114.38 68.076L114.742 68.029C122.984 66.8889 128.337 69.9795 130.252 77.1263C131.727 82.6289 135.5 84.8902 142.092 84.076L142.454 84.029C150.697 82.8889 156.05 85.9795 157.965 93.1263C159.44 98.6289 163.213 100.89 169.805 100.076L170.167 100.029C178.41 98.8889 183.763 101.979 185.678 109.126C187.152 114.629 190.926 116.89 197.518 116.076L197.88 116.029C206.122 114.889 211.476 117.979 213.391 125.126C214.865 130.629 218.639 132.89 225.231 132.076L225.593 132.029C233.835 130.889 239.189 133.979 241.104 141.126C242.578 146.629 246.351 148.89 252.944 148.076L253.306 148.029C261.548 146.889 266.901 149.979 268.817 157.126C270.291 162.629 274.064 164.89 280.656 164.076L281.018 164.029Z" fill="white"/>
</g>
</g>
<g id="Group 86">
<g id="Rectangle Copy 147">
<rect x="192.683" y="25.9961" width="36" height="46" rx="18" transform="rotate(30 192.683 25.9961)" fill="#151A21"/>
<rect x="192.683" y="25.9961" width="36" height="46" rx="18" transform="rotate(30 192.683 25.9961)" fill="url(#paint3_linear_1_8825)"/>
</g>
<g id="Path 12 + Path 12 Copy Mask Copy 6">
<path id="Mask_9" fill-rule="evenodd" clip-rule="evenodd" d="M191.445 45.0416C187.764 41.483 186.978 35.8763 189.538 31.4427C193.167 25.157 201.737 23.9553 206.955 29.0005L217.097 38.8072C220.778 42.3657 221.564 47.9724 219.004 52.406C215.375 58.6918 206.805 59.8934 201.587 54.8482L191.445 45.0416Z" fill="#FA5B35"/>
<mask id="mask5_1_8825" style="mask-type:luminance" maskUnits="userSpaceOnUse" x="188" y="25" width="33" height="33">
<path id="Mask_10" fill-rule="evenodd" clip-rule="evenodd" d="M191.445 45.0416C187.764 41.483 186.978 35.8763 189.538 31.4427C193.167 25.157 201.737 23.9553 206.955 29.0005L217.097 38.8072C220.778 42.3657 221.564 47.9724 219.004 52.406C215.375 58.6918 206.805 59.8934 201.587 54.8482L191.445 45.0416Z" fill="white"/>
</mask>
<g mask="url(#mask5_1_8825)">
<path id="Path 12" d="M186.879 48.0488L198.879 27.2642" stroke="#FC9D86" stroke-width="4" stroke-linecap="round"/>
<path id="Path 12 Copy" d="M190.806 57.2446L202.806 36.46" stroke="#FC9D86" stroke-width="4" stroke-linecap="round"/>
</g>
</g>
</g>
</g>
<defs>
<linearGradient id="paint0_linear_1_8825" x1="311.58" y1="176.427" x2="324.567" y2="183.925" gradientUnits="userSpaceOnUse">
<stop stop-color="#44484D" stop-opacity="0.01"/>
<stop offset="1" stop-color="#44484D"/>
</linearGradient>
<linearGradient id="paint1_linear_1_8825" x1="154.804" y1="336.708" x2="223.433" y2="329.337" gradientUnits="userSpaceOnUse">
<stop stop-color="#44484D" stop-opacity="0.01"/>
<stop offset="1" stop-color="#44484D"/>
</linearGradient>
<linearGradient id="paint2_linear_1_8825" x1="158.09" y1="213.033" x2="304.753" y2="131.714" gradientUnits="userSpaceOnUse">
<stop stop-color="#FA5B35"/>
<stop offset="0.504253" stop-color="#FA5B35"/>
<stop offset="1" stop-color="#FC9D86"/>
</linearGradient>
<linearGradient id="paint3_linear_1_8825" x1="204.622" y1="41.6971" x2="189.162" y2="46.2603" gradientUnits="userSpaceOnUse">
<stop stop-color="#44484D" stop-opacity="0.01"/>
<stop offset="1" stop-color="#44484D"/>
</linearGradient>
</defs>
</svg>
