<svg width="385" height="338" viewBox="0 0 385 338" fill="none" xmlns="http://www.w3.org/2000/svg">
<g id="YuhPerson_DP_5b">
<g id="Rectangle Copy 68">
<rect x="338" y="146" width="47" height="36" rx="18" fill="#151A21"/>
<rect x="338" y="146" width="47" height="36" rx="18" fill="url(#paint0_linear_1_15309)"/>
</g>
<g id="Combined Shape">
<g id="Mask">
<path d="M364 129C366.209 129 368 130.791 368 133V146C377.389 146 385 153.611 385 163V166.195C385 173.612 379.891 179.834 373 181.537V178.5C373 177.119 371.881 176 370.5 176C369.119 176 368 177.119 368 178.5V182H364V129Z" fill="#FA5B35"/>
<path d="M364 129C366.209 129 368 130.791 368 133V146C377.389 146 385 153.611 385 163V166.195C385 173.612 379.891 179.834 373 181.537V178.5C373 177.119 371.881 176 370.5 176C369.119 176 368 177.119 368 178.5V182H364V129Z" fill="url(#paint1_linear_1_15309)"/>
</g>
<mask id="mask0_1_15309" style="mask-type:luminance" maskUnits="userSpaceOnUse" x="364" y="129" width="21" height="53">
<g id="Mask_2">
<path d="M364 129C366.209 129 368 130.791 368 133V146C377.389 146 385 153.611 385 163V166.195C385 173.612 379.891 179.834 373 181.537V178.5C373 177.119 371.881 176 370.5 176C369.119 176 368 177.119 368 178.5V182H364V129Z" fill="white"/>
</g>
</mask>
<g mask="url(#mask0_1_15309)">
<path id="Combined Shape_2" fill-rule="evenodd" clip-rule="evenodd" d="M386.201 174.145C388.179 172.612 390.041 172.612 391.617 174.182C391.793 174.358 391.793 174.643 391.617 174.819C391.44 174.994 391.154 174.994 390.978 174.819C389.765 173.61 388.44 173.588 386.843 174.788L386.755 174.856C384.839 176.34 383.032 176.387 381.489 174.961L381.34 174.819C380.127 173.61 378.803 173.588 377.206 174.788L377.118 174.856C375.202 176.34 373.395 176.387 371.852 174.961L371.703 174.819C370.49 173.61 369.165 173.588 367.569 174.788L367.482 174.856C365.504 176.388 363.641 176.388 362.066 174.819C361.89 174.643 361.89 174.358 362.066 174.182C362.242 174.006 362.529 174.006 362.705 174.182C363.918 175.39 365.243 175.412 366.839 174.212L366.927 174.145C368.905 172.612 370.767 172.613 372.342 174.182C373.555 175.39 374.88 175.413 376.477 174.212L376.564 174.145C378.542 172.612 380.403 172.613 381.979 174.182C383.192 175.39 384.517 175.412 386.114 174.212L386.201 174.145ZM386.201 166.145C388.179 164.612 390.041 164.612 391.617 166.182C391.793 166.358 391.793 166.643 391.617 166.819C391.44 166.994 391.154 166.994 390.978 166.819C389.765 165.61 388.44 165.588 386.843 166.788L386.755 166.856C384.839 168.34 383.032 168.387 381.489 166.961L381.34 166.819C380.127 165.61 378.803 165.588 377.206 166.788L377.118 166.856C375.202 168.34 373.395 168.387 371.852 166.961L371.703 166.819C370.49 165.61 369.165 165.588 367.569 166.788L367.482 166.856C365.504 168.388 363.641 168.388 362.066 166.819C361.89 166.643 361.89 166.358 362.066 166.182C362.242 166.006 362.529 166.006 362.705 166.182C363.918 167.39 365.243 167.412 366.839 166.212L366.927 166.145C368.905 164.612 370.767 164.613 372.342 166.182C373.555 167.39 374.88 167.413 376.477 166.212L376.564 166.145C378.542 164.612 380.403 164.613 381.979 166.182C383.192 167.39 384.517 167.412 386.114 166.212L386.201 166.145ZM386.201 158.145C388.179 156.612 390.041 156.612 391.617 158.182C391.793 158.358 391.793 158.643 391.617 158.819C391.44 158.994 391.154 158.994 390.978 158.819C389.765 157.61 388.44 157.588 386.843 158.788L386.755 158.856C384.839 160.34 383.032 160.387 381.489 158.961L381.34 158.819C380.127 157.61 378.803 157.588 377.206 158.788L377.118 158.856C375.202 160.34 373.395 160.387 371.852 158.961L371.703 158.819C370.49 157.61 369.165 157.588 367.569 158.788L367.482 158.856C365.504 160.388 363.641 160.388 362.066 158.819C361.89 158.643 361.89 158.358 362.066 158.182C362.242 158.006 362.529 158.006 362.705 158.182C363.918 159.39 365.243 159.412 366.839 158.212L366.927 158.145C368.905 156.612 370.767 156.613 372.342 158.182C373.555 159.39 374.88 159.413 376.477 158.212L376.564 158.145C378.542 156.612 380.403 156.613 381.979 158.182C383.192 159.39 384.517 159.412 386.114 158.212L386.201 158.145ZM386.201 150.145C388.179 148.612 390.041 148.612 391.617 150.182C391.793 150.358 391.793 150.643 391.617 150.819C391.44 150.994 391.154 150.994 390.978 150.819C389.765 149.61 388.44 149.588 386.843 150.788L386.755 150.856C384.839 152.34 383.032 152.387 381.489 150.961L381.34 150.819C380.127 149.61 378.803 149.588 377.206 150.788L377.118 150.856C375.202 152.34 373.395 152.387 371.852 150.961L371.703 150.819C370.49 149.61 369.165 149.588 367.569 150.788L367.482 150.856C365.504 152.388 363.641 152.388 362.066 150.819C361.89 150.643 361.89 150.358 362.066 150.182C362.242 150.006 362.529 150.006 362.705 150.182C363.918 151.39 365.243 151.412 366.839 150.212L366.927 150.145C368.905 148.612 370.767 148.613 372.342 150.182C373.555 151.39 374.88 151.413 376.477 150.212L376.564 150.145C378.542 148.612 380.403 148.613 381.979 150.182C383.192 151.39 384.517 151.412 386.114 150.212L386.201 150.145Z" fill="white"/>
</g>
</g>
<g id="Path 25 + Path 25 Copy Mask Copy 2">
<g id="Mask_3">
<path fill-rule="evenodd" clip-rule="evenodd" d="M70 241.669L0 241.669V237.669C0 232.828 2.92106 228.466 7.39703 226.622L39 213.604L70 228.604L70 241.669Z" fill="#A1A3A6"/>
<path fill-rule="evenodd" clip-rule="evenodd" d="M70 241.669L0 241.669V237.669C0 232.828 2.92106 228.466 7.39703 226.622L39 213.604L70 228.604L70 241.669Z" fill="url(#paint2_linear_1_15309)"/>
</g>
<mask id="mask1_1_15309" style="mask-type:luminance" maskUnits="userSpaceOnUse" x="0" y="213" width="70" height="29">
<g id="Mask_4">
<path fill-rule="evenodd" clip-rule="evenodd" d="M70 241.669L0 241.669V237.669C0 232.828 2.92106 228.466 7.39703 226.622L39 213.604L70 228.604L70 241.669Z" fill="white"/>
<path fill-rule="evenodd" clip-rule="evenodd" d="M70 241.669L0 241.669V237.669C0 232.828 2.92106 228.466 7.39703 226.622L39 213.604L70 228.604L70 241.669Z" stroke="white"/>
</g>
</mask>
<g mask="url(#mask1_1_15309)">
<path id="Path 25" d="M22.8926 195.277L42.8926 229.918" stroke="#AE3B1B" stroke-width="4" stroke-linecap="round"/>
<path id="Path 25_2" d="M14.9639 197.546L34.9639 232.187" stroke="#AE3B1B" stroke-width="4" stroke-linecap="round"/>
<path id="Path 25_3" d="M7.03613 199.813L27.0361 234.454" stroke="#AE3B1B" stroke-width="4" stroke-linecap="round"/>
</g>
</g>
<path id="Path" d="M227.636 223.523L185.209 265.95L148.44 229.18C136.841 217.582 118.108 217.466 106.367 228.832L106.013 229.18L93.9998 241.604L37.3931 213.074C44.6788 205.753 63.587 186.754 63.587 186.754C98.3827 151.958 154.581 151.61 189.805 185.71L190.866 186.754L227.636 223.523Z" fill="#AE3B1B"/>
<g id="Path 25 + Path 25 Copy Mask Copy 2_2">
<g id="Mask_5">
<path fill-rule="evenodd" clip-rule="evenodd" d="M70 253.669L0 253.669V249.669C0 244.828 2.92106 240.466 7.39703 238.622L39 225.604L70 240.604L70 253.669Z" fill="white"/>
<path fill-rule="evenodd" clip-rule="evenodd" d="M70 253.669L0 253.669V249.669C0 244.828 2.92106 240.466 7.39703 238.622L39 225.604L70 240.604L70 253.669Z" fill="url(#paint3_linear_1_15309)"/>
</g>
<mask id="mask2_1_15309" style="mask-type:luminance" maskUnits="userSpaceOnUse" x="0" y="225" width="70" height="29">
<g id="Mask_6">
<path fill-rule="evenodd" clip-rule="evenodd" d="M70 253.669L0 253.669V249.669C0 244.828 2.92106 240.466 7.39703 238.622L39 225.604L70 240.604L70 253.669Z" fill="white"/>
<path fill-rule="evenodd" clip-rule="evenodd" d="M70 253.669L0 253.669V249.669C0 244.828 2.92106 240.466 7.39703 238.622L39 225.604L70 240.604L70 253.669Z" stroke="white"/>
</g>
</mask>
<g mask="url(#mask2_1_15309)">
<path id="Path 25_4" d="M19.9639 201.546L39.9639 236.187" stroke="#FA5B35" stroke-width="4" stroke-linecap="round"/>
<path id="Path 25_5" d="M4.10742 206.082L24.1074 240.723" stroke="#FA5B35" stroke-width="4" stroke-linecap="round"/>
<path id="Path 25_6" d="M12.0361 203.813L32.0361 238.454" stroke="#FA5B35" stroke-width="4" stroke-linecap="round"/>
</g>
</g>
<g id="Path_2">
<path d="M227.636 235.523L185.209 277.95L148.44 241.18C136.841 229.582 118.108 229.466 106.367 240.832L106.013 241.18L93.9998 253.604L37.3931 225.074C44.6788 217.753 63.587 198.754 63.587 198.754C98.3827 163.958 154.581 163.61 189.805 197.71L190.866 198.754L227.636 235.523Z" fill="url(#paint4_linear_1_15309)"/>
<path d="M227.636 235.523L185.209 277.95L148.44 241.18C136.841 229.582 118.108 229.466 106.367 240.832L106.013 241.18L93.9998 253.604L37.3931 225.074C44.6788 217.753 63.587 198.754 63.587 198.754C98.3827 163.958 154.581 163.61 189.805 197.71L190.866 198.754L227.636 235.523Z" fill="url(#paint5_radial_1_15309)"/>
</g>
<g id="Rectangle Copy 80">
<path fill-rule="evenodd" clip-rule="evenodd" d="M284 326.5C284 332.851 289.149 338 295.5 338H339C339 330.82 333.18 325 326 325H313.414C312.52 325 311.675 324.594 311.117 323.896L307.453 319.316C305.27 316.588 301.966 315 298.473 315H295.5C289.149 315 284 320.149 284 326.5Z" fill="#151A21"/>
<path fill-rule="evenodd" clip-rule="evenodd" d="M284 326.5C284 332.851 289.149 338 295.5 338H339C339 330.82 333.18 325 326 325H313.414C312.52 325 311.675 324.594 311.117 323.896L307.453 319.316C305.27 316.588 301.966 315 298.473 315H295.5C289.149 315 284 320.149 284 326.5Z" fill="url(#paint6_linear_1_15309)"/>
</g>
<g id="Rectangle Copy 84">
<path fill-rule="evenodd" clip-rule="evenodd" d="M318.5 55C324.851 55 330 49.8513 330 43.5V0C322.82 0 317 5.8203 317 13V25.5858C317 26.4797 316.594 27.325 315.896 27.8834L311.316 31.5472C308.588 33.7296 307 37.0337 307 40.5272V43.5C307 49.8513 312.149 55 318.5 55Z" fill="#151A21"/>
<path fill-rule="evenodd" clip-rule="evenodd" d="M318.5 55C324.851 55 330 49.8513 330 43.5V0C322.82 0 317 5.8203 317 13V25.5858C317 26.4797 316.594 27.325 315.896 27.8834L311.316 31.5472C308.588 33.7296 307 37.0337 307 40.5272V43.5C307 49.8513 312.149 55 318.5 55Z" fill="url(#paint7_linear_1_15309)"/>
</g>
<g id="Path 29">
<g id="Mask_7">
<path d="M330 284.604C330 310.01 309.405 330.604 284 330.604V237.465L244.655 273.934L190.218 207.207L284 125.375V84.6045C284 59.1995 304.595 38.6046 330 38.6045V284.604Z" fill="#FAB4CC"/>
<path d="M330 284.604C330 310.01 309.405 330.604 284 330.604V237.465L244.655 273.934L190.218 207.207L284 125.375V84.6045C284 59.1995 304.595 38.6046 330 38.6045V284.604Z" fill="url(#paint8_linear_1_15309)"/>
</g>
<mask id="mask3_1_15309" style="mask-type:luminance" maskUnits="userSpaceOnUse" x="190" y="38" width="140" height="293">
<g id="Mask_8">
<path d="M330 284.604C330 310.01 309.405 330.604 284 330.604V237.465L244.655 273.934L190.218 207.207L284 125.375V84.6045C284 59.1995 304.595 38.6046 330 38.6045V284.604Z" fill="white"/>
</g>
</mask>
<g mask="url(#mask3_1_15309)">
<path id="Path 29_2" d="M278 246L293 231" stroke="#AE7D8E" stroke-width="4" stroke-linecap="round"/>
</g>
</g>
<path id="Rectangle Copy 87" fill-rule="evenodd" clip-rule="evenodd" d="M305 218L244.655 273.934L190.218 207.208L305.325 106.768L305 218Z" fill="url(#paint9_radial_1_15309)"/>
<g id="Oval Copy 114">
<circle cx="203.155" cy="265" r="53" fill="#78C6E7"/>
<circle cx="203.155" cy="265" r="53" fill="url(#paint10_linear_1_15309)"/>
<circle cx="203.155" cy="265" r="53" stroke="#151A21" stroke-width="40"/>
<circle cx="203.155" cy="265" r="53" stroke="url(#paint11_linear_1_15309)" stroke-width="40"/>
</g>
<g id="Group 45 Copy 7">
<ellipse id="Oval" cx="153.657" cy="240.05" rx="11.7952" ry="2.24401" transform="rotate(128 153.657 240.05)" stroke="white" stroke-width="4" stroke-linecap="round"/>
<ellipse id="Oval_2" cx="157.716" cy="248.952" rx="12.5695" ry="2.91441" transform="rotate(124 157.716 248.952)" stroke="white" stroke-width="4" stroke-linecap="round"/>
<ellipse id="Oval_3" cx="164.406" cy="251.38" rx="7.52359" ry="1.17685" transform="rotate(120 164.406 251.38)" stroke="white" stroke-width="4" stroke-linecap="round"/>
</g>
<g id="Group 45 Copy 8">
<ellipse id="Oval_4" cx="256.24" cy="235.41" rx="11.7952" ry="2.24401" transform="rotate(-112 256.24 235.41)" stroke="white" stroke-width="4" stroke-linecap="round"/>
<ellipse id="Oval_5" cx="246.501" cy="234.473" rx="12.5695" ry="2.91441" transform="rotate(-116 246.501 234.473)" stroke="white" stroke-width="4" stroke-linecap="round"/>
<ellipse id="Oval_6" cx="241.053" cy="239.052" rx="7.52359" ry="1.17685" transform="rotate(-120 241.053 239.052)" stroke="white" stroke-width="4" stroke-linecap="round"/>
</g>
<g id="Group 45 Copy 9">
<ellipse id="Oval_7" cx="207.474" cy="324.15" rx="11.7952" ry="2.24401" transform="rotate(8 207.474 324.15)" stroke="white" stroke-width="4" stroke-linecap="round"/>
<ellipse id="Oval_8" cx="213.154" cy="316.185" rx="12.5695" ry="2.91441" transform="rotate(4 213.154 316.185)" stroke="white" stroke-width="4" stroke-linecap="round"/>
<ellipse id="Oval_9" cx="211.911" cy="309.177" rx="7.52359" ry="1.17685" stroke="white" stroke-width="4" stroke-linecap="round"/>
</g>
<path id="Rectangle" d="M0 253H70C70 255.209 68.2091 257 66 257H4C1.79086 257 0 255.209 0 253Z" fill="#151A21"/>
</g>
<defs>
<linearGradient id="paint0_linear_1_15309" x1="365.937" y1="158.557" x2="363.917" y2="144.502" gradientUnits="userSpaceOnUse">
<stop stop-color="#44484D" stop-opacity="0.01"/>
<stop offset="1" stop-color="#44484D"/>
</linearGradient>
<linearGradient id="paint1_linear_1_15309" x1="370.167" y1="203.054" x2="395.131" y2="195.088" gradientUnits="userSpaceOnUse">
<stop stop-color="#FA5B35"/>
<stop offset="0.504253" stop-color="#FA5B35"/>
<stop offset="1" stop-color="#FC9D86"/>
</linearGradient>
<linearGradient id="paint2_linear_1_15309" x1="42.1831" y1="218.562" x2="44.3254" y2="210.716" gradientUnits="userSpaceOnUse">
<stop stop-color="#44484D" stop-opacity="0.01"/>
<stop offset="1" stop-color="#44484D"/>
</linearGradient>
<linearGradient id="paint3_linear_1_15309" x1="67.9062" y1="243.564" x2="71.8444" y2="226.018" gradientUnits="userSpaceOnUse">
<stop stop-color="#44484D" stop-opacity="0.01"/>
<stop offset="1" stop-color="#44484D"/>
</linearGradient>
<linearGradient id="paint4_linear_1_15309" x1="129.281" y1="276.059" x2="192.262" y2="180.668" gradientUnits="userSpaceOnUse">
<stop stop-color="#FA5B35"/>
<stop offset="0.504253" stop-color="#FA5B35"/>
<stop offset="1" stop-color="#FC9D86"/>
</linearGradient>
<radialGradient id="paint5_radial_1_15309" cx="0" cy="0" r="1" gradientTransform="matrix(-15.3599 -22.6191 35.6856 -21.9436 174.998 227.822)" gradientUnits="userSpaceOnUse">
<stop stop-color="#AE3B1B"/>
<stop offset="0.581488" stop-color="#AE3B1B"/>
<stop offset="1" stop-color="#AE3B1B" stop-opacity="0.01"/>
</radialGradient>
<linearGradient id="paint6_linear_1_15309" x1="303.343" y1="335.824" x2="305.262" y2="318.065" gradientUnits="userSpaceOnUse">
<stop stop-color="#44484D" stop-opacity="0.01"/>
<stop offset="1" stop-color="#44484D"/>
</linearGradient>
<linearGradient id="paint7_linear_1_15309" x1="326.851" y1="21.6367" x2="326.851" y2="6.57422" gradientUnits="userSpaceOnUse">
<stop stop-color="#44484D" stop-opacity="0.01"/>
<stop offset="1" stop-color="#44484D"/>
</linearGradient>
<linearGradient id="paint8_linear_1_15309" x1="277.247" y1="37.708" x2="130.502" y2="153.189" gradientUnits="userSpaceOnUse">
<stop stop-color="#78C6E7"/>
<stop offset="1" stop-color="#FAB4CC"/>
</linearGradient>
<radialGradient id="paint9_radial_1_15309" cx="0" cy="0" r="1" gradientTransform="matrix(34.6641 -44.8672 58.4398 50.77 217.914 247.524)" gradientUnits="userSpaceOnUse">
<stop stop-color="#999DCF"/>
<stop offset="0.695085" stop-color="#999DCF"/>
<stop offset="1" stop-color="#999DCF" stop-opacity="0.01"/>
</radialGradient>
<linearGradient id="paint10_linear_1_15309" x1="178.438" y1="245.641" x2="139.72" y2="295.075" gradientUnits="userSpaceOnUse">
<stop stop-color="#44484D" stop-opacity="0.01"/>
<stop offset="1" stop-color="#44484D"/>
</linearGradient>
<linearGradient id="paint11_linear_1_15309" x1="239.655" y1="301.5" x2="312.655" y2="228.5" gradientUnits="userSpaceOnUse">
<stop stop-color="#44484D" stop-opacity="0.01"/>
<stop offset="0.685766" stop-color="#73767A"/>
<stop offset="1" stop-color="#73767A"/>
</linearGradient>
</defs>
</svg>
