<svg width="285" height="489" viewBox="0 0 285 489" fill="none" xmlns="http://www.w3.org/2000/svg">
<g id="YuhPerson_SP_9d">
<g id="Combined Shape">
<path id="Mask" fill-rule="evenodd" clip-rule="evenodd" d="M40.5814 334.535C35.0637 331.122 27.817 332.947 24.5731 338.565L0 381.127C7.00506 385.172 15.9428 383.143 20.515 376.47L30.6043 361.746C31.4453 360.519 32.8986 359.862 34.3551 360.166C37.1367 360.746 41.9352 362.037 46.4628 364.651C53.391 368.651 72.0106 379.401 72.0106 379.401L83.7606 359.05L44.5394 336.983L40.5814 334.535Z" fill="#FAB4CC"/>
<mask id="mask0_1_13406" style="mask-type:luminance" maskUnits="userSpaceOnUse" x="0" y="332" width="84" height="52">
<path id="Mask_2" fill-rule="evenodd" clip-rule="evenodd" d="M40.5814 334.535C35.0637 331.122 27.817 332.947 24.5731 338.565L0 381.127C7.00506 385.172 15.9428 383.143 20.515 376.47L30.6043 361.746C31.4453 360.519 32.8986 359.862 34.3551 360.166C37.1367 360.746 41.9352 362.037 46.4628 364.651C53.391 368.651 72.0106 379.401 72.0106 379.401L83.7606 359.05L44.5394 336.983L40.5814 334.535Z" fill="white"/>
</mask>
<g mask="url(#mask0_1_13406)">
<path id="Combined Shape_2" d="M8.14738 383.016L18.6781 364.776L34.2666 373.776L40.7666 362.518L25.1781 353.518L37.1571 332.77C32.3986 331.732 27.3154 333.816 24.7499 338.26L-5.85318e-05 381.128C2.56555 382.609 5.39875 383.207 8.14738 383.016Z" fill="#151A21"/>
</g>
</g>
<g id="Combined Shape_3">
<path id="Mask_3" fill-rule="evenodd" clip-rule="evenodd" d="M190.523 476.615C190.327 483.099 195.53 488.463 202.018 488.463H251.164C251.164 480.374 244.938 473.648 236.873 473.025L219.077 471.649C217.594 471.535 216.298 470.605 215.833 469.191C214.945 466.492 213.664 461.691 213.664 456.463C213.664 448.463 213.664 426.963 213.664 426.963H190.164L190.664 471.963L190.523 476.615Z" fill="#FAB4CC"/>
<mask id="mask1_1_13406" style="mask-type:luminance" maskUnits="userSpaceOnUse" x="190" y="426" width="62" height="63">
<path id="Mask_4" fill-rule="evenodd" clip-rule="evenodd" d="M190.523 476.615C190.327 483.099 195.53 488.463 202.018 488.463H251.164C251.164 480.374 244.938 473.648 236.873 473.025L219.077 471.649C217.594 471.535 216.298 470.605 215.833 469.191C214.945 466.492 213.664 461.691 213.664 456.463C213.664 448.463 213.664 426.963 213.664 426.963H190.164L190.664 471.963L190.523 476.615Z" fill="white"/>
</mask>
<g mask="url(#mask1_1_13406)">
<path id="Combined Shape_4" d="M248.726 480.463H227.664V462.463H214.664V480.463H190.706C192.187 485.103 196.533 488.463 201.664 488.463H251.164C251.164 485.5 250.265 482.748 248.726 480.463Z" fill="#151A21"/>
</g>
</g>
<g id="Group 11 Copy">
<path id="Path 32 Copy 2" d="M160.092 197.929C160.092 197.929 194.164 250.964 207.164 309.964C220.164 368.964 205.164 422.964 205.164 422.964" stroke="url(#paint0_linear_1_13406)" stroke-width="60" stroke-linecap="round"/>
<g id="Path 32 Copy 4">
<path d="M131.164 191.964C131.181 232.327 174.164 272.964 160.164 327.964C146.164 382.964 72.1641 366.964 72.1641 366.964" stroke="url(#paint1_linear_1_13406)" stroke-width="60" stroke-linecap="round"/>
<path d="M131.164 191.964C131.181 232.327 174.164 272.964 160.164 327.964C146.164 382.964 72.1641 366.964 72.1641 366.964" stroke="url(#paint2_linear_1_13406)" stroke-width="60" stroke-linecap="round"/>
</g>
<g id="Group 7">
<path id="Rectangle Copy 115" fill-rule="evenodd" clip-rule="evenodd" d="M141.164 50.249C141.164 31.7475 156.163 16.749 174.664 16.749C193.166 16.749 208.164 31.7475 208.164 50.249V52.749H141.164V50.249Z" fill="#FA5B35"/>
<ellipse id="Oval Copy 127" cx="176.511" cy="43.5717" rx="18" ry="9" transform="rotate(-15 176.511 43.5717)" fill="#FAB4CC"/>
<g id="Oval Copy 131">
<ellipse cx="171.852" cy="26.185" rx="18" ry="9" transform="rotate(-15 171.852 26.185)" fill="#FA5B35"/>
<ellipse cx="171.852" cy="26.185" rx="18" ry="9" transform="rotate(-15 171.852 26.185)" fill="url(#paint3_linear_1_13406)"/>
</g>
</g>
<g id="Group 48">
<g id="Rectangle Copy 162">
<path fill-rule="evenodd" clip-rule="evenodd" d="M97.3008 268.575C100.365 269.396 102.184 272.546 101.363 275.61L94.5752 300.942C85.2446 300.104 80.3763 290.085 78.8224 286.176C78.4233 285.173 78.4085 284.076 78.688 283.032L82.0624 270.439C82.8835 267.374 86.0335 265.556 89.0981 266.377L97.3008 268.575Z" fill="#FAB4CC"/>
<path fill-rule="evenodd" clip-rule="evenodd" d="M97.3008 268.575C100.365 269.396 102.184 272.546 101.363 275.61L94.5752 300.942C85.2446 300.104 80.3763 290.085 78.8224 286.176C78.4233 285.173 78.4085 284.076 78.688 283.032L82.0624 270.439C82.8835 267.374 86.0335 265.556 89.0981 266.377L97.3008 268.575Z" fill="url(#paint4_linear_1_13406)"/>
</g>
<g id="Rectangle Copy 162_2">
<path fill-rule="evenodd" clip-rule="evenodd" d="M249.757 263.575C246.692 264.396 244.874 267.546 245.695 270.61L252.482 295.942C261.813 295.104 266.681 285.085 268.235 281.176C268.634 280.173 268.649 279.076 268.37 278.032L264.995 265.439C264.174 262.374 261.024 260.556 257.96 261.377L249.757 263.575Z" fill="#FAB4CC"/>
<path fill-rule="evenodd" clip-rule="evenodd" d="M249.757 263.575C246.692 264.396 244.874 267.546 245.695 270.61L252.482 295.942C261.813 295.104 266.681 285.085 268.235 281.176C268.634 280.173 268.649 279.076 268.37 278.032L264.995 265.439C264.174 262.374 261.024 260.556 257.96 261.377L249.757 263.575Z" fill="url(#paint5_linear_1_13406)"/>
</g>
<g id="Combined Shape_5">
<path id="Mask_5" fill-rule="evenodd" clip-rule="evenodd" d="M153.053 60.749C141.39 60.749 130.062 64.77 121.789 72.9912C105.817 88.8621 80.1853 118.118 72.9956 148.444L72.7505 148.379C72.7151 148.511 41.2377 266.12 100.071 281.885L109.27 247.555C118.47 257.674 131.691 264.059 146.445 264.059H197.555C214.252 264.058 229.034 255.867 238.104 243.284L248.446 281.885C296.205 269.088 284.451 189.176 278.315 159.477C275.402 131.979 246.336 95.6623 228.428 75.625C219.692 65.8496 207.082 60.7491 193.971 60.749H153.053Z" fill="#151A21"/>
<mask id="mask2_1_13406" style="mask-type:luminance" maskUnits="userSpaceOnUse" x="64" y="60" width="221" height="222">
<path id="Mask_6" fill-rule="evenodd" clip-rule="evenodd" d="M153.053 60.749C141.39 60.749 130.062 64.77 121.789 72.9912C105.817 88.8621 80.1853 118.118 72.9956 148.444L72.7505 148.379C72.7151 148.511 41.2377 266.12 100.071 281.885L109.27 247.555C118.47 257.674 131.691 264.059 146.445 264.059H197.555C214.252 264.058 229.034 255.867 238.104 243.284L248.446 281.885C296.205 269.088 284.451 189.176 278.315 159.477C275.402 131.979 246.336 95.6623 228.428 75.625C219.692 65.8496 207.082 60.7491 193.971 60.749H153.053Z" fill="white"/>
</mask>
<g mask="url(#mask2_1_13406)">
</g>
</g>
<path id="Combined Shape Copy 22" d="M118.566 160.655L131.617 164.152L109.271 247.555C118.471 257.674 131.691 264.059 146.445 264.059H197.556C225.144 264.059 247.509 241.699 247.509 214.111V160.655H118.566Z" fill="url(#paint6_linear_1_13406)"/>
<path id="Rectangle Copy 164" fill-rule="evenodd" clip-rule="evenodd" d="M100.071 281.885L131.618 164.152L72.7514 148.379C72.7514 148.379 41.2051 266.112 100.071 281.885Z" fill="url(#paint7_linear_1_13406)"/>
<path id="Combined Shape_6" fill-rule="evenodd" clip-rule="evenodd" d="M229.951 160.655H247.509V214.111C247.509 225.002 244.021 235.077 238.104 243.284L248.446 281.885C307.287 266.118 275.794 148.48 275.767 148.379L229.951 160.655Z" fill="url(#paint8_linear_1_13406)"/>
</g>
</g>
</g>
<defs>
<linearGradient id="paint0_linear_1_13406" x1="45.387" y1="-8.79252" x2="272.896" y2="-18.9166" gradientUnits="userSpaceOnUse">
<stop stop-color="#78C6E7"/>
<stop offset="0.504253" stop-color="#94E0F6"/>
<stop offset="1" stop-color="#EBDDF5"/>
</linearGradient>
<linearGradient id="paint1_linear_1_13406" x1="-123.958" y1="27.8936" x2="262.256" y2="-9.1305" gradientUnits="userSpaceOnUse">
<stop stop-color="#78C6E7"/>
<stop offset="0.504253" stop-color="#94E0F6"/>
<stop offset="1" stop-color="#EBDDF5"/>
</linearGradient>
<linearGradient id="paint2_linear_1_13406" x1="344.439" y1="496.471" x2="124.741" y2="504.691" gradientUnits="userSpaceOnUse">
<stop stop-color="white"/>
<stop offset="1" stop-color="white" stop-opacity="0.01"/>
</linearGradient>
<linearGradient id="paint3_linear_1_13406" x1="186.3" y1="37.7514" x2="189.02" y2="18.6755" gradientUnits="userSpaceOnUse">
<stop stop-color="#FB7C5D" stop-opacity="0.01"/>
<stop offset="1" stop-color="#FB7C5D"/>
</linearGradient>
<linearGradient id="paint4_linear_1_13406" x1="94.0737" y1="289.99" x2="99.6435" y2="269.202" gradientUnits="userSpaceOnUse">
<stop stop-color="#AE7D8E" stop-opacity="0.01"/>
<stop offset="1" stop-color="#AE7D8E"/>
</linearGradient>
<linearGradient id="paint5_linear_1_13406" x1="252.984" y1="284.99" x2="247.414" y2="264.202" gradientUnits="userSpaceOnUse">
<stop stop-color="#AE7D8E" stop-opacity="0.01"/>
<stop offset="1" stop-color="#AE7D8E"/>
</linearGradient>
<linearGradient id="paint6_linear_1_13406" x1="168.899" y1="453.378" x2="78.8179" y2="215.676" gradientUnits="userSpaceOnUse">
<stop stop-color="white"/>
<stop offset="1" stop-color="white" stop-opacity="0.01"/>
</linearGradient>
<linearGradient id="paint7_linear_1_13406" x1="136.036" y1="368.386" x2="40.7511" y2="326.195" gradientUnits="userSpaceOnUse">
<stop stop-color="white"/>
<stop offset="1" stop-color="white" stop-opacity="0.01"/>
</linearGradient>
<linearGradient id="paint8_linear_1_13406" x1="390.578" y1="511.981" x2="222.548" y2="487.64" gradientUnits="userSpaceOnUse">
<stop stop-color="white"/>
<stop offset="1" stop-color="white" stop-opacity="0.01"/>
</linearGradient>
</defs>
</svg>
