<svg width="329" height="540" viewBox="0 0 329 540" fill="none" xmlns="http://www.w3.org/2000/svg">
<g id="YuhPerson_SP_8f">
<g id="Group 45">
<g id="Combined Shape">
<path id="Mask" fill-rule="evenodd" clip-rule="evenodd" d="M185.411 523.409C185.411 529.765 180.258 534.918 173.902 534.918H124.364C124.364 526.823 130.595 520.092 138.666 519.468L156.476 518.092C157.96 517.977 159.257 517.046 159.722 515.632C160.611 512.93 161.893 508.126 161.893 502.893C161.893 494.887 161.893 473.371 161.893 473.371H185.411L185.411 523.409Z" fill="#FA5B35"/>
<mask id="mask0_1_13835" style="mask-type:luminance" maskUnits="userSpaceOnUse" x="124" y="473" width="62" height="62">
<path id="Mask_2" fill-rule="evenodd" clip-rule="evenodd" d="M185.411 523.409C185.411 529.765 180.258 534.918 173.902 534.918H124.364C124.364 526.823 130.595 520.092 138.666 519.468L156.476 518.092C157.96 517.977 159.257 517.046 159.722 515.632C160.611 512.93 161.893 508.126 161.893 502.893C161.893 494.887 161.893 473.371 161.893 473.371H185.411L185.411 523.409Z" fill="white"/>
</mask>
<g mask="url(#mask0_1_13835)">
<path id="Combined Shape_2" d="M126.805 526.912H147.882V508.898H160.893V526.912H184.868C183.386 531.555 179.037 534.918 173.902 534.918H124.364C124.364 531.953 125.264 529.199 126.805 526.912Z" fill="#151A21"/>
</g>
</g>
<g id="Combined Shape Copy 10">
<path id="Mask_3" fill-rule="evenodd" clip-rule="evenodd" d="M306.006 488.617C310.5 493.111 310.5 500.398 306.006 504.893L270.977 539.921C265.253 534.197 264.899 525.032 270.165 518.884L281.785 505.317C282.754 504.186 283.013 502.611 282.341 501.282C281.06 498.744 278.569 494.44 274.869 490.74C269.208 485.079 253.994 469.864 253.994 469.864L270.623 453.235L306.006 488.617Z" fill="#FA5B35"/>
<mask id="mask1_1_13835" style="mask-type:luminance" maskUnits="userSpaceOnUse" x="253" y="453" width="57" height="87">
<path id="Mask_4" fill-rule="evenodd" clip-rule="evenodd" d="M306.006 488.617C310.5 493.111 310.5 500.398 306.006 504.893L270.977 539.921C265.253 534.197 264.899 525.032 270.165 518.884L281.785 505.317C282.754 504.186 283.013 502.611 282.341 501.282C281.06 498.744 278.569 494.44 274.869 490.74C269.208 485.079 253.994 469.864 253.994 469.864L270.623 453.235L306.006 488.617Z" fill="white"/>
</mask>
<g mask="url(#mask1_1_13835)">
<path id="Combined Shape_3" d="M267.041 532.534L281.945 517.631L269.208 504.893L278.408 495.693L291.145 508.431L308.098 491.477C310.334 495.808 309.636 501.261 306.005 504.892L270.977 539.921C268.88 537.825 267.569 535.241 267.041 532.534Z" fill="#151A21"/>
</g>
</g>
<path id="Path 32 Copy 2" d="M174.286 273.335L174.402 498.89" stroke="#FAB4CC" stroke-width="60.0459"/>
<path id="Path 32 Copy 4" d="M174.286 273.335L174.402 499.39" stroke="white" stroke-width="8.00612"/>
<g id="Path 32 Copy 4_2">
<path d="M225.096 265.192C225.096 265.192 232.104 343.352 246.458 396.812C260.812 450.273 283.716 483.515 283.716 483.515" stroke="#FAB4CC" stroke-width="60.0459"/>
<path d="M225.096 265.192C225.096 265.192 232.104 343.352 246.458 396.812C260.812 450.273 283.716 483.515 283.716 483.515" stroke="url(#paint0_linear_1_13835)" stroke-width="60.0459"/>
</g>
<path id="Path 32 Copy 4_3" d="M225.096 265.192C225.096 265.192 232.104 343.352 246.458 396.812C260.812 450.273 283.716 483.515 283.716 483.515" stroke="white" stroke-width="8.00612"/>
</g>
<g id="Group 34">
<ellipse id="Oval" cx="216.184" cy="30.7735" rx="17.2632" ry="23.0176" stroke="#93D1EC" stroke-width="15.5119"/>
<circle id="Oval Copy 106" cx="198.286" cy="53.8937" r="18.0138" fill="#FA5B35"/>
<g id="Oval_2">
<ellipse cx="198.353" cy="42.8339" rx="18.0808" ry="10.9569" fill="#78C6E7"/>
<ellipse cx="198.353" cy="42.8339" rx="18.0808" ry="10.9569" fill="url(#paint1_linear_1_13835)"/>
</g>
<rect id="Rectangle Copy 62" x="186.411" y="27.7715" width="25.0191" height="7.50574" rx="3.75287" fill="#151A21"/>
</g>
<g id="Group 38">
<g id="Rectangle Copy 157">
<path fill-rule="evenodd" clip-rule="evenodd" d="M50.0064 192.26C50.8275 189.195 49.0089 186.045 45.9443 185.224L5.17222 174.299C3.55787 180.324 7.13327 186.517 13.1581 188.131L23.8001 190.983C24.5514 191.184 25.1709 191.715 25.4843 192.427L28.3677 198.977C29.0694 200.571 30.4563 201.76 32.1385 202.211L40.7728 204.525C43.8373 205.346 46.9873 203.527 47.8085 200.462L50.0064 192.26Z" fill="#FA5B35"/>
<path fill-rule="evenodd" clip-rule="evenodd" d="M50.0064 192.26C50.8275 189.195 49.0089 186.045 45.9443 185.224L5.17222 174.299C3.55787 180.324 7.13327 186.517 13.1581 188.131L23.8001 190.983C24.5514 191.184 25.1709 191.715 25.4843 192.427L28.3677 198.977C29.0694 200.571 30.4563 201.76 32.1385 202.211L40.7728 204.525C43.8373 205.346 46.9873 203.527 47.8085 200.462L50.0064 192.26Z" fill="url(#paint2_linear_1_13835)"/>
</g>
<g id="Rectangle Copy 159">
<path fill-rule="evenodd" clip-rule="evenodd" d="M272.863 290.582C269.799 291.403 267.98 294.553 268.801 297.617L275.589 322.949C284.919 322.111 289.788 312.092 291.342 308.183C291.741 307.18 291.756 306.082 291.476 305.039L288.102 292.446C287.281 289.381 284.131 287.563 281.066 288.384L272.863 290.582Z" fill="#FA5B35"/>
<path fill-rule="evenodd" clip-rule="evenodd" d="M272.863 290.582C269.799 291.403 267.98 294.553 268.801 297.617L275.589 322.949C284.919 322.111 289.788 312.092 291.342 308.183C291.741 307.18 291.756 306.082 291.476 305.039L288.102 292.446C287.281 289.381 284.131 287.563 281.066 288.384L272.863 290.582Z" fill="url(#paint3_linear_1_13835)"/>
</g>
<rect id="Rectangle Copy 34" x="15.7559" y="109.73" width="29.9719" height="60.4432" rx="4.99531" fill="#151A21"/>
<path id="Combined Shape Copy 29" d="M217.5 82.7559C229.164 82.7559 240.491 86.7769 248.765 94.998C265.384 111.513 292.463 142.52 298.34 174.146C303.115 194.365 322.674 289.803 270.093 303.892L260.894 269.562C251.693 279.68 238.473 286.065 223.719 286.065H172.608C150.314 286.065 131.431 271.464 125.005 251.301C118.944 252.981 112.285 253.09 105.357 251.198C75.7332 243.106 40.284 226.156 21.75 190.654H92.1836V186.159C92.1836 158.29 123.283 119 142.104 97.7744C150.848 87.9122 163.52 82.7559 176.701 82.7559H217.5Z" fill="#44484D"/>
<path id="Combined Shape Copy 34" d="M122.655 236.117C122.655 241.411 123.479 246.513 125.005 251.301C118.944 252.981 112.285 253.09 105.357 251.197C75.7332 243.105 40.2839 226.156 21.75 190.654H122.655V236.117Z" fill="url(#paint4_linear_1_13835)"/>
<path id="Combined Shape Copy 35" d="M251.598 182.662L238.547 186.159L260.894 269.562C251.693 279.68 238.473 286.065 223.719 286.065H172.608C145.02 286.065 122.655 263.706 122.655 236.118V182.662H251.598Z" fill="url(#paint5_linear_1_13835)"/>
<path id="Rectangle Copy 35" fill-rule="evenodd" clip-rule="evenodd" d="M270.093 303.892L238.546 186.159L297.413 170.386C297.413 170.386 328.959 288.118 270.093 303.892Z" fill="url(#paint6_linear_1_13835)"/>
</g>
</g>
<defs>
<linearGradient id="paint0_linear_1_13835" x1="172.282" y1="499.93" x2="272.08" y2="497.144" gradientUnits="userSpaceOnUse">
<stop stop-color="#FCD2E0"/>
<stop offset="1" stop-color="#FCD2E0" stop-opacity="0.01"/>
</linearGradient>
<linearGradient id="paint1_linear_1_13835" x1="162.192" y1="42.8339" x2="181.617" y2="74.8897" gradientUnits="userSpaceOnUse">
<stop stop-color="#C9E8F5"/>
<stop offset="1" stop-color="#78C6E7"/>
</linearGradient>
<linearGradient id="paint2_linear_1_13835" x1="29.2019" y1="195.539" x2="55.5562" y2="202.601" gradientUnits="userSpaceOnUse">
<stop stop-color="#AE3B1B" stop-opacity="0.01"/>
<stop offset="1" stop-color="#AE3B1B"/>
</linearGradient>
<linearGradient id="paint3_linear_1_13835" x1="285.653" y1="311.654" x2="279.528" y2="288.796" gradientUnits="userSpaceOnUse">
<stop stop-color="#AE3B1B" stop-opacity="0.01"/>
<stop offset="1" stop-color="#AE3B1B"/>
</linearGradient>
<linearGradient id="paint4_linear_1_13835" x1="15.0783" y1="190.885" x2="15.0783" y2="260.823" gradientUnits="userSpaceOnUse">
<stop stop-color="#151A21" stop-opacity="0.01"/>
<stop offset="1" stop-color="#151A21"/>
</linearGradient>
<linearGradient id="paint5_linear_1_13835" x1="147.417" y1="219.706" x2="147.417" y2="286.065" gradientUnits="userSpaceOnUse">
<stop stop-color="#151A21" stop-opacity="0.01"/>
<stop offset="1" stop-color="#151A21"/>
</linearGradient>
<linearGradient id="paint6_linear_1_13835" x1="230.476" y1="196.68" x2="229.55" y2="336.797" gradientUnits="userSpaceOnUse">
<stop stop-color="#73767A" stop-opacity="0.01"/>
<stop offset="1" stop-color="#73767A"/>
</linearGradient>
</defs>
</svg>
