<svg width="288" height="368" viewBox="0 0 288 368" fill="none" xmlns="http://www.w3.org/2000/svg">
<g id="YuhPerson_SP_7f">
<g id="Group 19">
<path id="Rectangle Copy 4" fill-rule="evenodd" clip-rule="evenodd" d="M61 342.5C61 348.851 55.8513 354 49.5 354H0C0 346.084 6.41725 339.667 14.3333 339.667H27.6049C28.9966 339.667 30.226 338.76 30.6375 337.431L36.3112 319.1C37.8018 314.284 42.2555 311 47.297 311H49.5C55.8513 311 61 316.149 61 322.5V342.5Z" fill="#BABDE4"/>
<g id="Path 20">
<path id="Mask" fill-rule="evenodd" clip-rule="evenodd" d="M2.43853 346C0.898775 348.285 0 351.037 0 354H49.5C54.6309 354 58.9769 350.64 60.4577 346H2.43853Z" fill="white"/>
<mask id="mask0_1_13572" style="mask-type:luminance" maskUnits="userSpaceOnUse" x="0" y="346" width="61" height="8">
<path id="Mask_2" fill-rule="evenodd" clip-rule="evenodd" d="M2.43853 346C0.898775 348.285 0 351.037 0 354H49.5C54.6309 354 58.9769 350.64 60.4577 346H2.43853Z" fill="white"/>
</mask>
<g mask="url(#mask0_1_13572)">
</g>
</g>
<path id="Rectangle" d="M44 317.5C44 315.015 46.0147 313 48.5 313H55.1388C55.6144 313 56 313.386 56 313.861V321C56 327.627 50.6274 333 44 333V317.5Z" fill="#EBDDF5"/>
<path id="Rectangle Copy 4_2" fill-rule="evenodd" clip-rule="evenodd" d="M61 342.5C61 348.851 55.8513 354 49.5 354H0C0 346.084 6.41725 339.667 14.3333 339.667H27.6049C28.9966 339.667 30.226 338.76 30.6375 337.431L36.3112 319.1C37.8018 314.284 42.2555 311 47.297 311H49.5C55.8513 311 61 316.149 61 322.5V342.5Z" fill="url(#paint0_linear_1_13572)"/>
</g>
<g id="Group 19 Copy">
<path id="Rectangle Copy 4_3" fill-rule="evenodd" clip-rule="evenodd" d="M86 356.5C86 362.851 80.8513 368 74.5 368H25C25 360.084 31.4173 353.667 39.3333 353.667H52.6049C53.9966 353.667 55.226 352.76 55.6375 351.431L61.3112 333.1C62.8018 328.284 67.2555 325 72.297 325H74.5C80.8513 325 86 330.149 86 336.5L86 356.5Z" fill="#BABDE4"/>
<g id="Path 20_2">
<path id="Mask_3" fill-rule="evenodd" clip-rule="evenodd" d="M27.4385 360C25.8988 362.285 25 365.037 25 368H74.5C79.6309 368 83.9769 364.64 85.4577 360H27.4385Z" fill="white"/>
<mask id="mask1_1_13572" style="mask-type:luminance" maskUnits="userSpaceOnUse" x="25" y="360" width="61" height="8">
<path id="Mask_4" fill-rule="evenodd" clip-rule="evenodd" d="M27.4385 360C25.8988 362.285 25 365.037 25 368H74.5C79.6309 368 83.9769 364.64 85.4577 360H27.4385Z" fill="white"/>
</mask>
<g mask="url(#mask1_1_13572)">
</g>
</g>
<path id="Rectangle_2" d="M69 331.5C69 329.015 71.0147 327 73.5 327H80.1388C80.6144 327 81 327.386 81 327.861V335C81 341.627 75.6274 347 69 347V331.5Z" fill="#EBDDF5"/>
<path id="Rectangle Copy 4_4" fill-rule="evenodd" clip-rule="evenodd" d="M86 356.5C86 362.851 80.8513 368 74.5 368H25C25 360.084 31.4173 353.667 39.3333 353.667H52.6049C53.9966 353.667 55.226 352.76 55.6375 351.431L61.3112 333.1C62.8018 328.284 67.2555 325 72.297 325H74.5C80.8513 325 86 330.149 86 336.5L86 356.5Z" fill="url(#paint1_linear_1_13572)"/>
</g>
<g id="Group 63">
<path id="Path 2" d="M171 240.652C171 240.652 59 200.652 59 297.652" stroke="#151A21" stroke-width="60" stroke-linecap="round"/>
</g>
<g id="Group 59">
<g id="Combined Shape">
<path id="Mask_5" d="M206.941 48C218.434 48 229.596 51.9626 237.748 60.0635C256.198 78.3965 287.729 114.854 287.729 149.889V167.608C287.729 186.449 277.006 202.758 261.693 208.61C256.976 231.178 237.08 248.332 213.068 248.332H162.707C139.318 248.332 119.739 232.023 114.728 210.155C96.6818 206.329 83.46 188.53 83.46 167.608V149.889C83.46 122.428 114.103 83.7139 132.648 62.7988C141.265 53.081 153.752 48 166.739 48H206.941Z" fill="url(#paint2_linear_1_13572)"/>
<mask id="mask2_1_13572" style="mask-type:luminance" maskUnits="userSpaceOnUse" x="83" y="48" width="205" height="201">
<path id="Mask_6" d="M206.941 48C218.434 48 229.596 51.9626 237.748 60.0635C256.198 78.3965 287.729 114.854 287.729 149.889V167.608C287.729 186.449 277.006 202.758 261.693 208.61C256.976 231.178 237.08 248.332 213.068 248.332H162.707C139.318 248.332 119.739 232.023 114.728 210.155C96.6818 206.329 83.46 188.53 83.46 167.608V149.889C83.46 122.428 114.103 83.7139 132.648 62.7988C141.265 53.081 153.752 48 166.739 48H206.941Z" fill="white"/>
</mask>
<g mask="url(#mask2_1_13572)">
<path id="Combined Shape_2" fill-rule="evenodd" clip-rule="evenodd" d="M301.579 132.816C308.147 127.708 314.329 127.707 319.56 132.939C320.146 133.525 320.146 134.475 319.56 135.06C318.975 135.646 318.025 135.646 317.439 135.06C313.411 131.032 309.013 130.961 303.711 134.962L303.421 135.184C297.058 140.133 291.058 140.288 285.932 135.536L285.439 135.06C281.411 131.032 277.013 130.961 271.711 134.962L271.421 135.184C264.853 140.293 258.671 140.292 253.439 135.06C252.854 134.475 252.854 133.525 253.439 132.939C254.025 132.354 254.975 132.354 255.56 132.939C259.589 136.967 263.987 137.039 269.289 133.038L269.579 132.816C276.147 127.708 282.329 127.707 287.56 132.939C291.589 136.967 295.987 137.039 301.289 133.038L301.579 132.816ZM279.579 102.816C286.147 97.7077 292.329 97.7075 297.56 102.939C298.146 103.525 298.146 104.475 297.56 105.06C296.975 105.646 296.025 105.646 295.439 105.06C291.411 101.032 287.013 100.961 281.711 104.962L281.421 105.184C275.058 110.133 269.058 110.288 263.932 105.536L263.439 105.06C259.411 101.032 255.013 100.961 249.711 104.962L249.421 105.184C243.058 110.133 237.058 110.288 231.932 105.536L231.439 105.06C227.411 101.032 223.013 100.961 217.711 104.962L217.421 105.184C210.853 110.293 204.671 110.292 199.439 105.06C198.854 104.475 198.854 103.525 199.439 102.939C200.025 102.354 200.975 102.354 201.56 102.939C205.589 106.967 209.987 107.039 215.289 103.038L215.579 102.816C222.147 97.7077 228.329 97.7075 233.56 102.939C237.589 106.967 241.987 107.039 247.289 103.038L247.579 102.816C254.147 97.7077 260.329 97.7075 265.56 102.939C269.589 106.967 273.987 107.039 279.289 103.038L279.579 102.816ZM323.579 72.8162C330.147 67.7077 336.329 67.7075 341.56 72.9393C342.146 73.525 342.146 74.4746 341.56 75.0604C340.975 75.6462 340.025 75.6462 339.439 75.0604C335.411 71.0322 331.013 70.9606 325.711 74.9617L325.421 75.1844C319.058 80.1331 313.058 80.2876 307.932 75.536L307.439 75.0604C303.411 71.0322 299.013 70.9606 293.711 74.9617L293.421 75.1844C287.058 80.1331 281.058 80.2876 275.932 75.536L275.439 75.0604C271.411 71.0322 267.013 70.9606 261.711 74.9617L261.421 75.1844C255.058 80.1331 249.058 80.2876 243.932 75.536L243.439 75.0604C239.411 71.0322 235.013 70.9606 229.711 74.9617L229.421 75.1844C223.058 80.1331 217.058 80.2876 211.932 75.536L211.439 75.0604C207.411 71.0322 203.013 70.9606 197.711 74.9617L197.421 75.1844C191.058 80.1331 185.058 80.2876 179.932 75.536L179.439 75.0604C175.411 71.0322 171.013 70.9606 165.711 74.9617L165.421 75.1844C159.058 80.1331 153.058 80.2876 147.932 75.536L147.439 75.0604C143.411 71.0322 139.013 70.9606 133.711 74.9617L133.421 75.1844C127.058 80.1331 121.058 80.2876 115.932 75.536L115.439 75.0604C111.411 71.0322 107.013 70.9606 101.711 74.9617L101.421 75.1844C94.8527 80.2928 88.6711 80.2922 83.4393 75.0604C82.8536 74.4746 82.8535 73.525 83.4393 72.9393C84.0251 72.3536 84.9746 72.3536 85.5604 72.9393C89.5886 76.9675 93.987 77.0391 99.2889 73.0379L99.579 72.8162C106.147 67.7077 112.329 67.7075 117.56 72.9393C121.589 76.9675 125.987 77.0391 131.289 73.0379L131.579 72.8162C138.147 67.7077 144.329 67.7075 149.56 72.9393C153.589 76.9675 157.987 77.0391 163.289 73.0379L163.579 72.8162C170.147 67.7077 176.329 67.7075 181.56 72.9393C185.589 76.9675 189.987 77.0391 195.289 73.0379L195.579 72.8162C202.147 67.7077 208.329 67.7075 213.56 72.9393C217.589 76.9675 221.987 77.0391 227.289 73.0379L227.579 72.8162C234.147 67.7077 240.329 67.7075 245.56 72.9393C249.589 76.9675 253.987 77.0391 259.289 73.0379L259.579 72.8162C266.147 67.7077 272.329 67.7075 277.56 72.9393C281.589 76.9675 285.987 77.0391 291.289 73.0379L291.579 72.8162C298.147 67.7077 304.329 67.7075 309.56 72.9393C313.589 76.9675 317.987 77.0391 323.289 73.0379L323.579 72.8162Z" fill="white"/>
</g>
</g>
<path id="Combined Shape Copy 31" fill-rule="evenodd" clip-rule="evenodd" d="M185.595 183.946C202.331 196.932 221.778 204.79 239.184 209.545C247.194 211.733 254.841 211.208 261.599 208.647C256.811 231.192 236.921 248.332 212.916 248.332H162.707C139.319 248.332 119.742 232.022 114.729 210.155C120.131 211.301 125.966 211.195 132.007 209.545C149.412 204.79 168.858 196.932 185.595 183.946Z" fill="url(#paint3_linear_1_13572)"/>
<path id="Combined Shape Copy 32" d="M156.8 149.889C164.173 164.011 174.263 175.153 185.595 183.945C168.858 196.932 149.412 204.79 132.006 209.545C105.782 216.708 83.46 194.793 83.46 167.608V149.889H156.8Z" fill="url(#paint4_linear_1_13572)"/>
<g id="Combined Shape Copy 33">
<path fill-rule="evenodd" clip-rule="evenodd" d="M182.608 145.029C184.932 145.652 186.527 147.633 186.772 149.889H157.745L150.303 147.895C144.366 146.304 140.843 140.201 142.434 134.265L182.608 145.029Z" fill="#BABDE4"/>
<path fill-rule="evenodd" clip-rule="evenodd" d="M182.608 145.029C184.932 145.652 186.527 147.633 186.772 149.889H157.745L150.303 147.895C144.366 146.304 140.843 140.201 142.434 134.265L182.608 145.029Z" fill="url(#paint5_linear_1_13572)"/>
</g>
<path id="Rectangle Copy 33" fill-rule="evenodd" clip-rule="evenodd" d="M156.8 149.889H287.729V167.608C287.729 194.793 265.407 216.709 239.183 209.545C209.993 201.572 175.062 184.871 156.8 149.889Z" fill="url(#paint6_linear_1_13572)"/>
</g>
<g id="Group 32">
<g id="Path 2_2">
<path d="M185 254.652C185 254.652 73 214.652 73 311.652" stroke="#151A21" stroke-width="60" stroke-linecap="round"/>
<path d="M185 254.652C185 254.652 73 214.652 73 311.652" stroke="url(#paint7_linear_1_13572)" stroke-width="60" stroke-linecap="round"/>
</g>
</g>
<g id="wheels">
<g id="Oval Copy 114">
<circle cx="191.656" cy="294.587" r="53" fill="#78C6E7"/>
<circle cx="191.656" cy="294.587" r="53" fill="url(#paint8_linear_1_13572)"/>
<circle cx="191.656" cy="294.587" r="53" stroke="#151A21" stroke-width="40"/>
<circle cx="191.656" cy="294.587" r="53" stroke="url(#paint9_linear_1_13572)" stroke-width="40"/>
</g>
<g id="Group 45 Copy 7">
<ellipse id="Oval" cx="142.314" cy="269.637" rx="11.7952" ry="2.24401" transform="rotate(128 142.314 269.637)" stroke="white" stroke-width="4" stroke-linecap="round"/>
<ellipse id="Oval_2" cx="146.372" cy="278.539" rx="12.5695" ry="2.91441" transform="rotate(124 146.372 278.539)" stroke="white" stroke-width="4" stroke-linecap="round"/>
<ellipse id="Oval_3" cx="153.062" cy="280.967" rx="7.52359" ry="1.17685" transform="rotate(120 153.062 280.967)" stroke="white" stroke-width="4" stroke-linecap="round"/>
</g>
<g id="Group 45 Copy 8">
<ellipse id="Oval_4" cx="244.896" cy="264.996" rx="11.7952" ry="2.24401" transform="rotate(-112 244.896 264.996)" stroke="white" stroke-width="4" stroke-linecap="round"/>
<ellipse id="Oval_5" cx="235.157" cy="264.06" rx="12.5695" ry="2.91441" transform="rotate(-116 235.157 264.06)" stroke="white" stroke-width="4" stroke-linecap="round"/>
<ellipse id="Oval_6" cx="229.71" cy="268.64" rx="7.52359" ry="1.17685" transform="rotate(-120 229.71 268.64)" stroke="white" stroke-width="4" stroke-linecap="round"/>
</g>
<g id="Group 45 Copy 9">
<ellipse id="Oval_7" cx="196.13" cy="353.737" rx="11.7952" ry="2.24401" transform="rotate(8 196.13 353.737)" stroke="white" stroke-width="4" stroke-linecap="round"/>
<ellipse id="Oval_8" cx="201.81" cy="345.771" rx="12.5695" ry="2.91441" transform="rotate(4 201.81 345.771)" stroke="white" stroke-width="4" stroke-linecap="round"/>
<ellipse id="Oval_9" cx="200.568" cy="338.764" rx="7.52359" ry="1.17685" stroke="white" stroke-width="4" stroke-linecap="round"/>
</g>
</g>
<circle id="Oval Copy 112" cx="189" cy="18" r="18" fill="#BABDE4"/>
<g id="Combined Shape Copy 15">
<g id="Mask_7">
<path d="M154 21C154 18.7909 155.791 17 158 17H171C171 7.61116 178.611 0 188 0H191.195C198.612 8.7738e-05 204.834 5.1094 206.537 12H203.5C202.119 12 201 13.1193 201 14.5C201 15.8807 202.119 17 203.5 17H207V21L154 21Z" fill="#FA5B35"/>
<path d="M154 21C154 18.7909 155.791 17 158 17H171C171 7.61116 178.611 0 188 0H191.195C198.612 8.7738e-05 204.834 5.1094 206.537 12H203.5C202.119 12 201 13.1193 201 14.5C201 15.8807 202.119 17 203.5 17H207V21L154 21Z" fill="url(#paint10_linear_1_13572)"/>
</g>
<mask id="mask3_1_13572" style="mask-type:luminance" maskUnits="userSpaceOnUse" x="154" y="0" width="53" height="21">
<g id="Mask_8">
<path d="M154 21C154 18.7909 155.791 17 158 17H171C171 7.61116 178.611 0 188 0H191.195C198.612 8.7738e-05 204.834 5.1094 206.537 12H203.5C202.119 12 201 13.1193 201 14.5C201 15.8807 202.119 17 203.5 17H207V21L154 21Z" fill="white"/>
</g>
</mask>
<g mask="url(#mask3_1_13572)">
</g>
</g>
</g>
<defs>
<linearGradient id="paint0_linear_1_13572" x1="55.9394" y1="330.107" x2="60.6301" y2="305.133" gradientUnits="userSpaceOnUse">
<stop stop-color="#999DCF" stop-opacity="0.01"/>
<stop offset="1" stop-color="#999DCF"/>
</linearGradient>
<linearGradient id="paint1_linear_1_13572" x1="87.7091" y1="346.5" x2="87.7091" y2="325" gradientUnits="userSpaceOnUse">
<stop stop-color="#999DCF" stop-opacity="0.01"/>
<stop offset="1" stop-color="#999DCF"/>
</linearGradient>
<linearGradient id="paint2_linear_1_13572" x1="276.966" y1="225.891" x2="320.644" y2="25.3424" gradientUnits="userSpaceOnUse">
<stop stop-color="#FA5B35"/>
<stop offset="0.504253" stop-color="#FA5B35"/>
<stop offset="1" stop-color="#FC9D86"/>
</linearGradient>
<linearGradient id="paint3_linear_1_13572" x1="303.073" y1="248.332" x2="303.073" y2="147.583" gradientUnits="userSpaceOnUse">
<stop stop-color="#AE3B1B" stop-opacity="0.01"/>
<stop offset="1" stop-color="#AE3B1B"/>
</linearGradient>
<linearGradient id="paint4_linear_1_13572" x1="167.572" y1="204.342" x2="220.282" y2="148.121" gradientUnits="userSpaceOnUse">
<stop stop-color="#AE3B1B" stop-opacity="0.01"/>
<stop offset="1" stop-color="#AE3B1B"/>
</linearGradient>
<linearGradient id="paint5_linear_1_13572" x1="122.082" y1="137.688" x2="124.572" y2="170.496" gradientUnits="userSpaceOnUse">
<stop stop-color="#999DCF" stop-opacity="0.01"/>
<stop offset="1" stop-color="#999DCF"/>
</linearGradient>
<linearGradient id="paint6_linear_1_13572" x1="241.437" y1="135.668" x2="212.796" y2="175.293" gradientUnits="userSpaceOnUse">
<stop stop-color="#FB7C5D" stop-opacity="0.01"/>
<stop offset="1" stop-color="#FB7C5D"/>
</linearGradient>
<linearGradient id="paint7_linear_1_13572" x1="181.007" y1="272.161" x2="174.586" y2="207.35" gradientUnits="userSpaceOnUse">
<stop stop-color="#44484D" stop-opacity="0.01"/>
<stop offset="1" stop-color="#44484D"/>
</linearGradient>
<linearGradient id="paint8_linear_1_13572" x1="166.939" y1="275.228" x2="128.221" y2="324.661" gradientUnits="userSpaceOnUse">
<stop stop-color="#44484D" stop-opacity="0.01"/>
<stop offset="1" stop-color="#44484D"/>
</linearGradient>
<linearGradient id="paint9_linear_1_13572" x1="228.156" y1="331.087" x2="301.156" y2="258.087" gradientUnits="userSpaceOnUse">
<stop stop-color="#44484D" stop-opacity="0.01"/>
<stop offset="0.685766" stop-color="#73767A"/>
<stop offset="1" stop-color="#73767A"/>
</linearGradient>
<linearGradient id="paint10_linear_1_13572" x1="206.761" y1="17.7377" x2="203.786" y2="0.227208" gradientUnits="userSpaceOnUse">
<stop stop-color="#FC9D86" stop-opacity="0.01"/>
<stop offset="1" stop-color="#FC9D86"/>
</linearGradient>
</defs>
</svg>
