<svg width="285" height="494" viewBox="0 0 285 494" fill="none" xmlns="http://www.w3.org/2000/svg">
<g id="YuhPerson_SP_9c">
<g id="Combined Shape">
<path id="Mask" fill-rule="evenodd" clip-rule="evenodd" d="M40.5814 339.31C35.0637 335.898 27.817 337.722 24.5731 343.341L0 385.903C7.00506 389.947 15.9428 387.918 20.515 381.246L30.6043 366.522C31.4453 365.294 32.8986 364.637 34.3551 364.941C37.1367 365.522 41.9352 366.813 46.4628 369.427C53.391 373.427 72.0106 384.177 72.0106 384.177L83.7606 363.825L44.5394 341.758L40.5814 339.31Z" fill="#151A21"/>
<mask id="mask0_1_7534" style="mask-type:luminance" maskUnits="userSpaceOnUse" x="0" y="337" width="84" height="51">
<path id="Mask_2" fill-rule="evenodd" clip-rule="evenodd" d="M40.5814 339.31C35.0637 335.898 27.817 337.722 24.5731 343.341L0 385.903C7.00506 389.947 15.9428 387.918 20.515 381.246L30.6043 366.522C31.4453 365.294 32.8986 364.637 34.3551 364.941C37.1367 365.522 41.9352 366.813 46.4628 369.427C53.391 373.427 72.0106 384.177 72.0106 384.177L83.7606 363.825L44.5394 341.758L40.5814 339.31Z" fill="white"/>
</mask>
<g mask="url(#mask0_1_7534)">
<path id="Combined Shape_2" d="M8.14738 387.792L18.6781 369.552L34.2666 378.552L40.7666 367.293L25.1781 358.293L37.1571 337.545C32.3986 336.508 27.3154 338.592 24.7499 343.035L-5.85318e-05 385.903C2.56555 387.385 5.39875 387.983 8.14738 387.792Z" fill="#78C6E7"/>
</g>
</g>
<g id="Combined Shape_3">
<path id="Mask_3" fill-rule="evenodd" clip-rule="evenodd" d="M190.524 481.39C190.328 487.875 195.531 493.238 202.019 493.238H251.165C251.165 485.15 244.939 478.424 236.874 477.8L219.078 476.425C217.595 476.31 216.299 475.38 215.834 473.967C214.946 471.267 213.665 466.466 213.665 461.238C213.665 453.238 213.665 431.738 213.665 431.738H190.165L190.665 476.738L190.524 481.39Z" fill="#151A21"/>
<mask id="mask1_1_7534" style="mask-type:luminance" maskUnits="userSpaceOnUse" x="190" y="431" width="62" height="63">
<path id="Mask_4" fill-rule="evenodd" clip-rule="evenodd" d="M190.524 481.39C190.328 487.875 195.531 493.238 202.019 493.238H251.165C251.165 485.15 244.939 478.424 236.874 477.8L219.078 476.425C217.595 476.31 216.299 475.38 215.834 473.967C214.946 471.267 213.665 466.466 213.665 461.238C213.665 453.238 213.665 431.738 213.665 431.738H190.165L190.665 476.738L190.524 481.39Z" fill="white"/>
</mask>
<g mask="url(#mask1_1_7534)">
<path id="Combined Shape_4" d="M248.727 485.238H227.665V467.238H214.665V485.238H190.707C192.188 489.878 196.534 493.238 201.665 493.238H251.165C251.165 490.276 250.266 487.523 248.727 485.238Z" fill="#78C6E7"/>
</g>
</g>
<path id="Path 32 Copy 2" d="M160.092 202.703C160.092 202.703 194.164 255.738 207.164 314.738C220.164 373.738 205.164 427.738 205.164 427.738" stroke="#151A21" stroke-width="60" stroke-linecap="round"/>
<g id="Path 32 Copy 4">
<path d="M131.164 196.738C131.181 237.101 174.164 277.738 160.164 332.738C146.164 387.738 72.1641 371.738 72.1641 371.738" stroke="#151A21" stroke-width="60" stroke-linecap="round"/>
<path d="M131.164 196.738C131.181 237.101 174.164 277.738 160.164 332.738C146.164 387.738 72.1641 371.738 72.1641 371.738" stroke="url(#paint0_linear_1_7534)" stroke-width="60" stroke-linecap="round"/>
</g>
<g id="Group 48">
<g id="Rectangle Copy 162">
<path fill-rule="evenodd" clip-rule="evenodd" d="M97.3017 273.35C100.366 274.171 102.185 277.321 101.364 280.386L94.5761 305.718C85.2456 304.879 80.3773 294.86 78.8234 290.952C78.4243 289.948 78.4094 288.851 78.689 287.808L82.0634 275.214C82.8845 272.15 86.0345 270.331 89.0991 271.152L97.3017 273.35Z" fill="#151A21"/>
<path fill-rule="evenodd" clip-rule="evenodd" d="M97.3017 273.35C100.366 274.171 102.185 277.321 101.364 280.386L94.5761 305.718C85.2456 304.879 80.3773 294.86 78.8234 290.952C78.4243 289.948 78.4094 288.851 78.689 287.808L82.0634 275.214C82.8845 272.15 86.0345 270.331 89.0991 271.152L97.3017 273.35Z" fill="url(#paint1_linear_1_7534)"/>
</g>
<g id="Rectangle Copy 162_2">
<path fill-rule="evenodd" clip-rule="evenodd" d="M249.758 268.35C246.693 269.171 244.875 272.321 245.696 275.386L252.483 300.718C261.814 299.879 266.682 289.86 268.236 285.952C268.635 284.948 268.65 283.851 268.371 282.808L264.996 270.214C264.175 267.15 261.025 265.331 257.961 266.152L249.758 268.35Z" fill="#151A21"/>
<path fill-rule="evenodd" clip-rule="evenodd" d="M249.758 268.35C246.693 269.171 244.875 272.321 245.696 275.386L252.483 300.718C261.814 299.879 266.682 289.86 268.236 285.952C268.635 284.948 268.65 283.851 268.371 282.808L264.996 270.214C264.175 267.15 261.025 265.331 257.961 266.152L249.758 268.35Z" fill="url(#paint2_linear_1_7534)"/>
</g>
<path id="Combined Shape Copy 9" fill-rule="evenodd" clip-rule="evenodd" d="M152.664 65.5244C141 65.5245 129.673 69.5454 121.399 77.7666C104.782 94.279 77.7085 125.28 71.8271 156.901C67.0569 177.094 47.4804 272.568 100.072 286.66L109.271 252.33C118.472 262.449 131.692 268.834 146.446 268.834H197.557C214.254 268.834 229.035 260.642 238.105 248.06L248.447 286.66C307.271 270.898 275.812 153.322 275.768 153.154L275.569 153.207C267.69 127.642 243.633 97.849 228.039 80.4004C219.302 70.6249 206.693 65.5244 193.582 65.5244H152.664Z" fill="url(#paint3_linear_1_7534)"/>
<path id="Combined Shape Copy 22" d="M118.567 165.431L131.618 168.928L109.271 252.33C118.472 262.449 131.692 268.834 146.446 268.834H197.557C225.145 268.834 247.51 246.475 247.51 218.887V165.431H118.567Z" fill="url(#paint4_linear_1_7534)"/>
<path id="Rectangle Copy 164" fill-rule="evenodd" clip-rule="evenodd" d="M100.072 286.66L131.619 168.928L72.7524 153.155C72.7524 153.155 41.2061 270.887 100.072 286.66Z" fill="url(#paint5_linear_1_7534)"/>
<path id="Combined Shape_5" fill-rule="evenodd" clip-rule="evenodd" d="M229.952 165.431H247.51V218.887C247.51 229.778 244.022 239.852 238.105 248.06L248.447 286.66C307.288 270.894 275.795 153.256 275.768 153.154L229.952 165.431Z" fill="url(#paint6_linear_1_7534)"/>
</g>
<g id="Group 108">
<g id="Rectangle Copy 97">
<rect width="36" height="46" rx="18" transform="matrix(-0.965926 0.258819 0.258819 0.965926 182.634 7.72656)" fill="#151A21"/>
<rect width="36" height="46" rx="18" transform="matrix(-0.965926 0.258819 0.258819 0.965926 182.634 7.72656)" fill="url(#paint7_linear_1_7534)"/>
</g>
<g id="Path 12 + Path 12 Copy Mask Copy">
<path id="Mask_5" fill-rule="evenodd" clip-rule="evenodd" d="M178.9 26.4438C183.376 23.959 185.587 18.7468 184.262 13.8018C182.383 6.79095 174.416 3.41213 168.07 6.93498L155.736 13.7825C151.26 16.2672 149.049 21.4794 150.374 26.4244C152.253 33.4353 160.22 36.8141 166.566 33.2912L178.9 26.4438Z" fill="#FA5B35"/>
<mask id="mask2_1_7534" style="mask-type:luminance" maskUnits="userSpaceOnUse" x="149" y="5" width="36" height="30">
<path id="Mask_6" fill-rule="evenodd" clip-rule="evenodd" d="M178.9 26.4438C183.376 23.959 185.587 18.7468 184.262 13.8018C182.383 6.79095 174.416 3.41213 168.07 6.93498L155.736 13.7825C151.26 16.2672 149.049 21.4794 150.374 26.4244C152.253 33.4353 160.22 36.8141 166.566 33.2912L178.9 26.4438Z" fill="white"/>
</mask>
<g mask="url(#mask2_1_7534)">
<path id="Path 12" d="M182.533 30.5298L176.321 7.34755" stroke="#FC9D86" stroke-width="4" stroke-linecap="round"/>
<path id="Path 12 Copy" d="M176.358 38.396L170.146 15.2138" stroke="#FC9D86" stroke-width="4" stroke-linecap="round"/>
</g>
</g>
</g>
</g>
<defs>
<linearGradient id="paint0_linear_1_7534" x1="72.1641" y1="68.6421" x2="274.272" y2="68.6421" gradientUnits="userSpaceOnUse">
<stop stop-color="#44484D" stop-opacity="0.01"/>
<stop offset="1" stop-color="#44484D"/>
</linearGradient>
<linearGradient id="paint1_linear_1_7534" x1="93.7832" y1="289.089" x2="89.6127" y2="304.654" gradientUnits="userSpaceOnUse">
<stop stop-color="#44484D" stop-opacity="0.01"/>
<stop offset="1" stop-color="#44484D"/>
</linearGradient>
<linearGradient id="paint2_linear_1_7534" x1="255.572" y1="283.474" x2="261.727" y2="306.444" gradientUnits="userSpaceOnUse">
<stop stop-color="#44484D" stop-opacity="0.01"/>
<stop offset="1" stop-color="#44484D"/>
</linearGradient>
<linearGradient id="paint3_linear_1_7534" x1="159.586" y1="-44.7175" x2="379.966" y2="157.204" gradientUnits="userSpaceOnUse">
<stop stop-color="#ECBACB"/>
<stop offset="0.488176" stop-color="#EBDDF5"/>
<stop offset="1" stop-color="#9ADBED"/>
</linearGradient>
<linearGradient id="paint4_linear_1_7534" x1="239.307" y1="202.552" x2="222.44" y2="335.182" gradientUnits="userSpaceOnUse">
<stop stop-color="#999DCF" stop-opacity="0.01"/>
<stop offset="1" stop-color="#999DCF"/>
</linearGradient>
<linearGradient id="paint5_linear_1_7534" x1="151.396" y1="365.242" x2="55.4576" y2="329.618" gradientUnits="userSpaceOnUse">
<stop stop-color="white"/>
<stop offset="1" stop-color="white" stop-opacity="0.01"/>
</linearGradient>
<linearGradient id="paint6_linear_1_7534" x1="281.361" y1="167.175" x2="281.361" y2="286.66" gradientUnits="userSpaceOnUse">
<stop stop-color="#999DCF" stop-opacity="0.01"/>
<stop offset="1" stop-color="#999DCF"/>
</linearGradient>
<linearGradient id="paint7_linear_1_7534" x1="11.9392" y1="15.701" x2="-3.52073" y2="20.2642" gradientUnits="userSpaceOnUse">
<stop stop-color="#44484D" stop-opacity="0.01"/>
<stop offset="1" stop-color="#44484D"/>
</linearGradient>
</defs>
</svg>
