<svg width="243" height="512" viewBox="0 0 243 512" fill="none" xmlns="http://www.w3.org/2000/svg">
<g id="YuhPerson_SP_7e">
<g id="Group 19">
<path id="Rectangle Copy 4" fill-rule="evenodd" clip-rule="evenodd" d="M107.045 499.971C107.045 506.322 101.896 511.471 95.5449 511.471H46.0449C46.0449 503.555 52.4622 497.137 60.3783 497.137H73.6498C75.0415 497.137 76.2709 496.231 76.6824 494.901L82.3561 476.57C83.8468 471.754 88.3005 468.471 93.3419 468.471H95.5449C101.896 468.471 107.045 473.619 107.045 479.971V499.971Z" fill="#151A21"/>
<g id="Path 20">
<g id="Mask">
<path fill-rule="evenodd" clip-rule="evenodd" d="M48.4835 503.471C46.9437 505.756 46.0449 508.508 46.0449 511.471H95.5449C100.676 511.471 105.022 508.111 106.503 503.471H48.4835Z" fill="#73767A"/>
<path fill-rule="evenodd" clip-rule="evenodd" d="M48.4835 503.471C46.9437 505.756 46.0449 508.508 46.0449 511.471H95.5449C100.676 511.471 105.022 508.111 106.503 503.471H48.4835Z" fill="url(#paint0_linear_1_13673)"/>
</g>
<mask id="mask0_1_13673" style="mask-type:luminance" maskUnits="userSpaceOnUse" x="46" y="503" width="61" height="9">
<g id="Mask_2">
<path fill-rule="evenodd" clip-rule="evenodd" d="M48.4835 503.471C46.9437 505.756 46.0449 508.508 46.0449 511.471H95.5449C100.676 511.471 105.022 508.111 106.503 503.471H48.4835Z" fill="white"/>
</g>
</mask>
<g mask="url(#mask0_1_13673)">
</g>
</g>
<path id="Rectangle" d="M90.0449 474.971C90.0449 472.485 92.0596 470.471 94.5449 470.471H101.184C101.659 470.471 102.045 470.856 102.045 471.332V478.471C102.045 485.098 96.6723 490.471 90.0449 490.471V474.971Z" fill="#44484D"/>
</g>
<g id="Group 19 Copy 4">
<path id="Rectangle Copy 4_2" fill-rule="evenodd" clip-rule="evenodd" d="M148.045 499.971C148.045 506.322 142.896 511.471 136.545 511.471H87.0449C87.0449 503.555 93.4622 497.137 101.378 497.137H114.65C116.042 497.137 117.271 496.231 117.682 494.901L123.356 476.57C124.847 471.754 129.3 468.471 134.342 468.471H136.545C142.896 468.471 148.045 473.619 148.045 479.971V499.971Z" fill="#151A21"/>
<g id="Path 20_2">
<path id="Mask_3" fill-rule="evenodd" clip-rule="evenodd" d="M89.4835 503.471C87.9437 505.756 87.0449 508.508 87.0449 511.471H136.545C141.676 511.471 146.022 508.111 147.503 503.471H89.4835Z" fill="#73767A"/>
<mask id="mask1_1_13673" style="mask-type:luminance" maskUnits="userSpaceOnUse" x="87" y="503" width="61" height="9">
<path id="Mask_4" fill-rule="evenodd" clip-rule="evenodd" d="M89.4835 503.471C87.9437 505.756 87.0449 508.508 87.0449 511.471H136.545C141.676 511.471 146.022 508.111 147.503 503.471H89.4835Z" fill="white"/>
</mask>
<g mask="url(#mask1_1_13673)">
</g>
</g>
<path id="Rectangle_2" d="M131.045 474.971C131.045 472.485 133.06 470.471 135.545 470.471H142.184C142.659 470.471 143.045 470.856 143.045 471.332V478.471C143.045 485.098 137.672 490.471 131.045 490.471V474.971Z" fill="#44484D"/>
</g>
<g id="Group 29">
<g id="Rectangle Copy 108">
<rect x="97.1377" y="4.19141" width="36" height="46" rx="18" transform="rotate(15 97.1377 4.19141)" fill="#BABDE4"/>
<rect x="97.1377" y="4.19141" width="36" height="46" rx="18" transform="rotate(15 97.1377 4.19141)" fill="url(#paint1_linear_1_13673)"/>
</g>
<g id="Rectangle Copy 111">
<path fill-rule="evenodd" clip-rule="evenodd" d="M93.2871 0.0541599L119.165 6.98812C126.633 8.9893 131.066 16.666 129.064 24.1345L124.665 40.5553C124.665 40.5553 123.224 26.7108 113.614 24.1358C111.266 23.5065 108.561 22.7818 105.814 22.0458C96.2443 19.4815 90.6117 9.59387 93.2871 0.0541599Z" fill="#151A21"/>
<path fill-rule="evenodd" clip-rule="evenodd" d="M93.2871 0.0541599L119.165 6.98812C126.633 8.9893 131.066 16.666 129.064 24.1345L124.665 40.5553C124.665 40.5553 123.224 26.7108 113.614 24.1358C111.266 23.5065 108.561 22.7818 105.814 22.0458C96.2443 19.4815 90.6117 9.59387 93.2871 0.0541599Z" fill="url(#paint2_linear_1_13673)"/>
</g>
</g>
<path id="Path 32 Copy 2" d="M87.1182 220.436L95.0458 451.445" stroke="#151A21" stroke-width="60" stroke-linecap="round"/>
<g id="Path 32 Copy 4">
<path d="M137.095 212.436L137.046 451.436" stroke="#151A21" stroke-width="60" stroke-linecap="round"/>
<path d="M137.095 212.436L137.046 451.436" stroke="url(#paint3_linear_1_13673)" stroke-width="60" stroke-linecap="round"/>
</g>
<g id="Group 48">
<g id="Rectangle Copy 162">
<path fill-rule="evenodd" clip-rule="evenodd" d="M186.908 270.296C183.844 271.118 182.025 274.268 182.846 277.332L189.634 302.664C198.964 301.825 203.833 291.807 205.387 287.898C205.786 286.894 205.801 285.797 205.521 284.754L202.147 272.161C201.325 269.096 198.175 267.277 195.111 268.098L186.908 270.296Z" fill="#BABDE4"/>
<path fill-rule="evenodd" clip-rule="evenodd" d="M186.908 270.296C183.844 271.118 182.025 274.268 182.846 277.332L189.634 302.664C198.964 301.825 203.833 291.807 205.387 287.898C205.786 286.894 205.801 285.797 205.521 284.754L202.147 272.161C201.325 269.096 198.175 267.277 195.111 268.098L186.908 270.296Z" fill="url(#paint4_linear_1_13673)"/>
</g>
<g id="Rectangle Copy 162_2">
<path fill-rule="evenodd" clip-rule="evenodd" d="M34.4521 265.296C37.5167 266.118 39.3353 269.268 38.5142 272.332L31.7265 297.664C22.3959 296.825 17.5277 286.807 15.9738 282.898C15.5747 281.894 15.5598 280.797 15.8394 279.754L19.2138 267.161C20.0349 264.096 23.1849 262.277 26.2494 263.098L34.4521 265.296Z" fill="#BABDE4"/>
<path fill-rule="evenodd" clip-rule="evenodd" d="M34.4521 265.296C37.5167 266.118 39.3353 269.268 38.5142 272.332L31.7265 297.664C22.3959 296.825 17.5277 286.807 15.9738 282.898C15.5747 281.894 15.5598 280.797 15.8394 279.754L19.2138 267.161C20.0349 264.096 23.1849 262.277 26.2494 263.098L34.4521 265.296Z" fill="url(#paint5_linear_1_13673)"/>
</g>
<path id="Combined Shape Copy 9" fill-rule="evenodd" clip-rule="evenodd" d="M131.546 62.4707C143.21 62.4708 154.537 66.4917 162.811 74.7129C179.428 91.2253 206.501 122.226 212.383 153.848C217.153 174.04 236.73 269.515 184.138 283.606L174.939 249.276C165.738 259.395 152.518 265.78 137.764 265.78H86.6534C69.9564 265.78 55.1748 257.588 46.1045 245.006L35.7627 283.606C-23.0615 267.845 8.39753 150.268 8.44241 150.101L8.64066 150.153C16.5196 124.589 40.5765 94.7953 56.1709 77.3467C64.9076 67.5712 77.5173 62.4707 90.628 62.4707H131.546Z" fill="url(#paint6_linear_1_13673)"/>
<path id="Combined Shape Copy 22" d="M165.643 162.377L152.592 165.874L174.938 249.276C165.738 259.395 152.518 265.78 137.764 265.78H86.6533C59.0651 265.78 36.7004 243.421 36.7002 215.833V162.377H165.643Z" fill="url(#paint7_linear_1_13673)"/>
<path id="Rectangle Copy 164" fill-rule="evenodd" clip-rule="evenodd" d="M184.138 283.606L152.591 165.874L211.458 150.101C211.458 150.101 243.004 267.833 184.138 283.606Z" fill="url(#paint8_linear_1_13673)"/>
<path id="Combined Shape" fill-rule="evenodd" clip-rule="evenodd" d="M54.2579 162.377H36.7002V215.833C36.7003 226.724 40.1883 236.799 46.1045 245.006L35.7627 283.606C-23.0781 267.84 8.41529 150.202 8.44243 150.101L54.2579 162.377Z" fill="url(#paint9_linear_1_13673)"/>
</g>
</g>
<defs>
<linearGradient id="paint0_linear_1_13673" x1="84.7892" y1="504.602" x2="101.895" y2="504.602" gradientUnits="userSpaceOnUse">
<stop stop-color="#151A21" stop-opacity="0.01"/>
<stop offset="1" stop-color="#151A21"/>
</linearGradient>
<linearGradient id="paint1_linear_1_13673" x1="108.168" y1="42.8542" x2="135.247" y2="54.9049" gradientUnits="userSpaceOnUse">
<stop stop-color="#999DCF" stop-opacity="0.01"/>
<stop offset="1" stop-color="#999DCF"/>
</linearGradient>
<linearGradient id="paint2_linear_1_13673" x1="121.672" y1="10.0765" x2="96.8211" y2="-2.822" gradientUnits="userSpaceOnUse">
<stop stop-color="#44484D" stop-opacity="0.01"/>
<stop offset="1" stop-color="#44484D"/>
</linearGradient>
<linearGradient id="paint3_linear_1_13673" x1="137.57" y1="-7940.76" x2="68.5514" y2="-7940.76" gradientUnits="userSpaceOnUse">
<stop stop-color="#44484D" stop-opacity="0.01"/>
<stop offset="1" stop-color="#44484D"/>
</linearGradient>
<linearGradient id="paint4_linear_1_13673" x1="192.993" y1="288.19" x2="190.488" y2="278.842" gradientUnits="userSpaceOnUse">
<stop stop-color="#999DCF" stop-opacity="0.01"/>
<stop offset="1" stop-color="#999DCF"/>
</linearGradient>
<linearGradient id="paint5_linear_1_13673" x1="28.3678" y1="283.19" x2="30.8726" y2="273.842" gradientUnits="userSpaceOnUse">
<stop stop-color="#999DCF" stop-opacity="0.01"/>
<stop offset="1" stop-color="#999DCF"/>
</linearGradient>
<linearGradient id="paint6_linear_1_13673" x1="124.624" y1="-47.7713" x2="-95.7557" y2="154.151" gradientUnits="userSpaceOnUse">
<stop stop-color="#ECBACB"/>
<stop offset="0.488176" stop-color="#EBDDF5"/>
<stop offset="1" stop-color="#9ADBED"/>
</linearGradient>
<linearGradient id="paint7_linear_1_13673" x1="44.9027" y1="199.498" x2="61.7702" y2="332.128" gradientUnits="userSpaceOnUse">
<stop stop-color="#999DCF" stop-opacity="0.01"/>
<stop offset="1" stop-color="#999DCF"/>
</linearGradient>
<linearGradient id="paint8_linear_1_13673" x1="132.814" y1="362.188" x2="228.752" y2="326.565" gradientUnits="userSpaceOnUse">
<stop stop-color="white"/>
<stop offset="1" stop-color="white" stop-opacity="0.01"/>
</linearGradient>
<linearGradient id="paint9_linear_1_13673" x1="2.84905" y1="164.121" x2="2.84905" y2="283.606" gradientUnits="userSpaceOnUse">
<stop stop-color="#999DCF" stop-opacity="0.01"/>
<stop offset="1" stop-color="#999DCF"/>
</linearGradient>
</defs>
</svg>
