<svg width="388" height="432" viewBox="0 0 388 432" fill="none" xmlns="http://www.w3.org/2000/svg">
<g id="YuhPerson_DP_5d">
<g id="Combined Shape Copy 10">
<path id="Mask" fill-rule="evenodd" clip-rule="evenodd" d="M115.023 51.2655C110.532 46.7745 110.532 39.4931 115.023 35.0021L150.025 0.000276148C155.745 5.71988 156.098 14.8782 150.836 21.0216L139.225 34.578C138.257 35.708 137.999 37.2819 138.669 38.61C139.95 41.1466 142.439 45.4474 146.136 49.1442C151.793 54.8011 166.996 70.0038 166.996 70.0038L150.379 86.6209L115.023 51.2655Z" fill="#FA5B35"/>
<mask id="mask0_1_15507" style="mask-type:luminance" maskUnits="userSpaceOnUse" x="111" y="0" width="56" height="87">
<path id="Mask_2" fill-rule="evenodd" clip-rule="evenodd" d="M115.023 51.2655C110.532 46.7745 110.532 39.4931 115.023 35.0021L150.025 0.000276148C155.745 5.71988 156.098 14.8782 150.836 21.0216L139.225 34.578C138.257 35.708 137.999 37.2819 138.669 38.61C139.95 41.1466 142.439 45.4474 146.136 49.1442C151.793 54.8011 166.996 70.0038 166.996 70.0038L150.379 86.6209L115.023 51.2655Z" fill="white"/>
</mask>
<g mask="url(#mask0_1_15507)">
<path id="Combined Shape" d="M153.958 7.38111L139.065 22.2739L151.793 35.0018L142.601 44.1942L129.873 31.4662L112.932 48.4071C110.698 44.0792 111.396 38.6299 115.024 35.0018L150.025 -1.03712e-05C152.12 2.0948 153.431 4.67669 153.958 7.38111Z" fill="#151A21"/>
</g>
</g>
<g id="Combined Shape_2">
<path id="Mask_3" fill-rule="evenodd" clip-rule="evenodd" d="M91.1664 360.784C91.3629 367.269 86.1594 372.633 79.6716 372.633H30.5254C30.5254 364.544 36.7514 357.818 44.8161 357.195L62.6121 355.819C64.0956 355.705 65.3914 354.775 65.8563 353.361C66.7442 350.662 68.0254 345.861 68.0254 340.633C68.0254 332.633 68.0254 311.133 68.0254 311.133H91.5254L91.0254 356.133L91.1664 360.784Z" fill="#FA5B35"/>
<mask id="mask1_1_15507" style="mask-type:luminance" maskUnits="userSpaceOnUse" x="30" y="311" width="62" height="62">
<path id="Mask_4" fill-rule="evenodd" clip-rule="evenodd" d="M91.1664 360.784C91.3629 367.269 86.1594 372.633 79.6716 372.633H30.5254C30.5254 364.544 36.7514 357.818 44.8161 357.195L62.6121 355.819C64.0956 355.705 65.3914 354.775 65.8563 353.361C66.7442 350.662 68.0254 345.861 68.0254 340.633C68.0254 332.633 68.0254 311.133 68.0254 311.133H91.5254L91.0254 356.133L91.1664 360.784Z" fill="white"/>
</mask>
<g mask="url(#mask1_1_15507)">
<path id="Combined Shape_3" d="M32.9639 364.633H54.0254V346.633H67.0254V364.633H90.9834C89.5026 369.273 85.1563 372.633 80.0254 372.633H30.5254C30.5254 369.67 31.4241 366.918 32.9639 364.633Z" fill="#151A21"/>
</g>
</g>
<g id="Rectangle Copy 80">
<path fill-rule="evenodd" clip-rule="evenodd" d="M277.07 361.647C277.07 367.999 282.219 373.147 288.57 373.147H332.07C332.07 365.968 326.25 360.147 319.07 360.147H306.484C305.591 360.147 304.745 359.741 304.187 359.043L300.523 354.463C298.341 351.735 295.037 350.147 291.543 350.147H288.57C282.219 350.147 277.07 355.296 277.07 361.647Z" fill="#FA5B35"/>
<path fill-rule="evenodd" clip-rule="evenodd" d="M277.07 361.647C277.07 367.999 282.219 373.147 288.57 373.147H332.07C332.07 365.968 326.25 360.147 319.07 360.147H306.484C305.591 360.147 304.745 359.741 304.187 359.043L300.523 354.463C298.341 351.735 295.037 350.147 291.543 350.147H288.57C282.219 350.147 277.07 355.296 277.07 361.647Z" fill="url(#paint0_linear_1_15507)"/>
</g>
<g id="Rectangle Copy 81">
<path fill-rule="evenodd" clip-rule="evenodd" d="M191.07 361.647C191.07 367.999 196.219 373.147 202.57 373.147H246.07C246.07 365.968 240.25 360.147 233.07 360.147H220.484C219.591 360.147 218.745 359.741 218.187 359.043L214.523 354.463C212.341 351.735 209.037 350.147 205.543 350.147H202.57C196.219 350.147 191.07 355.296 191.07 361.647Z" fill="#FA5B35"/>
<path fill-rule="evenodd" clip-rule="evenodd" d="M191.07 361.647C191.07 367.999 196.219 373.147 202.57 373.147H246.07C246.07 365.968 240.25 360.147 233.07 360.147H220.484C219.591 360.147 218.745 359.741 218.187 359.043L214.523 354.463C212.341 351.735 209.037 350.147 205.543 350.147H202.57C196.219 350.147 191.07 355.296 191.07 361.647Z" fill="url(#paint1_linear_1_15507)"/>
</g>
<g id="Combined Shape_4">
<path d="M226.07 183.521C272.693 201.163 306.521 244.844 309.808 296.817C309.98 297.902 310.07 299.014 310.07 300.147V342.147C310.07 353.745 300.668 363.147 289.07 363.147C277.472 363.147 268.07 353.745 268.07 342.147V301.147C268.07 288.997 258.22 279.147 246.07 279.147C233.92 279.148 224.07 288.997 224.07 301.147V342.147C224.07 353.745 214.668 363.147 203.07 363.147C191.472 363.147 182.07 353.745 182.07 342.147V285.647C182.07 267.698 167.519 253.147 149.57 253.147H149.525C149.525 253.143 149.525 253.138 149.525 253.134C149.525 228.001 199.361 197.866 226.07 183.521Z" fill="#151A21"/>
<path d="M226.07 183.521C272.693 201.163 306.521 244.844 309.808 296.817C309.98 297.902 310.07 299.014 310.07 300.147V342.147C310.07 353.745 300.668 363.147 289.07 363.147C277.472 363.147 268.07 353.745 268.07 342.147V301.147C268.07 288.997 258.22 279.147 246.07 279.147C233.92 279.148 224.07 288.997 224.07 301.147V342.147C224.07 353.745 214.668 363.147 203.07 363.147C191.472 363.147 182.07 353.745 182.07 342.147V285.647C182.07 267.698 167.519 253.147 149.57 253.147H149.525C149.525 253.143 149.525 253.138 149.525 253.134C149.525 228.001 199.361 197.866 226.07 183.521Z" fill="url(#paint2_linear_1_15507)"/>
</g>
<g id="Path 19">
<path id="Mask_5" d="M232.427 172.217C229.473 181.118 219.036 201.126 190.448 214.643C171.854 223.434 160.377 236.823 154.624 245.11L184.746 191.685C188.658 184.747 194.903 179.606 202.182 177.02C194.996 175.789 187.608 175.148 180.071 175.148C174.698 175.148 169.401 175.474 164.199 176.108L168.075 169.394C177.434 153.183 179.77 140.817 176.933 131.185C173.969 121.124 164.495 110.747 146.675 100.459C132.327 92.1748 127.41 73.8271 135.695 59.4783C143.979 45.1295 162.327 40.2133 176.675 48.4976C229.199 78.822 248.82 122.832 232.427 172.217ZM116.067 305.147C115.8 322.866 101.353 337.147 83.5712 337.147L82.571 337.147C64.7888 337.147 50.3418 322.867 50.0743 305.148L50.07 305.148C50.07 305.037 50.0705 304.926 50.0707 304.814C50.0705 304.759 50.0703 304.703 50.0703 304.647L50.07 300.148L50.1649 300.147C52.5912 235.991 101.509 183.739 164.199 176.108L120.075 252.533L150.091 252.542C150.091 252.542 151.532 249.564 154.624 245.11L153.189 247.653C152.184 249.436 151.363 251.282 150.723 253.167C150.341 253.154 149.956 253.147 149.571 253.147L148.571 253.147C130.621 253.147 116.071 267.699 116.071 285.648L116.07 300.148L116.071 304.648L116.07 305.148L116.067 305.147ZM294.899 305.147C301.528 300.962 306.538 294.446 308.779 286.75C309.63 292.76 310.07 298.903 310.07 305.148L294.899 305.147Z" fill="url(#paint3_linear_1_15507)"/>
<mask id="mask2_1_15507" style="mask-type:luminance" maskUnits="userSpaceOnUse" x="50" y="44" width="261" height="294">
<path id="Mask_6" d="M232.427 172.217C229.473 181.118 219.036 201.126 190.448 214.643C171.854 223.434 160.377 236.823 154.624 245.11L184.746 191.685C188.658 184.747 194.903 179.606 202.182 177.02C194.996 175.789 187.608 175.148 180.071 175.148C174.698 175.148 169.401 175.474 164.199 176.108L168.075 169.394C177.434 153.183 179.77 140.817 176.933 131.185C173.969 121.124 164.495 110.747 146.675 100.459C132.327 92.1748 127.41 73.8271 135.695 59.4783C143.979 45.1295 162.327 40.2133 176.675 48.4976C229.199 78.822 248.82 122.832 232.427 172.217ZM116.067 305.147C115.8 322.866 101.353 337.147 83.5712 337.147L82.571 337.147C64.7888 337.147 50.3418 322.867 50.0743 305.148L50.07 305.148C50.07 305.037 50.0705 304.926 50.0707 304.814C50.0705 304.759 50.0703 304.703 50.0703 304.647L50.07 300.148L50.1649 300.147C52.5912 235.991 101.509 183.739 164.199 176.108L120.075 252.533L150.091 252.542C150.091 252.542 151.532 249.564 154.624 245.11L153.189 247.653C152.184 249.436 151.363 251.282 150.723 253.167C150.341 253.154 149.956 253.147 149.571 253.147L148.571 253.147C130.621 253.147 116.071 267.699 116.071 285.648L116.07 300.148L116.071 304.648L116.07 305.148L116.067 305.147ZM294.899 305.147C301.528 300.962 306.538 294.446 308.779 286.75C309.63 292.76 310.07 298.903 310.07 305.148L294.899 305.147Z" fill="white"/>
</mask>
<g mask="url(#mask2_1_15507)">
<path id="Path 19_2" d="M166.07 168.148L152.07 192.148" stroke="#8E7B98" stroke-width="4" stroke-linecap="round"/>
</g>
</g>
<g id="Group 81">
<g id="Rectangle Copy 141">
<rect x="264.525" y="332.133" width="36" height="46" rx="18" transform="rotate(-180 264.525 332.133)" fill="#FA5B35"/>
<rect x="264.525" y="332.133" width="36" height="46" rx="18" transform="rotate(-180 264.525 332.133)" fill="url(#paint4_linear_1_15507)"/>
</g>
<g id="Combined Shape Copy 24">
<path fill-rule="evenodd" clip-rule="evenodd" d="M242.525 335.133C234.793 335.133 228.525 328.865 228.525 321.133V304.133C228.527 304.138 232.194 313.666 239.525 316.404V287.984C239.525 286.962 240.354 286.133 241.377 286.133H246.525C256.466 286.133 264.525 294.192 264.525 304.133H252.525C249.211 304.133 246.525 306.819 246.525 310.133V317.133H251.733C261.641 317.133 269.64 325.226 269.524 335.133H242.525Z" fill="#151A21"/>
<path fill-rule="evenodd" clip-rule="evenodd" d="M242.525 335.133C234.793 335.133 228.525 328.865 228.525 321.133V304.133C228.527 304.138 232.194 313.666 239.525 316.404V287.984C239.525 286.962 240.354 286.133 241.377 286.133H246.525C256.466 286.133 264.525 294.192 264.525 304.133H252.525C249.211 304.133 246.525 306.819 246.525 310.133V317.133H251.733C261.641 317.133 269.64 325.226 269.524 335.133H242.525Z" fill="url(#paint5_linear_1_15507)"/>
</g>
</g>
</g>
<defs>
<linearGradient id="paint0_linear_1_15507" x1="271.306" y1="377.692" x2="267.028" y2="351.807" gradientUnits="userSpaceOnUse">
<stop stop-color="#AE3B1B" stop-opacity="0.01"/>
<stop offset="1" stop-color="#AE3B1B"/>
</linearGradient>
<linearGradient id="paint1_linear_1_15507" x1="185.306" y1="377.692" x2="181.028" y2="351.807" gradientUnits="userSpaceOnUse">
<stop stop-color="#AE3B1B" stop-opacity="0.01"/>
<stop offset="1" stop-color="#AE3B1B"/>
</linearGradient>
<linearGradient id="paint2_linear_1_15507" x1="276.268" y1="311.568" x2="352.347" y2="242.835" gradientUnits="userSpaceOnUse">
<stop stop-color="#44484D" stop-opacity="0.01"/>
<stop offset="1" stop-color="#44484D"/>
</linearGradient>
<linearGradient id="paint3_linear_1_15507" x1="-26.7874" y1="-64.049" x2="-210.98" y2="535.079" gradientUnits="userSpaceOnUse">
<stop stop-color="#FAB4CC"/>
<stop offset="0.393872" stop-color="#CCB1DA"/>
<stop offset="1" stop-color="white"/>
</linearGradient>
<linearGradient id="paint4_linear_1_15507" x1="274.81" y1="348.876" x2="257.095" y2="353.984" gradientUnits="userSpaceOnUse">
<stop stop-color="#FC9D86" stop-opacity="0.01"/>
<stop offset="1" stop-color="#FC9D86"/>
</linearGradient>
<linearGradient id="paint5_linear_1_15507" x1="239.305" y1="331.443" x2="267.429" y2="335.365" gradientUnits="userSpaceOnUse">
<stop stop-color="#44484D" stop-opacity="0.01"/>
<stop offset="1" stop-color="#44484D"/>
</linearGradient>
</defs>
</svg>
