<svg width="396" height="351" viewBox="0 0 396 351" fill="none" xmlns="http://www.w3.org/2000/svg">
<g id="YuhPerson_DP_2b">
<g id="back leg">
<g id="sneaker">
<g id="Mask">
<path fill-rule="evenodd" clip-rule="evenodd" d="M70 254.169L0 254.169V250.169C0 245.329 2.92106 240.966 7.39703 239.122L39 226.105L70 241.105L70 254.169Z" fill="#A1A3A6"/>
<path fill-rule="evenodd" clip-rule="evenodd" d="M70 254.169L0 254.169V250.169C0 245.329 2.92106 240.966 7.39703 239.122L39 226.105L70 241.105L70 254.169Z" fill="url(#paint0_linear_1_9597)"/>
</g>
<mask id="mask0_1_9597" style="mask-type:luminance" maskUnits="userSpaceOnUse" x="0" y="226" width="70" height="29">
<g id="Mask_2">
<path fill-rule="evenodd" clip-rule="evenodd" d="M70 254.169L0 254.169V250.169C0 245.329 2.92106 240.966 7.39703 239.122L39 226.105L70 241.105L70 254.169Z" fill="white"/>
<path fill-rule="evenodd" clip-rule="evenodd" d="M70 254.169L0 254.169V250.169C0 245.329 2.92106 240.966 7.39703 239.122L39 226.105L70 241.105L70 254.169Z" stroke="white"/>
</g>
</mask>
<g mask="url(#mask0_1_9597)">
<path id="Path 25" d="M22.8926 207.778L42.8926 242.419" stroke="#AE3B1B" stroke-width="4" stroke-linecap="round"/>
<path id="Path 25_2" d="M14.9639 210.046L34.9639 244.687" stroke="#AE3B1B" stroke-width="4" stroke-linecap="round"/>
<path id="Path 25_3" d="M7.03613 212.313L27.0361 246.954" stroke="#AE3B1B" stroke-width="4" stroke-linecap="round"/>
</g>
</g>
<g id="leg">
<path d="M206 258.5L173 224.5C173 224.5 111 168.5 64 242.5" stroke="#151A21" stroke-width="60"/>
<path d="M206 258.5L173 224.5C173 224.5 111 168.5 64 242.5" stroke="#FA5B35" stroke-width="60"/>
</g>
</g>
<g id="Rectangle Copy 154">
<path fill-rule="evenodd" clip-rule="evenodd" d="M342.396 167.459C345.571 161.959 352.604 160.074 358.105 163.25L395.777 185C392.187 191.218 384.236 193.348 378.019 189.758L367.119 183.465C366.345 183.018 365.41 182.948 364.577 183.273L359.114 185.407C355.86 186.679 352.205 186.402 349.179 184.655L346.605 183.169C341.104 179.993 339.22 172.96 342.396 167.459Z" fill="#151A21"/>
<path fill-rule="evenodd" clip-rule="evenodd" d="M342.396 167.459C345.571 161.959 352.604 160.074 358.105 163.25L395.777 185C392.187 191.218 384.236 193.348 378.019 189.758L367.119 183.465C366.345 183.018 365.41 182.948 364.577 183.273L359.114 185.407C355.86 186.679 352.205 186.402 349.179 184.655L346.605 183.169C341.104 179.993 339.22 172.96 342.396 167.459Z" fill="url(#paint1_linear_1_9597)"/>
</g>
<path id="Rectangle Copy 155" fill-rule="evenodd" clip-rule="evenodd" d="M117.229 37.4593C120.405 31.9589 118.521 24.9256 113.02 21.75L75.3481 0C71.7582 6.2178 73.8886 14.1685 80.1064 17.7583L91.0061 24.0512C91.7802 24.4982 92.3091 25.2727 92.4437 26.1564L93.3268 31.9544C93.8528 35.4081 95.9202 38.4354 98.9457 40.1822L101.52 41.6686C107.021 44.8442 114.054 42.9597 117.229 37.4593Z" fill="#151A21"/>
<g id="Combined Shape Copy 28">
<path id="Mask_3" d="M363.227 164.896C350.525 186.897 322.391 194.435 300.39 181.733L264.982 161.29L258.524 252.247L174.615 218.286L181.887 113.315L127.185 81.7327C105.183 69.0301 97.6451 40.897 110.348 18.8955L363.227 164.896Z" fill="url(#paint2_linear_1_9597)"/>
<mask id="mask1_1_9597" style="mask-type:luminance" maskUnits="userSpaceOnUse" x="104" y="18" width="260" height="235">
<path id="Mask_4" d="M363.227 164.896C350.525 186.897 322.391 194.435 300.39 181.733L264.982 161.29L258.524 252.247L174.615 218.286L181.887 113.315L127.185 81.7327C105.183 69.0301 97.6451 40.897 110.348 18.8955L363.227 164.896Z" fill="white"/>
</mask>
<g mask="url(#mask1_1_9597)">
<path id="Combined Shape" fill-rule="evenodd" clip-rule="evenodd" d="M272.042 204.991C280.284 203.85 285.638 206.941 287.553 214.088C287.767 214.888 287.293 215.71 286.492 215.925C285.692 216.139 284.87 215.664 284.655 214.864C283.181 209.362 279.408 207.1 272.816 207.915L272.453 207.962C264.468 209.067 259.195 206.2 257.132 199.523L256.943 198.864C255.468 193.362 251.695 191.1 245.103 191.915L244.74 191.962C236.498 193.102 231.145 190.011 229.23 182.864C229.015 182.064 229.49 181.242 230.29 181.027C231.091 180.813 231.913 181.288 232.127 182.088C233.602 187.59 237.375 189.852 243.967 189.037L244.329 188.991C252.572 187.85 257.925 190.941 259.84 198.088C261.315 203.59 265.088 205.852 271.68 205.037L272.042 204.991ZM267.99 168.01C276.232 166.87 281.585 169.96 283.5 177.107C283.715 177.907 283.24 178.73 282.44 178.944C281.64 179.158 280.817 178.684 280.603 177.883C279.128 172.381 275.355 170.12 268.763 170.934L268.4 170.982C260.416 172.086 255.142 169.22 253.079 162.542L252.89 161.883C251.416 156.381 247.642 154.12 241.05 154.934L240.688 154.982C232.703 156.086 227.429 153.22 225.367 146.542L225.177 145.883C223.703 140.381 219.929 138.12 213.337 138.934L212.975 138.982C204.733 140.122 199.379 137.03 197.464 129.883C197.25 129.083 197.725 128.261 198.525 128.047C199.325 127.832 200.148 128.307 200.362 129.107C201.836 134.61 205.61 136.871 212.202 136.057L212.564 136.01C220.806 134.87 226.16 137.96 228.075 145.107C229.549 150.61 233.323 152.871 239.915 152.057L240.277 152.01C248.519 150.87 253.873 153.96 255.788 161.107C257.262 166.61 261.035 168.871 267.627 168.057L267.99 168.01ZM321.095 164.029C329.337 162.889 334.69 165.979 336.605 173.126C336.82 173.926 336.345 174.749 335.545 174.963C334.745 175.178 333.922 174.703 333.708 173.903C332.234 168.4 328.46 166.139 321.868 166.953L321.506 167.001C313.521 168.105 308.247 165.239 306.185 158.561L305.995 157.903C304.521 152.4 300.747 150.139 294.155 150.953L293.793 151.001C285.808 152.105 280.535 149.239 278.472 142.561L278.282 141.903C276.808 136.4 273.035 134.139 266.442 134.953L266.08 135.001C258.095 136.105 252.822 133.239 250.759 126.561L250.57 125.903C249.095 120.4 245.322 118.139 238.73 118.953L238.367 119.001C230.383 120.105 225.109 117.239 223.046 110.561L222.857 109.903C221.382 104.4 217.609 102.139 211.017 102.953L210.654 103.001C202.67 104.105 197.396 101.239 195.333 94.5611L195.144 93.9027C193.67 88.4001 189.896 86.1388 183.304 86.953L182.942 87.0008C174.957 88.1051 169.683 85.2388 167.62 78.5611L167.431 77.9027C165.957 72.4001 162.183 70.1388 155.591 70.953L155.229 71.0008C147.244 72.1051 141.97 69.2388 139.908 62.5611L139.718 61.9027C138.244 56.4001 134.471 54.1388 127.878 54.953L127.516 55.0008C119.274 56.1408 113.921 53.0495 112.006 45.9027C111.791 45.1025 112.266 44.2801 113.066 44.0657C113.866 43.8514 114.689 44.3262 114.903 45.1263C116.377 50.6289 120.151 52.8902 126.743 52.076L127.105 52.029C135.347 50.8889 140.701 53.9795 142.616 61.1263C144.09 66.6289 147.864 68.8902 154.456 68.076L154.818 68.029C163.06 66.8889 168.414 69.9795 170.329 77.1263C171.803 82.6289 175.576 84.8902 182.169 84.076L182.531 84.029C190.773 82.8889 196.126 85.9795 198.041 93.1263C199.516 98.6289 203.289 100.89 209.881 100.076L210.243 100.029C218.486 98.8889 223.839 101.979 225.754 109.126C227.229 114.629 231.002 116.89 237.594 116.076L237.956 116.029C246.199 114.889 251.552 117.979 253.467 125.126C254.941 130.629 258.715 132.89 265.307 132.076L265.669 132.029C273.911 130.889 279.265 133.979 281.18 141.126C282.654 146.629 286.428 148.89 293.02 148.076L293.382 148.029C301.624 146.889 306.978 149.979 308.893 157.126C310.367 162.629 314.14 164.89 320.733 164.076L321.095 164.029Z" fill="white"/>
</g>
</g>
<g id="Group 86 Copy">
<g id="Rectangle Copy 147">
<rect x="232.759" y="25.9961" width="36" height="46" rx="18" transform="rotate(30 232.759 25.9961)" fill="#151A21"/>
<rect x="232.759" y="25.9961" width="36" height="46" rx="18" transform="rotate(30 232.759 25.9961)" fill="url(#paint3_linear_1_9597)"/>
</g>
<g id="Path 12 + Path 12 Copy Mask Copy 6">
<path id="Mask_5" fill-rule="evenodd" clip-rule="evenodd" d="M231.521 45.0416C227.841 41.483 227.054 35.8763 229.614 31.4427C233.243 25.157 241.813 23.9553 247.031 29.0005L257.173 38.8072C260.854 42.3657 261.64 47.9724 259.08 52.406C255.451 58.6918 246.881 59.8934 241.663 54.8482L231.521 45.0416Z" fill="#FA5B35"/>
<mask id="mask2_1_9597" style="mask-type:luminance" maskUnits="userSpaceOnUse" x="228" y="25" width="33" height="33">
<path id="Mask_6" fill-rule="evenodd" clip-rule="evenodd" d="M231.521 45.0416C227.841 41.483 227.054 35.8763 229.614 31.4427C233.243 25.157 241.813 23.9553 247.031 29.0005L257.173 38.8072C260.854 42.3657 261.64 47.9724 259.08 52.406C255.451 58.6918 246.881 59.8934 241.663 54.8482L231.521 45.0416Z" fill="white"/>
</mask>
<g mask="url(#mask2_1_9597)">
<path id="Path 12" d="M226.955 48.0488L238.955 27.2642" stroke="#FC9D86" stroke-width="4" stroke-linecap="round"/>
<path id="Path 12 Copy" d="M230.882 57.2446L242.882 36.46" stroke="#FC9D86" stroke-width="4" stroke-linecap="round"/>
</g>
</g>
</g>
<g id="front leg">
<g id="sneaker_2">
<g id="Mask_7">
<path fill-rule="evenodd" clip-rule="evenodd" d="M70 266.169L0 266.169V262.169C0 257.329 2.92106 252.966 7.39703 251.122L39 238.105L70 253.105L70 266.169Z" fill="white"/>
<path fill-rule="evenodd" clip-rule="evenodd" d="M70 266.169L0 266.169V262.169C0 257.329 2.92106 252.966 7.39703 251.122L39 238.105L70 253.105L70 266.169Z" fill="url(#paint4_linear_1_9597)"/>
</g>
<g id="Object">
<mask id="mask3_1_9597" style="mask-type:luminance" maskUnits="userSpaceOnUse" x="0" y="238" width="70" height="29">
<g id="Mask_8">
<path fill-rule="evenodd" clip-rule="evenodd" d="M70 266.169L0 266.169V262.169C0 257.329 2.92106 252.966 7.39703 251.122L39 238.105L70 253.105L70 266.169Z" fill="white"/>
<path fill-rule="evenodd" clip-rule="evenodd" d="M70 266.169L0 266.169V262.169C0 257.329 2.92106 252.966 7.39703 251.122L39 238.105L70 253.105L70 266.169Z" stroke="white"/>
</g>
</mask>
<g mask="url(#mask3_1_9597)">
<path id="Path 25_4" d="M19.9639 214.046L39.9639 248.687" stroke="#FA5B35" stroke-width="4" stroke-linecap="round"/>
<path id="Path 25_5" d="M4.10742 218.582L24.1074 253.223" stroke="#FA5B35" stroke-width="4" stroke-linecap="round"/>
<path id="Path 25_6" d="M12.0361 216.313L32.0361 250.954" stroke="#FA5B35" stroke-width="4" stroke-linecap="round"/>
</g>
</g>
<path id="Rectangle" d="M0 265.5H70C70 267.709 68.2091 269.5 66 269.5H4C1.79086 269.5 0 267.709 0 265.5Z" fill="#151A21"/>
</g>
<g id="leg_2">
<path d="M207 269.5L174 235.5C174 235.5 112 179.5 65 253.5" stroke="#151A21" stroke-width="60"/>
<path d="M207 269.5L174 235.5C174 235.5 112 179.5 65 253.5" stroke="url(#paint5_linear_1_9597)" stroke-width="60"/>
<path d="M207 269.5L174 235.5C174 235.5 112 179.5 65 253.5" stroke="#FA5B35" stroke-width="60"/>
</g>
</g>
<g id="wheels">
<g id="Oval Copy 114">
<circle cx="203.155" cy="277.5" r="53" fill="#78C6E7"/>
<circle cx="203.155" cy="277.5" r="53" fill="url(#paint6_linear_1_9597)"/>
<circle cx="203.155" cy="277.5" r="53" stroke="#151A21" stroke-width="40"/>
<circle cx="203.155" cy="277.5" r="53" stroke="url(#paint7_linear_1_9597)" stroke-width="40"/>
</g>
<g id="Group 45 Copy 7">
<ellipse id="Oval" cx="153.657" cy="252.549" rx="11.7952" ry="2.24401" transform="rotate(128 153.657 252.549)" stroke="white" stroke-width="4" stroke-linecap="round"/>
<ellipse id="Oval_2" cx="157.716" cy="261.452" rx="12.5695" ry="2.91441" transform="rotate(124 157.716 261.452)" stroke="white" stroke-width="4" stroke-linecap="round"/>
<ellipse id="Oval_3" cx="164.406" cy="263.879" rx="7.52359" ry="1.17685" transform="rotate(120 164.406 263.879)" stroke="white" stroke-width="4" stroke-linecap="round"/>
</g>
<g id="Group 45 Copy 8">
<ellipse id="Oval_4" cx="256.24" cy="247.91" rx="11.7952" ry="2.24401" transform="rotate(-112 256.24 247.91)" stroke="white" stroke-width="4" stroke-linecap="round"/>
<ellipse id="Oval_5" cx="246.501" cy="246.973" rx="12.5695" ry="2.91441" transform="rotate(-116 246.501 246.973)" stroke="white" stroke-width="4" stroke-linecap="round"/>
<ellipse id="Oval_6" cx="241.053" cy="251.553" rx="7.52359" ry="1.17685" transform="rotate(-120 241.053 251.553)" stroke="white" stroke-width="4" stroke-linecap="round"/>
</g>
<g id="Group 45 Copy 9">
<ellipse id="Oval_7" cx="207.474" cy="336.65" rx="11.7952" ry="2.24401" transform="rotate(8 207.474 336.65)" stroke="white" stroke-width="4" stroke-linecap="round"/>
<ellipse id="Oval_8" cx="213.154" cy="328.684" rx="12.5695" ry="2.91441" transform="rotate(4 213.154 328.684)" stroke="white" stroke-width="4" stroke-linecap="round"/>
<ellipse id="Oval_9" cx="211.911" cy="321.676" rx="7.52359" ry="1.17685" stroke="white" stroke-width="4" stroke-linecap="round"/>
</g>
</g>
</g>
<defs>
<linearGradient id="paint0_linear_1_9597" x1="42.1831" y1="231.062" x2="44.3254" y2="223.216" gradientUnits="userSpaceOnUse">
<stop stop-color="#44484D" stop-opacity="0.01"/>
<stop offset="1" stop-color="#44484D"/>
</linearGradient>
<linearGradient id="paint1_linear_1_9597" x1="351.656" y1="176.427" x2="364.643" y2="183.925" gradientUnits="userSpaceOnUse">
<stop stop-color="#44484D" stop-opacity="0.01"/>
<stop offset="1" stop-color="#44484D"/>
</linearGradient>
<linearGradient id="paint2_linear_1_9597" x1="198.166" y1="213.033" x2="344.83" y2="131.714" gradientUnits="userSpaceOnUse">
<stop stop-color="#FA5B35"/>
<stop offset="0.504253" stop-color="#FA5B35"/>
<stop offset="1" stop-color="#FC9D86"/>
</linearGradient>
<linearGradient id="paint3_linear_1_9597" x1="244.698" y1="41.6971" x2="229.238" y2="46.2603" gradientUnits="userSpaceOnUse">
<stop stop-color="#44484D" stop-opacity="0.01"/>
<stop offset="1" stop-color="#44484D"/>
</linearGradient>
<linearGradient id="paint4_linear_1_9597" x1="67.9062" y1="256.065" x2="71.8444" y2="238.519" gradientUnits="userSpaceOnUse">
<stop stop-color="#44484D" stop-opacity="0.01"/>
<stop offset="1" stop-color="#44484D"/>
</linearGradient>
<linearGradient id="paint5_linear_1_9597" x1="175.345" y1="211.377" x2="175.345" y2="173.773" gradientUnits="userSpaceOnUse">
<stop stop-color="#44484D" stop-opacity="0.01"/>
<stop offset="1" stop-color="#44484D"/>
</linearGradient>
<linearGradient id="paint6_linear_1_9597" x1="178.438" y1="258.141" x2="139.72" y2="307.575" gradientUnits="userSpaceOnUse">
<stop stop-color="#44484D" stop-opacity="0.01"/>
<stop offset="1" stop-color="#44484D"/>
</linearGradient>
<linearGradient id="paint7_linear_1_9597" x1="239.655" y1="314" x2="312.655" y2="241" gradientUnits="userSpaceOnUse">
<stop stop-color="#44484D" stop-opacity="0.01"/>
<stop offset="0.685766" stop-color="#73767A"/>
<stop offset="1" stop-color="#73767A"/>
</linearGradient>
</defs>
</svg>
