<svg width="375" height="444" viewBox="0 0 375 444" fill="none" xmlns="http://www.w3.org/2000/svg">
<g id="YuhPerson_DP_4c">
<g id="boot">
<path id="Rectangle Copy 4" fill-rule="evenodd" clip-rule="evenodd" d="M61 417.566C61 423.917 55.8513 429.066 49.5 429.066H0C0 421.15 6.41725 414.733 14.3333 414.733H27.6049C28.9966 414.733 30.226 413.826 30.6375 412.497L36.3112 394.166C37.8018 389.35 42.2555 386.066 47.297 386.066H49.5C55.8513 386.066 61 391.215 61 397.566V417.566Z" fill="#8E7B98"/>
<g id="Path 20">
<path id="Mask" fill-rule="evenodd" clip-rule="evenodd" d="M2.43853 421.066C0.898775 423.351 0 426.103 0 429.066H49.5C54.6309 429.066 58.9769 425.706 60.4577 421.066H2.43853Z" fill="#151A21"/>
<mask id="mask0_1_11105" style="mask-type:luminance" maskUnits="userSpaceOnUse" x="0" y="421" width="61" height="9">
<path id="Mask_2" fill-rule="evenodd" clip-rule="evenodd" d="M2.43853 421.066C0.898775 423.351 0 426.103 0 429.066H49.5C54.6309 429.066 58.9769 425.706 60.4577 421.066H2.43853Z" fill="white"/>
</mask>
<g mask="url(#mask0_1_11105)">
</g>
</g>
<path id="Rectangle" d="M44 392.566C44 390.081 46.0147 388.066 48.5 388.066H55.1388C55.6144 388.066 56 388.452 56 388.927V396.066C56 402.693 50.6274 408.066 44 408.066V392.566Z" fill="#574365"/>
</g>
<g id="Path 2">
<path d="M171 315.066C171 315.066 59 275.066 59 372.066" stroke="#FA5B35" stroke-width="60" stroke-linecap="round"/>
<path d="M171 315.066C171 315.066 59 275.066 59 372.066" stroke="url(#paint0_linear_1_11105)" stroke-width="60" stroke-linecap="round"/>
</g>
<g id="body">
<g id="Rectangle Copy">
<path fill-rule="evenodd" clip-rule="evenodd" d="M218.809 57.3813C224.31 60.557 231.343 58.6724 234.519 53.1721L242.769 38.8826L256.269 15.5C251.964 13.0147 246.46 14.4895 243.974 18.7942L234.974 34.3826C233.539 33.5542 233.048 31.7194 233.876 30.2846L245.876 9.49995C241.572 7.01467 236.067 8.48955 233.582 12.7942L225.289 27.1579C224.842 27.932 224.068 28.461 223.184 28.5956L217.386 29.4786C213.932 30.0046 210.905 32.0721 209.158 35.0975L207.672 37.6721C204.496 43.1724 206.381 50.2057 211.881 53.3813L218.809 57.3813Z" fill="#FA5B35"/>
<path fill-rule="evenodd" clip-rule="evenodd" d="M218.809 57.3813C224.31 60.557 231.343 58.6724 234.519 53.1721L242.769 38.8826L256.269 15.5C251.964 13.0147 246.46 14.4895 243.974 18.7942L234.974 34.3826C233.539 33.5542 233.048 31.7194 233.876 30.2846L245.876 9.49995C241.572 7.01467 236.067 8.48955 233.582 12.7942L225.289 27.1579C224.842 27.932 224.068 28.461 223.184 28.5956L217.386 29.4786C213.932 30.0046 210.905 32.0721 209.158 35.0975L207.672 37.6721C204.496 43.1724 206.381 50.2057 211.881 53.3813L218.809 57.3813Z" fill="url(#paint1_linear_1_11105)"/>
</g>
<g id="Rectangle Copy 96">
<path fill-rule="evenodd" clip-rule="evenodd" d="M310.754 112.933C316.254 116.109 323.287 114.224 326.463 108.724L334.713 94.4344L348.213 71.0517C343.908 68.5664 338.404 70.0413 335.919 74.3459L326.919 89.9344C325.484 89.106 324.992 87.2712 325.821 85.8363L337.821 65.0517C333.516 62.5664 328.012 64.0413 325.526 68.3459L317.233 82.7097C316.787 83.4838 316.012 84.0127 315.128 84.1473L309.33 85.0304C305.877 85.5564 302.849 87.6238 301.103 90.6493L299.616 93.2238C296.44 98.7242 298.325 105.757 303.825 108.933L310.754 112.933Z" fill="#FA5B35"/>
<path fill-rule="evenodd" clip-rule="evenodd" d="M310.754 112.933C316.254 116.109 323.287 114.224 326.463 108.724L334.713 94.4344L348.213 71.0517C343.908 68.5664 338.404 70.0413 335.919 74.3459L326.919 89.9344C325.484 89.106 324.992 87.2712 325.821 85.8363L337.821 65.0517C333.516 62.5664 328.012 64.0413 325.526 68.3459L317.233 82.7097C316.787 83.4838 316.012 84.0127 315.128 84.1473L309.33 85.0304C305.877 85.5564 302.849 87.6238 301.103 90.6493L299.616 93.2238C296.44 98.7242 298.325 105.757 303.825 108.933L310.754 112.933Z" fill="url(#paint2_linear_1_11105)"/>
</g>
<g id="Fill 1 Copy 8">
<path fill-rule="evenodd" clip-rule="evenodd" d="M234.142 61.3374C236.132 68.7463 235.012 76.1017 230.794 83.4074L193.588 147.85C190.092 153.907 189.248 160.306 191.057 167.056C192.864 173.809 196.796 178.928 202.851 182.424C208.905 185.919 215.307 186.766 222.057 184.954C228.805 183.144 233.927 179.215 237.424 173.159L274.63 108.716C278.848 101.41 284.66 96.7641 292.071 94.7827C299.475 92.7952 306.835 93.9104 314.141 98.1285C321.447 102.347 326.092 108.162 328.076 115.57C330.064 122.978 328.948 130.331 324.732 137.632L287.451 202.206C275.944 222.136 261.665 263.802 261.651 328.261C261.651 328.261 193.144 306.671 152.657 297C130.657 292 104.657 299 104.657 299C104.685 163.985 131.913 138.98 143.42 119.049L180.701 54.4757C184.916 47.1746 190.726 42.5315 198.137 40.5501C205.541 38.5626 212.902 39.6778 220.208 43.8959C227.514 48.114 232.16 53.9307 234.142 61.3374Z" fill="#FA5528"/>
<path fill-rule="evenodd" clip-rule="evenodd" d="M234.142 61.3374C236.132 68.7463 235.012 76.1017 230.794 83.4074L193.588 147.85C190.092 153.907 189.248 160.306 191.057 167.056C192.864 173.809 196.796 178.928 202.851 182.424C208.905 185.919 215.307 186.766 222.057 184.954C228.805 183.144 233.927 179.215 237.424 173.159L274.63 108.716C278.848 101.41 284.66 96.7641 292.071 94.7827C299.475 92.7952 306.835 93.9104 314.141 98.1285C321.447 102.347 326.092 108.162 328.076 115.57C330.064 122.978 328.948 130.331 324.732 137.632L287.451 202.206C275.944 222.136 261.665 263.802 261.651 328.261C261.651 328.261 193.144 306.671 152.657 297C130.657 292 104.657 299 104.657 299C104.685 163.985 131.913 138.98 143.42 119.049L180.701 54.4757C184.916 47.1746 190.726 42.5315 198.137 40.5501C205.541 38.5626 212.902 39.6778 220.208 43.8959C227.514 48.114 232.16 53.9307 234.142 61.3374Z" fill="url(#paint3_linear_1_11105)"/>
</g>
</g>
<g id="boot_2">
<path id="Rectangle Copy 4_2" fill-rule="evenodd" clip-rule="evenodd" d="M86 431.566C86 437.917 80.8513 443.066 74.5 443.066H25C25 435.15 31.4173 428.733 39.3333 428.733H52.6049C53.9966 428.733 55.226 427.826 55.6375 426.497L61.3112 408.166C62.8018 403.35 67.2555 400.066 72.297 400.066H74.5C80.8513 400.066 86 405.215 86 411.566L86 431.566Z" fill="#CCB1DA"/>
<g id="Path 20_2">
<path id="Mask_3" fill-rule="evenodd" clip-rule="evenodd" d="M27.4385 435.066C25.8988 437.351 25 440.103 25 443.066H74.5C79.6309 443.066 83.9769 439.706 85.4577 435.066H27.4385Z" fill="#151A21"/>
<mask id="mask1_1_11105" style="mask-type:luminance" maskUnits="userSpaceOnUse" x="25" y="435" width="61" height="9">
<path id="Mask_4" fill-rule="evenodd" clip-rule="evenodd" d="M27.4385 435.066C25.8988 437.351 25 440.103 25 443.066H74.5C79.6309 443.066 83.9769 439.706 85.4577 435.066H27.4385Z" fill="white"/>
</mask>
<g mask="url(#mask1_1_11105)">
</g>
</g>
<path id="Rectangle_2" d="M69 406.566C69 404.081 71.0147 402.066 73.5 402.066H80.1388C80.6144 402.066 81 402.452 81 402.927V410.066C81 416.693 75.6274 422.066 69 422.066V406.566Z" fill="#8E7B98"/>
</g>
<g id="Path 2_2">
<path d="M185 329.066C185 329.066 73 289.066 73 386.066" stroke="#FA5B35" stroke-width="60" stroke-linecap="round"/>
<path d="M185 329.066C185 329.066 73 289.066 73 386.066" stroke="url(#paint4_linear_1_11105)" stroke-width="60" stroke-linecap="round"/>
</g>
<g id="wheels">
<g id="Oval Copy 114">
<circle cx="198.656" cy="370" r="53" fill="#CCB1DA"/>
<circle cx="198.656" cy="370" r="53" fill="url(#paint5_linear_1_11105)"/>
<circle cx="198.656" cy="370" r="53" stroke="#151A21" stroke-width="40"/>
<circle cx="198.656" cy="370" r="53" stroke="url(#paint6_linear_1_11105)" stroke-width="40"/>
</g>
<g id="Group 45 Copy 7">
<ellipse id="Oval" cx="149.314" cy="345.049" rx="11.7952" ry="2.24401" transform="rotate(128 149.314 345.049)" stroke="white" stroke-width="4" stroke-linecap="round"/>
<ellipse id="Oval_2" cx="153.372" cy="353.952" rx="12.5695" ry="2.91441" transform="rotate(124 153.372 353.952)" stroke="white" stroke-width="4" stroke-linecap="round"/>
<ellipse id="Oval_3" cx="160.062" cy="356.379" rx="7.52359" ry="1.17685" transform="rotate(120 160.062 356.379)" stroke="white" stroke-width="4" stroke-linecap="round"/>
</g>
<g id="Group 45 Copy 8">
<ellipse id="Oval_4" cx="251.896" cy="340.41" rx="11.7952" ry="2.24401" transform="rotate(-112 251.896 340.41)" stroke="white" stroke-width="4" stroke-linecap="round"/>
<ellipse id="Oval_5" cx="242.157" cy="339.473" rx="12.5695" ry="2.91441" transform="rotate(-116 242.157 339.473)" stroke="white" stroke-width="4" stroke-linecap="round"/>
<ellipse id="Oval_6" cx="236.71" cy="344.053" rx="7.52359" ry="1.17685" transform="rotate(-120 236.71 344.053)" stroke="white" stroke-width="4" stroke-linecap="round"/>
</g>
<g id="Group 45 Copy 9">
<ellipse id="Oval_7" cx="203.13" cy="429.15" rx="11.7952" ry="2.24401" transform="rotate(8 203.13 429.15)" stroke="white" stroke-width="4" stroke-linecap="round"/>
<ellipse id="Oval_8" cx="208.81" cy="421.184" rx="12.5695" ry="2.91441" transform="rotate(4 208.81 421.184)" stroke="white" stroke-width="4" stroke-linecap="round"/>
<ellipse id="Oval_9" cx="207.568" cy="414.176" rx="7.52359" ry="1.17685" stroke="white" stroke-width="4" stroke-linecap="round"/>
</g>
</g>
<g id="head">
<path id="Rectangle Copy 112" fill-rule="evenodd" clip-rule="evenodd" d="M180.738 155.739C189.989 139.716 210.477 134.226 226.5 143.477C242.523 152.728 248.013 173.216 238.762 189.239L237.512 191.404L179.488 157.904L180.738 155.739Z" fill="#151A21"/>
<ellipse id="Oval Copy 124" cx="212.567" cy="166.61" rx="18" ry="9" transform="rotate(30 212.567 166.61)" fill="#FA5B35"/>
<g id="Oval Copy 128">
<ellipse cx="221.567" cy="151.021" rx="18" ry="9" transform="rotate(30 221.567 151.021)" fill="#151A21"/>
<ellipse cx="221.567" cy="151.021" rx="18" ry="9" transform="rotate(30 221.567 151.021)" fill="url(#paint7_linear_1_11105)"/>
</g>
</g>
</g>
<defs>
<linearGradient id="paint0_linear_1_11105" x1="188.335" y1="313.481" x2="156.773" y2="239.154" gradientUnits="userSpaceOnUse">
<stop stop-color="#FA5B35"/>
<stop offset="0.504253" stop-color="#FA5B35"/>
<stop offset="1" stop-color="#FC9D86"/>
</linearGradient>
<linearGradient id="paint1_linear_1_11105" x1="222.218" y1="24.9187" x2="229.686" y2="44.1496" gradientUnits="userSpaceOnUse">
<stop stop-color="#AE3B1B" stop-opacity="0.01"/>
<stop offset="1" stop-color="#AE3B1B"/>
</linearGradient>
<linearGradient id="paint2_linear_1_11105" x1="314.163" y1="80.4705" x2="321.631" y2="99.7013" gradientUnits="userSpaceOnUse">
<stop stop-color="#AE3B1B" stop-opacity="0.01"/>
<stop offset="1" stop-color="#AE3B1B"/>
</linearGradient>
<linearGradient id="paint3_linear_1_11105" x1="17.0808" y1="96.9333" x2="400.94" y2="98.0368" gradientUnits="userSpaceOnUse">
<stop stop-color="#9ADBED"/>
<stop offset="0.511824" stop-color="#EBDDF5"/>
<stop offset="1" stop-color="#ECBACB"/>
</linearGradient>
<linearGradient id="paint4_linear_1_11105" x1="202.335" y1="327.481" x2="170.773" y2="253.154" gradientUnits="userSpaceOnUse">
<stop stop-color="#FA5B35"/>
<stop offset="0.504253" stop-color="#FA5B35"/>
<stop offset="1" stop-color="#FC9D86"/>
</linearGradient>
<linearGradient id="paint5_linear_1_11105" x1="208.799" y1="381.07" x2="230.94" y2="360.784" gradientUnits="userSpaceOnUse">
<stop stop-color="#D6C1E1" stop-opacity="0.01"/>
<stop offset="1" stop-color="#D6C1E1"/>
</linearGradient>
<linearGradient id="paint6_linear_1_11105" x1="235.156" y1="406.5" x2="308.156" y2="333.5" gradientUnits="userSpaceOnUse">
<stop stop-color="#44484D" stop-opacity="0.01"/>
<stop offset="0.685766" stop-color="#73767A"/>
<stop offset="1" stop-color="#73767A"/>
</linearGradient>
<linearGradient id="paint7_linear_1_11105" x1="246.422" y1="170.489" x2="252.094" y2="140.248" gradientUnits="userSpaceOnUse">
<stop stop-color="#44484D" stop-opacity="0.01"/>
<stop offset="1" stop-color="#44484D"/>
</linearGradient>
</defs>
</svg>
