<svg width="447" height="402" viewBox="0 0 447 402" fill="none" xmlns="http://www.w3.org/2000/svg">
<g id="YuhPerson_DP_3b">
<g id="Mask">
<ellipse cx="179.39" cy="80.5748" rx="81.3896" ry="80.5748" fill="url(#paint0_linear_1_8986)"/>
<ellipse cx="179.39" cy="80.5748" rx="81.3896" ry="80.5748" fill="url(#paint1_linear_1_8986)"/>
</g>
<g id="Combined Shape">
<path d="M182.563 95.9541C184.112 98.6122 185 101.702 185 105C185 114.941 176.941 123 167 123C157.059 123 149 114.941 149 105C149 101.702 149.887 98.6121 151.436 95.9541C154.717 97.1373 160.859 99 167 99C173.141 99 179.282 97.1373 182.563 95.9541Z" fill="#151A21"/>
<path d="M182.563 95.9541C184.112 98.6122 185 101.702 185 105C185 114.941 176.941 123 167 123C157.059 123 149 114.941 149 105C149 101.702 149.887 98.6121 151.436 95.9541C154.717 97.1373 160.859 99 167 99C173.141 99 179.282 97.1373 182.563 95.9541Z" fill="url(#paint2_linear_1_8986)"/>
</g>
<g id="Group 19">
<path id="Rectangle Copy 4" fill-rule="evenodd" clip-rule="evenodd" d="M135 390.5C135 396.851 129.851 402 123.5 402H74C74 394.084 80.4173 387.667 88.3333 387.667H101.605C102.997 387.667 104.226 386.76 104.638 385.431L110.311 367.1C111.802 362.284 116.256 359 121.297 359H123.5C129.851 359 135 364.149 135 370.5V390.5Z" fill="#78C6E7"/>
<g id="Path 20">
<path id="Mask_2" fill-rule="evenodd" clip-rule="evenodd" d="M76.4385 394C74.8988 396.285 74 399.037 74 402H123.5C128.631 402 132.977 398.64 134.458 394H76.4385Z" fill="#151A21"/>
<mask id="mask0_1_8986" style="mask-type:luminance" maskUnits="userSpaceOnUse" x="74" y="394" width="61" height="8">
<path id="Mask_3" fill-rule="evenodd" clip-rule="evenodd" d="M76.4385 394C74.8988 396.285 74 399.037 74 402H123.5C128.631 402 132.977 398.64 134.458 394H76.4385Z" fill="white"/>
</mask>
<g mask="url(#mask0_1_8986)">
</g>
</g>
<path id="Rectangle" d="M118 365.5C118 363.015 120.015 361 122.5 361H129.139C129.614 361 130 361.386 130 361.861V369C130 375.627 124.627 381 118 381V365.5Z" fill="#548BA3"/>
</g>
<g id="Group 19 Copy">
<path id="Rectangle Copy 4_2" fill-rule="evenodd" clip-rule="evenodd" d="M405.916 255.829C411.416 252.653 418.449 254.538 421.625 260.038L446.375 302.906C439.519 306.864 430.753 304.515 426.795 297.66L420.16 286.166C419.464 284.961 418.064 284.35 416.707 284.658L397.995 288.91C393.079 290.027 388.008 287.812 385.487 283.446L384.386 281.538C381.21 276.038 383.095 269.004 388.595 265.829L405.916 255.829Z" fill="#78C6E7"/>
<g id="Path 20_2">
<path id="Mask_4" fill-rule="evenodd" clip-rule="evenodd" d="M438.228 304.794C440.977 304.985 443.81 304.388 446.375 302.906L421.625 260.038C419.06 255.595 413.977 253.511 409.218 254.548L438.228 304.794Z" fill="#151A21"/>
<mask id="mask1_1_8986" style="mask-type:luminance" maskUnits="userSpaceOnUse" x="409" y="254" width="38" height="51">
<path id="Mask_5" fill-rule="evenodd" clip-rule="evenodd" d="M438.228 304.794C440.977 304.985 443.81 304.388 446.375 302.906L421.625 260.038C419.06 255.595 413.977 253.511 409.218 254.548L438.228 304.794Z" fill="white"/>
</mask>
<g mask="url(#mask1_1_8986)">
</g>
</g>
<path id="Rectangle_2" d="M392.765 283.051C390.613 284.293 387.861 283.556 386.618 281.404L383.299 275.654C383.061 275.242 383.202 274.716 383.614 274.478L389.796 270.908C395.536 267.595 402.875 269.561 406.189 275.301L392.765 283.051Z" fill="#548BA3"/>
</g>
<g id="Rectangle_3">
<path fill-rule="evenodd" clip-rule="evenodd" d="M315 142.5C315 136.149 320.149 131 326.5 131H370C370 138.18 364.18 144 357 144H344.414C343.52 144 342.675 144.406 342.117 145.104L338.453 149.684C336.27 152.412 332.966 154 329.473 154H326.5C320.149 154 315 148.851 315 142.5Z" fill="#151A21"/>
<path fill-rule="evenodd" clip-rule="evenodd" d="M315 142.5C315 136.149 320.149 131 326.5 131H370C370 138.18 364.18 144 357 144H344.414C343.52 144 342.675 144.406 342.117 145.104L338.453 149.684C336.27 152.412 332.966 154 329.473 154H326.5C320.149 154 315 148.851 315 142.5Z" fill="url(#paint3_linear_1_8986)"/>
</g>
<path id="Rectangle_4" fill-rule="evenodd" clip-rule="evenodd" d="M55 142.5C55 136.149 49.8513 131 43.5 131H0C0 138.18 5.8203 144 13 144H25.5858C26.4797 144 27.325 144.406 27.8834 145.104L31.5472 149.684C33.7296 152.412 37.0337 154 40.5272 154H43.5C49.8513 154 55 148.851 55 142.5Z" fill="#151A21"/>
<g id="Combined Shape_2">
<g id="Mask_6">
<path d="M331 131C331 156.405 310.405 177 285 177H244.114L284 259L194.353 271.543L148.164 177H85C59.5949 177 39 156.405 39 131H331Z" fill="url(#paint4_linear_1_8986)"/>
<path d="M331 131C331 156.405 310.405 177 285 177H244.114L284 259L194.353 271.543L148.164 177H85C59.5949 177 39 156.405 39 131H331Z" fill="url(#paint5_linear_1_8986)"/>
</g>
<mask id="mask2_1_8986" style="mask-type:luminance" maskUnits="userSpaceOnUse" x="39" y="131" width="292" height="141">
<g id="Mask_7">
<path d="M331 131C331 156.405 310.405 177 285 177H244.114L284 259L194.353 271.543L148.164 177H85C59.5949 177 39 156.405 39 131H331Z" fill="white"/>
</g>
</mask>
<g mask="url(#mask2_1_8986)">
<path id="Combined Shape_3" fill-rule="evenodd" clip-rule="evenodd" d="M272.079 211.316C278.647 206.208 284.829 206.207 290.06 211.439C290.646 212.025 290.646 212.975 290.06 213.56C289.475 214.146 288.525 214.146 287.939 213.56C283.911 209.532 279.513 209.461 274.211 213.462L273.921 213.684C267.558 218.633 261.558 218.788 256.432 214.036L255.939 213.56C251.911 209.532 247.513 209.461 242.211 213.462L241.921 213.684C235.353 218.793 229.171 218.792 223.939 213.56C223.354 212.975 223.354 212.025 223.939 211.439C224.525 210.854 225.475 210.854 226.06 211.439C230.089 215.467 234.487 215.539 239.789 211.538L240.079 211.316C246.647 206.208 252.829 206.207 258.06 211.439C262.089 215.467 266.487 215.539 271.789 211.538L272.079 211.316ZM250.079 181.316C256.647 176.208 262.829 176.207 268.06 181.439C268.646 182.025 268.646 182.975 268.06 183.56C267.475 184.146 266.525 184.146 265.939 183.56C261.911 179.532 257.513 179.461 252.211 183.462L251.921 183.684C245.558 188.633 239.558 188.788 234.432 184.036L233.939 183.56C229.911 179.532 225.513 179.461 220.211 183.462L219.921 183.684C213.558 188.633 207.558 188.788 202.432 184.036L201.939 183.56C197.911 179.532 193.513 179.461 188.211 183.462L187.921 183.684C181.353 188.793 175.171 188.792 169.939 183.56C169.354 182.975 169.354 182.025 169.939 181.439C170.525 180.854 171.475 180.854 172.06 181.439C176.089 185.467 180.487 185.539 185.789 181.538L186.079 181.316C192.647 176.208 198.829 176.207 204.06 181.439C208.089 185.467 212.487 185.539 217.789 181.538L218.079 181.316C224.647 176.208 230.829 176.207 236.06 181.439C240.089 185.467 244.487 185.539 249.789 181.538L250.079 181.316ZM294.079 151.316C300.647 146.208 306.829 146.207 312.06 151.439C312.646 152.025 312.646 152.975 312.06 153.56C311.475 154.146 310.525 154.146 309.939 153.56C305.911 149.532 301.513 149.461 296.211 153.462L295.921 153.684C289.558 158.633 283.558 158.788 278.432 154.036L277.939 153.56C273.911 149.532 269.513 149.461 264.211 153.462L263.921 153.684C257.558 158.633 251.558 158.788 246.432 154.036L245.939 153.56C241.911 149.532 237.513 149.461 232.211 153.462L231.921 153.684C225.558 158.633 219.558 158.788 214.432 154.036L213.939 153.56C209.911 149.532 205.513 149.461 200.211 153.462L199.921 153.684C193.558 158.633 187.558 158.788 182.432 154.036L181.939 153.56C177.911 149.532 173.513 149.461 168.211 153.462L167.921 153.684C161.558 158.633 155.558 158.788 150.432 154.036L149.939 153.56C145.911 149.532 141.513 149.461 136.211 153.462L135.921 153.684C129.558 158.633 123.558 158.788 118.432 154.036L117.939 153.56C113.911 149.532 109.513 149.461 104.211 153.462L103.921 153.684C97.558 158.633 91.5578 158.788 86.4325 154.036L85.9393 153.56C81.9111 149.532 77.5126 149.461 72.2108 153.462L71.9208 153.684C65.3527 158.793 59.1711 158.792 53.9393 153.56C53.3536 152.975 53.3535 152.025 53.9393 151.439C54.5251 150.854 55.4746 150.854 56.0604 151.439C60.0886 155.467 64.487 155.539 69.7889 151.538L70.079 151.316C76.647 146.208 82.8285 146.207 88.0604 151.439C92.0886 155.467 96.487 155.539 101.789 151.538L102.079 151.316C108.647 146.208 114.829 146.207 120.06 151.439C124.089 155.467 128.487 155.539 133.789 151.538L134.079 151.316C140.647 146.208 146.829 146.207 152.06 151.439C156.089 155.467 160.487 155.539 165.789 151.538L166.079 151.316C172.647 146.208 178.829 146.207 184.06 151.439C188.089 155.467 192.487 155.539 197.789 151.538L198.079 151.316C204.647 146.208 210.829 146.207 216.06 151.439C220.089 155.467 224.487 155.539 229.789 151.538L230.079 151.316C236.647 146.208 242.829 146.207 248.06 151.439C252.089 155.467 256.487 155.539 261.789 151.538L262.079 151.316C268.647 146.208 274.829 146.207 280.06 151.439C284.089 155.467 288.487 155.539 293.789 151.538L294.079 151.316Z" fill="white"/>
<path id="Mask_8" fill-rule="evenodd" clip-rule="evenodd" d="M173.269 211.857C182.454 209.966 205 209 231 227C256.988 244.991 283.975 243.002 284 243L284.682 243.876C291.849 252.879 302.696 260.166 309.846 261.894C320.041 264.358 333.764 261.342 351.584 251.054C365.933 242.769 384.28 247.685 392.564 262.034C400.849 276.383 395.932 294.73 381.584 303.014C320.949 338.022 266.444 325.935 231.534 269H203C184.281 269 172.404 273.159 165.48 280.432C158.249 288.03 154 301.423 154 322C154 338.568 140.568 352 124 352C107.432 352 94.0001 338.568 94 322C94 261.351 122.303 222.353 173.269 211.857Z" fill="url(#paint6_linear_1_8986)"/>
</g>
</g>
<g id="Path 19">
<path id="Mask_9" fill-rule="evenodd" clip-rule="evenodd" d="M173.269 227.857C182.454 225.966 205 225 231 243C256.988 260.991 283.975 259.002 284 259L284.682 259.876C291.849 268.879 302.696 276.166 309.846 277.894C320.041 280.358 333.764 277.342 351.584 267.054C365.933 258.769 384.28 263.685 392.564 278.034C400.849 292.383 395.932 310.73 381.584 319.014C320.949 354.022 266.444 341.935 231.534 285H203C184.281 285 172.404 289.159 165.48 296.432C158.249 304.03 154 317.423 154 338C154 354.568 140.568 368 124 368C107.432 368 94.0001 354.568 94 338C94 277.351 122.303 238.353 173.269 227.857Z" fill="url(#paint7_linear_1_8986)"/>
<mask id="mask3_1_8986" style="mask-type:luminance" maskUnits="userSpaceOnUse" x="94" y="226" width="303" height="142">
<path id="Mask_10" fill-rule="evenodd" clip-rule="evenodd" d="M173.269 227.857C182.454 225.966 205 225 231 243C256.988 260.991 283.975 259.002 284 259L284.682 259.876C291.849 268.879 302.696 276.166 309.846 277.894C320.041 280.358 333.764 277.342 351.584 267.054C365.933 258.769 384.28 263.685 392.564 278.034C400.849 292.383 395.932 310.73 381.584 319.014C320.949 354.022 266.444 341.935 231.534 285H203C184.281 285 172.404 289.159 165.48 296.432C158.249 304.03 154 317.423 154 338C154 354.568 140.568 368 124 368C107.432 368 94.0001 354.568 94 338C94 277.351 122.303 238.353 173.269 227.857Z" fill="white"/>
</mask>
<g mask="url(#mask3_1_8986)">
<path id="Path 19_2" d="M224 287H245" stroke="#AE3B1B" stroke-width="4" stroke-linecap="round"/>
</g>
</g>
</g>
<defs>
<linearGradient id="paint0_linear_1_8986" x1="206.258" y1="275.396" x2="469.197" y2="58.4557" gradientUnits="userSpaceOnUse">
<stop stop-color="#D3CBEC"/>
<stop offset="0.270082" stop-color="#DFD9F1"/>
<stop offset="1" stop-color="white"/>
</linearGradient>
<linearGradient id="paint1_linear_1_8986" x1="137.807" y1="70.8262" x2="88.198" y2="107.231" gradientUnits="userSpaceOnUse">
<stop stop-color="#9794BA" stop-opacity="0.01"/>
<stop offset="1" stop-color="#9794BA"/>
</linearGradient>
<linearGradient id="paint2_linear_1_8986" x1="159.476" y1="121.998" x2="174.337" y2="112.505" gradientUnits="userSpaceOnUse">
<stop stop-color="#44484D" stop-opacity="0.01"/>
<stop offset="1" stop-color="#44484D"/>
</linearGradient>
<linearGradient id="paint3_linear_1_8986" x1="327.504" y1="145.636" x2="342.5" y2="145.636" gradientUnits="userSpaceOnUse">
<stop stop-color="#44484D" stop-opacity="0.01"/>
<stop offset="1" stop-color="#44484D"/>
</linearGradient>
<linearGradient id="paint4_linear_1_8986" x1="274.915" y1="363.828" x2="390.913" y2="76.9203" gradientUnits="userSpaceOnUse">
<stop stop-color="#93D1EC"/>
<stop offset="0.393872" stop-color="#78C6E7"/>
<stop offset="1" stop-color="white"/>
<stop offset="1" stop-color="#AEDDF1"/>
</linearGradient>
<linearGradient id="paint5_linear_1_8986" x1="212.122" y1="255.219" x2="298.477" y2="111.463" gradientUnits="userSpaceOnUse">
<stop stop-color="#FA5B35"/>
<stop offset="0.504253" stop-color="#FA5B35"/>
<stop offset="1" stop-color="#FC9D86"/>
</linearGradient>
<linearGradient id="paint6_linear_1_8986" x1="185.475" y1="250.875" x2="271.145" y2="219.363" gradientUnits="userSpaceOnUse">
<stop stop-color="#151A21"/>
<stop offset="1" stop-color="#44484D"/>
</linearGradient>
<linearGradient id="paint7_linear_1_8986" x1="245.294" y1="438.559" x2="353.406" y2="206.743" gradientUnits="userSpaceOnUse">
<stop stop-color="#FA5B35"/>
<stop offset="0.504253" stop-color="#FA5B35"/>
<stop offset="1" stop-color="#FC9D86"/>
</linearGradient>
</defs>
</svg>
