<svg width="373" height="471" viewBox="0 0 373 471" fill="none" xmlns="http://www.w3.org/2000/svg">
<g id="YuhPerson_DP_4b">
<g id="Rectangle">
<path fill-rule="evenodd" clip-rule="evenodd" d="M202.27 57.3813C207.771 60.557 214.804 58.6724 217.979 53.1721L226.229 38.8826L239.729 15.5C235.425 13.0147 229.921 14.4895 227.435 18.7942L218.435 34.3826C217 33.5542 216.509 31.7194 217.337 30.2846L229.337 9.49995C225.033 7.01467 219.528 8.48955 217.043 12.7942L208.75 27.1579C208.303 27.932 207.529 28.461 206.645 28.5956L200.847 29.4786C197.393 30.0046 194.366 32.0721 192.619 35.0975L191.133 37.6721C187.957 43.1724 189.842 50.2057 195.342 53.3813L202.27 57.3813Z" fill="#FA5B35"/>
<path fill-rule="evenodd" clip-rule="evenodd" d="M202.27 57.3813C207.771 60.557 214.804 58.6724 217.979 53.1721L226.229 38.8826L239.729 15.5C235.425 13.0147 229.921 14.4895 227.435 18.7942L218.435 34.3826C217 33.5542 216.509 31.7194 217.337 30.2846L229.337 9.49995C225.033 7.01467 219.528 8.48955 217.043 12.7942L208.75 27.1579C208.303 27.932 207.529 28.461 206.645 28.5956L200.847 29.4786C197.393 30.0046 194.366 32.0721 192.619 35.0975L191.133 37.6721C187.957 43.1724 189.842 50.2057 195.342 53.3813L202.27 57.3813Z" fill="url(#paint0_linear_1_9708)"/>
</g>
<g id="Rectangle Copy 95">
<path fill-rule="evenodd" clip-rule="evenodd" d="M294.215 112.933C299.715 116.109 306.748 114.224 309.924 108.724L318.174 94.4344L331.674 71.0517C327.369 68.5664 321.865 70.0413 319.38 74.3459L310.38 89.9344C308.945 89.106 308.453 87.2712 309.282 85.8363L321.282 65.0517C316.977 62.5664 311.473 64.0413 308.987 68.3459L300.694 82.7097C300.247 83.4838 299.473 84.0127 298.589 84.1473L292.791 85.0304C289.338 85.5564 286.31 87.6238 284.563 90.6493L283.077 93.2238C279.901 98.7242 281.786 105.757 287.286 108.933L294.215 112.933Z" fill="#FA5B35"/>
<path fill-rule="evenodd" clip-rule="evenodd" d="M294.215 112.933C299.715 116.109 306.748 114.224 309.924 108.724L318.174 94.4344L331.674 71.0517C327.369 68.5664 321.865 70.0413 319.38 74.3459L310.38 89.9344C308.945 89.106 308.453 87.2712 309.282 85.8363L321.282 65.0517C316.977 62.5664 311.473 64.0413 308.987 68.3459L300.694 82.7097C300.247 83.4838 299.473 84.0127 298.589 84.1473L292.791 85.0304C289.338 85.5564 286.31 87.6238 284.563 90.6493L283.077 93.2238C279.901 98.7242 281.786 105.757 287.286 108.933L294.215 112.933Z" fill="url(#paint1_linear_1_9708)"/>
</g>
<g id="Fill 1 Copy 7">
<path fill-rule="evenodd" clip-rule="evenodd" d="M217.602 61.3374C219.592 68.7463 218.472 76.1017 214.254 83.4074L177.048 147.85C173.551 153.907 172.708 160.306 174.517 167.056C176.324 173.809 180.256 178.928 186.311 182.424C192.365 185.919 198.767 186.766 205.517 184.954C212.265 183.144 217.387 179.215 220.884 173.159L258.09 108.716C262.308 101.41 268.12 96.7641 275.531 94.7827C282.935 92.7952 290.295 93.9104 297.601 98.1285C304.907 102.347 309.552 108.162 311.536 115.57C313.524 122.978 312.408 130.331 308.192 137.632L270.911 202.206C259.404 222.136 245.125 263.802 245.111 328.261L82.2613 328.295C82.2897 193.28 115.373 138.98 126.879 119.049L164.161 54.4757C168.376 47.1746 174.186 42.5315 181.597 40.5501C189.001 38.5626 196.362 39.6778 203.668 43.8959C210.974 48.114 215.62 53.9307 217.602 61.3374Z" fill="#FA5528"/>
<path fill-rule="evenodd" clip-rule="evenodd" d="M217.602 61.3374C219.592 68.7463 218.472 76.1017 214.254 83.4074L177.048 147.85C173.551 153.907 172.708 160.306 174.517 167.056C176.324 173.809 180.256 178.928 186.311 182.424C192.365 185.919 198.767 186.766 205.517 184.954C212.265 183.144 217.387 179.215 220.884 173.159L258.09 108.716C262.308 101.41 268.12 96.7641 275.531 94.7827C282.935 92.7952 290.295 93.9104 297.601 98.1285C304.907 102.347 309.552 108.162 311.536 115.57C313.524 122.978 312.408 130.331 308.192 137.632L270.911 202.206C259.404 222.136 245.125 263.802 245.111 328.261L82.2613 328.295C82.2897 193.28 115.373 138.98 126.879 119.049L164.161 54.4757C168.376 47.1746 174.186 42.5315 181.597 40.5501C189.001 38.5626 196.362 39.6778 203.668 43.8959C210.974 48.114 215.62 53.9307 217.602 61.3374Z" fill="url(#paint2_linear_1_9708)"/>
</g>
<circle id="Oval" cx="200" cy="158.618" r="18" fill="#FA5B35"/>
<g id="Combined Shape">
<g id="Mask">
<path d="M168.583 142.785C169.688 140.872 172.134 140.216 174.047 141.321L185.305 147.821C190 139.69 200.397 136.904 208.528 141.599L211.295 143.196C217.718 146.905 220.552 154.44 218.581 161.259L215.951 159.741C214.756 159.051 213.227 159.46 212.536 160.656C211.846 161.852 212.256 163.381 213.451 164.071L216.482 165.821L214.482 169.285L168.583 142.785Z" fill="#151A21"/>
<path d="M168.583 142.785C169.688 140.872 172.134 140.216 174.047 141.321L185.305 147.821C190 139.69 200.397 136.904 208.528 141.599L211.295 143.196C217.718 146.905 220.552 154.44 218.581 161.259L215.951 159.741C214.756 159.051 213.227 159.46 212.536 160.656C211.846 161.852 212.256 163.381 213.451 164.071L216.482 165.821L214.482 169.285L168.583 142.785Z" fill="url(#paint3_linear_1_9708)"/>
</g>
<mask id="mask0_1_9708" style="mask-type:luminance" maskUnits="userSpaceOnUse" x="168" y="139" width="52" height="31">
<g id="Mask_2">
<path d="M168.583 142.785C169.688 140.872 172.134 140.216 174.047 141.321L185.305 147.821C190 139.69 200.397 136.904 208.528 141.599L211.295 143.196C217.718 146.905 220.552 154.44 218.581 161.259L215.951 159.741C214.756 159.051 213.227 159.46 212.536 160.656C211.846 161.852 212.256 163.381 213.451 164.071L216.482 165.821L214.482 169.285L168.583 142.785Z" fill="white"/>
</g>
</mask>
<g mask="url(#mask0_1_9708)">
<path id="Combined Shape_2" fill-rule="evenodd" clip-rule="evenodd" d="M218.78 146.131C218.441 143.652 219.373 142.039 221.52 141.459C221.76 141.394 222.007 141.537 222.071 141.777C222.135 142.018 221.992 142.265 221.752 142.33C220.099 142.777 219.417 143.913 219.658 145.896L219.673 146.006C220 148.408 219.137 149.996 217.131 150.62L216.933 150.677C215.28 151.123 214.599 152.259 214.84 154.242L214.854 154.352C215.182 156.753 214.318 158.341 212.312 158.965L212.115 159.023C210.462 159.469 209.78 160.605 210.021 162.588L210.036 162.697C210.374 165.177 209.443 166.789 207.296 167.369C207.056 167.434 206.808 167.291 206.744 167.051C206.68 166.81 206.824 166.562 207.064 166.497C208.717 166.05 209.398 164.915 209.157 162.932L209.143 162.822C208.805 160.343 209.736 158.731 211.883 158.151C213.536 157.705 214.217 156.568 213.976 154.585L213.961 154.476C213.623 151.997 214.554 150.385 216.701 149.805C218.354 149.359 219.036 148.223 218.794 146.24L218.78 146.131ZM211.851 142.131C211.513 139.652 212.444 138.039 214.592 137.459C214.832 137.394 215.079 137.537 215.143 137.777C215.207 138.018 215.064 138.265 214.824 138.33C213.171 138.777 212.489 139.913 212.73 141.896L212.744 142.006C213.072 144.408 212.209 145.996 210.202 146.62L210.005 146.677C208.352 147.123 207.671 148.259 207.912 150.242L207.926 150.352C208.254 152.753 207.39 154.341 205.384 154.965L205.186 155.023C203.533 155.469 202.852 156.605 203.093 158.588L203.108 158.697C203.446 161.177 202.515 162.789 200.368 163.369C200.127 163.434 199.88 163.291 199.816 163.051C199.752 162.81 199.896 162.562 200.136 162.497C201.789 162.05 202.47 160.915 202.229 158.932L202.215 158.822C201.877 156.343 202.807 154.731 204.954 154.151C206.607 153.705 207.289 152.568 207.048 150.585L207.033 150.476C206.695 147.997 207.626 146.385 209.773 145.805C211.426 145.359 212.107 144.223 211.866 142.24L211.851 142.131ZM204.923 138.131C204.585 135.652 205.516 134.039 207.663 133.459C207.904 133.394 208.151 133.537 208.215 133.777C208.279 134.018 208.136 134.265 207.895 134.33C206.242 134.777 205.561 135.913 205.802 137.896L205.816 138.006C206.144 140.408 205.281 141.996 203.274 142.62L203.077 142.677C201.424 143.123 200.742 144.259 200.983 146.242L200.998 146.352C201.325 148.753 200.462 150.341 198.456 150.965L198.258 151.023C196.605 151.469 195.923 152.605 196.165 154.588L196.18 154.697C196.518 157.177 195.586 158.789 193.439 159.369C193.199 159.434 192.952 159.291 192.888 159.051C192.824 158.81 192.967 158.562 193.208 158.497C194.861 158.05 195.542 156.915 195.301 154.932L195.286 154.822C194.948 152.343 195.879 150.731 198.026 150.151C199.679 149.705 200.361 148.568 200.12 146.585L200.105 146.476C199.767 143.997 200.698 142.385 202.844 141.805C204.498 141.359 205.179 140.223 204.938 138.24L204.923 138.131ZM197.995 134.131C197.657 131.652 198.588 130.039 200.735 129.459C200.975 129.394 201.223 129.537 201.287 129.777C201.35 130.018 201.207 130.265 200.967 130.33C199.314 130.777 198.633 131.913 198.874 133.896L198.888 134.006C199.215 136.408 198.352 137.996 196.346 138.62L196.148 138.677C194.495 139.123 193.814 140.259 194.055 142.242L194.07 142.352C194.397 144.753 193.534 146.341 191.528 146.965L191.33 147.023C189.677 147.469 188.995 148.605 189.236 150.588L189.251 150.697C189.59 153.177 188.658 154.789 186.511 155.369C186.271 155.434 186.024 155.291 185.96 155.051C185.896 154.81 186.039 154.562 186.28 154.497C187.932 154.05 188.614 152.915 188.373 150.932L188.358 150.822C188.02 148.343 188.951 146.731 191.098 146.151C192.751 145.705 193.433 144.568 193.192 142.585L193.177 142.476C192.838 139.997 193.769 138.385 195.916 137.805C197.569 137.359 198.251 136.223 198.01 134.24L197.995 134.131Z" fill="white"/>
</g>
</g>
<g id="Group 19">
<path id="Rectangle Copy 4" fill-rule="evenodd" clip-rule="evenodd" d="M61 458.684C61 465.035 55.8513 470.184 49.5 470.184H0C0 462.268 6.41725 455.85 14.3333 455.85H27.6049C28.9966 455.85 30.226 454.944 30.6375 453.614L36.3112 435.283C37.8018 430.467 42.2555 427.184 47.297 427.184H49.5C55.8513 427.184 61 432.332 61 438.684V458.684Z" fill="#78C6E7"/>
<g id="Path 20">
<path id="Mask_3" fill-rule="evenodd" clip-rule="evenodd" d="M2.43853 462.184C0.898775 464.468 0 467.221 0 470.184H49.5C54.6309 470.184 58.9769 466.823 60.4577 462.184H2.43853Z" fill="#151A21"/>
<mask id="mask1_1_9708" style="mask-type:luminance" maskUnits="userSpaceOnUse" x="0" y="462" width="61" height="9">
<path id="Mask_4" fill-rule="evenodd" clip-rule="evenodd" d="M2.43853 462.184C0.898775 464.468 0 467.221 0 470.184H49.5C54.6309 470.184 58.9769 466.823 60.4577 462.184H2.43853Z" fill="white"/>
</mask>
<g mask="url(#mask1_1_9708)">
</g>
</g>
<path id="Rectangle_2" d="M44 433.684C44 431.198 46.0147 429.184 48.5 429.184H55.1388C55.6144 429.184 56 429.569 56 430.045V437.184C56 443.811 50.6274 449.184 44 449.184V433.684Z" fill="#548BA3"/>
</g>
<g id="Group 19 Copy">
<path id="Rectangle Copy 4_2" fill-rule="evenodd" clip-rule="evenodd" d="M331.916 324.012C337.416 320.837 344.449 322.721 347.625 328.221L372.375 371.09C365.519 375.048 356.753 372.699 352.795 365.843L346.16 354.35C345.464 353.145 344.064 352.533 342.707 352.842L323.995 357.093C319.079 358.211 314.008 355.995 311.487 351.629L310.386 349.721C307.21 344.221 309.095 337.188 314.595 334.012L331.916 324.012Z" fill="#78C6E7"/>
<g id="Path 20_2">
<path id="Mask_5" fill-rule="evenodd" clip-rule="evenodd" d="M364.228 372.978C366.977 373.169 369.81 372.571 372.375 371.09L347.625 328.222C345.06 323.778 339.977 321.694 335.218 322.732L364.228 372.978Z" fill="#151A21"/>
<mask id="mask2_1_9708" style="mask-type:luminance" maskUnits="userSpaceOnUse" x="335" y="322" width="38" height="52">
<path id="Mask_6" fill-rule="evenodd" clip-rule="evenodd" d="M364.228 372.978C366.977 373.169 369.81 372.571 372.375 371.09L347.625 328.222C345.06 323.778 339.977 321.694 335.218 322.732L364.228 372.978Z" fill="white"/>
</mask>
<g mask="url(#mask2_1_9708)">
</g>
</g>
<path id="Rectangle_3" d="M318.765 351.234C316.613 352.477 313.861 351.74 312.618 349.587L309.299 343.838C309.061 343.426 309.202 342.899 309.614 342.661L315.796 339.092C321.536 335.778 328.875 337.745 332.189 343.484L318.765 351.234Z" fill="#548BA3"/>
</g>
<g id="Path 19">
<path id="Mask_7" fill-rule="evenodd" clip-rule="evenodd" d="M99.2686 296.041C108.454 294.149 131 293.183 157 311.183C182.988 329.175 209.975 327.185 210 327.183L210.682 328.059C217.849 337.062 228.696 344.35 235.846 346.078C246.041 348.542 259.764 345.525 277.584 335.237C291.933 326.953 310.28 331.869 318.564 346.218C326.849 360.566 321.932 378.914 307.584 387.198C246.949 422.206 192.444 410.119 157.534 353.183H129C110.281 353.183 98.4036 357.343 91.4805 364.616C84.2494 372.213 80 385.607 80 406.183C79.9999 422.752 66.5685 436.183 50 436.183C33.4315 436.183 20.0001 422.752 20 406.183C20 345.534 48.303 306.537 99.2686 296.041Z" fill="url(#paint4_linear_1_9708)"/>
<mask id="mask3_1_9708" style="mask-type:luminance" maskUnits="userSpaceOnUse" x="20" y="295" width="303" height="142">
<path id="Mask_8" fill-rule="evenodd" clip-rule="evenodd" d="M99.2686 296.041C108.454 294.149 131 293.183 157 311.183C182.988 329.175 209.975 327.185 210 327.183L210.682 328.059C217.849 337.062 228.696 344.35 235.846 346.078C246.041 348.542 259.764 345.525 277.584 335.237C291.933 326.953 310.28 331.869 318.564 346.218C326.849 360.566 321.932 378.914 307.584 387.198C246.949 422.206 192.444 410.119 157.534 353.183H129C110.281 353.183 98.4036 357.343 91.4805 364.616C84.2494 372.213 80 385.607 80 406.183C79.9999 422.752 66.5685 436.183 50 436.183C33.4315 436.183 20.0001 422.752 20 406.183C20 345.534 48.303 306.537 99.2686 296.041Z" fill="white"/>
</mask>
<g mask="url(#mask3_1_9708)">
<path id="Path 19_2" d="M150 355.184H171" stroke="#AE3B1B" stroke-width="4" stroke-linecap="round"/>
</g>
</g>
</g>
<defs>
<linearGradient id="paint0_linear_1_9708" x1="205.679" y1="24.9187" x2="213.147" y2="44.1496" gradientUnits="userSpaceOnUse">
<stop stop-color="#AE3B1B" stop-opacity="0.01"/>
<stop offset="1" stop-color="#AE3B1B"/>
</linearGradient>
<linearGradient id="paint1_linear_1_9708" x1="297.623" y1="80.4705" x2="305.092" y2="99.7013" gradientUnits="userSpaceOnUse">
<stop stop-color="#AE3B1B" stop-opacity="0.01"/>
<stop offset="1" stop-color="#AE3B1B"/>
</linearGradient>
<linearGradient id="paint2_linear_1_9708" x1="-6.02685" y1="110.434" x2="385.073" y2="128.003" gradientUnits="userSpaceOnUse">
<stop stop-color="#9ADBED"/>
<stop offset="0.511824" stop-color="#EBDDF5"/>
<stop offset="1" stop-color="#ECBACB"/>
</linearGradient>
<linearGradient id="paint3_linear_1_9708" x1="208.482" y1="152.42" x2="212.366" y2="149.501" gradientUnits="userSpaceOnUse">
<stop stop-color="#44484D" stop-opacity="0.01"/>
<stop offset="1" stop-color="#44484D"/>
</linearGradient>
<linearGradient id="paint4_linear_1_9708" x1="171.294" y1="506.742" x2="279.406" y2="274.926" gradientUnits="userSpaceOnUse">
<stop stop-color="#FA5B35"/>
<stop offset="0.504253" stop-color="#FA5B35"/>
<stop offset="1" stop-color="#FC9D86"/>
</linearGradient>
</defs>
</svg>
