<svg width="493" height="444" viewBox="0 0 493 444" fill="none" xmlns="http://www.w3.org/2000/svg">
<g id="YuhPerson_DP_1e">
<g id="sneaker-two-b">
<g id="Path 25 + Path 25 Copy Mask Copy 2">
<g id="Mask">
<path fill-rule="evenodd" clip-rule="evenodd" d="M71 335.01H0V334.01C0 329.085 3.00757 324.659 7.58679 322.846L40 310.01L71 325.01V335.01Z" fill="#E7E8E8"/>
<path fill-rule="evenodd" clip-rule="evenodd" d="M71 335.01H0V334.01C0 329.085 3.00757 324.659 7.58679 322.846L40 310.01L71 325.01V335.01Z" fill="url(#paint0_linear_1_9811)"/>
</g>
<mask id="mask0_1_9811" style="mask-type:luminance" maskUnits="userSpaceOnUse" x="0" y="310" width="71" height="26">
<g id="Mask_2">
<path fill-rule="evenodd" clip-rule="evenodd" d="M71 335.01H0V334.01C0 329.085 3.00757 324.659 7.58679 322.846L40 310.01L71 325.01V335.01Z" fill="white"/>
<path fill-rule="evenodd" clip-rule="evenodd" d="M71 335.01H0V334.01C0 329.085 3.00757 324.659 7.58679 322.846L40 310.01L71 325.01V335.01Z" stroke="white"/>
</g>
</mask>
<g mask="url(#mask0_1_9811)">
<path id="Path 25" d="M20.0332 284.98L40.4332 320.314" stroke="#FA5B35" stroke-width="4.08" stroke-linecap="round"/>
<path id="Path 25_2" d="M3.85938 289.607L24.2594 324.941" stroke="#FA5B35" stroke-width="4.08" stroke-linecap="round"/>
<path id="Path 25_3" d="M11.9463 287.293L32.3463 322.627" stroke="#FA5B35" stroke-width="4.08" stroke-linecap="round"/>
</g>
</g>
<path id="Rectangle" d="M0 335.01H71C71 337.219 69.2091 339.01 67 339.01H4C1.79086 339.01 0 337.219 0 335.01Z" fill="#151A21"/>
</g>
<g id="sneaker-two">
<g id="Path 25 + Path 25 Copy Mask Copy 2_2">
<g id="Mask_3">
<path fill-rule="evenodd" clip-rule="evenodd" d="M73 346.01H2V345.01C2 340.085 5.00757 335.659 9.58679 333.846L42 321.01L73 336.01V346.01Z" fill="white"/>
<path fill-rule="evenodd" clip-rule="evenodd" d="M73 346.01H2V345.01C2 340.085 5.00757 335.659 9.58679 333.846L42 321.01L73 336.01V346.01Z" fill="url(#paint1_linear_1_9811)"/>
</g>
<mask id="mask1_1_9811" style="mask-type:luminance" maskUnits="userSpaceOnUse" x="2" y="321" width="71" height="26">
<g id="Mask_4">
<path fill-rule="evenodd" clip-rule="evenodd" d="M73 346.01H2V345.01C2 340.085 5.00757 335.659 9.58679 333.846L42 321.01L73 336.01V346.01Z" fill="white"/>
<path fill-rule="evenodd" clip-rule="evenodd" d="M73 346.01H2V345.01C2 340.085 5.00757 335.659 9.58679 333.846L42 321.01L73 336.01V346.01Z" stroke="white"/>
</g>
</mask>
<g mask="url(#mask1_1_9811)">
<path id="Path 25_4" d="M22.0332 295.98L42.4332 331.314" stroke="#FA5B35" stroke-width="4.08" stroke-linecap="round"/>
<path id="Path 25_5" d="M5.85938 300.607L26.2594 335.941" stroke="#FA5B35" stroke-width="4.08" stroke-linecap="round"/>
<path id="Path 25_6" d="M13.9463 298.293L34.3463 333.627" stroke="#FA5B35" stroke-width="4.08" stroke-linecap="round"/>
</g>
</g>
<path id="Rectangle_2" d="M2 346.01H73C73 348.219 71.2091 350.01 69 350.01H6C3.79086 350.01 2 348.219 2 346.01Z" fill="#151A21"/>
</g>
<g id="YuhPersonNine_swiss-orange Copy">
<g id="YuhPerson/head/tall/SwissOrange Copy 2">
<g id="Rectangle Copy 82">
<rect x="318.742" y="123.348" width="36" height="46" rx="18" transform="rotate(45 318.742 123.348)" fill="#FA5B35"/>
<rect x="318.742" y="123.348" width="36" height="46" rx="18" transform="rotate(45 318.742 123.348)" fill="url(#paint2_linear_1_9811)"/>
</g>
</g>
<g id="Combined Shape Copy 12">
<path fill-rule="evenodd" clip-rule="evenodd" d="M336.42 136.782C341.888 142.25 341.888 151.114 336.42 156.581L324.399 168.602C324.399 168.602 328.547 159.269 325.298 152.147L305.203 172.243C304.479 172.966 303.307 172.966 302.584 172.243L298.944 168.602C291.914 161.573 291.914 150.176 298.944 143.146L307.429 151.632C309.772 153.975 313.571 153.975 315.914 151.632L320.864 146.682L317.181 142.999C310.176 135.994 310.242 124.615 317.329 117.691L336.42 136.782Z" fill="#151A21"/>
<path fill-rule="evenodd" clip-rule="evenodd" d="M336.42 136.782C341.888 142.25 341.888 151.114 336.42 156.581L324.399 168.602C324.399 168.602 328.547 159.269 325.298 152.147L305.203 172.243C304.479 172.966 303.307 172.966 302.584 172.243L298.944 168.602C291.914 161.573 291.914 150.176 298.944 143.146L307.429 151.632C309.772 153.975 313.571 153.975 315.914 151.632L320.864 146.682L317.181 142.999C310.176 135.994 310.242 124.615 317.329 117.691L336.42 136.782Z" fill="url(#paint3_linear_1_9811)"/>
</g>
</g>
<g id="hand/peace-sign/orange copy 8">
<g id="hand_peace-sign_swiss-orange">
<path fill-rule="evenodd" clip-rule="evenodd" d="M338.883 60.7838C343.374 65.2748 350.655 65.2748 355.146 60.7838L366.814 49.1165L385.906 30.0247C382.391 26.5099 376.692 26.5099 373.178 30.0247L360.45 42.7526C359.278 41.581 359.278 39.6815 360.45 38.5099L377.42 21.5394C373.906 18.0247 368.207 18.0247 364.692 21.5394L352.964 33.2673C352.332 33.8994 351.447 34.2098 350.559 34.1111L344.73 33.4635C341.258 33.0777 337.798 34.2911 335.328 36.7614L333.226 38.8635C328.735 43.3545 328.735 50.6359 333.226 55.1269L338.883 60.7838Z" fill="#FA5B35"/>
<path fill-rule="evenodd" clip-rule="evenodd" d="M338.883 60.7838C343.374 65.2748 350.655 65.2748 355.146 60.7838L366.814 49.1165L385.906 30.0247C382.391 26.5099 376.692 26.5099 373.178 30.0247L360.45 42.7526C359.278 41.581 359.278 39.6815 360.45 38.5099L377.42 21.5394C373.906 18.0247 368.207 18.0247 364.692 21.5394L352.964 33.2673C352.332 33.8994 351.447 34.2098 350.559 34.1111L344.73 33.4635C341.258 33.0777 337.798 34.2911 335.328 36.7614L333.226 38.8635C328.735 43.3545 328.735 50.6359 333.226 55.1269L338.883 60.7838Z" fill="url(#paint4_linear_1_9811)"/>
</g>
</g>
<g id="hand/peace-sign/orange copy 8_2">
<g id="hand_peace-sign_swiss-orange_2">
<path fill-rule="evenodd" clip-rule="evenodd" d="M413.883 137.784C418.374 142.275 425.655 142.275 430.146 137.784L441.814 126.117L460.906 107.025C457.391 103.51 451.692 103.51 448.178 107.025L435.45 119.753C434.278 118.581 434.278 116.682 435.45 115.51L452.42 98.5394C448.906 95.0247 443.207 95.0247 439.692 98.5394L427.964 110.267C427.332 110.899 426.447 111.21 425.559 111.111L419.73 110.463C416.258 110.078 412.798 111.291 410.328 113.761L408.226 115.863C403.735 120.355 403.735 127.636 408.226 132.127L413.883 137.784Z" fill="#FA5B35"/>
<path fill-rule="evenodd" clip-rule="evenodd" d="M413.883 137.784C418.374 142.275 425.655 142.275 430.146 137.784L441.814 126.117L460.906 107.025C457.391 103.51 451.692 103.51 448.178 107.025L435.45 119.753C434.278 118.581 434.278 116.682 435.45 115.51L452.42 98.5394C448.906 95.0247 443.207 95.0247 439.692 98.5394L427.964 110.267C427.332 110.899 426.447 111.21 425.559 111.111L419.73 110.463C416.258 110.078 412.798 111.291 410.328 113.761L408.226 115.863C403.735 120.355 403.735 127.636 408.226 132.127L413.883 137.784Z" fill="url(#paint5_linear_1_9811)"/>
</g>
</g>
<g id="dynamic-pose_one_e">
<g id="back leg">
<g id="leg">
<path d="M207 342.301L174 308.301C174 308.301 112 252.301 65 326.301" stroke="#CCB1DA" stroke-width="60"/>
<path d="M207 342.301L174 308.301C174 308.301 112 252.301 65 326.301" stroke="white" stroke-width="60"/>
</g>
</g>
<g id="Fill 1 Copy 14">
<path fill-rule="evenodd" clip-rule="evenodd" d="M354.016 66.1057C354.02 73.777 351.035 80.592 345.07 86.5572L292.453 139.175C287.508 144.12 285.037 150.083 285.037 157.071C285.034 164.061 287.508 170.023 292.452 174.967C297.394 179.91 303.359 182.386 310.348 182.382C317.335 182.381 323.299 179.911 328.244 174.966L380.862 122.349C386.827 116.384 393.643 113.4 401.315 113.404C408.981 113.401 415.802 116.383 421.767 122.348C427.732 128.314 430.713 135.133 430.712 142.802C430.715 150.472 427.734 157.286 421.773 163.247L369.049 215.971C352.775 232.245 328.199 268.795 311.503 331.054L295.774 389.325C254.848 378.368 154.193 288.938 154.193 288.938C189.165 158.531 235.174 114.644 251.448 98.3703L304.172 45.6462C310.133 39.6849 316.947 36.7038 324.618 36.708C332.284 36.7045 339.105 39.6867 345.07 45.652C351.036 51.6173 354.018 58.4382 354.016 66.1057Z" fill="#151A21"/>
<path fill-rule="evenodd" clip-rule="evenodd" d="M354.016 66.1057C354.02 73.777 351.035 80.592 345.07 86.5572L292.453 139.175C287.508 144.12 285.037 150.083 285.037 157.071C285.034 164.061 287.508 170.023 292.452 174.967C297.394 179.91 303.359 182.386 310.348 182.382C317.335 182.381 323.299 179.911 328.244 174.966L380.862 122.349C386.827 116.384 393.643 113.4 401.315 113.404C408.981 113.401 415.802 116.383 421.767 122.348C427.732 128.314 430.713 135.133 430.712 142.802C430.715 150.472 427.734 157.286 421.773 163.247L369.049 215.971C352.775 232.245 328.199 268.795 311.503 331.054L295.774 389.325C254.848 378.368 154.193 288.938 154.193 288.938C189.165 158.531 235.174 114.644 251.448 98.3703L304.172 45.6462C310.133 39.6849 316.947 36.7038 324.618 36.708C332.284 36.7045 339.105 39.6867 345.07 45.652C351.036 51.6173 354.018 58.4382 354.016 66.1057Z" fill="url(#paint6_linear_1_9811)"/>
</g>
<g id="front leg">
<g id="leg_2">
<path d="M208 353.301L175 319.301C175 319.301 113 263.301 66 337.301" stroke="#CCB1DA" stroke-width="60"/>
<path d="M208 353.301L175 319.301C175 319.301 113 263.301 66 337.301" stroke="url(#paint7_linear_1_9811)" stroke-width="60"/>
<path d="M208 353.301L175 319.301C175 319.301 113 263.301 66 337.301" stroke="white" stroke-width="60"/>
</g>
</g>
<g id="wheels">
<g id="Oval Copy 114">
<circle cx="228.155" cy="370.301" r="53" fill="#78C6E7"/>
<circle cx="228.155" cy="370.301" r="53" fill="url(#paint8_linear_1_9811)"/>
<circle cx="228.155" cy="370.301" r="53" stroke="#151A21" stroke-width="40"/>
<circle cx="228.155" cy="370.301" r="53" stroke="url(#paint9_linear_1_9811)" stroke-width="40"/>
</g>
<g id="Group 45 Copy 7">
<ellipse id="Oval" cx="178.656" cy="345.351" rx="11.7952" ry="2.24401" transform="rotate(128 178.656 345.351)" stroke="white" stroke-width="4" stroke-linecap="round"/>
<ellipse id="Oval_2" cx="182.715" cy="354.253" rx="12.5695" ry="2.91441" transform="rotate(124 182.715 354.253)" stroke="white" stroke-width="4" stroke-linecap="round"/>
<ellipse id="Oval_3" cx="189.405" cy="356.681" rx="7.52359" ry="1.17685" transform="rotate(120 189.405 356.681)" stroke="white" stroke-width="4" stroke-linecap="round"/>
</g>
<g id="Group 45 Copy 8">
<ellipse id="Oval_4" cx="281.24" cy="340.71" rx="11.7952" ry="2.24401" transform="rotate(-112 281.24 340.71)" stroke="white" stroke-width="4" stroke-linecap="round"/>
<ellipse id="Oval_5" cx="271.501" cy="339.774" rx="12.5695" ry="2.91441" transform="rotate(-116 271.501 339.774)" stroke="white" stroke-width="4" stroke-linecap="round"/>
<ellipse id="Oval_6" cx="266.053" cy="344.353" rx="7.52359" ry="1.17685" transform="rotate(-120 266.053 344.353)" stroke="white" stroke-width="4" stroke-linecap="round"/>
</g>
<g id="Group 45 Copy 9">
<ellipse id="Oval_7" cx="232.474" cy="429.451" rx="11.7952" ry="2.24401" transform="rotate(8 232.474 429.451)" stroke="white" stroke-width="4" stroke-linecap="round"/>
<ellipse id="Oval_8" cx="238.154" cy="421.485" rx="12.5695" ry="2.91441" transform="rotate(4 238.154 421.485)" stroke="white" stroke-width="4" stroke-linecap="round"/>
<ellipse id="Oval_9" cx="236.911" cy="414.477" rx="7.52359" ry="1.17685" stroke="white" stroke-width="4" stroke-linecap="round"/>
</g>
</g>
</g>
</g>
<defs>
<linearGradient id="paint0_linear_1_9811" x1="68.8763" y1="326.009" x2="71.9915" y2="310.206" gradientUnits="userSpaceOnUse">
<stop stop-color="#44484D" stop-opacity="0.01"/>
<stop offset="1" stop-color="#44484D"/>
</linearGradient>
<linearGradient id="paint1_linear_1_9811" x1="70.8763" y1="337.009" x2="73.9915" y2="321.206" gradientUnits="userSpaceOnUse">
<stop stop-color="#44484D" stop-opacity="0.01"/>
<stop offset="1" stop-color="#44484D"/>
</linearGradient>
<linearGradient id="paint2_linear_1_9811" x1="329.027" y1="140.091" x2="311.312" y2="145.199" gradientUnits="userSpaceOnUse">
<stop stop-color="#FC9D86" stop-opacity="0.01"/>
<stop offset="1" stop-color="#FC9D86"/>
</linearGradient>
<linearGradient id="paint3_linear_1_9811" x1="336.088" y1="141.669" x2="318.975" y2="119.009" gradientUnits="userSpaceOnUse">
<stop stop-color="#44484D" stop-opacity="0.01"/>
<stop offset="1" stop-color="#44484D"/>
</linearGradient>
<linearGradient id="paint4_linear_1_9811" x1="350.578" y1="30.3096" x2="352.814" y2="50.8181" gradientUnits="userSpaceOnUse">
<stop stop-color="#AE3B1B" stop-opacity="0.01"/>
<stop offset="1" stop-color="#AE3B1B"/>
</linearGradient>
<linearGradient id="paint5_linear_1_9811" x1="425.578" y1="107.31" x2="427.814" y2="127.818" gradientUnits="userSpaceOnUse">
<stop stop-color="#AE3B1B" stop-opacity="0.01"/>
<stop offset="1" stop-color="#AE3B1B"/>
</linearGradient>
<linearGradient id="paint6_linear_1_9811" x1="244.27" y1="253.484" x2="151.511" y2="129.884" gradientUnits="userSpaceOnUse">
<stop stop-color="#44484D" stop-opacity="0.01"/>
<stop offset="1" stop-color="#44484D"/>
</linearGradient>
<linearGradient id="paint7_linear_1_9811" x1="4.66511" y1="215.178" x2="6.65645" y2="297.841" gradientUnits="userSpaceOnUse">
<stop stop-color="white"/>
<stop offset="1" stop-color="white" stop-opacity="0.01"/>
</linearGradient>
<linearGradient id="paint8_linear_1_9811" x1="203.438" y1="350.942" x2="164.72" y2="400.375" gradientUnits="userSpaceOnUse">
<stop stop-color="#44484D" stop-opacity="0.01"/>
<stop offset="1" stop-color="#44484D"/>
</linearGradient>
<linearGradient id="paint9_linear_1_9811" x1="264.655" y1="406.801" x2="337.655" y2="333.801" gradientUnits="userSpaceOnUse">
<stop stop-color="#44484D" stop-opacity="0.01"/>
<stop offset="0.685766" stop-color="#73767A"/>
<stop offset="1" stop-color="#73767A"/>
</linearGradient>
</defs>
</svg>
