<svg width="243" height="510" viewBox="0 0 243 510" fill="none" xmlns="http://www.w3.org/2000/svg">
<g id="YuhPerson_SP_8e">
<g id="Group 7">
<path id="Rectangle Copy 115" fill-rule="evenodd" clip-rule="evenodd" d="M99.96 50.249C99.96 31.7475 114.958 16.749 133.46 16.749C151.961 16.749 166.96 31.7475 166.96 50.249V52.749H99.96V50.249Z" fill="#FA5B35"/>
<g id="Oval Copy 127">
<ellipse cx="135.307" cy="43.5717" rx="18" ry="9" transform="rotate(-15 135.307 43.5717)" fill="#BABDE4"/>
<ellipse cx="135.307" cy="43.5717" rx="18" ry="9" transform="rotate(-15 135.307 43.5717)" fill="url(#paint0_linear_1_14050)"/>
</g>
<g id="Oval Copy 131">
<ellipse cx="130.648" cy="26.185" rx="18" ry="9" transform="rotate(-15 130.648 26.185)" fill="#FA5B35"/>
<ellipse cx="130.648" cy="26.185" rx="18" ry="9" transform="rotate(-15 130.648 26.185)" fill="url(#paint1_linear_1_14050)"/>
</g>
</g>
<g id="Group 19">
<path id="Rectangle Copy 4" fill-rule="evenodd" clip-rule="evenodd" d="M143.96 498.249C143.96 504.6 149.109 509.749 155.46 509.749H204.96C204.96 501.833 198.543 495.416 190.627 495.416H177.355C175.963 495.416 174.734 494.509 174.322 493.18L168.649 474.849C167.158 470.033 162.704 466.749 157.663 466.749H155.46C149.109 466.749 143.96 471.898 143.96 478.249V498.249Z" fill="#151A21"/>
<g id="Path 20">
<path id="Mask" fill-rule="evenodd" clip-rule="evenodd" d="M202.521 501.749C204.061 504.034 204.96 506.787 204.96 509.749H155.46C150.329 509.749 145.983 506.389 144.502 501.749H202.521Z" fill="#73767A"/>
<mask id="mask0_1_14050" style="mask-type:luminance" maskUnits="userSpaceOnUse" x="144" y="501" width="61" height="9">
<path id="Mask_2" fill-rule="evenodd" clip-rule="evenodd" d="M202.521 501.749C204.061 504.034 204.96 506.787 204.96 509.749H155.46C150.329 509.749 145.983 506.389 144.502 501.749H202.521Z" fill="white"/>
</mask>
<g mask="url(#mask0_1_14050)">
</g>
</g>
<path id="Rectangle" d="M160.96 473.249C160.96 470.764 158.945 468.749 156.46 468.749H149.821C149.346 468.749 148.96 469.135 148.96 469.61V476.749C148.96 483.376 154.333 488.749 160.96 488.749V473.249Z" fill="#44484D"/>
</g>
<g id="Group 19 Copy 3">
<path id="Rectangle Copy 4_2" fill-rule="evenodd" clip-rule="evenodd" d="M20.8222 457.754C16.3311 462.245 16.3311 469.526 20.8222 474.017L55.8239 509.019C61.4215 503.422 61.4215 494.346 55.8239 488.749L46.4395 479.364C45.4555 478.38 45.2271 476.87 45.8762 475.639L54.8263 458.665C57.1777 454.206 56.3504 448.734 52.7855 445.17L51.2277 443.612C46.7367 439.121 39.4553 439.121 34.9643 443.612L20.8222 457.754Z" fill="#151A21"/>
<g id="Path 20_2">
<path id="Mask_3" fill-rule="evenodd" clip-rule="evenodd" d="M59.7562 501.638C59.2293 504.342 57.9184 506.924 55.8236 509.019L20.8218 474.017C17.1937 470.389 16.4966 464.94 18.7304 460.612L59.7562 501.638Z" fill="#73767A"/>
<mask id="mask1_1_14050" style="mask-type:luminance" maskUnits="userSpaceOnUse" x="17" y="460" width="43" height="50">
<path id="Mask_4" fill-rule="evenodd" clip-rule="evenodd" d="M59.7562 501.638C59.2293 504.342 57.9184 506.924 55.8236 509.019L20.8218 474.017C17.1937 470.389 16.4966 464.94 18.7304 460.612L59.7562 501.638Z" fill="white"/>
</mask>
<g mask="url(#mask1_1_14050)">
</g>
</g>
<path id="Rectangle_2" d="M50.5202 452.097C52.2775 450.34 52.2775 447.49 50.5202 445.733L45.8259 441.039C45.4895 440.702 44.9442 440.702 44.6079 441.039L39.56 446.087C34.8737 450.773 34.8737 458.371 39.56 463.057L50.5202 452.097Z" fill="#44484D"/>
</g>
<path id="Path 32 Copy 2" d="M155.887 250.714L155.96 475.749" stroke="#151A21" stroke-width="60"/>
<g id="Path 32 Copy 4">
<path d="M105.91 242.714C105.959 362.749 56.9594 461.749 56.9594 461.749" stroke="#151A21" stroke-width="60"/>
<path d="M105.91 242.714C105.959 362.749 56.9594 461.749 56.9594 461.749" stroke="url(#paint2_linear_1_14050)" stroke-width="60"/>
</g>
<g id="Group 48">
<g id="Rectangle Copy 162">
<path fill-rule="evenodd" clip-rule="evenodd" d="M56.0966 268.575C59.1612 269.396 60.9798 272.546 60.1587 275.61L53.3711 300.942C44.0405 300.104 39.1722 290.085 37.6183 286.176C37.2192 285.173 37.2044 284.076 37.4839 283.032L40.8583 270.439C41.6794 267.374 44.8294 265.556 47.894 266.377L56.0966 268.575Z" fill="#BABDE4"/>
<path fill-rule="evenodd" clip-rule="evenodd" d="M56.0966 268.575C59.1612 269.396 60.9798 272.546 60.1587 275.61L53.3711 300.942C44.0405 300.104 39.1722 290.085 37.6183 286.176C37.2192 285.173 37.2044 284.076 37.4839 283.032L40.8583 270.439C41.6794 267.374 44.8294 265.556 47.894 266.377L56.0966 268.575Z" fill="url(#paint3_linear_1_14050)"/>
</g>
<g id="Rectangle Copy 162_2">
<path fill-rule="evenodd" clip-rule="evenodd" d="M208.553 263.575C205.488 264.396 203.67 267.546 204.491 270.61L211.278 295.942C220.609 295.104 225.477 285.085 227.031 281.176C227.43 280.173 227.445 279.076 227.165 278.032L223.791 265.439C222.97 262.374 219.82 260.556 216.755 261.377L208.553 263.575Z" fill="#BABDE4"/>
<path fill-rule="evenodd" clip-rule="evenodd" d="M208.553 263.575C205.488 264.396 203.67 267.546 204.491 270.61L211.278 295.942C220.609 295.104 225.477 285.085 227.031 281.176C227.43 280.173 227.445 279.076 227.165 278.032L223.791 265.439C222.97 262.374 219.82 260.556 216.755 261.377L208.553 263.575Z" fill="url(#paint4_linear_1_14050)"/>
</g>
<path id="Combined Shape Copy 9" fill-rule="evenodd" clip-rule="evenodd" d="M111.459 60.749C99.7954 60.7491 88.4678 64.77 80.1943 72.9912C63.5768 89.5036 36.5034 120.505 30.622 152.126C25.8518 172.319 6.27531 267.793 58.8672 281.885L68.0664 247.555C77.2666 257.674 90.4872 264.059 105.241 264.059H156.352C173.049 264.058 187.83 255.867 196.9 243.284L207.242 281.885C266.066 266.123 234.607 148.547 234.562 148.379L234.364 148.432C226.485 122.867 202.428 93.0736 186.834 75.625C178.097 65.8495 165.488 60.749 152.377 60.749H111.459Z" fill="url(#paint5_linear_1_14050)"/>
<path id="Combined Shape Copy 22" d="M77.3623 160.655L90.4131 164.152L68.0664 247.555C77.2667 257.674 90.4871 264.059 105.241 264.059H156.352C183.94 264.059 206.304 241.699 206.305 214.111V160.655H77.3623Z" fill="url(#paint6_linear_1_14050)"/>
<path id="Rectangle Copy 164" fill-rule="evenodd" clip-rule="evenodd" d="M58.8672 281.885L90.4135 164.152L31.5473 148.379C31.5473 148.379 0.000987327 266.112 58.8672 281.885Z" fill="url(#paint7_linear_1_14050)"/>
<path id="Combined Shape" fill-rule="evenodd" clip-rule="evenodd" d="M188.747 160.655H206.305V214.111C206.305 225.002 202.817 235.077 196.9 243.284L207.242 281.885C266.083 266.118 234.59 148.48 234.562 148.379L188.747 160.655Z" fill="url(#paint8_linear_1_14050)"/>
</g>
</g>
<defs>
<linearGradient id="paint0_linear_1_14050" x1="129.754" y1="49.3539" x2="144.561" y2="63.5729" gradientUnits="userSpaceOnUse">
<stop stop-color="#999DCF" stop-opacity="0.01"/>
<stop offset="1" stop-color="#999DCF"/>
</linearGradient>
<linearGradient id="paint1_linear_1_14050" x1="145.096" y1="37.7514" x2="147.816" y2="18.6755" gradientUnits="userSpaceOnUse">
<stop stop-color="#FB7C5D" stop-opacity="0.01"/>
<stop offset="1" stop-color="#FB7C5D"/>
</linearGradient>
<linearGradient id="paint2_linear_1_14050" x1="56.9594" y1="85.6216" x2="165.913" y2="85.6216" gradientUnits="userSpaceOnUse">
<stop stop-color="#44484D" stop-opacity="0.01"/>
<stop offset="1" stop-color="#44484D"/>
</linearGradient>
<linearGradient id="paint3_linear_1_14050" x1="50.0123" y1="286.468" x2="52.5171" y2="277.12" gradientUnits="userSpaceOnUse">
<stop stop-color="#999DCF" stop-opacity="0.01"/>
<stop offset="1" stop-color="#999DCF"/>
</linearGradient>
<linearGradient id="paint4_linear_1_14050" x1="214.637" y1="281.468" x2="212.132" y2="272.12" gradientUnits="userSpaceOnUse">
<stop stop-color="#999DCF" stop-opacity="0.01"/>
<stop offset="1" stop-color="#999DCF"/>
</linearGradient>
<linearGradient id="paint5_linear_1_14050" x1="118.381" y1="-49.4929" x2="338.761" y2="152.429" gradientUnits="userSpaceOnUse">
<stop stop-color="#ECBACB"/>
<stop offset="0.488176" stop-color="#EBDDF5"/>
<stop offset="1" stop-color="#9ADBED"/>
</linearGradient>
<linearGradient id="paint6_linear_1_14050" x1="198.102" y1="197.777" x2="181.235" y2="330.406" gradientUnits="userSpaceOnUse">
<stop stop-color="#999DCF" stop-opacity="0.01"/>
<stop offset="1" stop-color="#999DCF"/>
</linearGradient>
<linearGradient id="paint7_linear_1_14050" x1="110.191" y1="360.466" x2="14.2525" y2="324.843" gradientUnits="userSpaceOnUse">
<stop stop-color="white"/>
<stop offset="1" stop-color="white" stop-opacity="0.01"/>
</linearGradient>
<linearGradient id="paint8_linear_1_14050" x1="240.156" y1="162.4" x2="240.156" y2="281.885" gradientUnits="userSpaceOnUse">
<stop stop-color="#999DCF" stop-opacity="0.01"/>
<stop offset="1" stop-color="#999DCF"/>
</linearGradient>
</defs>
</svg>
