<svg width="375" height="548" viewBox="0 0 375 548" fill="none" xmlns="http://www.w3.org/2000/svg">
<g id="YuhPerson_SP_9f">
<g id="boot">
<path id="Rectangle Copy 4" fill-rule="evenodd" clip-rule="evenodd" d="M159.769 493.381C159.769 499.732 154.62 504.881 148.269 504.881H98.7686C98.7686 496.965 105.186 490.548 113.102 490.548H126.373C127.765 490.548 128.995 489.641 129.406 488.312L135.08 469.981C136.57 465.165 141.024 461.881 146.066 461.881H148.269C154.62 461.881 159.769 467.03 159.769 473.381V493.381Z" fill="#78C6E7"/>
<g id="Path 20">
<path id="Mask" fill-rule="evenodd" clip-rule="evenodd" d="M101.207 496.881C99.6673 499.166 98.7686 501.918 98.7686 504.881H148.269C153.399 504.881 157.745 501.521 159.226 496.881H101.207Z" fill="#151A21"/>
<mask id="mask0_1_13331" style="mask-type:luminance" maskUnits="userSpaceOnUse" x="98" y="496" width="62" height="9">
<path id="Mask_2" fill-rule="evenodd" clip-rule="evenodd" d="M101.207 496.881C99.6673 499.166 98.7686 501.918 98.7686 504.881H148.269C153.399 504.881 157.745 501.521 159.226 496.881H101.207Z" fill="white"/>
</mask>
<g mask="url(#mask0_1_13331)">
</g>
</g>
<path id="Rectangle" d="M142.769 468.381C142.769 465.896 144.783 463.881 147.269 463.881H153.907C154.383 463.881 154.769 464.266 154.769 464.742V471.881C154.769 478.508 149.396 483.881 142.769 483.881V468.381Z" fill="#548BA3"/>
</g>
<g id="boot copy 2">
<path id="Rectangle Copy 4_2" fill-rule="evenodd" clip-rule="evenodd" d="M311.679 360.967C317.18 357.791 324.213 359.676 327.389 365.176L352.139 408.044C345.283 412.002 336.517 409.654 332.559 402.798L325.923 391.304C325.227 390.099 323.828 389.488 322.471 389.796L303.759 394.048C298.842 395.165 293.772 392.95 291.251 388.584L290.15 386.676C286.974 381.176 288.859 374.142 294.359 370.967L311.679 360.967Z" fill="#78C6E7"/>
<g id="Path 20_2">
<path id="Mask_3" fill-rule="evenodd" clip-rule="evenodd" d="M343.991 409.933C346.739 410.124 349.573 409.526 352.138 408.045L327.388 365.177C324.823 360.733 319.74 358.649 314.981 359.687L343.991 409.933Z" fill="#151A21"/>
<mask id="mask1_1_13331" style="mask-type:luminance" maskUnits="userSpaceOnUse" x="314" y="359" width="39" height="51">
<path id="Mask_4" fill-rule="evenodd" clip-rule="evenodd" d="M343.991 409.933C346.739 410.124 349.573 409.526 352.138 408.045L327.388 365.177C324.823 360.733 319.74 358.649 314.981 359.687L343.991 409.933Z" fill="white"/>
</mask>
<g mask="url(#mask1_1_13331)">
</g>
</g>
<path id="Rectangle_2" d="M298.528 388.189C296.376 389.432 293.623 388.695 292.381 386.542L289.061 380.793C288.824 380.381 288.965 379.854 289.377 379.617L295.559 376.047C301.299 372.733 308.638 374.7 311.951 380.439L298.528 388.189Z" fill="#548BA3"/>
</g>
<g id="Group 4">
<g id="legs copy 3">
<g id="leg">
<g id="Mask_5">
<path d="M166.682 237.161L219.51 267.661C200.856 297.071 185.672 327.33 177.844 356.026C170.553 382.753 170.257 417.976 177.498 461.511L177.72 462.832L118.56 472.84C109.751 420.764 110.032 376.626 119.959 340.235C129.288 306.04 144.642 272.026 165.917 238.207L166.682 237.161Z" fill="#FA5B35"/>
<path d="M166.682 237.161L219.51 267.661C200.856 297.071 185.672 327.33 177.844 356.026C170.553 382.753 170.257 417.976 177.498 461.511L177.72 462.832L118.56 472.84C109.751 420.764 110.032 376.626 119.959 340.235C129.288 306.04 144.642 272.026 165.917 238.207L166.682 237.161Z" fill="url(#paint0_linear_1_13331)"/>
</g>
<mask id="mask2_1_13331" style="mask-type:luminance" maskUnits="userSpaceOnUse" x="112" y="237" width="108" height="236">
<g id="Mask_6">
<path d="M166.682 237.161L219.51 267.661C200.856 297.071 185.672 327.33 177.844 356.026C170.553 382.753 170.257 417.976 177.498 461.511L177.72 462.832L118.56 472.84C109.751 420.764 110.032 376.626 119.959 340.235C129.288 306.04 144.642 272.026 165.917 238.207L166.682 237.161Z" fill="white"/>
<path d="M166.682 237.161L219.51 267.661C200.856 297.071 185.672 327.33 177.844 356.026C170.553 382.753 170.257 417.976 177.498 461.511L177.72 462.832L118.56 472.84C109.751 420.764 110.032 376.626 119.959 340.235C129.288 306.04 144.642 272.026 165.917 238.207L166.682 237.161Z" stroke="white"/>
</g>
</mask>
<g mask="url(#mask2_1_13331)">
</g>
</g>
<g id="leg_2">
<path id="Path" d="M194.87 247.662L246.831 277.662L237.154 294.576L236.872 295.09C222.847 320.803 221.655 340.725 231.321 358.2L231.803 359.061C236.354 367.32 240.89 370.693 247.155 371.601C255.918 372.872 269.143 369.821 286.456 361.304L287.831 360.62L314.767 414.234C286.747 428.311 261.474 434.305 238.544 430.98C213.142 427.297 192.948 412.433 179.654 388.738L179.324 388.144L178.807 387.222C158.502 350.525 160.92 309.191 184.084 266.568L184.972 264.95L194.87 247.662Z" fill="#FA5B35"/>
<mask id="mask3_1_13331" style="mask-type:luminance" maskUnits="userSpaceOnUse" x="165" y="247" width="150" height="185">
<path id="Path_2" d="M194.87 247.662L246.831 277.662L237.154 294.576L236.872 295.09C222.847 320.803 221.655 340.725 231.321 358.2L231.803 359.061C236.354 367.32 240.89 370.693 247.155 371.601C255.918 372.872 269.143 369.821 286.456 361.304L287.831 360.62L314.767 414.234C286.747 428.311 261.474 434.305 238.544 430.98C213.142 427.297 192.948 412.433 179.654 388.738L179.324 388.144L178.807 387.222C158.502 350.525 160.92 309.191 184.084 266.568L184.972 264.95L194.87 247.662Z" fill="white"/>
</mask>
<g mask="url(#mask3_1_13331)">
</g>
</g>
</g>
</g>
<g id="Group 66">
<g id="Group 42">
<ellipse id="Oval" cx="217.981" cy="31.4743" rx="17.2338" ry="22.9784" transform="rotate(15 217.981 31.4743)" stroke="#FA5B35" stroke-width="15.4855"/>
<circle id="Oval Copy 106" cx="194.749" cy="49.1448" r="17.9831" transform="rotate(15 194.749 49.1448)" fill="#BABDE4"/>
<g id="Oval_2">
<ellipse cx="197.671" cy="38.497" rx="18.05" ry="10.9383" transform="rotate(15 197.671 38.497)" fill="#FA5B35"/>
<ellipse cx="197.671" cy="38.497" rx="18.05" ry="10.9383" transform="rotate(15 197.671 38.497)" fill="url(#paint1_linear_1_13331)"/>
</g>
<rect id="Rectangle Copy 62" x="190.048" y="20.8867" width="24.9765" height="7.49296" rx="3.74648" transform="rotate(15 190.048 20.8867)" fill="#151A21"/>
</g>
<g id="Group 38">
<g id="Rectangle Copy 157">
<path fill-rule="evenodd" clip-rule="evenodd" d="M50.0064 190.385C50.8275 187.32 49.0089 184.17 45.9443 183.349L5.17222 172.424C3.55787 178.449 7.13327 184.642 13.1581 186.256L23.8001 189.108C24.5514 189.309 25.1709 189.84 25.4843 190.552L28.3677 197.102C29.0694 198.696 30.4563 199.885 32.1385 200.336L40.7728 202.65C43.8373 203.471 46.9873 201.652 47.8085 198.587L50.0064 190.385Z" fill="#BABDE4"/>
<path fill-rule="evenodd" clip-rule="evenodd" d="M50.0064 190.385C50.8275 187.32 49.0089 184.17 45.9443 183.349L5.17222 172.424C3.55787 178.449 7.13327 184.642 13.1581 186.256L23.8001 189.108C24.5514 189.309 25.1709 189.84 25.4843 190.552L28.3677 197.102C29.0694 198.696 30.4563 199.885 32.1385 200.336L40.7728 202.65C43.8373 203.471 46.9873 201.652 47.8085 198.587L50.0064 190.385Z" fill="url(#paint2_linear_1_13331)"/>
</g>
<g id="Rectangle Copy 159">
<path fill-rule="evenodd" clip-rule="evenodd" d="M272.863 288.707C269.799 289.528 267.98 292.678 268.801 295.742L275.589 321.074C284.919 320.236 289.788 310.217 291.342 306.308C291.741 305.305 291.756 304.207 291.476 303.164L288.102 290.571C287.281 287.506 284.131 285.688 281.066 286.509L272.863 288.707Z" fill="#BABDE4"/>
<path fill-rule="evenodd" clip-rule="evenodd" d="M272.863 288.707C269.799 289.528 267.98 292.678 268.801 295.742L275.589 321.074C284.919 320.236 289.788 310.217 291.342 306.308C291.741 305.305 291.756 304.207 291.476 303.164L288.102 290.571C287.281 287.506 284.131 285.688 281.066 286.509L272.863 288.707Z" fill="url(#paint3_linear_1_13331)"/>
</g>
<rect id="Rectangle Copy 34" x="15.7559" y="107.855" width="29.9719" height="60.4432" rx="4.99531" fill="#151A21"/>
<path id="Combined Shape Copy 29" d="M217.5 80.8809C229.164 80.8809 240.491 84.9019 248.765 93.123C265.384 109.638 292.463 140.645 298.34 172.271C303.115 192.49 322.674 287.928 270.093 302.017L260.894 267.687C251.693 277.805 238.473 284.19 223.719 284.19H172.608C150.314 284.19 131.431 269.589 125.005 249.426C118.944 251.106 112.285 251.215 105.357 249.323C75.7332 241.231 40.284 224.281 21.75 188.779H92.1836V184.284C92.1836 156.415 123.283 117.125 142.104 95.8994C150.848 86.0372 163.52 80.8809 176.701 80.8809H217.5Z" fill="#44484D"/>
<path id="Combined Shape Copy 34" d="M122.655 234.242C122.655 239.536 123.479 244.638 125.005 249.426C118.944 251.106 112.285 251.215 105.357 249.322C75.7332 241.23 40.2839 224.281 21.75 188.779H122.655V234.242Z" fill="url(#paint4_linear_1_13331)"/>
<path id="Combined Shape Copy 35" d="M251.598 180.787L238.547 184.284L260.894 267.687C251.693 277.805 238.473 284.19 223.719 284.19H172.608C145.02 284.19 122.655 261.831 122.655 234.243V180.787H251.598Z" fill="url(#paint5_linear_1_13331)"/>
<path id="Rectangle Copy 35" fill-rule="evenodd" clip-rule="evenodd" d="M270.093 302.017L238.546 184.284L297.413 168.511C297.413 168.511 328.959 286.243 270.093 302.017Z" fill="url(#paint6_linear_1_13331)"/>
<g id="Rectangle Copy 5 + Rectangle Copy 5 + Rectangle Copy 5 + Rectangle Copy 5 + Rectangle Copy 5 + Rectangle Copy 5 Mask Copy 2">
<mask id="mask4_1_13331" style="mask-type:luminance" maskUnits="userSpaceOnUse" x="141" y="116" width="90" height="52">
<rect id="Mask_7" x="141.271" y="116.881" width="89" height="50.5" fill="white"/>
</mask>
<g mask="url(#mask4_1_13331)">
<path id="Combined Shape" d="M185.871 116.881C210.503 116.881 230.471 136.85 230.471 161.481V184.849H141.271V161.481C141.271 136.849 161.239 116.881 185.871 116.881ZM185.771 154.381C180.8 154.381 176.771 158.41 176.771 163.381V167.881H194.771V163.381C194.771 158.41 190.741 154.381 185.771 154.381Z" fill="#FA5B35"/>
<path id="Combined Shape_2" d="M185.871 130.25C203.368 130.25 217.552 144.434 217.552 161.931V178.558H154.19V161.931C154.19 144.434 168.374 130.25 185.871 130.25ZM185.871 149.686C179.232 149.686 173.851 155.067 173.851 161.706V167.997H197.892V161.706C197.892 155.067 192.51 149.686 185.871 149.686Z" fill="#78C6E7"/>
<path id="Combined Shape_3" d="M185.871 143.169C196.543 143.169 205.194 151.82 205.194 162.492V172.603H166.548V162.492C166.548 151.82 175.199 143.169 185.871 143.169ZM185.871 155.189C181.218 155.189 177.445 158.962 177.445 163.615V167.997H194.297V163.615C194.297 158.962 190.524 155.19 185.871 155.189Z" fill="#EFE4F7"/>
<path id="Combined Shape_4" d="M185.871 116.881C210.503 116.881 230.471 136.85 230.471 161.481V184.849H141.271V161.481C141.271 136.849 161.239 116.881 185.871 116.881ZM185.771 154.381C180.8 154.381 176.771 158.41 176.771 163.381V167.881H194.771V163.381C194.771 158.41 190.741 154.381 185.771 154.381Z" fill="url(#paint7_linear_1_13331)"/>
</g>
</g>
</g>
</g>
</g>
<defs>
<linearGradient id="paint0_linear_1_13331" x1="162.913" y1="409.312" x2="261.265" y2="326.047" gradientUnits="userSpaceOnUse">
<stop stop-color="#AE3B1B" stop-opacity="0.01"/>
<stop offset="1" stop-color="#AE3B1B"/>
</linearGradient>
<linearGradient id="paint1_linear_1_13331" x1="227.185" y1="39.044" x2="206.836" y2="15.1066" gradientUnits="userSpaceOnUse">
<stop stop-color="#FA5B35"/>
<stop offset="0.504253" stop-color="#FA5B35"/>
<stop offset="1" stop-color="#FC9D86"/>
</linearGradient>
<linearGradient id="paint2_linear_1_13331" x1="37.917" y1="183.974" x2="36.7185" y2="190.75" gradientUnits="userSpaceOnUse">
<stop stop-color="#999DCF" stop-opacity="0.01"/>
<stop offset="1" stop-color="#999DCF"/>
</linearGradient>
<linearGradient id="paint3_linear_1_13331" x1="278.948" y1="306.6" x2="276.443" y2="297.252" gradientUnits="userSpaceOnUse">
<stop stop-color="#999DCF" stop-opacity="0.01"/>
<stop offset="1" stop-color="#999DCF"/>
</linearGradient>
<linearGradient id="paint4_linear_1_13331" x1="15.0783" y1="189.01" x2="15.0783" y2="258.948" gradientUnits="userSpaceOnUse">
<stop stop-color="#151A21" stop-opacity="0.01"/>
<stop offset="1" stop-color="#151A21"/>
</linearGradient>
<linearGradient id="paint5_linear_1_13331" x1="147.417" y1="217.831" x2="147.417" y2="284.19" gradientUnits="userSpaceOnUse">
<stop stop-color="#151A21" stop-opacity="0.01"/>
<stop offset="1" stop-color="#151A21"/>
</linearGradient>
<linearGradient id="paint6_linear_1_13331" x1="230.476" y1="194.805" x2="229.55" y2="334.922" gradientUnits="userSpaceOnUse">
<stop stop-color="#73767A" stop-opacity="0.01"/>
<stop offset="1" stop-color="#73767A"/>
</linearGradient>
<linearGradient id="paint7_linear_1_13331" x1="118.272" y1="113.933" x2="148.166" y2="175.563" gradientUnits="userSpaceOnUse">
<stop stop-color="white"/>
<stop offset="1" stop-color="white" stop-opacity="0.01"/>
</linearGradient>
</defs>
</svg>
