<svg width="284" height="427" viewBox="0 0 284 427" fill="none" xmlns="http://www.w3.org/2000/svg">
<g id="YuhPerson_DP_6d">
<g id="Group 71">
<g id="Path 25 + Path 25 Copy Mask Copy 2">
<g id="Mask">
<path fill-rule="evenodd" clip-rule="evenodd" d="M69.4785 218.416L0.000285745 209.885L0.487763 205.915C1.07771 201.11 4.50864 197.136 9.17594 195.852L42.1298 186.782L71.0707 205.449L69.4785 218.416Z" fill="#FAB4CC"/>
<path fill-rule="evenodd" clip-rule="evenodd" d="M69.4785 218.416L0.000285745 209.885L0.487763 205.915C1.07771 201.11 4.50864 197.136 9.17594 195.852L42.1298 186.782L71.0707 205.449L69.4785 218.416Z" fill="url(#paint0_linear_1_13039)"/>
</g>
<mask id="mask0_1_13039" style="mask-type:luminance" maskUnits="userSpaceOnUse" x="0" y="186" width="72" height="33">
<g id="Mask_2">
<path fill-rule="evenodd" clip-rule="evenodd" d="M69.4785 218.416L0.000285745 209.885L0.487763 205.915C1.07771 201.11 4.50864 197.136 9.17594 195.852L42.1298 186.782L71.0707 205.449L69.4785 218.416Z" fill="white"/>
<path fill-rule="evenodd" clip-rule="evenodd" d="M69.4785 218.416L0.000285745 209.885L0.487763 205.915C1.07771 201.11 4.50864 197.136 9.17594 195.852L42.1298 186.782L71.0707 205.449L69.4785 218.416Z" stroke="white"/>
</g>
</mask>
<g mask="url(#mask0_1_13039)">
<path id="Path 25" d="M26.168 160.583L41.7972 197.403" stroke="#FA5B35" stroke-width="4" stroke-linecap="round"/>
<path id="Path 25_2" d="M9.87695 163.152L25.5062 199.973" stroke="#FA5B35" stroke-width="4" stroke-linecap="round"/>
<path id="Path 25_3" d="M18.0225 161.868L33.6517 198.688" stroke="#FA5B35" stroke-width="4" stroke-linecap="round"/>
</g>
</g>
<g id="Path 25 + Path 25 Copy Mask Copy 3">
<g id="Mask_3">
<path fill-rule="evenodd" clip-rule="evenodd" d="M119.31 67.2881L138.604 -0.000232339L142.449 1.10232C147.103 2.43663 150.491 6.44697 151.029 11.2578L154.832 45.2247L131.868 70.8892L119.31 67.2881Z" fill="#FAB4CC"/>
<path fill-rule="evenodd" clip-rule="evenodd" d="M119.31 67.2881L138.604 -0.000232339L142.449 1.10232C147.103 2.43663 150.491 6.44697 151.029 11.2578L154.832 45.2247L131.868 70.8892L119.31 67.2881Z" fill="url(#paint1_linear_1_13039)"/>
</g>
<mask id="mask1_1_13039" style="mask-type:luminance" maskUnits="userSpaceOnUse" x="119" y="0" width="36" height="71">
<g id="Mask_4">
<path fill-rule="evenodd" clip-rule="evenodd" d="M119.31 67.2881L138.604 -0.000232339L142.449 1.10232C147.103 2.43663 150.491 6.44697 151.029 11.2578L154.832 45.2247L131.868 70.8892L119.31 67.2881Z" fill="white"/>
<path fill-rule="evenodd" clip-rule="evenodd" d="M119.31 67.2881L138.604 -0.000232339L142.449 1.10232C147.103 2.43663 150.491 6.44697 151.029 11.2578L154.832 45.2247L131.868 70.8892L119.31 67.2881Z" stroke="white"/>
</g>
</mask>
<g mask="url(#mask1_1_13039)">
<path id="Path 25_4" d="M183.205 33.5576L144.393 43.2345" stroke="#FA5B35" stroke-width="4" stroke-linecap="round"/>
<path id="Path 25_5" d="M183.216 17.0654L144.404 26.7423" stroke="#FA5B35" stroke-width="4" stroke-linecap="round"/>
<path id="Path 25_6" d="M183.211 25.3115L144.399 34.9884" stroke="#FA5B35" stroke-width="4" stroke-linecap="round"/>
</g>
</g>
<g id="legs">
<g id="back leg">
<g id="Mask_5">
<path d="M248.108 258.862L187.108 258.862C188.557 224.066 186.577 190.269 179.009 161.502C171.96 134.711 154.604 104.059 126.566 69.9774L125.714 68.9435L171.943 30.697C205.611 71.3915 227.436 109.757 237.034 146.236C246.053 180.514 249.763 217.648 248.248 257.574L248.108 258.862Z" fill="#FA5B35"/>
<path d="M248.108 258.862L187.108 258.862C188.557 224.066 186.577 190.269 179.009 161.502C171.96 134.711 154.604 104.059 126.566 69.9774L125.714 68.9435L171.943 30.697C205.611 71.3915 227.436 109.757 237.034 146.236C246.053 180.514 249.763 217.648 248.248 257.574L248.108 258.862Z" fill="url(#paint2_linear_1_13039)"/>
</g>
<mask id="mask2_1_13039" style="mask-type:luminance" maskUnits="userSpaceOnUse" x="125" y="30" width="124" height="229">
<g id="Mask_6">
<path d="M248.108 258.862L187.108 258.862C188.557 224.066 186.577 190.269 179.009 161.502C171.96 134.711 154.604 104.059 126.566 69.9774L125.714 68.9435L171.943 30.697C205.611 71.3915 227.436 109.757 237.034 146.236C246.053 180.514 249.763 217.648 248.248 257.574L248.108 258.862Z" fill="white"/>
<path d="M248.108 258.862L187.108 258.862C188.557 224.066 186.577 190.269 179.009 161.502C171.96 134.711 154.604 104.059 126.566 69.9774L125.714 68.9435L171.943 30.697C205.611 71.3915 227.436 109.757 237.034 146.236C246.053 180.514 249.763 217.648 248.248 257.574L248.108 258.862Z" stroke="white"/>
</g>
</mask>
<g mask="url(#mask2_1_13039)">
<path id="Path" d="M214.108 258.863C215.663 221.557 212.549 186.313 204.296 154.943C196.266 124.423 174.811 88.1839 145.108 51.8626L152.108 46.8626C183.553 84.8712 203.508 120.509 212.032 152.907C220.37 184.598 223.523 221.44 222.108 258.863L214.108 258.863Z" fill="#78C6E7"/>
</g>
</g>
<g id="front leg">
<path id="Path_2" d="M211.109 258.863L151.109 258.863L151.033 239.376L151.02 238.79C150.309 209.509 141.381 191.661 124.272 181.359L123.424 180.855C115.353 175.978 109.738 175.325 103.859 177.67C95.6343 180.951 85.7068 190.206 74.9717 206.239L74.1226 207.519L23.9888 174.555C41.216 148.355 60.1058 130.527 81.6263 121.941C105.467 112.43 130.388 115.206 153.748 129.079L154.331 129.429L155.24 129.968C191.172 151.597 209.746 188.602 210.996 237.097L211.036 238.942L211.109 258.863Z" fill="#FA5B35"/>
<mask id="mask3_1_13039" style="mask-type:luminance" maskUnits="userSpaceOnUse" x="23" y="116" width="189" height="143">
<path id="Path_3" d="M211.109 258.863L151.109 258.863L151.033 239.376L151.02 238.79C150.309 209.509 141.381 191.661 124.272 181.359L123.424 180.855C115.353 175.978 109.738 175.325 103.859 177.67C95.6343 180.951 85.7068 190.206 74.9717 206.239L74.1226 207.519L23.9888 174.555C41.216 148.355 60.1058 130.527 81.6263 121.941C105.467 112.43 130.388 115.206 153.748 129.079L154.331 129.429L155.24 129.968C191.172 151.597 209.746 188.602 210.996 237.097L211.036 238.942L211.109 258.863Z" fill="white"/>
</mask>
<g mask="url(#mask3_1_13039)">
<path id="Path_4" d="M183.413 239.183L175.45 238.412C178.874 203.087 165.585 176.582 135.268 158.262C106.044 140.602 78.5769 151.267 51.6118 191.662L50.7948 192.895L44.1103 188.5C73.4584 143.865 105.655 131.02 139.406 151.415C172.029 171.129 186.836 200.208 183.519 238.034L183.413 239.183Z" fill="#78C6E7"/>
</g>
</g>
</g>
</g>
<g id="Rectangle Copy 80">
<path fill-rule="evenodd" clip-rule="evenodd" d="M228.848 415.413C228.848 421.764 233.996 426.913 240.348 426.913H283.848C283.848 419.733 278.027 413.913 270.848 413.913H258.262C257.368 413.913 256.523 413.507 255.964 412.809L252.3 408.229C250.118 405.501 246.814 403.913 243.32 403.913H240.348C233.996 403.913 228.848 409.062 228.848 415.413Z" fill="#FAB4CC"/>
<path fill-rule="evenodd" clip-rule="evenodd" d="M228.848 415.413C228.848 421.764 233.996 426.913 240.348 426.913H283.848C283.848 419.733 278.027 413.913 270.848 413.913H258.262C257.368 413.913 256.523 413.507 255.964 412.809L252.3 408.229C250.118 405.501 246.814 403.913 243.32 403.913H240.348C233.996 403.913 228.848 409.062 228.848 415.413Z" fill="url(#paint3_linear_1_13039)"/>
</g>
<g id="Rectangle Copy 81">
<path fill-rule="evenodd" clip-rule="evenodd" d="M142.848 415.413C142.848 421.764 147.996 426.913 154.348 426.913H197.848C197.848 419.733 192.027 413.913 184.848 413.913H172.262C171.368 413.913 170.523 413.507 169.964 412.809L166.3 408.229C164.118 405.501 160.814 403.913 157.32 403.913H154.348C147.996 403.913 142.848 409.062 142.848 415.413Z" fill="#FAB4CC"/>
<path fill-rule="evenodd" clip-rule="evenodd" d="M142.848 415.413C142.848 421.764 147.996 426.913 154.348 426.913H197.848C197.848 419.733 192.027 413.913 184.848 413.913H172.262C171.368 413.913 170.523 413.507 169.964 412.809L166.3 408.229C164.118 405.501 160.814 403.913 157.32 403.913H154.348C147.996 403.913 142.848 409.062 142.848 415.413Z" fill="url(#paint4_linear_1_13039)"/>
</g>
<circle id="Oval Copy 142" cx="198.302" cy="357.899" r="18" fill="#FAB4CC"/>
<g id="Group 54 Copy 5">
<g id="Combined Shape">
<path fill-rule="evenodd" clip-rule="evenodd" d="M180.302 414.899C190.243 414.899 198.302 406.841 198.302 396.899V375.899C208.243 375.899 216.302 371.87 216.302 366.899C216.302 361.929 208.243 357.899 198.302 357.899H180.302L180.302 366.899V414.899Z" fill="#FA5B35"/>
<path fill-rule="evenodd" clip-rule="evenodd" d="M180.302 414.899C190.243 414.899 198.302 406.841 198.302 396.899V375.899C208.243 375.899 216.302 371.87 216.302 366.899C216.302 361.929 208.243 357.899 198.302 357.899H180.302L180.302 366.899V414.899Z" fill="url(#paint5_linear_1_13039)"/>
</g>
<rect id="Rectangle" x="198.302" y="379.899" width="18" height="4" transform="rotate(-180 198.302 379.899)" fill="#151A21"/>
</g>
<g id="Group 70 Copy">
<g id="Mask_7">
<path fill-rule="evenodd" clip-rule="evenodd" d="M155.354 237.833C142.829 241.747 134.302 253.346 134.302 266.467V353.411V357.411V396.411C134.302 408.009 143.704 417.411 155.302 417.411C166.9 417.411 176.302 408.009 176.302 396.411V357.411V356.411C176.302 344.261 186.151 334.411 198.302 334.411C210.452 334.411 220.302 344.261 220.302 356.411V357.411V396.411C220.302 408.009 229.704 417.411 241.302 417.411C252.9 417.411 262.302 408.009 262.302 396.411V357.411V353.411V332.411V245.217C262.302 224.978 242.671 210.546 223.354 216.583L155.354 237.833Z" fill="#151A21"/>
<path fill-rule="evenodd" clip-rule="evenodd" d="M155.354 237.833C142.829 241.747 134.302 253.346 134.302 266.467V353.411V357.411V396.411C134.302 408.009 143.704 417.411 155.302 417.411C166.9 417.411 176.302 408.009 176.302 396.411V357.411V356.411C176.302 344.261 186.151 334.411 198.302 334.411C210.452 334.411 220.302 344.261 220.302 356.411V357.411V396.411C220.302 408.009 229.704 417.411 241.302 417.411C252.9 417.411 262.302 408.009 262.302 396.411V357.411V353.411V332.411V245.217C262.302 224.978 242.671 210.546 223.354 216.583L155.354 237.833Z" fill="url(#paint6_linear_1_13039)"/>
</g>
<mask id="mask4_1_13039" style="mask-type:luminance" maskUnits="userSpaceOnUse" x="134" y="215" width="129" height="203">
<g id="Mask_8">
<path fill-rule="evenodd" clip-rule="evenodd" d="M155.354 237.833C142.829 241.747 134.302 253.346 134.302 266.467V353.411V357.411V396.411C134.302 408.009 143.704 417.411 155.302 417.411C166.9 417.411 176.302 408.009 176.302 396.411V357.411V356.411C176.302 344.261 186.151 334.411 198.302 334.411C210.452 334.411 220.302 344.261 220.302 356.411V357.411V396.411C220.302 408.009 229.704 417.411 241.302 417.411C252.9 417.411 262.302 408.009 262.302 396.411V357.411V353.411V332.411V245.217C262.302 224.978 242.671 210.546 223.354 216.583L155.354 237.833Z" fill="white"/>
</g>
</mask>
<g mask="url(#mask4_1_13039)">
<path id="Combined Shape_2" fill-rule="evenodd" clip-rule="evenodd" d="M287.881 398.714C294.449 393.605 300.63 393.606 305.862 398.838C306.448 399.423 306.448 400.373 305.862 400.959C305.276 401.545 304.327 401.545 303.741 400.959C299.713 396.931 295.314 396.859 290.013 400.86L289.723 401.082C283.36 406.031 277.36 406.186 272.234 401.434L271.741 400.959C267.713 396.931 263.314 396.859 258.013 400.86L257.723 401.082C251.36 406.031 245.36 406.186 240.234 401.434L239.741 400.959C235.713 396.931 231.314 396.859 226.013 400.86L225.723 401.082C219.36 406.031 213.36 406.186 208.234 401.434L207.741 400.959C203.713 396.931 199.314 396.859 194.013 400.86L193.723 401.082C187.36 406.031 181.36 406.186 176.234 401.434L175.741 400.959C171.713 396.931 167.314 396.859 162.013 400.86L161.723 401.082C155.36 406.031 149.36 406.186 144.234 401.434L143.741 400.959C139.713 396.931 135.314 396.859 130.013 400.86L129.723 401.082C123.36 406.031 117.36 406.186 112.234 401.434L111.741 400.959C107.713 396.931 103.314 396.859 98.0126 400.86L97.7225 401.082C91.3598 406.031 85.3596 406.186 80.2342 401.434L79.7411 400.959C75.7129 396.931 71.3144 396.859 66.0126 400.86L65.7225 401.082C59.1544 406.19 52.973 406.191 47.7411 400.959C47.1553 400.373 47.1553 399.423 47.7411 398.838C48.3269 398.252 49.2764 398.252 49.8622 398.838C53.8904 402.866 58.2888 402.938 63.5907 398.936L63.8807 398.714C70.4487 393.605 76.6303 393.606 81.8622 398.838L82.2411 399.204C86.1662 402.866 90.4546 402.812 95.5907 398.936L95.8807 398.714C102.449 393.605 108.63 393.606 113.862 398.838L114.241 399.204C118.166 402.866 122.455 402.812 127.591 398.936L127.881 398.714C134.449 393.605 140.63 393.606 145.862 398.838L146.241 399.204C150.166 402.866 154.455 402.812 159.591 398.936L159.881 398.714C166.449 393.605 172.63 393.606 177.862 398.838L178.241 399.204C182.166 402.866 186.455 402.812 191.591 398.936L191.881 398.714C198.449 393.605 204.63 393.606 209.862 398.838L210.241 399.204C214.166 402.866 218.455 402.812 223.591 398.936L223.881 398.714C230.449 393.605 236.63 393.606 241.862 398.838L242.241 399.204C246.166 402.866 250.455 402.812 255.591 398.936L255.881 398.714C262.449 393.605 268.63 393.606 273.862 398.838L274.241 399.204C278.166 402.866 282.455 402.812 287.591 398.936L287.881 398.714ZM287.881 374.714C294.449 369.605 300.63 369.606 305.862 374.838C306.448 375.423 306.448 376.373 305.862 376.959C305.276 377.545 304.327 377.545 303.741 376.959C299.713 372.931 295.314 372.859 290.013 376.86L289.723 377.082C283.36 382.031 277.36 382.186 272.234 377.434L271.741 376.959C267.713 372.931 263.314 372.859 258.013 376.86L257.723 377.082C251.36 382.031 245.36 382.186 240.234 377.434L239.741 376.959C235.713 372.931 231.314 372.859 226.013 376.86L225.723 377.082C219.36 382.031 213.36 382.186 208.234 377.434L207.741 376.959C203.713 372.931 199.314 372.859 194.013 376.86L193.723 377.082C187.36 382.031 181.36 382.186 176.234 377.434L175.741 376.959C171.713 372.931 167.314 372.859 162.013 376.86L161.723 377.082C155.36 382.031 149.36 382.186 144.234 377.434L143.741 376.959C139.713 372.931 135.314 372.859 130.013 376.86L129.723 377.082C123.36 382.031 117.36 382.186 112.234 377.434L111.741 376.959C107.713 372.931 103.314 372.859 98.0126 376.86L97.7225 377.082C91.3598 382.031 85.3596 382.186 80.2342 377.434L79.7411 376.959C75.7129 372.931 71.3144 372.859 66.0126 376.86L65.7225 377.082C59.1544 382.19 52.973 382.191 47.7411 376.959C47.1553 376.373 47.1553 375.423 47.7411 374.838C48.3269 374.252 49.2764 374.252 49.8622 374.838C53.8904 378.866 58.2888 378.938 63.5907 374.936L63.8807 374.714C70.4487 369.605 76.6303 369.606 81.8622 374.838L82.2411 375.204C86.1662 378.866 90.4546 378.812 95.5907 374.936L95.8807 374.714C102.449 369.605 108.63 369.606 113.862 374.838L114.241 375.204C118.166 378.866 122.455 378.812 127.591 374.936L127.881 374.714C134.449 369.605 140.63 369.606 145.862 374.838L146.241 375.204C150.166 378.866 154.455 378.812 159.591 374.936L159.881 374.714C166.449 369.605 172.63 369.606 177.862 374.838L178.241 375.204C182.166 378.866 186.455 378.812 191.591 374.936L191.881 374.714C198.449 369.605 204.63 369.606 209.862 374.838L210.241 375.204C214.166 378.866 218.455 378.812 223.591 374.936L223.881 374.714C230.449 369.605 236.63 369.606 241.862 374.838L242.241 375.204C246.166 378.866 250.455 378.812 255.591 374.936L255.881 374.714C262.449 369.605 268.63 369.606 273.862 374.838L274.241 375.204C278.166 378.866 282.455 378.812 287.591 374.936L287.881 374.714ZM287.881 350.714C294.449 345.605 300.63 345.606 305.862 350.838C306.448 351.423 306.448 352.373 305.862 352.959C305.276 353.545 304.327 353.545 303.741 352.959C299.713 348.931 295.314 348.859 290.013 352.86L289.723 353.082C283.36 358.031 277.36 358.186 272.234 353.434L271.741 352.959C267.713 348.931 263.314 348.859 258.013 352.86L257.723 353.082C251.36 358.031 245.36 358.186 240.234 353.434L239.741 352.959C235.713 348.931 231.314 348.859 226.013 352.86L225.723 353.082C219.36 358.031 213.36 358.186 208.234 353.434L207.741 352.959C203.713 348.931 199.314 348.859 194.013 352.86L193.723 353.082C187.36 358.031 181.36 358.186 176.234 353.434L175.741 352.959C171.713 348.931 167.314 348.859 162.013 352.86L161.723 353.082C155.36 358.031 149.36 358.186 144.234 353.434L143.741 352.959C139.713 348.931 135.314 348.859 130.013 352.86L129.723 353.082C123.36 358.031 117.36 358.186 112.234 353.434L111.741 352.959C107.713 348.931 103.314 348.859 98.0126 352.86L97.7225 353.082C91.3598 358.031 85.3596 358.186 80.2342 353.434L79.7411 352.959C75.7129 348.931 71.3144 348.859 66.0126 352.86L65.7225 353.082C59.1544 358.19 52.973 358.191 47.7411 352.959C47.1553 352.373 47.1553 351.423 47.7411 350.838C48.3269 350.252 49.2764 350.252 49.8622 350.838C53.8904 354.866 58.2888 354.938 63.5907 350.936L63.8807 350.714C70.4487 345.605 76.6303 345.606 81.8622 350.838L82.2411 351.204C86.1662 354.866 90.4546 354.812 95.5907 350.936L95.8807 350.714C102.449 345.605 108.63 345.606 113.862 350.838L114.241 351.204C118.166 354.866 122.455 354.812 127.591 350.936L127.881 350.714C134.449 345.605 140.63 345.606 145.862 350.838L146.241 351.204C150.166 354.866 154.455 354.812 159.591 350.936L159.881 350.714C166.449 345.605 172.63 345.606 177.862 350.838L178.241 351.204C182.166 354.866 186.455 354.812 191.591 350.936L191.881 350.714C198.449 345.605 204.63 345.606 209.862 350.838L210.241 351.204C214.166 354.866 218.455 354.812 223.591 350.936L223.881 350.714C230.449 345.605 236.63 345.606 241.862 350.838L242.241 351.204C246.166 354.866 250.455 354.812 255.591 350.936L255.881 350.714C262.449 345.605 268.63 345.606 273.862 350.838L274.241 351.204C278.166 354.866 282.455 354.812 287.591 350.936L287.881 350.714ZM287.881 326.714C294.449 321.605 300.63 321.606 305.862 326.838C306.448 327.424 306.448 328.373 305.862 328.959C305.276 329.545 304.327 329.545 303.741 328.959C299.713 324.931 295.314 324.859 290.013 328.86L289.723 329.082C283.36 334.031 277.36 334.186 272.234 329.434L271.741 328.959C267.713 324.931 263.314 324.859 258.013 328.86L257.723 329.082C251.36 334.031 245.36 334.186 240.234 329.434L239.741 328.959C235.713 324.931 231.314 324.859 226.013 328.86L225.723 329.082C219.36 334.031 213.36 334.186 208.234 329.434L207.741 328.959C203.713 324.931 199.314 324.859 194.013 328.86L193.723 329.082C187.36 334.031 181.36 334.186 176.234 329.434L175.741 328.959C171.713 324.931 167.314 324.859 162.013 328.86L161.723 329.082C155.36 334.031 149.36 334.186 144.234 329.434L143.741 328.959C139.713 324.931 135.314 324.859 130.013 328.86L129.723 329.082C123.36 334.031 117.36 334.186 112.234 329.434L111.741 328.959C107.713 324.931 103.314 324.859 98.0126 328.86L97.7225 329.082C91.3598 334.031 85.3596 334.186 80.2342 329.434L79.7411 328.959C75.7129 324.931 71.3144 324.859 66.0126 328.86L65.7225 329.082C59.1544 334.19 52.973 334.191 47.7411 328.959C47.1553 328.373 47.1553 327.424 47.7411 326.838C48.3269 326.252 49.2764 326.252 49.8622 326.838C53.8904 330.866 58.2888 330.938 63.5907 326.936L63.8807 326.714C70.4487 321.605 76.6303 321.606 81.8622 326.838L82.2411 327.204C86.1662 330.866 90.4546 330.812 95.5907 326.936L95.8807 326.714C102.449 321.605 108.63 321.606 113.862 326.838L114.241 327.204C118.166 330.866 122.455 330.812 127.591 326.936L127.881 326.714C134.449 321.605 140.63 321.606 145.862 326.838L146.241 327.204C150.166 330.866 154.455 330.812 159.591 326.936L159.881 326.714C166.449 321.605 172.63 321.606 177.862 326.838L178.241 327.204C182.166 330.866 186.455 330.812 191.591 326.936L191.881 326.714C198.449 321.605 204.63 321.606 209.862 326.838L210.241 327.204C214.166 330.866 218.455 330.812 223.591 326.936L223.881 326.714C230.449 321.605 236.63 321.606 241.862 326.838L242.241 327.204C246.166 330.866 250.455 330.812 255.591 326.936L255.881 326.714C262.449 321.605 268.63 321.606 273.862 326.838L274.241 327.204C278.166 330.866 282.455 330.812 287.591 326.936L287.881 326.714ZM287.881 302.714C294.449 297.605 300.63 297.606 305.862 302.838C306.448 303.424 306.448 304.373 305.862 304.959C305.276 305.545 304.327 305.545 303.741 304.959C299.713 300.931 295.314 300.859 290.013 304.86L289.723 305.082C283.36 310.031 277.36 310.186 272.234 305.434L271.741 304.959C267.713 300.931 263.314 300.859 258.013 304.86L257.723 305.082C251.36 310.031 245.36 310.186 240.234 305.434L239.741 304.959C235.713 300.931 231.314 300.859 226.013 304.86L225.723 305.082C219.36 310.031 213.36 310.186 208.234 305.434L207.741 304.959C203.713 300.931 199.314 300.859 194.013 304.86L193.723 305.082C187.36 310.031 181.36 310.186 176.234 305.434L175.741 304.959C171.713 300.931 167.314 300.859 162.013 304.86L161.723 305.082C155.36 310.031 149.36 310.186 144.234 305.434L143.741 304.959C139.713 300.931 135.314 300.859 130.013 304.86L129.723 305.082C123.36 310.031 117.36 310.186 112.234 305.434L111.741 304.959C107.713 300.931 103.314 300.859 98.0126 304.86L97.7225 305.082C91.3598 310.031 85.3596 310.186 80.2342 305.434L79.7411 304.959C75.7129 300.931 71.3144 300.859 66.0126 304.86L65.7225 305.082C59.1544 310.19 52.973 310.191 47.7411 304.959C47.1553 304.373 47.1553 303.424 47.7411 302.838C48.3269 302.252 49.2764 302.252 49.8622 302.838C53.8904 306.866 58.2888 306.938 63.5907 302.936L63.8807 302.714C70.4487 297.605 76.6303 297.606 81.8622 302.838L82.2411 303.204C86.1662 306.866 90.4546 306.812 95.5907 302.936L95.8807 302.714C102.449 297.605 108.63 297.606 113.862 302.838L114.241 303.204C118.166 306.866 122.455 306.812 127.591 302.936L127.881 302.714C134.449 297.605 140.63 297.606 145.862 302.838L146.241 303.204C150.166 306.866 154.455 306.812 159.591 302.936L159.881 302.714C166.449 297.605 172.63 297.606 177.862 302.838L178.241 303.204C182.166 306.866 186.455 306.812 191.591 302.936L191.881 302.714C198.449 297.605 204.63 297.606 209.862 302.838L210.241 303.204C214.166 306.866 218.455 306.812 223.591 302.936L223.881 302.714C230.449 297.605 236.63 297.606 241.862 302.838L242.241 303.204C246.166 306.866 250.455 306.812 255.591 302.936L255.881 302.714C262.449 297.605 268.63 297.606 273.862 302.838L274.241 303.204C278.166 306.866 282.455 306.812 287.591 302.936L287.881 302.714ZM287.881 278.714C294.449 273.605 300.63 273.606 305.862 278.838C306.448 279.424 306.448 280.373 305.862 280.959C305.276 281.545 304.327 281.545 303.741 280.959C299.713 276.931 295.314 276.859 290.013 280.86L289.723 281.082C283.36 286.031 277.36 286.186 272.234 281.434L271.741 280.959C267.713 276.931 263.314 276.859 258.013 280.86L257.723 281.082C251.36 286.031 245.36 286.186 240.234 281.434L239.741 280.959C235.713 276.931 231.314 276.859 226.013 280.86L225.723 281.082C219.36 286.031 213.36 286.186 208.234 281.434L207.741 280.959C203.713 276.931 199.314 276.859 194.013 280.86L193.723 281.082C187.36 286.031 181.36 286.186 176.234 281.434L175.741 280.959C171.713 276.931 167.314 276.859 162.013 280.86L161.723 281.082C155.36 286.031 149.36 286.186 144.234 281.434L143.741 280.959C139.713 276.931 135.314 276.859 130.013 280.86L129.723 281.082C123.36 286.031 117.36 286.186 112.234 281.434L111.741 280.959C107.713 276.931 103.314 276.859 98.0126 280.86L97.7225 281.082C91.3598 286.031 85.3596 286.186 80.2342 281.434L79.7411 280.959C75.7129 276.931 71.3144 276.859 66.0126 280.86L65.7225 281.082C59.1544 286.19 52.973 286.191 47.7411 280.959C47.1553 280.373 47.1553 279.424 47.7411 278.838C48.3269 278.252 49.2764 278.252 49.8622 278.838C53.8904 282.866 58.2888 282.938 63.5907 278.936L63.8807 278.714C70.4487 273.605 76.6303 273.606 81.8622 278.838L82.2411 279.204C86.1662 282.866 90.4546 282.812 95.5907 278.936L95.8807 278.714C102.449 273.605 108.63 273.606 113.862 278.838L114.241 279.204C118.166 282.866 122.455 282.812 127.591 278.936L127.881 278.714C134.449 273.605 140.63 273.606 145.862 278.838L146.241 279.204C150.166 282.866 154.455 282.812 159.591 278.936L159.881 278.714C166.449 273.605 172.63 273.606 177.862 278.838L178.241 279.204C182.166 282.866 186.455 282.812 191.591 278.936L191.881 278.714C198.449 273.605 204.63 273.606 209.862 278.838L210.241 279.204C214.166 282.866 218.455 282.812 223.591 278.936L223.881 278.714C230.449 273.605 236.63 273.606 241.862 278.838L242.241 279.204C246.166 282.866 250.455 282.812 255.591 278.936L255.881 278.714C262.449 273.605 268.63 273.606 273.862 278.838L274.241 279.204C278.166 282.866 282.455 282.812 287.591 278.936L287.881 278.714ZM287.881 254.714C294.449 249.605 300.63 249.606 305.862 254.838C306.448 255.424 306.448 256.373 305.862 256.959C305.276 257.545 304.327 257.545 303.741 256.959C299.713 252.931 295.314 252.859 290.013 256.86L289.723 257.082C283.36 262.031 277.36 262.186 272.234 257.434L271.741 256.959C267.713 252.931 263.314 252.859 258.013 256.86L257.723 257.082C251.36 262.031 245.36 262.186 240.234 257.434L239.741 256.959C235.713 252.931 231.314 252.859 226.013 256.86L225.723 257.082C219.36 262.031 213.36 262.186 208.234 257.434L207.741 256.959C203.713 252.931 199.314 252.859 194.013 256.86L193.723 257.082C187.36 262.031 181.36 262.186 176.234 257.434L175.741 256.959C171.713 252.931 167.314 252.859 162.013 256.86L161.723 257.082C155.36 262.031 149.36 262.186 144.234 257.434L143.741 256.959C139.713 252.931 135.314 252.859 130.013 256.86L129.723 257.082C123.36 262.031 117.36 262.186 112.234 257.434L111.741 256.959C107.713 252.931 103.314 252.859 98.0126 256.86L97.7225 257.082C91.3598 262.031 85.3596 262.186 80.2342 257.434L79.7411 256.959C75.7129 252.931 71.3144 252.859 66.0126 256.86L65.7225 257.082C59.1544 262.19 52.973 262.191 47.7411 256.959C47.1553 256.373 47.1553 255.424 47.7411 254.838C48.3269 254.252 49.2764 254.252 49.8622 254.838C53.8904 258.866 58.2888 258.938 63.5907 254.936L63.8807 254.714C70.4487 249.605 76.6303 249.606 81.8622 254.838L82.2411 255.204C86.1662 258.866 90.4546 258.812 95.5907 254.936L95.8807 254.714C102.449 249.605 108.63 249.606 113.862 254.838L114.241 255.204C118.166 258.866 122.455 258.812 127.591 254.936L127.881 254.714C134.449 249.605 140.63 249.606 145.862 254.838L146.241 255.204C150.166 258.866 154.455 258.812 159.591 254.936L159.881 254.714C166.449 249.605 172.63 249.606 177.862 254.838L178.241 255.204C182.166 258.866 186.455 258.812 191.591 254.936L191.881 254.714C198.449 249.605 204.63 249.606 209.862 254.838L210.241 255.204C214.166 258.866 218.455 258.812 223.591 254.936L223.881 254.714C230.449 249.605 236.63 249.606 241.862 254.838L242.241 255.204C246.166 258.866 250.455 258.812 255.591 254.936L255.881 254.714C262.449 249.605 268.63 249.606 273.862 254.838L274.241 255.204C278.166 258.866 282.455 258.812 287.591 254.936L287.881 254.714ZM287.881 230.227C294.449 225.119 300.63 225.119 305.862 230.35C306.448 230.936 306.448 231.886 305.862 232.472C305.276 233.057 304.327 233.057 303.741 232.472C299.713 228.443 295.314 228.372 290.013 232.373L289.723 232.596C283.36 237.544 277.36 237.699 272.234 232.947L271.741 232.472C267.713 228.443 263.314 228.372 258.013 232.373L257.723 232.596C251.36 237.544 245.36 237.699 240.234 232.947L239.741 232.472C235.713 228.443 231.314 228.372 226.013 232.373L225.723 232.596C219.36 237.544 213.36 237.699 208.234 232.947L207.741 232.472C203.713 228.443 199.314 228.372 194.013 232.373L193.723 232.596C187.36 237.544 181.36 237.699 176.234 232.947L175.741 232.472C171.713 228.443 167.314 228.372 162.013 232.373L161.723 232.596C155.36 237.544 149.36 237.699 144.234 232.947L143.741 232.472C139.713 228.443 135.314 228.372 130.013 232.373L129.723 232.596C123.36 237.544 117.36 237.699 112.234 232.947L111.741 232.472C107.713 228.443 103.314 228.372 98.0126 232.373L97.7225 232.596C91.3598 237.544 85.3595 237.699 80.2342 232.947L79.7411 232.472C75.7129 228.443 71.3144 228.372 66.0126 232.373L65.7225 232.596C59.1545 237.704 52.9729 237.703 47.7411 232.472C47.1554 231.886 47.1553 230.936 47.7411 230.35C48.3268 229.765 49.2764 229.765 49.8622 230.35C53.8904 234.379 58.2888 234.45 63.5907 230.449L63.8807 230.227C70.4488 225.119 76.6303 225.119 81.8622 230.35C85.8904 234.379 90.2888 234.45 95.5907 230.449L95.8807 230.227C102.449 225.119 108.63 225.119 113.862 230.35C117.89 234.379 122.289 234.45 127.591 230.449L127.881 230.227C134.449 225.119 140.63 225.119 145.862 230.35C149.89 234.379 154.289 234.45 159.591 230.449L159.881 230.227C166.449 225.119 172.63 225.119 177.862 230.35C181.89 234.379 186.289 234.45 191.591 230.449L191.881 230.227C198.449 225.119 204.63 225.119 209.862 230.35C213.89 234.379 218.289 234.45 223.591 230.449L223.881 230.227C230.449 225.119 236.63 225.119 241.862 230.35C245.89 234.379 250.289 234.45 255.591 230.449L255.881 230.227C262.449 225.119 268.63 225.119 273.862 230.35C277.89 234.379 282.289 234.45 287.591 230.449L287.881 230.227ZM287.881 206.227C294.449 201.119 300.63 201.119 305.862 206.35C306.448 206.936 306.448 207.886 305.862 208.472C305.276 209.057 304.327 209.057 303.741 208.472C299.713 204.443 295.314 204.372 290.013 208.373L289.723 208.596C283.36 213.544 277.36 213.699 272.234 208.947L271.741 208.472C267.713 204.443 263.314 204.372 258.013 208.373L257.723 208.596C251.36 213.544 245.36 213.699 240.234 208.947L239.741 208.472C235.713 204.443 231.314 204.372 226.013 208.373L225.723 208.596C219.36 213.544 213.36 213.699 208.234 208.947L207.741 208.472C203.713 204.443 199.314 204.372 194.013 208.373L193.723 208.596C187.36 213.544 181.36 213.699 176.234 208.947L175.741 208.472C171.713 204.443 167.314 204.372 162.013 208.373L161.723 208.596C155.36 213.544 149.36 213.699 144.234 208.947L143.741 208.472C139.713 204.443 135.314 204.372 130.013 208.373L129.723 208.596C123.36 213.544 117.36 213.699 112.234 208.947L111.741 208.472C107.713 204.443 103.314 204.372 98.0126 208.373L97.7225 208.596C91.3598 213.544 85.3595 213.699 80.2342 208.947L79.7411 208.472C75.7129 204.443 71.3144 204.372 66.0126 208.373L65.7225 208.596C59.1545 213.704 52.9729 213.703 47.7411 208.472C47.1554 207.886 47.1553 206.936 47.7411 206.35C48.3268 205.765 49.2764 205.765 49.8622 206.35C53.8904 210.379 58.2888 210.45 63.5907 206.449L63.8807 206.227C70.4488 201.119 76.6303 201.119 81.8622 206.35C85.8904 210.379 90.2888 210.45 95.5907 206.449L95.8807 206.227C102.449 201.119 108.63 201.119 113.862 206.35C117.89 210.379 122.289 210.45 127.591 206.449L127.881 206.227C134.449 201.119 140.63 201.119 145.862 206.35C149.89 210.379 154.289 210.45 159.591 206.449L159.881 206.227C166.449 201.119 172.63 201.119 177.862 206.35C181.89 210.379 186.289 210.45 191.591 206.449L191.881 206.227C198.449 201.119 204.63 201.119 209.862 206.35C213.89 210.379 218.289 210.45 223.591 206.449L223.881 206.227C230.449 201.119 236.63 201.119 241.862 206.35C245.89 210.379 250.289 210.45 255.591 206.449L255.881 206.227C262.449 201.119 268.63 201.119 273.862 206.35C277.89 210.379 282.289 210.45 287.591 206.449L287.881 206.227ZM287.881 182.227C294.449 177.119 300.63 177.119 305.862 182.35C306.448 182.936 306.448 183.886 305.862 184.472C305.276 185.057 304.327 185.057 303.741 184.472C299.713 180.443 295.314 180.372 290.013 184.373L289.723 184.596C283.36 189.544 277.36 189.699 272.234 184.947L271.741 184.472C267.713 180.443 263.314 180.372 258.013 184.373L257.723 184.596C251.36 189.544 245.36 189.699 240.234 184.947L239.741 184.472C235.713 180.443 231.314 180.372 226.013 184.373L225.723 184.596C219.36 189.544 213.36 189.699 208.234 184.947L207.741 184.472C203.713 180.443 199.314 180.372 194.013 184.373L193.723 184.596C187.36 189.544 181.36 189.699 176.234 184.947L175.741 184.472C171.713 180.443 167.314 180.372 162.013 184.373L161.723 184.596C155.36 189.544 149.36 189.699 144.234 184.947L143.741 184.472C139.713 180.443 135.314 180.372 130.013 184.373L129.723 184.596C123.36 189.544 117.36 189.699 112.234 184.947L111.741 184.472C107.713 180.443 103.314 180.372 98.0126 184.373L97.7225 184.596C91.3598 189.544 85.3595 189.699 80.2342 184.947L79.7411 184.472C75.7129 180.443 71.3144 180.372 66.0126 184.373L65.7225 184.596C59.1545 189.704 52.9729 189.703 47.7411 184.472C47.1554 183.886 47.1553 182.936 47.7411 182.35C48.3268 181.765 49.2764 181.765 49.8622 182.35C53.8904 186.379 58.2888 186.45 63.5907 182.449L63.8807 182.227C70.4488 177.119 76.6303 177.119 81.8622 182.35C85.8904 186.379 90.2888 186.45 95.5907 182.449L95.8807 182.227C102.449 177.119 108.63 177.119 113.862 182.35C117.89 186.379 122.289 186.45 127.591 182.449L127.881 182.227C134.449 177.119 140.63 177.119 145.862 182.35C149.89 186.379 154.289 186.45 159.591 182.449L159.881 182.227C166.449 177.119 172.63 177.119 177.862 182.35C181.89 186.379 186.289 186.45 191.591 182.449L191.881 182.227C198.449 177.119 204.63 177.119 209.862 182.35C213.89 186.379 218.289 186.45 223.591 182.449L223.881 182.227C230.449 177.119 236.63 177.119 241.862 182.35C245.89 186.379 250.289 186.45 255.591 182.449L255.881 182.227C262.449 177.119 268.63 177.119 273.862 182.35C277.89 186.379 282.289 186.45 287.591 182.449L287.881 182.227ZM287.881 158.227C294.449 153.119 300.63 153.119 305.862 158.35C306.448 158.936 306.448 159.886 305.862 160.472C305.276 161.057 304.327 161.057 303.741 160.472C299.713 156.443 295.314 156.372 290.013 160.373L289.723 160.596C283.36 165.544 277.36 165.699 272.234 160.947L271.741 160.472C267.713 156.443 263.314 156.372 258.013 160.373L257.723 160.596C251.36 165.544 245.36 165.699 240.234 160.947L239.741 160.472C235.713 156.443 231.314 156.372 226.013 160.373L225.723 160.596C219.36 165.544 213.36 165.699 208.234 160.947L207.741 160.472C203.713 156.443 199.314 156.372 194.013 160.373L193.723 160.596C187.36 165.544 181.36 165.699 176.234 160.947L175.741 160.472C171.713 156.443 167.314 156.372 162.013 160.373L161.723 160.596C155.36 165.544 149.36 165.699 144.234 160.947L143.741 160.472C139.713 156.443 135.314 156.372 130.013 160.373L129.723 160.596C123.36 165.544 117.36 165.699 112.234 160.947L111.741 160.472C107.713 156.443 103.314 156.372 98.0126 160.373L97.7225 160.596C91.3598 165.544 85.3595 165.699 80.2342 160.947L79.7411 160.472C75.7129 156.443 71.3144 156.372 66.0126 160.373L65.7225 160.596C59.1545 165.704 52.9729 165.703 47.7411 160.472C47.1554 159.886 47.1553 158.936 47.7411 158.35C48.3268 157.765 49.2764 157.765 49.8622 158.35C53.8904 162.379 58.2888 162.45 63.5907 158.449L63.8807 158.227C70.4488 153.119 76.6303 153.119 81.8622 158.35C85.8904 162.379 90.2888 162.45 95.5907 158.449L95.8807 158.227C102.449 153.119 108.63 153.119 113.862 158.35C117.89 162.379 122.289 162.45 127.591 158.449L127.881 158.227C134.449 153.119 140.63 153.119 145.862 158.35C149.89 162.379 154.289 162.45 159.591 158.449L159.881 158.227C166.449 153.119 172.63 153.119 177.862 158.35C181.89 162.379 186.289 162.45 191.591 158.449L191.881 158.227C198.449 153.119 204.63 153.119 209.862 158.35C213.89 162.379 218.289 162.45 223.591 158.449L223.881 158.227C230.449 153.119 236.63 153.119 241.862 158.35C245.89 162.379 250.289 162.45 255.591 158.449L255.881 158.227C262.449 153.119 268.63 153.119 273.862 158.35C277.89 162.379 282.289 162.45 287.591 158.449L287.881 158.227ZM287.881 134.227C294.449 129.119 300.63 129.119 305.862 134.35C306.448 134.936 306.448 135.886 305.862 136.472C305.276 137.057 304.327 137.057 303.741 136.472C299.713 132.443 295.314 132.372 290.013 136.373L289.723 136.596C283.36 141.544 277.36 141.699 272.234 136.947L271.741 136.472C267.713 132.443 263.314 132.372 258.013 136.373L257.723 136.596C251.36 141.544 245.36 141.699 240.234 136.947L239.741 136.472C235.713 132.443 231.314 132.372 226.013 136.373L225.723 136.596C219.36 141.544 213.36 141.699 208.234 136.947L207.741 136.472C203.713 132.443 199.314 132.372 194.013 136.373L193.723 136.596C187.36 141.544 181.36 141.699 176.234 136.947L175.741 136.472C171.713 132.443 167.314 132.372 162.013 136.373L161.723 136.596C155.36 141.544 149.36 141.699 144.234 136.947L143.741 136.472C139.713 132.443 135.314 132.372 130.013 136.373L129.723 136.596C123.36 141.544 117.36 141.699 112.234 136.947L111.741 136.472C107.713 132.443 103.314 132.372 98.0126 136.373L97.7225 136.596C91.3598 141.544 85.3595 141.699 80.2342 136.947L79.7411 136.472C75.7129 132.443 71.3144 132.372 66.0126 136.373L65.7225 136.596C59.1545 141.704 52.9729 141.703 47.7411 136.472C47.1554 135.886 47.1553 134.936 47.7411 134.35C48.3268 133.765 49.2764 133.765 49.8622 134.35C53.8904 138.379 58.2888 138.45 63.5907 134.449L63.8807 134.227C70.4488 129.119 76.6303 129.119 81.8622 134.35C85.8904 138.379 90.2888 138.45 95.5907 134.449L95.8807 134.227C102.449 129.119 108.63 129.119 113.862 134.35C117.89 138.379 122.289 138.45 127.591 134.449L127.881 134.227C134.449 129.119 140.63 129.119 145.862 134.35C149.89 138.379 154.289 138.45 159.591 134.449L159.881 134.227C166.449 129.119 172.63 129.119 177.862 134.35C181.89 138.379 186.289 138.45 191.591 134.449L191.881 134.227C198.449 129.119 204.63 129.119 209.862 134.35C213.89 138.379 218.289 138.45 223.591 134.449L223.881 134.227C230.449 129.119 236.63 129.119 241.862 134.35C245.89 138.379 250.289 138.45 255.591 134.449L255.881 134.227C262.449 129.119 268.63 129.119 273.862 134.35C277.89 138.379 282.289 138.45 287.591 134.449L287.881 134.227ZM287.881 110.227C294.449 105.119 300.63 105.119 305.862 110.35C306.448 110.936 306.448 111.886 305.862 112.472C305.276 113.057 304.327 113.057 303.741 112.472C299.713 108.443 295.314 108.372 290.013 112.373L289.723 112.596C283.36 117.544 277.36 117.699 272.234 112.947L271.741 112.472C267.713 108.443 263.314 108.372 258.013 112.373L257.723 112.596C251.36 117.544 245.36 117.699 240.234 112.947L239.741 112.472C235.713 108.443 231.314 108.372 226.013 112.373L225.723 112.596C219.36 117.544 213.36 117.699 208.234 112.947L207.741 112.472C203.713 108.443 199.314 108.372 194.013 112.373L193.723 112.596C187.36 117.544 181.36 117.699 176.234 112.947L175.741 112.472C171.713 108.443 167.314 108.372 162.013 112.373L161.723 112.596C155.36 117.544 149.36 117.699 144.234 112.947L143.741 112.472C139.713 108.443 135.314 108.372 130.013 112.373L129.723 112.596C123.36 117.544 117.36 117.699 112.234 112.947L111.741 112.472C107.713 108.443 103.314 108.372 98.0126 112.373L97.7225 112.596C91.3598 117.544 85.3595 117.699 80.2342 112.947L79.7411 112.472C75.7129 108.443 71.3144 108.372 66.0126 112.373L65.7225 112.596C59.1545 117.704 52.9729 117.703 47.7411 112.472C47.1554 111.886 47.1553 110.936 47.7411 110.35C48.3268 109.765 49.2764 109.765 49.8622 110.35C53.8904 114.379 58.2888 114.45 63.5907 110.449L63.8807 110.227C70.4488 105.119 76.6303 105.119 81.8622 110.35C85.8904 114.379 90.2888 114.45 95.5907 110.449L95.8807 110.227C102.449 105.119 108.63 105.119 113.862 110.35C117.89 114.379 122.289 114.45 127.591 110.449L127.881 110.227C134.449 105.119 140.63 105.119 145.862 110.35C149.89 114.379 154.289 114.45 159.591 110.449L159.881 110.227C166.449 105.119 172.63 105.119 177.862 110.35C181.89 114.379 186.289 114.45 191.591 110.449L191.881 110.227C198.449 105.119 204.63 105.119 209.862 110.35C213.89 114.379 218.289 114.45 223.591 110.449L223.881 110.227C230.449 105.119 236.63 105.119 241.862 110.35C245.89 114.379 250.289 114.45 255.591 110.449L255.881 110.227C262.449 105.119 268.63 105.119 273.862 110.35C277.89 114.379 282.289 114.45 287.591 110.449L287.881 110.227ZM287.881 86.2274C294.449 81.1189 300.63 81.1186 305.862 86.3504C306.448 86.9362 306.448 87.8857 305.862 88.4715C305.276 89.0573 304.327 89.0573 303.741 88.4715C299.713 84.4434 295.314 84.3717 290.013 88.3729L289.723 88.5955C283.36 93.5442 277.36 93.6987 272.234 88.9471L271.741 88.4715C267.713 84.4434 263.314 84.3717 258.013 88.3729L257.723 88.5955C251.36 93.5442 245.36 93.6987 240.234 88.9471L239.741 88.4715C235.713 84.4434 231.314 84.3717 226.013 88.3729L225.723 88.5955C219.36 93.5442 213.36 93.6987 208.234 88.9471L207.741 88.4715C203.713 84.4434 199.314 84.3717 194.013 88.3729L193.723 88.5955C187.36 93.5442 181.36 93.6987 176.234 88.9471L175.741 88.4715C171.713 84.4434 167.314 84.3717 162.013 88.3729L161.723 88.5955C155.36 93.5442 149.36 93.6987 144.234 88.9471L143.741 88.4715C139.713 84.4434 135.314 84.3717 130.013 88.3729L129.723 88.5955C123.36 93.5442 117.36 93.6987 112.234 88.9471L111.741 88.4715C107.713 84.4434 103.314 84.3717 98.0126 88.3729L97.7225 88.5955C91.3598 93.5442 85.3595 93.6987 80.2342 88.9471L79.7411 88.4715C75.7129 84.4434 71.3144 84.3717 66.0126 88.3729L65.7225 88.5955C59.1545 93.7039 52.9729 93.7033 47.7411 88.4715C47.1554 87.8857 47.1553 86.9362 47.7411 86.3504C48.3268 85.7647 49.2764 85.7647 49.8622 86.3504C53.8904 90.3786 58.2888 90.4503 63.5907 86.449L63.8807 86.2274C70.4488 81.1189 76.6303 81.1186 81.8622 86.3504C85.8904 90.3786 90.2888 90.4503 95.5907 86.449L95.8807 86.2274C102.449 81.1189 108.63 81.1186 113.862 86.3504C117.89 90.3786 122.289 90.4503 127.591 86.449L127.881 86.2274C134.449 81.1189 140.63 81.1186 145.862 86.3504C149.89 90.3786 154.289 90.4503 159.591 86.449L159.881 86.2274C166.449 81.1189 172.63 81.1186 177.862 86.3504C181.89 90.3786 186.289 90.4503 191.591 86.449L191.881 86.2274C198.449 81.1189 204.63 81.1186 209.862 86.3504C213.89 90.3786 218.289 90.4503 223.591 86.449L223.881 86.2274C230.449 81.1189 236.63 81.1186 241.862 86.3504C245.89 90.3786 250.289 90.4503 255.591 86.449L255.881 86.2274C262.449 81.1189 268.63 81.1186 273.862 86.3504C277.89 90.3786 282.289 90.4503 287.591 86.449L287.881 86.2274Z" fill="white"/>
</g>
</g>
</g>
<defs>
<linearGradient id="paint0_linear_1_13039" x1="68.6318" y1="208.132" x2="74.679" y2="191.196" gradientUnits="userSpaceOnUse">
<stop stop-color="#44484D" stop-opacity="0.01"/>
<stop offset="1" stop-color="#44484D"/>
</linearGradient>
<linearGradient id="paint1_linear_1_13039" x1="129.6" y1="68.0606" x2="145.381" y2="76.6827" gradientUnits="userSpaceOnUse">
<stop stop-color="#44484D" stop-opacity="0.01"/>
<stop offset="1" stop-color="#44484D"/>
</linearGradient>
<linearGradient id="paint2_linear_1_13039" x1="208.228" y1="81.061" x2="101.225" y2="135.078" gradientUnits="userSpaceOnUse">
<stop stop-color="#AE3B1B" stop-opacity="0.01"/>
<stop offset="1" stop-color="#AE3B1B"/>
</linearGradient>
<linearGradient id="paint3_linear_1_13039" x1="226.23" y1="422.55" x2="224.813" y2="405.035" gradientUnits="userSpaceOnUse">
<stop stop-color="#AE7D8E" stop-opacity="0.01"/>
<stop offset="1" stop-color="#AE7D8E"/>
</linearGradient>
<linearGradient id="paint4_linear_1_13039" x1="140.23" y1="422.55" x2="138.813" y2="405.035" gradientUnits="userSpaceOnUse">
<stop stop-color="#AE7D8E" stop-opacity="0.01"/>
<stop offset="1" stop-color="#AE7D8E"/>
</linearGradient>
<linearGradient id="paint5_linear_1_13039" x1="184.052" y1="390.968" x2="213.404" y2="400.632" gradientUnits="userSpaceOnUse">
<stop stop-color="#FC9D86" stop-opacity="0.01"/>
<stop offset="1" stop-color="#FC9D86"/>
</linearGradient>
<linearGradient id="paint6_linear_1_13039" x1="235.352" y1="359.345" x2="313.516" y2="309.333" gradientUnits="userSpaceOnUse">
<stop stop-color="#44484D" stop-opacity="0.01"/>
<stop offset="1" stop-color="#44484D"/>
</linearGradient>
</defs>
</svg>
