<svg width="364" height="418" viewBox="0 0 364 418" fill="none" xmlns="http://www.w3.org/2000/svg">
<g id="YuhPerson_SP_9g">
<g id="Oval Copy 115">
<circle cx="158.055" cy="57" r="18" fill="#151A21"/>
<circle cx="158.055" cy="57" r="18" fill="url(#paint0_linear_1_8506)"/>
</g>
<g id="Group 54 Copy">
<path id="Combined Shape" fill-rule="evenodd" clip-rule="evenodd" d="M176.055 0C166.114 0 158.055 8.05887 158.055 18V39C148.114 39 140.055 43.0294 140.055 48C140.055 52.9706 148.114 57 158.055 57H176.055V48V0Z" fill="#151A21"/>
<rect id="Rectangle" x="158.055" y="35" width="18" height="4" fill="#78C6E7"/>
</g>
<g id="Group 19">
<path id="Rectangle Copy 4" fill-rule="evenodd" clip-rule="evenodd" d="M72.0547 374.5C72.0547 380.851 66.906 386 60.5547 386H11.0547C11.0547 378.084 17.4719 371.667 25.388 371.667H38.6596C40.0513 371.667 41.2807 370.76 41.6922 369.431L47.3659 351.1C48.8565 346.284 53.3102 343 58.3517 343H60.5547C66.906 343 72.0547 348.149 72.0547 354.5V374.5Z" fill="#BABDE4"/>
<g id="Path 20">
<path id="Mask" fill-rule="evenodd" clip-rule="evenodd" d="M13.4932 378C11.9535 380.285 11.0547 383.037 11.0547 386H60.5547C65.6856 386 70.0316 382.64 71.5124 378H13.4932Z" fill="white"/>
<mask id="mask0_1_8506" style="mask-type:luminance" maskUnits="userSpaceOnUse" x="11" y="378" width="61" height="8">
<path id="Mask_2" fill-rule="evenodd" clip-rule="evenodd" d="M13.4932 378C11.9535 380.285 11.0547 383.037 11.0547 386H60.5547C65.6856 386 70.0316 382.64 71.5124 378H13.4932Z" fill="white"/>
</mask>
<g mask="url(#mask0_1_8506)">
</g>
</g>
<path id="Rectangle_2" d="M55.0547 349.5C55.0547 347.015 57.0694 345 59.5547 345H66.1934C66.6691 345 67.0547 345.386 67.0547 345.861V353C67.0547 359.627 61.6821 365 55.0547 365V349.5Z" fill="#EBDDF5"/>
<path id="Rectangle Copy 4_2" fill-rule="evenodd" clip-rule="evenodd" d="M72.0547 374.5C72.0547 380.851 66.906 386 60.5547 386H11.0547C11.0547 378.084 17.4719 371.667 25.388 371.667H38.6596C40.0513 371.667 41.2807 370.76 41.6922 369.431L47.3659 351.1C48.8565 346.284 53.3102 343 58.3517 343H60.5547C66.906 343 72.0547 348.149 72.0547 354.5V374.5Z" fill="url(#paint1_linear_1_8506)"/>
</g>
<g id="Group 19 Copy">
<path id="Rectangle Copy 4_3" fill-rule="evenodd" clip-rule="evenodd" d="M97.0547 388.5C97.0547 394.851 91.906 400 85.5547 400H36.0547C36.0547 392.084 42.4719 385.667 50.388 385.667H63.6596C65.0513 385.667 66.2807 384.76 66.6922 383.431L72.3659 365.1C73.8565 360.284 78.3102 357 83.3517 357H85.5547C91.906 357 97.0547 362.149 97.0547 368.5L97.0547 388.5Z" fill="#BABDE4"/>
<g id="Path 20_2">
<path id="Mask_3" fill-rule="evenodd" clip-rule="evenodd" d="M38.4932 392C36.9535 394.285 36.0547 397.037 36.0547 400H85.5547C90.6856 400 95.0316 396.64 96.5124 392H38.4932Z" fill="white"/>
<mask id="mask1_1_8506" style="mask-type:luminance" maskUnits="userSpaceOnUse" x="36" y="392" width="61" height="8">
<path id="Mask_4" fill-rule="evenodd" clip-rule="evenodd" d="M38.4932 392C36.9535 394.285 36.0547 397.037 36.0547 400H85.5547C90.6856 400 95.0316 396.64 96.5124 392H38.4932Z" fill="white"/>
</mask>
<g mask="url(#mask1_1_8506)">
</g>
</g>
<path id="Rectangle_3" d="M80.0547 363.5C80.0547 361.015 82.0694 359 84.5547 359H91.1934C91.6691 359 92.0547 359.386 92.0547 359.861V367C92.0547 373.627 86.6821 379 80.0547 379V363.5Z" fill="#EBDDF5"/>
<path id="Rectangle Copy 4_4" fill-rule="evenodd" clip-rule="evenodd" d="M97.0547 388.5C97.0547 394.851 91.906 400 85.5547 400H36.0547C36.0547 392.084 42.4719 385.667 50.388 385.667H63.6596C65.0513 385.667 66.2807 384.76 66.6922 383.431L72.3659 365.1C73.8565 360.284 78.3102 357 83.3517 357H85.5547C91.906 357 97.0547 362.149 97.0547 368.5L97.0547 388.5Z" fill="url(#paint2_linear_1_8506)"/>
</g>
<g id="Group 48">
<g id="Rectangle Copy 162">
<path fill-rule="evenodd" clip-rule="evenodd" d="M301.63 264.912C298.97 266.64 298.213 270.198 299.941 272.859L314.225 294.853C322.839 291.173 324.373 280.14 324.644 275.942C324.713 274.864 324.388 273.816 323.8 272.911L316.699 261.976C314.971 259.315 311.413 258.559 308.752 260.287L301.63 264.912Z" fill="#151A21"/>
<path fill-rule="evenodd" clip-rule="evenodd" d="M301.63 264.912C298.97 266.64 298.213 270.198 299.941 272.859L314.225 294.853C322.839 291.173 324.373 280.14 324.644 275.942C324.713 274.864 324.388 273.816 323.8 272.911L316.699 261.976C314.971 259.315 311.413 258.559 308.752 260.287L301.63 264.912Z" fill="url(#paint3_linear_1_8506)"/>
</g>
<path id="Combined Shape Copy 9" fill-rule="evenodd" clip-rule="evenodd" d="M187.966 79.052C199.232 76.0334 211.214 76.9859 221.333 82.7854C241.192 94.1672 274.275 116.325 288.714 144.406C296.402 156.736 350.706 247.515 303.108 278.427L280.4 243.46C274.766 257.861 262.674 269.516 246.592 273.825L197.224 287.053C180.964 291.41 164.429 287.222 152.385 277.243L152.386 304.636C91.486 304.636 91.4432 195.789 91.4432 195.636L91.9395 195.636C92.9057 168.893 108.452 133.84 119.01 112.93C124.918 101.226 135.778 93.0357 148.442 89.6424L187.966 79.052Z" fill="url(#paint4_linear_1_8506)"/>
<path id="Combined Shape Copy 22" d="M254.516 164.65L236.724 176.205L280.399 243.459C274.765 257.86 262.674 269.515 246.593 273.824L197.224 287.053C170.576 294.193 143.186 278.384 136.045 251.736L122.21 200.102L254.516 164.65Z" fill="url(#paint5_linear_1_8506)"/>
<path id="Rectangle Copy 164" fill-rule="evenodd" clip-rule="evenodd" d="M303.108 278.427L236.725 176.205L287.836 143.013C287.836 143.013 354.219 245.235 303.108 278.427Z" fill="url(#paint6_linear_1_8506)"/>
<path id="Combined Shape_2" fill-rule="evenodd" clip-rule="evenodd" d="M121.014 195.636L136.045 251.733C138.829 262.122 144.691 270.864 152.386 277.241L152.387 304.635C91.4656 304.635 91.4436 195.714 91.4436 195.636L121.014 195.636Z" fill="url(#paint7_linear_1_8506)"/>
</g>
<g id="Group 63">
<mask id="mask2_1_8506" style="mask-type:luminance" maskUnits="userSpaceOnUse" x="34" y="225" width="229" height="161">
<path id="Rectangle_4" fill-rule="evenodd" clip-rule="evenodd" d="M133.034 238.331C139.642 265.678 167.519 282.176 194.672 274.808L239.046 262.767L262.054 359L36.0542 386C36.0542 386 29.7241 289.075 41.0542 257C52.3843 224.925 130.054 226 130.054 226L133.034 238.331Z" fill="white"/>
</mask>
<g mask="url(#mask2_1_8506)">
<path id="Path 2" d="M182.055 272.652C182.055 272.652 70.0547 232.652 70.0547 329.652" stroke="#151A21" stroke-width="60" stroke-linecap="round"/>
</g>
</g>
<g id="Group 32">
<g id="Path 2_2">
<path d="M196.055 286.652C196.055 286.652 84.0547 246.652 84.0547 343.652" stroke="#151A21" stroke-width="60" stroke-linecap="round"/>
<path d="M196.055 286.652C196.055 286.652 84.0547 246.652 84.0547 343.652" stroke="url(#paint8_linear_1_8506)" stroke-width="60" stroke-linecap="round"/>
</g>
</g>
<g id="wheels">
<g id="Oval Copy 114">
<circle cx="202.711" cy="326.587" r="53" fill="#78C6E7"/>
<circle cx="202.711" cy="326.587" r="53" fill="url(#paint9_linear_1_8506)"/>
<circle cx="202.711" cy="326.587" r="53" stroke="#151A21" stroke-width="40"/>
<circle cx="202.711" cy="326.587" r="53" stroke="url(#paint10_linear_1_8506)" stroke-width="40"/>
</g>
<g id="Group 45 Copy 7">
<ellipse id="Oval" cx="153.368" cy="301.637" rx="11.7952" ry="2.24401" transform="rotate(128 153.368 301.637)" stroke="white" stroke-width="4" stroke-linecap="round"/>
<ellipse id="Oval_2" cx="157.427" cy="310.539" rx="12.5695" ry="2.91441" transform="rotate(124 157.427 310.539)" stroke="white" stroke-width="4" stroke-linecap="round"/>
<ellipse id="Oval_3" cx="164.116" cy="312.967" rx="7.52359" ry="1.17685" transform="rotate(120 164.116 312.967)" stroke="white" stroke-width="4" stroke-linecap="round"/>
</g>
<g id="Group 45 Copy 8">
<ellipse id="Oval_4" cx="255.951" cy="296.996" rx="11.7952" ry="2.24401" transform="rotate(-112 255.951 296.996)" stroke="white" stroke-width="4" stroke-linecap="round"/>
<ellipse id="Oval_5" cx="246.212" cy="296.06" rx="12.5695" ry="2.91441" transform="rotate(-116 246.212 296.06)" stroke="white" stroke-width="4" stroke-linecap="round"/>
<ellipse id="Oval_6" cx="240.764" cy="300.64" rx="7.52359" ry="1.17685" transform="rotate(-120 240.764 300.64)" stroke="white" stroke-width="4" stroke-linecap="round"/>
</g>
<g id="Group 45 Copy 9">
<ellipse id="Oval_7" cx="207.185" cy="385.737" rx="11.7952" ry="2.24401" transform="rotate(8 207.185 385.737)" stroke="white" stroke-width="4" stroke-linecap="round"/>
<ellipse id="Oval_8" cx="212.865" cy="377.771" rx="12.5695" ry="2.91441" transform="rotate(4 212.865 377.771)" stroke="white" stroke-width="4" stroke-linecap="round"/>
<ellipse id="Oval_9" cx="211.622" cy="370.764" rx="7.52359" ry="1.17685" stroke="white" stroke-width="4" stroke-linecap="round"/>
</g>
</g>
</g>
<defs>
<linearGradient id="paint0_linear_1_8506" x1="172.832" y1="46.1982" x2="151.229" y2="52.6436" gradientUnits="userSpaceOnUse">
<stop stop-color="#44484D" stop-opacity="0.01"/>
<stop offset="1" stop-color="#44484D"/>
</linearGradient>
<linearGradient id="paint1_linear_1_8506" x1="66.9941" y1="362.107" x2="71.6848" y2="337.133" gradientUnits="userSpaceOnUse">
<stop stop-color="#999DCF" stop-opacity="0.01"/>
<stop offset="1" stop-color="#999DCF"/>
</linearGradient>
<linearGradient id="paint2_linear_1_8506" x1="98.7638" y1="378.5" x2="98.7638" y2="357" gradientUnits="userSpaceOnUse">
<stop stop-color="#999DCF" stop-opacity="0.01"/>
<stop offset="1" stop-color="#999DCF"/>
</linearGradient>
<linearGradient id="paint3_linear_1_8506" x1="332.331" y1="273.795" x2="325.936" y2="294.243" gradientUnits="userSpaceOnUse">
<stop stop-color="#44484D" stop-opacity="0.01"/>
<stop offset="1" stop-color="#44484D"/>
</linearGradient>
<linearGradient id="paint4_linear_1_8506" x1="155.128" y1="-26.9232" x2="-6.21552" y2="227.53" gradientUnits="userSpaceOnUse">
<stop stop-color="#ECBACB"/>
<stop offset="0.488176" stop-color="#EBDDF5"/>
<stop offset="1" stop-color="#9ADBED"/>
</linearGradient>
<linearGradient id="paint5_linear_1_8506" x1="139.932" y1="233.784" x2="190.205" y2="357.723" gradientUnits="userSpaceOnUse">
<stop stop-color="#999DCF" stop-opacity="0.01"/>
<stop offset="1" stop-color="#999DCF"/>
</linearGradient>
<linearGradient id="paint6_linear_1_8506" x1="278.58" y1="369.022" x2="358.814" y2="305.496" gradientUnits="userSpaceOnUse">
<stop stop-color="white"/>
<stop offset="1" stop-color="white" stop-opacity="0.01"/>
</linearGradient>
<linearGradient id="paint7_linear_1_8506" x1="84.917" y1="197.385" x2="116.249" y2="314.318" gradientUnits="userSpaceOnUse">
<stop stop-color="#999DCF" stop-opacity="0.01"/>
<stop offset="1" stop-color="#999DCF"/>
</linearGradient>
<linearGradient id="paint8_linear_1_8506" x1="192.062" y1="304.161" x2="185.641" y2="239.35" gradientUnits="userSpaceOnUse">
<stop stop-color="#44484D" stop-opacity="0.01"/>
<stop offset="1" stop-color="#44484D"/>
</linearGradient>
<linearGradient id="paint9_linear_1_8506" x1="177.994" y1="307.228" x2="139.276" y2="356.661" gradientUnits="userSpaceOnUse">
<stop stop-color="#44484D" stop-opacity="0.01"/>
<stop offset="1" stop-color="#44484D"/>
</linearGradient>
<linearGradient id="paint10_linear_1_8506" x1="239.211" y1="363.087" x2="312.211" y2="290.087" gradientUnits="userSpaceOnUse">
<stop stop-color="#44484D" stop-opacity="0.01"/>
<stop offset="0.685766" stop-color="#73767A"/>
<stop offset="1" stop-color="#73767A"/>
</linearGradient>
</defs>
</svg>
