<svg width="329" height="540" viewBox="0 0 329 540" fill="none" xmlns="http://www.w3.org/2000/svg">
<g id="YuhPerson_SP_8a">
<g id="Group 40">
<g id="Combined Shape">
<g id="Mask">
<path fill-rule="evenodd" clip-rule="evenodd" d="M185.098 523.26C185.098 529.605 179.954 534.749 173.608 534.749H124.155C124.155 526.668 130.375 519.948 138.432 519.326L156.212 517.951C157.694 517.837 158.988 516.908 159.453 515.496C160.34 512.799 161.62 508.002 161.62 502.779C161.62 494.787 161.62 473.307 161.62 473.307H185.098L185.098 523.26Z" fill="#BABDE4"/>
<path fill-rule="evenodd" clip-rule="evenodd" d="M185.098 523.26C185.098 529.605 179.954 534.749 173.608 534.749H124.155C124.155 526.668 130.375 519.948 138.432 519.326L156.212 517.951C157.694 517.837 158.988 516.908 159.453 515.496C160.34 512.799 161.62 508.002 161.62 502.779C161.62 494.787 161.62 473.307 161.62 473.307H185.098L185.098 523.26Z" fill="url(#paint0_linear_1_14096)"/>
</g>
<mask id="mask0_1_14096" style="mask-type:luminance" maskUnits="userSpaceOnUse" x="124" y="473" width="62" height="62">
<g id="Mask_2">
<path fill-rule="evenodd" clip-rule="evenodd" d="M185.098 523.26C185.098 529.605 179.954 534.749 173.608 534.749H124.155C124.155 526.668 130.375 519.948 138.432 519.326L156.212 517.951C157.694 517.837 158.988 516.908 159.453 515.496C160.34 512.799 161.62 508.002 161.62 502.779C161.62 494.787 161.62 473.307 161.62 473.307H185.098L185.098 523.26Z" fill="white"/>
<path fill-rule="evenodd" clip-rule="evenodd" d="M185.098 523.26C185.098 529.605 179.954 534.749 173.608 534.749H124.155C124.155 526.668 130.375 519.948 138.432 519.326L156.212 517.951C157.694 517.837 158.988 516.908 159.453 515.496C160.34 512.799 161.62 508.002 161.62 502.779C161.62 494.787 161.62 473.307 161.62 473.307H185.098L185.098 523.26Z" stroke="white"/>
</g>
</mask>
<g mask="url(#mask0_1_14096)">
<path id="Combined Shape_2" d="M126.591 526.757H147.632V508.773H160.62V526.757H184.556C183.076 531.392 178.733 534.749 173.607 534.749H124.154C124.154 531.789 125.053 529.04 126.591 526.757Z" fill="#151A21"/>
</g>
</g>
<g id="Combined Shape Copy 10">
<g id="Mask_3">
<path fill-rule="evenodd" clip-rule="evenodd" d="M305.486 488.526C309.973 493.013 309.973 500.288 305.486 504.774L270.517 539.743C264.803 534.029 264.45 524.879 269.707 518.742L281.307 505.198C282.274 504.069 282.532 502.497 281.862 501.17C280.583 498.636 278.096 494.339 274.403 490.646C268.751 484.994 253.563 469.806 253.563 469.806L270.164 453.204L305.486 488.526Z" fill="#BABDE4"/>
<path fill-rule="evenodd" clip-rule="evenodd" d="M305.486 488.526C309.973 493.013 309.973 500.288 305.486 504.774L270.517 539.743C264.803 534.029 264.45 524.879 269.707 518.742L281.307 505.198C282.274 504.069 282.532 502.497 281.862 501.17C280.583 498.636 278.096 494.339 274.403 490.646C268.751 484.994 253.563 469.806 253.563 469.806L270.164 453.204L305.486 488.526Z" fill="url(#paint1_linear_1_14096)"/>
</g>
<mask id="mask1_1_14096" style="mask-type:luminance" maskUnits="userSpaceOnUse" x="253" y="453" width="56" height="87">
<g id="Mask_4">
<path fill-rule="evenodd" clip-rule="evenodd" d="M305.486 488.526C309.973 493.013 309.973 500.288 305.486 504.774L270.517 539.743C264.803 534.029 264.45 524.879 269.707 518.742L281.307 505.198C282.274 504.069 282.532 502.497 281.862 501.17C280.583 498.636 278.096 494.339 274.403 490.646C268.751 484.994 253.563 469.806 253.563 469.806L270.164 453.204L305.486 488.526Z" fill="white"/>
<path fill-rule="evenodd" clip-rule="evenodd" d="M305.486 488.526C309.973 493.013 309.973 500.288 305.486 504.774L270.517 539.743C264.803 534.029 264.45 524.879 269.707 518.742L281.307 505.198C282.274 504.069 282.532 502.497 281.862 501.17C280.583 498.636 278.096 494.339 274.403 490.646C268.751 484.994 253.563 469.806 253.563 469.806L270.164 453.204L305.486 488.526Z" stroke="white"/>
</g>
</mask>
<g mask="url(#mask1_1_14096)">
<path id="Combined Shape_3" d="M266.588 532.369L281.467 517.491L268.751 504.775L277.935 495.591L290.651 508.307L307.576 491.382C309.807 495.706 309.11 501.15 305.486 504.775L270.517 539.743C268.424 537.651 267.115 535.071 266.588 532.369Z" fill="#151A21"/>
</g>
</g>
<path id="Path 32 Copy 2" d="M173.991 273.611L174.108 498.782" stroke="#CCB1DA" stroke-width="59.9437"/>
<path id="Path 32 Copy 4" d="M173.991 273.611L174.108 499.282" stroke="white" stroke-width="7.9925"/>
<g id="Path 32 Copy 4_2">
<path d="M224.714 265.482C224.714 265.482 231.71 343.509 246.04 396.878C260.369 450.248 283.234 483.433 283.234 483.433" stroke="#CCB1DA" stroke-width="59.9437"/>
<path d="M224.714 265.482C224.714 265.482 231.71 343.509 246.04 396.878C260.369 450.248 283.234 483.433 283.234 483.433" stroke="url(#paint2_linear_1_14096)" stroke-width="59.9437"/>
</g>
<path id="Path 32 Copy 4_3" d="M224.714 265.482C224.714 265.482 231.71 343.509 246.04 396.878C260.369 450.248 283.234 483.433 283.234 483.433" stroke="white" stroke-width="7.9925"/>
</g>
<g id="Group 42">
<ellipse id="Oval" cx="215.818" cy="30.7216" rx="17.2338" ry="22.9784" stroke="#FA5B35" stroke-width="15.4855"/>
<circle id="Oval Copy 106" cx="197.951" cy="53.8025" r="17.9831" fill="#BABDE4"/>
<g id="Oval_2">
<ellipse cx="198.018" cy="42.7615" rx="18.05" ry="10.9383" fill="#FA5B35"/>
<ellipse cx="198.018" cy="42.7615" rx="18.05" ry="10.9383" fill="url(#paint3_linear_1_14096)"/>
</g>
<rect id="Rectangle Copy 62" x="186.096" y="27.7246" width="24.9765" height="7.49296" rx="3.74648" fill="#151A21"/>
</g>
<g id="Group 38">
<g id="Rectangle Copy 157">
<path fill-rule="evenodd" clip-rule="evenodd" d="M50.0064 193.247C50.8275 190.183 49.0089 187.033 45.9443 186.211L5.17222 175.287C3.55787 181.311 7.13327 187.504 13.1581 189.119L23.8001 191.97C24.5514 192.171 25.1709 192.703 25.4843 193.415L28.3677 199.964C29.0694 201.558 30.4563 202.748 32.1385 203.198L40.7728 205.512C43.8373 206.333 46.9873 204.514 47.8085 201.45L50.0064 193.247Z" fill="#BABDE4"/>
<path fill-rule="evenodd" clip-rule="evenodd" d="M50.0064 193.247C50.8275 190.183 49.0089 187.033 45.9443 186.211L5.17222 175.287C3.55787 181.311 7.13327 187.504 13.1581 189.119L23.8001 191.97C24.5514 192.171 25.1709 192.703 25.4843 193.415L28.3677 199.964C29.0694 201.558 30.4563 202.748 32.1385 203.198L40.7728 205.512C43.8373 206.333 46.9873 204.514 47.8085 201.45L50.0064 193.247Z" fill="url(#paint4_linear_1_14096)"/>
</g>
<g id="Rectangle Copy 159">
<path fill-rule="evenodd" clip-rule="evenodd" d="M272.863 291.569C269.799 292.39 267.98 295.54 268.801 298.605L275.589 323.936C284.919 323.098 289.788 313.079 291.342 309.171C291.741 308.167 291.756 307.07 291.476 306.026L288.102 293.433C287.281 290.368 284.131 288.55 281.066 289.371L272.863 291.569Z" fill="#BABDE4"/>
<path fill-rule="evenodd" clip-rule="evenodd" d="M272.863 291.569C269.799 292.39 267.98 295.54 268.801 298.605L275.589 323.936C284.919 323.098 289.788 313.079 291.342 309.171C291.741 308.167 291.756 307.07 291.476 306.026L288.102 293.433C287.281 290.368 284.131 288.55 281.066 289.371L272.863 291.569Z" fill="url(#paint5_linear_1_14096)"/>
</g>
<rect id="Rectangle Copy 34" x="15.7559" y="110.718" width="29.9719" height="60.4432" rx="4.99531" fill="#151A21"/>
<path id="Combined Shape Copy 29" d="M217.5 83.7432C229.164 83.7432 240.491 87.7642 248.765 95.9854C265.384 112.5 292.463 143.507 298.34 175.133C303.115 195.352 322.674 290.79 270.093 304.879L260.894 270.549C251.693 280.668 238.473 287.053 223.719 287.053H172.608C150.314 287.053 131.431 272.451 125.005 252.288C118.944 253.969 112.285 254.078 105.357 252.186C75.7332 244.093 40.284 227.143 21.75 191.642H92.1836V187.146C92.1836 159.278 123.283 119.988 142.104 98.7617C150.848 88.8995 163.52 83.7432 176.701 83.7432H217.5Z" fill="#44484D"/>
<path id="Combined Shape Copy 34" d="M122.655 237.104C122.655 242.399 123.479 247.5 125.005 252.288C118.944 253.969 112.285 254.077 105.357 252.185C75.7332 244.092 40.2839 227.143 21.75 191.642H122.655V237.104Z" fill="url(#paint6_linear_1_14096)"/>
<path id="Combined Shape Copy 35" d="M251.598 183.649L238.547 187.146L260.894 270.549C251.693 280.668 238.473 287.053 223.719 287.053H172.608C145.02 287.053 122.655 264.694 122.655 237.105V183.649H251.598Z" fill="url(#paint7_linear_1_14096)"/>
<path id="Rectangle Copy 35" fill-rule="evenodd" clip-rule="evenodd" d="M270.093 304.879L238.546 187.147L297.413 171.373C297.413 171.373 328.959 289.106 270.093 304.879Z" fill="url(#paint8_linear_1_14096)"/>
<g id="Rectangle Copy 5 + Rectangle Copy 5 + Rectangle Copy 5 + Rectangle Copy 5 + Rectangle Copy 5 + Rectangle Copy 5 Mask Copy 2">
<mask id="mask2_1_14096" style="mask-type:luminance" maskUnits="userSpaceOnUse" x="141" y="119" width="90" height="52">
<rect id="Mask_5" x="141.271" y="119.743" width="89" height="50.5" fill="white"/>
</mask>
<g mask="url(#mask2_1_14096)">
<path id="Combined Shape_4" d="M185.871 119.743C210.503 119.743 230.471 139.712 230.471 164.344V187.711H141.271V164.344C141.271 139.712 161.239 119.743 185.871 119.743ZM185.771 157.243C180.8 157.243 176.771 161.273 176.771 166.243V170.743H194.771V166.243C194.771 161.273 190.741 157.243 185.771 157.243Z" fill="#FA5B35"/>
<path id="Combined Shape_5" d="M185.871 133.112C203.368 133.112 217.552 147.296 217.552 164.793V181.42H154.19V164.793C154.19 147.296 168.374 133.112 185.871 133.112ZM185.871 152.548C179.232 152.548 173.851 157.93 173.851 164.568V170.859H197.892V164.568C197.892 157.93 192.51 152.548 185.871 152.548Z" fill="#78C6E7"/>
<path id="Combined Shape_6" d="M185.871 146.031C196.543 146.031 205.194 154.683 205.194 165.354V175.465H166.548V165.354C166.548 154.683 175.199 146.031 185.871 146.031ZM185.871 158.052C181.218 158.052 177.445 161.824 177.445 166.478V170.859H194.297V166.478C194.297 161.824 190.524 158.052 185.871 158.052Z" fill="#EFE4F7"/>
<path id="Combined Shape_7" d="M185.871 119.743C210.503 119.743 230.471 139.712 230.471 164.344V187.711H141.271V164.344C141.271 139.712 161.239 119.743 185.871 119.743ZM185.771 157.243C180.8 157.243 176.771 161.273 176.771 166.243V170.743H194.771V166.243C194.771 161.273 190.741 157.243 185.771 157.243Z" fill="url(#paint9_linear_1_14096)"/>
</g>
</g>
</g>
</g>
<defs>
<linearGradient id="paint0_linear_1_14096" x1="180.622" y1="510.365" x2="180.622" y2="494.717" gradientUnits="userSpaceOnUse">
<stop stop-color="#999DCF" stop-opacity="0.01"/>
<stop offset="1" stop-color="#999DCF"/>
</linearGradient>
<linearGradient id="paint1_linear_1_14096" x1="294.83" y1="488.106" x2="280.42" y2="473.696" gradientUnits="userSpaceOnUse">
<stop stop-color="#999DCF" stop-opacity="0.01"/>
<stop offset="1" stop-color="#999DCF"/>
</linearGradient>
<linearGradient id="paint2_linear_1_14096" x1="261.767" y1="157.649" x2="188.365" y2="158.579" gradientUnits="userSpaceOnUse">
<stop stop-color="#CCB1DA"/>
<stop offset="1" stop-color="#D6C1E1"/>
</linearGradient>
<linearGradient id="paint3_linear_1_14096" x1="227.532" y1="43.3085" x2="207.182" y2="19.3711" gradientUnits="userSpaceOnUse">
<stop stop-color="#FA5B35"/>
<stop offset="0.504253" stop-color="#FA5B35"/>
<stop offset="1" stop-color="#FC9D86"/>
</linearGradient>
<linearGradient id="paint4_linear_1_14096" x1="37.917" y1="186.836" x2="36.7185" y2="193.612" gradientUnits="userSpaceOnUse">
<stop stop-color="#999DCF" stop-opacity="0.01"/>
<stop offset="1" stop-color="#999DCF"/>
</linearGradient>
<linearGradient id="paint5_linear_1_14096" x1="278.948" y1="309.462" x2="276.443" y2="300.114" gradientUnits="userSpaceOnUse">
<stop stop-color="#999DCF" stop-opacity="0.01"/>
<stop offset="1" stop-color="#999DCF"/>
</linearGradient>
<linearGradient id="paint6_linear_1_14096" x1="15.0783" y1="191.872" x2="15.0783" y2="261.81" gradientUnits="userSpaceOnUse">
<stop stop-color="#151A21" stop-opacity="0.01"/>
<stop offset="1" stop-color="#151A21"/>
</linearGradient>
<linearGradient id="paint7_linear_1_14096" x1="147.417" y1="220.693" x2="147.417" y2="287.053" gradientUnits="userSpaceOnUse">
<stop stop-color="#151A21" stop-opacity="0.01"/>
<stop offset="1" stop-color="#151A21"/>
</linearGradient>
<linearGradient id="paint8_linear_1_14096" x1="230.476" y1="197.667" x2="229.55" y2="337.784" gradientUnits="userSpaceOnUse">
<stop stop-color="#73767A" stop-opacity="0.01"/>
<stop offset="1" stop-color="#73767A"/>
</linearGradient>
<linearGradient id="paint9_linear_1_14096" x1="118.272" y1="116.796" x2="148.166" y2="178.425" gradientUnits="userSpaceOnUse">
<stop stop-color="white"/>
<stop offset="1" stop-color="white" stop-opacity="0.01"/>
</linearGradient>
</defs>
</svg>
