<svg width="388" height="366" viewBox="0 0 388 366" fill="none" xmlns="http://www.w3.org/2000/svg">
<g id="YuhPerson_DP_6c">
<g id="Group 119">
<g id="Rectangle Copy 104">
<rect x="385" y="148" width="36" height="46" rx="18" transform="rotate(90 385 148)" fill="#BABDE4"/>
<rect x="385" y="148" width="36" height="46" rx="18" transform="rotate(90 385 148)" fill="url(#paint0_linear_1_7405)"/>
</g>
<g id="Combined Shape">
<path d="M388 170C388 177.732 381.732 184 374 184H357C357 184 366.532 180.333 369.271 173H340.852C339.829 173 339 172.171 339 171.148V166C339 156.059 347.059 148 357 148V160C357 163.314 359.686 166 363 166H370V161C370 151.059 378.059 143 388 143V170Z" fill="#FA5B35"/>
<path d="M388 170C388 177.732 381.732 184 374 184H357C357 184 366.532 180.333 369.271 173H340.852C339.829 173 339 172.171 339 171.148V166C339 156.059 347.059 148 357 148V160C357 163.314 359.686 166 363 166H370V161C370 151.059 378.059 143 388 143V170Z" fill="url(#paint1_linear_1_7405)"/>
</g>
</g>
<g id="Path 25 + Path 25 Copy Mask Copy 2">
<g id="Mask">
<path fill-rule="evenodd" clip-rule="evenodd" d="M70 241.669L0 241.669V237.669C0 232.828 2.92106 228.466 7.39703 226.622L39 213.604L70 228.604L70 241.669Z" fill="#A1A3A6"/>
<path fill-rule="evenodd" clip-rule="evenodd" d="M70 241.669L0 241.669V237.669C0 232.828 2.92106 228.466 7.39703 226.622L39 213.604L70 228.604L70 241.669Z" fill="url(#paint2_linear_1_7405)"/>
</g>
<mask id="mask0_1_7405" style="mask-type:luminance" maskUnits="userSpaceOnUse" x="0" y="213" width="70" height="29">
<g id="Mask_2">
<path fill-rule="evenodd" clip-rule="evenodd" d="M70 241.669L0 241.669V237.669C0 232.828 2.92106 228.466 7.39703 226.622L39 213.604L70 228.604L70 241.669Z" fill="white"/>
<path fill-rule="evenodd" clip-rule="evenodd" d="M70 241.669L0 241.669V237.669C0 232.828 2.92106 228.466 7.39703 226.622L39 213.604L70 228.604L70 241.669Z" stroke="white"/>
</g>
</mask>
<g mask="url(#mask0_1_7405)">
<path id="Path 25" d="M22.8926 195.277L42.8926 229.918" stroke="#AE3B1B" stroke-width="4" stroke-linecap="round"/>
<path id="Path 25_2" d="M14.9639 197.546L34.9639 232.187" stroke="#AE3B1B" stroke-width="4" stroke-linecap="round"/>
<path id="Path 25_3" d="M7.03613 199.813L27.0361 234.454" stroke="#AE3B1B" stroke-width="4" stroke-linecap="round"/>
</g>
</g>
<path id="Path" d="M227.636 223.523L185.209 265.95L148.44 229.18C136.841 217.582 118.108 217.466 106.367 228.832L106.013 229.18L93.9998 241.604L37.3931 213.074C44.6788 205.753 63.587 186.754 63.587 186.754C98.3827 151.958 154.581 151.61 189.805 185.71L190.866 186.754L227.636 223.523Z" fill="#151A21"/>
<g id="Path 25 + Path 25 Copy Mask Copy 2_2">
<g id="Mask_3">
<path fill-rule="evenodd" clip-rule="evenodd" d="M70 253.669L0 253.669V249.669C0 244.828 2.92106 240.466 7.39703 238.622L39 225.604L70 240.604L70 253.669Z" fill="white"/>
<path fill-rule="evenodd" clip-rule="evenodd" d="M70 253.669L0 253.669V249.669C0 244.828 2.92106 240.466 7.39703 238.622L39 225.604L70 240.604L70 253.669Z" fill="url(#paint3_linear_1_7405)"/>
</g>
<mask id="mask1_1_7405" style="mask-type:luminance" maskUnits="userSpaceOnUse" x="0" y="225" width="70" height="29">
<g id="Mask_4">
<path fill-rule="evenodd" clip-rule="evenodd" d="M70 253.669L0 253.669V249.669C0 244.828 2.92106 240.466 7.39703 238.622L39 225.604L70 240.604L70 253.669Z" fill="white"/>
<path fill-rule="evenodd" clip-rule="evenodd" d="M70 253.669L0 253.669V249.669C0 244.828 2.92106 240.466 7.39703 238.622L39 225.604L70 240.604L70 253.669Z" stroke="white"/>
</g>
</mask>
<g mask="url(#mask1_1_7405)">
<path id="Path 25_4" d="M19.9639 201.546L39.9639 236.187" stroke="#FA5B35" stroke-width="4" stroke-linecap="round"/>
<path id="Path 25_5" d="M4.10742 206.082L24.1074 240.723" stroke="#FA5B35" stroke-width="4" stroke-linecap="round"/>
<path id="Path 25_6" d="M12.0361 203.813L32.0361 238.454" stroke="#FA5B35" stroke-width="4" stroke-linecap="round"/>
</g>
</g>
<g id="Path_2">
<path d="M227.636 235.523L185.209 277.95L148.44 241.18C136.841 229.582 118.108 229.466 106.367 240.832L106.013 241.18L93.9998 253.604L37.3931 225.074C44.6788 217.753 63.587 198.754 63.587 198.754C98.3827 163.958 154.581 163.61 189.805 197.71L190.866 198.754L227.636 235.523Z" fill="#44484D"/>
<path d="M227.636 235.523L185.209 277.95L148.44 241.18C136.841 229.582 118.108 229.466 106.367 240.832L106.013 241.18L93.9998 253.604L37.3931 225.074C44.6788 217.753 63.587 198.754 63.587 198.754C98.3827 163.958 154.581 163.61 189.805 197.71L190.866 198.754L227.636 235.523Z" fill="url(#paint4_radial_1_7405)"/>
</g>
<g id="Rectangle Copy 80">
<path fill-rule="evenodd" clip-rule="evenodd" d="M295.5 311C289.149 311 284 316.149 284 322.5V366C291.18 366 297 360.18 297 353V340.414C297 339.52 297.406 338.675 298.104 338.117L302.684 334.453C305.412 332.27 307 328.966 307 325.473V322.5C307 316.149 301.851 311 295.5 311Z" fill="#BABDE4"/>
<path fill-rule="evenodd" clip-rule="evenodd" d="M295.5 311C289.149 311 284 316.149 284 322.5V366C291.18 366 297 360.18 297 353V340.414C297 339.52 297.406 338.675 298.104 338.117L302.684 334.453C305.412 332.27 307 328.966 307 325.473V322.5C307 316.149 301.851 311 295.5 311Z" fill="url(#paint5_linear_1_7405)"/>
</g>
<g id="Rectangle Copy 84">
<path fill-rule="evenodd" clip-rule="evenodd" d="M318.5 55C324.851 55 330 49.8513 330 43.5V0C322.82 0 317 5.8203 317 13V25.5858C317 26.4797 316.594 27.325 315.896 27.8834L311.316 31.5472C308.588 33.7296 307 37.0337 307 40.5272V43.5C307 49.8513 312.149 55 318.5 55Z" fill="#BABDE4"/>
<path fill-rule="evenodd" clip-rule="evenodd" d="M318.5 55C324.851 55 330 49.8513 330 43.5V0C322.82 0 317 5.8203 317 13V25.5858C317 26.4797 316.594 27.325 315.896 27.8834L311.316 31.5472C308.588 33.7296 307 37.0337 307 40.5272V43.5C307 49.8513 312.149 55 318.5 55Z" fill="url(#paint6_linear_1_7405)"/>
</g>
<g id="Path 29">
<g id="Mask_5">
<path d="M330 284.604C330 310.01 309.405 330.604 284 330.604V237.465L244.655 273.934L190.218 207.207L284 125.375V84.6045C284 59.1995 304.595 38.6046 330 38.6045V284.604Z" fill="#FAB4CC"/>
<path d="M330 284.604C330 310.01 309.405 330.604 284 330.604V237.465L244.655 273.934L190.218 207.207L284 125.375V84.6045C284 59.1995 304.595 38.6046 330 38.6045V284.604Z" fill="url(#paint7_linear_1_7405)"/>
</g>
<mask id="mask2_1_7405" style="mask-type:luminance" maskUnits="userSpaceOnUse" x="190" y="38" width="140" height="293">
<g id="Mask_6">
<path d="M330 284.604C330 310.01 309.405 330.604 284 330.604V237.465L244.655 273.934L190.218 207.207L284 125.375V84.6045C284 59.1995 304.595 38.6046 330 38.6045V284.604Z" fill="white"/>
</g>
</mask>
<g mask="url(#mask2_1_7405)">
<path id="Path 29_2" d="M278 246L293 231" stroke="#78C6E7" stroke-width="4" stroke-linecap="round"/>
<path id="Combined Shape_2" fill-rule="evenodd" clip-rule="evenodd" d="M176.601 252.906C181.709 259.474 181.71 265.656 176.478 270.888C175.892 271.473 174.942 271.473 174.357 270.888C173.771 270.302 173.771 269.352 174.357 268.766C178.385 264.738 178.456 260.34 174.455 255.038L174.233 254.748C169.284 248.385 169.129 242.385 173.881 237.26L174.357 236.766C178.385 232.738 178.456 228.34 174.455 223.038L174.233 222.748C169.284 216.385 169.129 210.385 173.881 205.26L174.357 204.766C178.385 200.738 178.456 196.34 174.455 191.038L174.233 190.748C169.284 184.385 169.129 178.385 173.881 173.26L174.357 172.766C178.385 168.738 178.456 164.34 174.455 159.038L174.233 158.748C169.284 152.385 169.129 146.385 173.881 141.26L174.357 140.766C178.385 136.738 178.456 132.34 174.455 127.038L174.233 126.748C169.284 120.385 169.129 114.385 173.881 109.26L174.357 108.766C178.385 104.738 178.456 100.34 174.455 95.0379L174.233 94.7479C169.284 88.3852 169.129 82.3849 173.881 77.2596L174.357 76.7665C178.385 72.7383 178.456 68.3398 174.455 63.0379L174.233 62.7479C169.284 56.3852 169.129 50.3849 173.881 45.2596L174.357 44.7665C178.385 40.7383 178.456 36.3398 174.455 31.0379L174.233 30.7479C169.124 24.1799 169.125 17.9983 174.357 12.7665C174.942 12.1807 175.892 12.1807 176.478 12.7665C177.063 13.3522 177.063 14.3018 176.478 14.8875C172.45 18.9157 172.378 23.3142 176.379 28.6161L176.601 28.9061C181.709 35.4742 181.71 41.6557 176.478 46.8875C172.45 50.9157 172.378 55.3142 176.379 60.6161L176.601 60.9061C181.709 67.4742 181.71 73.6557 176.478 78.8876C172.45 82.9157 172.378 87.3142 176.379 92.6161L176.601 92.9061C181.709 99.4742 181.71 105.656 176.478 110.888C172.45 114.916 172.378 119.314 176.379 124.616L176.601 124.906C181.709 131.474 181.71 137.656 176.478 142.888C172.45 146.916 172.378 151.314 176.379 156.616L176.601 156.906C181.709 163.474 181.71 169.656 176.478 174.888C172.45 178.916 172.378 183.314 176.379 188.616L176.601 188.906C181.709 195.474 181.71 201.656 176.478 206.888C172.45 210.916 172.378 215.314 176.379 220.616L176.601 220.906C181.709 227.474 181.71 233.656 176.478 238.888C172.45 242.916 172.378 247.314 176.379 252.616L176.601 252.906ZM200.601 252.906C205.709 259.474 205.71 265.656 200.478 270.888C199.892 271.473 198.942 271.473 198.357 270.888C197.771 270.302 197.771 269.352 198.357 268.766C202.385 264.738 202.456 260.34 198.455 255.038L198.233 254.748C193.284 248.385 193.129 242.385 197.881 237.26L198.357 236.766C202.385 232.738 202.456 228.34 198.455 223.038L198.233 222.748C193.284 216.385 193.129 210.385 197.881 205.26L198.357 204.766C202.385 200.738 202.456 196.34 198.455 191.038L198.233 190.748C193.284 184.385 193.129 178.385 197.881 173.26L198.357 172.766C202.385 168.738 202.456 164.34 198.455 159.038L198.233 158.748C193.284 152.385 193.129 146.385 197.881 141.26L198.357 140.766C202.385 136.738 202.456 132.34 198.455 127.038L198.233 126.748C193.284 120.385 193.129 114.385 197.881 109.26L198.357 108.766C202.385 104.738 202.456 100.34 198.455 95.0379L198.233 94.7479C193.284 88.3852 193.129 82.3849 197.881 77.2596L198.357 76.7665C202.385 72.7383 202.456 68.3398 198.455 63.0379L198.233 62.7479C193.284 56.3852 193.129 50.3849 197.881 45.2596L198.357 44.7665C202.385 40.7383 202.456 36.3398 198.455 31.0379L198.233 30.7479C193.124 24.1799 193.125 17.9983 198.357 12.7665C198.942 12.1807 199.892 12.1807 200.478 12.7665C201.063 13.3522 201.063 14.3018 200.478 14.8875C196.45 18.9157 196.378 23.3142 200.379 28.6161L200.601 28.9061C205.709 35.4742 205.71 41.6557 200.478 46.8875C196.45 50.9157 196.378 55.3142 200.379 60.6161L200.601 60.9061C205.709 67.4742 205.71 73.6557 200.478 78.8876C196.45 82.9157 196.378 87.3142 200.379 92.6161L200.601 92.9061C205.709 99.4742 205.71 105.656 200.478 110.888C196.45 114.916 196.378 119.314 200.379 124.616L200.601 124.906C205.709 131.474 205.71 137.656 200.478 142.888C196.45 146.916 196.378 151.314 200.379 156.616L200.601 156.906C205.709 163.474 205.71 169.656 200.478 174.888C196.45 178.916 196.378 183.314 200.379 188.616L200.601 188.906C205.709 195.474 205.71 201.656 200.478 206.888C196.45 210.916 196.378 215.314 200.379 220.616L200.601 220.906C205.709 227.474 205.71 233.656 200.478 238.888C196.45 242.916 196.378 247.314 200.379 252.616L200.601 252.906ZM224.601 252.906C229.709 259.474 229.71 265.656 224.478 270.888C223.892 271.473 222.942 271.473 222.357 270.888C221.771 270.302 221.771 269.352 222.357 268.766C226.385 264.738 226.456 260.34 222.455 255.038L222.233 254.748C217.284 248.385 217.129 242.385 221.881 237.26L222.357 236.766C226.385 232.738 226.456 228.34 222.455 223.038L222.233 222.748C217.284 216.385 217.129 210.385 221.881 205.26L222.357 204.766C226.385 200.738 226.456 196.34 222.455 191.038L222.233 190.748C217.284 184.385 217.129 178.385 221.881 173.26L222.357 172.766C226.385 168.738 226.456 164.34 222.455 159.038L222.233 158.748C217.284 152.385 217.129 146.385 221.881 141.26L222.357 140.766C226.385 136.738 226.456 132.34 222.455 127.038L222.233 126.748C217.284 120.385 217.129 114.385 221.881 109.26L222.357 108.766C226.385 104.738 226.456 100.34 222.455 95.0379L222.233 94.7479C217.284 88.3852 217.129 82.3849 221.881 77.2596L222.357 76.7665C226.385 72.7383 226.456 68.3398 222.455 63.0379L222.233 62.7479C217.284 56.3852 217.129 50.3849 221.881 45.2596L222.357 44.7665C226.385 40.7383 226.456 36.3398 222.455 31.0379L222.233 30.7479C217.124 24.1799 217.125 17.9983 222.357 12.7665C222.942 12.1807 223.892 12.1807 224.478 12.7665C225.063 13.3522 225.063 14.3018 224.478 14.8875C220.45 18.9157 220.378 23.3142 224.379 28.6161L224.601 28.9061C229.709 35.4742 229.71 41.6557 224.478 46.8875C220.45 50.9157 220.378 55.3142 224.379 60.6161L224.601 60.9061C229.709 67.4742 229.71 73.6557 224.478 78.8876C220.45 82.9157 220.378 87.3142 224.379 92.6161L224.601 92.9061C229.709 99.4742 229.71 105.656 224.478 110.888C220.45 114.916 220.378 119.314 224.379 124.616L224.601 124.906C229.709 131.474 229.71 137.656 224.478 142.888C220.45 146.916 220.378 151.314 224.379 156.616L224.601 156.906C229.709 163.474 229.71 169.656 224.478 174.888C220.45 178.916 220.378 183.314 224.379 188.616L224.601 188.906C229.709 195.474 229.71 201.656 224.478 206.888C220.45 210.916 220.378 215.314 224.379 220.616L224.601 220.906C229.709 227.474 229.71 233.656 224.478 238.888C220.45 242.916 220.378 247.314 224.379 252.616L224.601 252.906ZM248.601 252.906C253.709 259.474 253.71 265.656 248.478 270.888C247.892 271.473 246.942 271.473 246.357 270.888C245.771 270.302 245.771 269.352 246.357 268.766C250.385 264.738 250.456 260.34 246.455 255.038L246.233 254.748C241.284 248.385 241.129 242.385 245.881 237.26L246.357 236.766C250.385 232.738 250.456 228.34 246.455 223.038L246.233 222.748C241.284 216.385 241.129 210.385 245.881 205.26L246.357 204.766C250.385 200.738 250.456 196.34 246.455 191.038L246.233 190.748C241.284 184.385 241.129 178.385 245.881 173.26L246.357 172.766C250.385 168.738 250.456 164.34 246.455 159.038L246.233 158.748C241.284 152.385 241.129 146.385 245.881 141.26L246.357 140.766C250.385 136.738 250.456 132.34 246.455 127.038L246.233 126.748C241.284 120.385 241.129 114.385 245.881 109.26L246.357 108.766C250.385 104.738 250.456 100.34 246.455 95.0379L246.233 94.7479C241.284 88.3852 241.129 82.3849 245.881 77.2596L246.357 76.7665C250.385 72.7383 250.456 68.3398 246.455 63.0379L246.233 62.7479C241.284 56.3852 241.129 50.3849 245.881 45.2596L246.357 44.7665C250.385 40.7383 250.456 36.3398 246.455 31.0379L246.233 30.7479C241.124 24.1799 241.125 17.9983 246.357 12.7665C246.942 12.1807 247.892 12.1807 248.478 12.7665C249.063 13.3522 249.063 14.3018 248.478 14.8875C244.45 18.9157 244.378 23.3142 248.379 28.6161L248.601 28.9061C253.709 35.4742 253.71 41.6557 248.478 46.8875C244.45 50.9157 244.378 55.3142 248.379 60.6161L248.601 60.9061C253.709 67.4742 253.71 73.6557 248.478 78.8876C244.45 82.9157 244.378 87.3142 248.379 92.6161L248.601 92.9061C253.709 99.4742 253.71 105.656 248.478 110.888C244.45 114.916 244.378 119.314 248.379 124.616L248.601 124.906C253.709 131.474 253.71 137.656 248.478 142.888C244.45 146.916 244.378 151.314 248.379 156.616L248.601 156.906C253.709 163.474 253.71 169.656 248.478 174.888C244.45 178.916 244.378 183.314 248.379 188.616L248.601 188.906C253.709 195.474 253.71 201.656 248.478 206.888C244.45 210.916 244.378 215.314 248.379 220.616L248.601 220.906C253.709 227.474 253.71 233.656 248.478 238.888C244.45 242.916 244.378 247.314 248.379 252.616L248.601 252.906ZM272.601 252.906C277.709 259.474 277.71 265.656 272.478 270.888C271.892 271.473 270.942 271.473 270.357 270.888C269.771 270.302 269.771 269.352 270.357 268.766C274.385 264.738 274.456 260.34 270.455 255.038L270.233 254.748C265.284 248.385 265.129 242.385 269.881 237.26L270.357 236.766C274.385 232.738 274.456 228.34 270.455 223.038L270.233 222.748C265.284 216.385 265.129 210.385 269.881 205.26L270.357 204.766C274.385 200.738 274.456 196.34 270.455 191.038L270.233 190.748C265.284 184.385 265.129 178.385 269.881 173.26L270.357 172.766C274.385 168.738 274.456 164.34 270.455 159.038L270.233 158.748C265.284 152.385 265.129 146.385 269.881 141.26L270.357 140.766C274.385 136.738 274.456 132.34 270.455 127.038L270.233 126.748C265.284 120.385 265.129 114.385 269.881 109.26L270.357 108.766C274.385 104.738 274.456 100.34 270.455 95.0379L270.233 94.7479C265.284 88.3852 265.129 82.3849 269.881 77.2596L270.357 76.7665C274.385 72.7383 274.456 68.3398 270.455 63.0379L270.233 62.7479C265.284 56.3852 265.129 50.3849 269.881 45.2596L270.357 44.7665C274.385 40.7383 274.456 36.3398 270.455 31.0379L270.233 30.7479C265.124 24.1799 265.125 17.9983 270.357 12.7665C270.942 12.1807 271.892 12.1807 272.478 12.7665C273.063 13.3522 273.063 14.3018 272.478 14.8875C268.45 18.9157 268.378 23.3142 272.379 28.6161L272.601 28.9061C277.709 35.4742 277.71 41.6557 272.478 46.8875C268.45 50.9157 268.378 55.3142 272.379 60.6161L272.601 60.9061C277.709 67.4742 277.71 73.6557 272.478 78.8876C268.45 82.9157 268.378 87.3142 272.379 92.6161L272.601 92.9061C277.709 99.4742 277.71 105.656 272.478 110.888C268.45 114.916 268.378 119.314 272.379 124.616L272.601 124.906C277.709 131.474 277.71 137.656 272.478 142.888C268.45 146.916 268.378 151.314 272.379 156.616L272.601 156.906C277.709 163.474 277.71 169.656 272.478 174.888C268.45 178.916 268.378 183.314 272.379 188.616L272.601 188.906C277.709 195.474 277.71 201.656 272.478 206.888C268.45 210.916 268.378 215.314 272.379 220.616L272.601 220.906C277.709 227.474 277.71 233.656 272.478 238.888C268.45 242.916 268.378 247.314 272.379 252.616L272.601 252.906ZM296.601 316.906C301.709 323.474 301.71 329.656 296.478 334.888C295.892 335.473 294.942 335.473 294.357 334.888C293.771 334.302 293.771 333.352 294.357 332.766C298.385 328.738 298.456 324.34 294.455 319.038L294.233 318.748C289.284 312.385 289.129 306.385 293.881 301.26L294.357 300.766C298.385 296.738 298.456 292.34 294.455 287.038L294.233 286.748C289.284 280.385 289.129 274.385 293.881 269.26L294.357 268.766C298.385 264.738 298.456 260.34 294.455 255.038L294.233 254.748C289.284 248.385 289.129 242.385 293.881 237.26L294.357 236.766C298.385 232.738 298.456 228.34 294.455 223.038L294.233 222.748C289.284 216.385 289.129 210.385 293.881 205.26L294.357 204.766C298.385 200.738 298.456 196.34 294.455 191.038L294.233 190.748C289.284 184.385 289.129 178.385 293.881 173.26L294.357 172.766C298.385 168.738 298.456 164.34 294.455 159.038L294.233 158.748C289.284 152.385 289.129 146.385 293.881 141.26L294.357 140.766C298.385 136.738 298.456 132.34 294.455 127.038L294.233 126.748C289.284 120.385 289.129 114.385 293.881 109.26L294.357 108.766C298.385 104.738 298.456 100.34 294.455 95.0379L294.233 94.7479C289.284 88.3852 289.129 82.3849 293.881 77.2596L294.357 76.7665C298.385 72.7383 298.456 68.3398 294.455 63.0379L294.233 62.7479C289.284 56.3852 289.129 50.3849 293.881 45.2596L294.357 44.7665C298.385 40.7383 298.456 36.3398 294.455 31.0379L294.233 30.7479C289.124 24.1799 289.125 17.9983 294.357 12.7665C294.942 12.1807 295.892 12.1807 296.478 12.7665C297.063 13.3522 297.063 14.3018 296.478 14.8875C292.45 18.9157 292.378 23.3142 296.379 28.6161L296.601 28.9061C301.709 35.4742 301.71 41.6557 296.478 46.8875C292.45 50.9157 292.378 55.3142 296.379 60.6161L296.601 60.9061C301.709 67.4742 301.71 73.6557 296.478 78.8876C292.45 82.9157 292.378 87.3142 296.379 92.6161L296.601 92.9061C301.709 99.4742 301.71 105.656 296.478 110.888C292.45 114.916 292.378 119.314 296.379 124.616L296.601 124.906C301.709 131.474 301.71 137.656 296.478 142.888C292.45 146.916 292.378 151.314 296.379 156.616L296.601 156.906C301.709 163.474 301.71 169.656 296.478 174.888C292.45 178.916 292.378 183.314 296.379 188.616L296.601 188.906C301.709 195.474 301.71 201.656 296.478 206.888C292.45 210.916 292.378 215.314 296.379 220.616L296.601 220.906C301.709 227.474 301.71 233.656 296.478 238.888C292.45 242.916 292.378 247.314 296.379 252.616L296.601 252.906C301.709 259.474 301.71 265.656 296.478 270.888C292.45 274.916 292.378 279.314 296.379 284.616L296.601 284.906C301.709 291.474 301.71 297.656 296.478 302.888C292.45 306.916 292.378 311.314 296.379 316.616L296.601 316.906ZM320.601 316.906C325.709 323.474 325.71 329.656 320.478 334.888C319.892 335.473 318.942 335.473 318.357 334.888C317.771 334.302 317.771 333.352 318.357 332.766C322.385 328.738 322.456 324.34 318.455 319.038L318.233 318.748C313.284 312.385 313.129 306.385 317.881 301.26L318.357 300.766C322.385 296.738 322.456 292.34 318.455 287.038L318.233 286.748C313.284 280.385 313.129 274.385 317.881 269.26L318.357 268.766C322.385 264.738 322.456 260.34 318.455 255.038L318.233 254.748C313.284 248.385 313.129 242.385 317.881 237.26L318.357 236.766C322.385 232.738 322.456 228.34 318.455 223.038L318.233 222.748C313.284 216.385 313.129 210.385 317.881 205.26L318.357 204.766C322.385 200.738 322.456 196.34 318.455 191.038L318.233 190.748C313.284 184.385 313.129 178.385 317.881 173.26L318.357 172.766C322.385 168.738 322.456 164.34 318.455 159.038L318.233 158.748C313.284 152.385 313.129 146.385 317.881 141.26L318.357 140.766C322.385 136.738 322.456 132.34 318.455 127.038L318.233 126.748C313.284 120.385 313.129 114.385 317.881 109.26L318.357 108.766C322.385 104.738 322.456 100.34 318.455 95.0379L318.233 94.7479C313.284 88.3852 313.129 82.3849 317.881 77.2596L318.357 76.7665C322.385 72.7383 322.456 68.3398 318.455 63.0379L318.233 62.7479C313.284 56.3852 313.129 50.3849 317.881 45.2596L318.357 44.7665C322.385 40.7383 322.456 36.3398 318.455 31.0379L318.233 30.7479C313.124 24.1799 313.125 17.9983 318.357 12.7665C318.942 12.1807 319.892 12.1807 320.478 12.7665C321.063 13.3522 321.063 14.3018 320.478 14.8875C316.45 18.9157 316.378 23.3142 320.379 28.6161L320.601 28.9061C325.709 35.4742 325.71 41.6557 320.478 46.8875C316.45 50.9157 316.378 55.3142 320.379 60.6161L320.601 60.9061C325.709 67.4742 325.71 73.6557 320.478 78.8876C316.45 82.9157 316.378 87.3142 320.379 92.6161L320.601 92.9061C325.709 99.4742 325.71 105.656 320.478 110.888C316.45 114.916 316.378 119.314 320.379 124.616L320.601 124.906C325.709 131.474 325.71 137.656 320.478 142.888C316.45 146.916 316.378 151.314 320.379 156.616L320.601 156.906C325.709 163.474 325.71 169.656 320.478 174.888C316.45 178.916 316.378 183.314 320.379 188.616L320.601 188.906C325.709 195.474 325.71 201.656 320.478 206.888C316.45 210.916 316.378 215.314 320.379 220.616L320.601 220.906C325.709 227.474 325.71 233.656 320.478 238.888C316.45 242.916 316.378 247.314 320.379 252.616L320.601 252.906C325.709 259.474 325.71 265.656 320.478 270.888C316.45 274.916 316.378 279.314 320.379 284.616L320.601 284.906C325.709 291.474 325.71 297.656 320.478 302.888C316.45 306.916 316.378 311.314 320.379 316.616L320.601 316.906Z" fill="white"/>
</g>
</g>
<path id="Rectangle Copy 87" fill-rule="evenodd" clip-rule="evenodd" d="M305 218L244.655 273.934L190.218 207.208L305.325 106.768L305 218Z" fill="url(#paint8_radial_1_7405)"/>
<g id="Oval Copy 114">
<circle cx="203.155" cy="265" r="53" fill="url(#paint9_linear_1_7405)"/>
<circle cx="203.155" cy="265" r="53" fill="url(#paint10_linear_1_7405)"/>
<circle cx="203.155" cy="265" r="53" stroke="#151A21" stroke-width="40"/>
<circle cx="203.155" cy="265" r="53" stroke="url(#paint11_linear_1_7405)" stroke-width="40"/>
</g>
<g id="Group 45 Copy 7">
<ellipse id="Oval" cx="153.657" cy="240.05" rx="11.7952" ry="2.24401" transform="rotate(128 153.657 240.05)" stroke="white" stroke-width="4" stroke-linecap="round"/>
<ellipse id="Oval_2" cx="157.716" cy="248.952" rx="12.5695" ry="2.91441" transform="rotate(124 157.716 248.952)" stroke="white" stroke-width="4" stroke-linecap="round"/>
<ellipse id="Oval_3" cx="164.406" cy="251.38" rx="7.52359" ry="1.17685" transform="rotate(120 164.406 251.38)" stroke="white" stroke-width="4" stroke-linecap="round"/>
</g>
<g id="Group 45 Copy 8">
<ellipse id="Oval_4" cx="256.24" cy="235.41" rx="11.7952" ry="2.24401" transform="rotate(-112 256.24 235.41)" stroke="white" stroke-width="4" stroke-linecap="round"/>
<ellipse id="Oval_5" cx="246.501" cy="234.473" rx="12.5695" ry="2.91441" transform="rotate(-116 246.501 234.473)" stroke="white" stroke-width="4" stroke-linecap="round"/>
<ellipse id="Oval_6" cx="241.053" cy="239.052" rx="7.52359" ry="1.17685" transform="rotate(-120 241.053 239.052)" stroke="white" stroke-width="4" stroke-linecap="round"/>
</g>
<g id="Group 45 Copy 9">
<ellipse id="Oval_7" cx="207.474" cy="324.15" rx="11.7952" ry="2.24401" transform="rotate(8 207.474 324.15)" stroke="white" stroke-width="4" stroke-linecap="round"/>
<ellipse id="Oval_8" cx="213.154" cy="316.185" rx="12.5695" ry="2.91441" transform="rotate(4 213.154 316.185)" stroke="white" stroke-width="4" stroke-linecap="round"/>
<ellipse id="Oval_9" cx="211.911" cy="309.177" rx="7.52359" ry="1.17685" stroke="white" stroke-width="4" stroke-linecap="round"/>
</g>
<path id="Rectangle" d="M0 253H70C70 255.209 68.2091 257 66 257H4C1.79086 257 0 255.209 0 253Z" fill="#151A21"/>
</g>
<defs>
<linearGradient id="paint0_linear_1_7405" x1="396.03" y1="186.663" x2="423.11" y2="198.714" gradientUnits="userSpaceOnUse">
<stop stop-color="#999DCF" stop-opacity="0.01"/>
<stop offset="1" stop-color="#999DCF"/>
</linearGradient>
<linearGradient id="paint1_linear_1_7405" x1="379.546" y1="164.82" x2="381.762" y2="137.89" gradientUnits="userSpaceOnUse">
<stop stop-color="#FC9D86" stop-opacity="0.01"/>
<stop offset="1" stop-color="#FC9D86"/>
</linearGradient>
<linearGradient id="paint2_linear_1_7405" x1="42.1831" y1="218.562" x2="44.3254" y2="210.716" gradientUnits="userSpaceOnUse">
<stop stop-color="#44484D" stop-opacity="0.01"/>
<stop offset="1" stop-color="#44484D"/>
</linearGradient>
<linearGradient id="paint3_linear_1_7405" x1="67.9062" y1="243.564" x2="71.8444" y2="226.018" gradientUnits="userSpaceOnUse">
<stop stop-color="#44484D" stop-opacity="0.01"/>
<stop offset="1" stop-color="#44484D"/>
</linearGradient>
<radialGradient id="paint4_radial_1_7405" cx="0" cy="0" r="1" gradientTransform="matrix(-15.3599 -22.6191 35.6856 -21.9436 171.328 225.367)" gradientUnits="userSpaceOnUse">
<stop stop-color="#151A21"/>
<stop offset="0.518535" stop-color="#151A21"/>
<stop offset="1" stop-color="#151A21" stop-opacity="0.01"/>
</radialGradient>
<linearGradient id="paint5_linear_1_7405" x1="290.735" y1="343.91" x2="290.735" y2="321.121" gradientUnits="userSpaceOnUse">
<stop stop-color="#999DCF" stop-opacity="0.01"/>
<stop offset="1" stop-color="#999DCF"/>
</linearGradient>
<linearGradient id="paint6_linear_1_7405" x1="323.265" y1="22.0898" x2="323.265" y2="44.8789" gradientUnits="userSpaceOnUse">
<stop stop-color="#999DCF" stop-opacity="0.01"/>
<stop offset="1" stop-color="#999DCF"/>
</linearGradient>
<linearGradient id="paint7_linear_1_7405" x1="269.659" y1="495.842" x2="527.769" y2="371.75" gradientUnits="userSpaceOnUse">
<stop stop-color="#78C6E7"/>
<stop offset="0.504253" stop-color="#94E0F6"/>
<stop offset="1" stop-color="#EBDDF5"/>
</linearGradient>
<radialGradient id="paint8_radial_1_7405" cx="0" cy="0" r="1" gradientTransform="matrix(34.6641 -44.8672 58.4398 50.77 217.914 247.524)" gradientUnits="userSpaceOnUse">
<stop stop-color="#999DCF"/>
<stop offset="0.695085" stop-color="#999DCF"/>
<stop offset="1" stop-color="#999DCF" stop-opacity="0.01"/>
</radialGradient>
<linearGradient id="paint9_linear_1_7405" x1="214.814" y1="136.132" x2="97.606" y2="253.146" gradientUnits="userSpaceOnUse">
<stop stop-color="#ECBACB"/>
<stop offset="0.488176" stop-color="#EBDDF5"/>
<stop offset="1" stop-color="#9ADBED"/>
</linearGradient>
<linearGradient id="paint10_linear_1_7405" x1="178.438" y1="245.641" x2="139.72" y2="295.075" gradientUnits="userSpaceOnUse">
<stop stop-color="#44484D" stop-opacity="0.01"/>
<stop offset="1" stop-color="#44484D"/>
</linearGradient>
<linearGradient id="paint11_linear_1_7405" x1="239.655" y1="301.5" x2="312.655" y2="228.5" gradientUnits="userSpaceOnUse">
<stop stop-color="#44484D" stop-opacity="0.01"/>
<stop offset="0.685766" stop-color="#73767A"/>
<stop offset="1" stop-color="#73767A"/>
</linearGradient>
</defs>
</svg>
