<svg width="284" height="435" viewBox="0 0 284 435" fill="none" xmlns="http://www.w3.org/2000/svg">
<g id="YuhPerson_DP_6b">
<g id="Combined Shape Copy 10">
<path id="Mask" fill-rule="evenodd" clip-rule="evenodd" d="M113.662 51.2655C109.171 46.7745 109.171 39.4931 113.662 35.0021L148.664 0.000276148C154.383 5.71988 154.737 14.8782 149.475 21.0216L137.864 34.578C136.896 35.708 136.637 37.2819 137.308 38.61C138.589 41.1466 141.078 45.4474 144.775 49.1442C150.432 54.8011 165.634 70.0038 165.634 70.0038L149.017 86.6209L113.662 51.2655Z" fill="#FAB4CC"/>
<mask id="mask0_1_12982" style="mask-type:luminance" maskUnits="userSpaceOnUse" x="110" y="0" width="56" height="87">
<path id="Mask_2" fill-rule="evenodd" clip-rule="evenodd" d="M113.662 51.2655C109.171 46.7745 109.171 39.4931 113.662 35.0021L148.664 0.000276148C154.383 5.71988 154.737 14.8782 149.475 21.0216L137.864 34.578C136.896 35.708 136.637 37.2819 137.308 38.61C138.589 41.1466 141.078 45.4474 144.775 49.1442C150.432 54.8011 165.634 70.0038 165.634 70.0038L149.017 86.6209L113.662 51.2655Z" fill="white"/>
</mask>
<g mask="url(#mask0_1_12982)">
<path id="Combined Shape" d="M152.597 7.38111L137.704 22.2739L150.432 35.0018L141.239 44.1942L128.512 31.4662L111.571 48.4071C109.337 44.0792 110.034 38.6299 113.662 35.0018L148.664 -1.03712e-05C150.759 2.0948 152.07 4.67669 152.597 7.38111Z" fill="#151A21"/>
</g>
</g>
<g id="Combined Shape_2">
<path id="Mask_3" fill-rule="evenodd" clip-rule="evenodd" d="M58.4414 224.357C55.3691 230.072 48.181 232.115 42.5625 228.871L0.000576317 204.298C4.04495 197.293 12.7998 194.581 20.0957 198.074L36.1953 205.78C37.5373 206.423 39.1245 206.265 40.2338 205.274C42.3524 203.38 45.8625 199.863 48.4765 195.335C52.4765 188.407 63.2265 169.787 63.2265 169.787L83.5781 181.537L60.6451 220.258L58.4414 224.357Z" fill="#FAB4CC"/>
<mask id="mask1_1_12982" style="mask-type:luminance" maskUnits="userSpaceOnUse" x="0" y="169" width="84" height="62">
<path id="Mask_4" fill-rule="evenodd" clip-rule="evenodd" d="M58.4414 224.357C55.3691 230.072 48.181 232.115 42.5625 228.871L0.000576317 204.298C4.04495 197.293 12.7998 194.581 20.0957 198.074L36.1953 205.78C37.5373 206.423 39.1245 206.265 40.2338 205.274C42.3524 203.38 45.8625 199.863 48.4765 195.335C52.4765 188.407 63.2265 169.787 63.2265 169.787L83.5781 181.537L60.6451 220.258L58.4414 224.357Z" fill="white"/>
</mask>
<g mask="url(#mask1_1_12982)">
<path id="Combined Shape_3" d="M6.11178 198.589L24.3516 209.12L33.3516 193.531L44.6099 200.031L35.6099 215.62L56.3582 227.599C52.7559 230.877 47.3117 231.613 42.8683 229.048L0 204.298C1.48125 201.732 3.63589 199.798 6.11178 198.589Z" fill="#151A21"/>
</g>
</g>
<g id="legs">
<g id="back leg">
<g id="Mask_5">
<path d="M247.969 266.584L186.969 266.584C188.419 231.787 186.439 197.99 178.87 169.224C171.821 142.433 154.466 111.781 126.428 77.699L125.575 76.6652L171.805 38.4187C205.472 79.1132 227.298 117.478 236.896 153.958C245.914 188.236 249.624 225.37 248.109 265.295L247.969 266.584Z" fill="#CCB1DA"/>
<path d="M247.969 266.584L186.969 266.584C188.419 231.787 186.439 197.99 178.87 169.224C171.821 142.433 154.466 111.781 126.428 77.699L125.575 76.6652L171.805 38.4187C205.472 79.1132 227.298 117.478 236.896 153.958C245.914 188.236 249.624 225.37 248.109 265.295L247.969 266.584Z" fill="url(#paint0_linear_1_12982)"/>
</g>
<mask id="mask2_1_12982" style="mask-type:luminance" maskUnits="userSpaceOnUse" x="125" y="38" width="124" height="229">
<g id="Mask_6">
<path d="M247.969 266.584L186.969 266.584C188.419 231.787 186.439 197.99 178.87 169.224C171.821 142.433 154.466 111.781 126.428 77.699L125.575 76.6652L171.805 38.4187C205.472 79.1132 227.298 117.478 236.896 153.958C245.914 188.236 249.624 225.37 248.109 265.295L247.969 266.584Z" fill="white"/>
<path d="M247.969 266.584L186.969 266.584C188.419 231.787 186.439 197.99 178.87 169.224C171.821 142.433 154.466 111.781 126.428 77.699L125.575 76.6652L171.805 38.4187C205.472 79.1132 227.298 117.478 236.896 153.958C245.914 188.236 249.624 225.37 248.109 265.295L247.969 266.584Z" stroke="white"/>
</g>
</mask>
<g mask="url(#mask2_1_12982)">
<path id="Path" d="M213.97 266.584C215.524 229.279 212.41 194.035 204.157 162.665C196.127 132.145 174.672 95.9055 144.97 59.5843L151.97 54.5843C183.415 92.5929 203.369 128.231 211.894 160.629C220.232 192.32 223.385 229.162 221.97 266.584L213.97 266.584Z" fill="white"/>
</g>
</g>
<g id="front leg">
<path id="Path_2" d="M210.97 266.585L150.97 266.585L150.894 247.098L150.882 246.511C150.17 217.231 141.242 199.382 124.133 189.081L123.286 188.577C115.215 183.7 109.6 183.046 103.72 185.392C95.4956 188.673 85.5681 197.928 74.8331 213.961L73.9839 215.241L23.8501 182.277C41.0773 156.077 59.9672 138.249 81.4876 129.663C105.329 120.152 130.249 122.927 153.61 136.801L154.193 137.151L155.101 137.69C191.034 159.319 209.607 196.323 210.858 244.819L210.897 246.663L210.97 266.585Z" fill="#CCB1DA"/>
<mask id="mask3_1_12982" style="mask-type:luminance" maskUnits="userSpaceOnUse" x="23" y="124" width="188" height="143">
<path id="Path_3" d="M210.97 266.585L150.97 266.585L150.894 247.098L150.882 246.511C150.17 217.231 141.242 199.382 124.133 189.081L123.286 188.577C115.215 183.7 109.6 183.046 103.72 185.392C95.4956 188.673 85.5681 197.928 74.8331 213.961L73.9839 215.241L23.8501 182.277C41.0773 156.077 59.9672 138.249 81.4876 129.663C105.329 120.152 130.249 122.927 153.61 136.801L154.193 137.151L155.101 137.69C191.034 159.319 209.607 196.323 210.858 244.819L210.897 246.663L210.97 266.585Z" fill="white"/>
</mask>
<g mask="url(#mask3_1_12982)">
<path id="Path_4" d="M183.274 246.905L175.311 246.133C178.735 210.809 165.446 184.304 135.129 165.984C105.905 148.324 78.4382 158.989 51.4731 199.383L50.6561 200.616L43.9716 196.221C73.3197 151.586 105.516 138.742 139.267 159.137C171.89 178.851 186.697 207.93 183.38 245.756L183.274 246.905Z" fill="white"/>
</g>
</g>
</g>
<g id="Rectangle Copy 133">
<path fill-rule="evenodd" clip-rule="evenodd" d="M228.709 423.135C228.709 429.486 233.858 434.635 240.209 434.635H283.709C283.709 427.455 277.889 421.635 270.709 421.635H258.123C257.229 421.635 256.384 421.228 255.826 420.53L252.162 415.951C249.979 413.223 246.675 411.635 243.182 411.635H240.209C233.858 411.635 228.709 416.783 228.709 423.135Z" fill="#FAB4CC"/>
<path fill-rule="evenodd" clip-rule="evenodd" d="M228.709 423.135C228.709 429.486 233.858 434.635 240.209 434.635H283.709C283.709 427.455 277.889 421.635 270.709 421.635H258.123C257.229 421.635 256.384 421.228 255.826 420.53L252.162 415.951C249.979 413.223 246.675 411.635 243.182 411.635H240.209C233.858 411.635 228.709 416.783 228.709 423.135Z" fill="url(#paint1_linear_1_12982)"/>
</g>
<g id="Rectangle Copy 134">
<path fill-rule="evenodd" clip-rule="evenodd" d="M142.709 423.135C142.709 429.486 147.858 434.635 154.209 434.635H197.709C197.709 427.455 191.889 421.635 184.709 421.635H172.123C171.229 421.635 170.384 421.228 169.826 420.53L166.162 415.951C163.979 413.223 160.675 411.635 157.182 411.635H154.209C147.858 411.635 142.709 416.783 142.709 423.135Z" fill="#FAB4CC"/>
<path fill-rule="evenodd" clip-rule="evenodd" d="M142.709 423.135C142.709 429.486 147.858 434.635 154.209 434.635H197.709C197.709 427.455 191.889 421.635 184.709 421.635H172.123C171.229 421.635 170.384 421.228 169.826 420.53L166.162 415.951C163.979 413.223 160.675 411.635 157.182 411.635H154.209C147.858 411.635 142.709 416.783 142.709 423.135Z" fill="url(#paint2_linear_1_12982)"/>
</g>
<circle id="Oval Copy 149" cx="198.164" cy="365.62" r="18" fill="#FAB4CC"/>
<g id="Group 54 Copy 6">
<g id="Combined Shape_4">
<path fill-rule="evenodd" clip-rule="evenodd" d="M180.164 422.62C190.105 422.62 198.164 414.561 198.164 404.62V383.62C208.105 383.62 216.164 379.591 216.164 374.62C216.164 369.65 208.105 365.62 198.164 365.62H180.164L180.164 374.62V422.62Z" fill="#FA5B35"/>
<path fill-rule="evenodd" clip-rule="evenodd" d="M180.164 422.62C190.105 422.62 198.164 414.561 198.164 404.62V383.62C208.105 383.62 216.164 379.591 216.164 374.62C216.164 369.65 208.105 365.62 198.164 365.62H180.164L180.164 374.62V422.62Z" fill="url(#paint3_linear_1_12982)"/>
</g>
<rect id="Rectangle" x="198.164" y="387.62" width="18" height="4" transform="rotate(-180 198.164 387.62)" fill="#151A21"/>
</g>
<g id="Group 70 Copy 3">
<path id="Mask_7" fill-rule="evenodd" clip-rule="evenodd" d="M155.216 245.554C142.692 249.468 134.164 261.067 134.164 274.189V361.133V365.133V404.133C134.164 415.731 143.566 425.133 155.164 425.133C166.762 425.133 176.164 415.731 176.164 404.133V365.133V364.133C176.164 351.983 186.014 342.133 198.164 342.133C210.314 342.133 220.164 351.983 220.164 364.133V365.133V404.133C220.164 415.731 229.566 425.133 241.164 425.133C252.762 425.133 262.164 415.731 262.164 404.133V365.133V361.133V340.133V252.939C262.164 232.7 242.534 218.268 223.216 224.304L155.216 245.554Z" fill="url(#paint4_linear_1_12982)"/>
<mask id="mask4_1_12982" style="mask-type:luminance" maskUnits="userSpaceOnUse" x="134" y="222" width="129" height="204">
<path id="Mask_8" fill-rule="evenodd" clip-rule="evenodd" d="M155.216 245.554C142.692 249.468 134.164 261.067 134.164 274.189V361.133V365.133V404.133C134.164 415.731 143.566 425.133 155.164 425.133C166.762 425.133 176.164 415.731 176.164 404.133V365.133V364.133C176.164 351.983 186.014 342.133 198.164 342.133C210.314 342.133 220.164 351.983 220.164 364.133V365.133V404.133C220.164 415.731 229.566 425.133 241.164 425.133C252.762 425.133 262.164 415.731 262.164 404.133V365.133V361.133V340.133V252.939C262.164 232.7 242.534 218.268 223.216 224.304L155.216 245.554Z" fill="white"/>
</mask>
<g mask="url(#mask4_1_12982)">
<path id="Combined Shape_5" fill-rule="evenodd" clip-rule="evenodd" d="M263.743 323.436C270.311 318.328 276.493 318.328 281.724 323.559C282.31 324.145 282.31 325.095 281.724 325.68C281.139 326.266 280.189 326.266 279.603 325.68C275.575 321.652 271.177 321.581 265.875 325.582L265.585 325.805C259.222 330.753 253.222 330.908 248.097 326.156L247.603 325.68C243.575 321.652 239.177 321.581 233.875 325.582L233.585 325.805C227.222 330.753 221.222 330.908 216.097 326.156L215.603 325.68C211.575 321.652 207.177 321.581 201.875 325.582L201.585 325.805C195.222 330.753 189.222 330.908 184.097 326.156L183.603 325.68C179.575 321.652 175.177 321.581 169.875 325.582L169.585 325.805C163.017 330.913 156.835 330.912 151.603 325.68C151.018 325.095 151.018 324.145 151.603 323.559C152.189 322.974 153.139 322.974 153.724 323.559C157.753 327.588 162.151 327.659 167.453 323.658L167.743 323.436C174.311 318.328 180.493 318.328 185.724 323.559C189.753 327.588 194.151 327.659 199.453 323.658L199.743 323.436C206.311 318.328 212.493 318.328 217.724 323.559C221.753 327.588 226.151 327.659 231.453 323.658L231.743 323.436C238.311 318.328 244.493 318.328 249.724 323.559C253.753 327.588 258.151 327.659 263.453 323.658L263.743 323.436ZM263.743 299.436C270.311 294.328 276.493 294.328 281.724 299.559C282.31 300.145 282.31 301.095 281.724 301.68C281.139 302.266 280.189 302.266 279.603 301.68C275.575 297.652 271.177 297.581 265.875 301.582L265.585 301.805C259.222 306.753 253.222 306.908 248.097 302.156L247.603 301.68C243.575 297.652 239.177 297.581 233.875 301.582L233.585 301.805C227.222 306.753 221.222 306.908 216.097 302.156L215.603 301.68C211.575 297.652 207.177 297.581 201.875 301.582L201.585 301.805C195.017 306.913 188.835 306.912 183.603 301.68C183.018 301.095 183.018 300.145 183.603 299.559C184.189 298.974 185.139 298.974 185.724 299.559C189.753 303.588 194.151 303.659 199.453 299.658L199.743 299.436C206.311 294.328 212.493 294.328 217.724 299.559C221.753 303.588 226.151 303.659 231.453 299.658L231.743 299.436C238.311 294.328 244.493 294.328 249.724 299.559C253.753 303.588 258.151 303.659 263.453 299.658L263.743 299.436ZM263.743 275.436C270.311 270.328 276.493 270.328 281.724 275.559C282.31 276.145 282.31 277.095 281.724 277.68C281.139 278.266 280.189 278.266 279.603 277.68C275.575 273.652 271.177 273.581 265.875 277.582L265.585 277.805C259.222 282.753 253.222 282.908 248.097 278.156L247.603 277.68C243.575 273.652 239.177 273.581 233.875 277.582L233.585 277.805C227.017 282.913 220.835 282.912 215.603 277.68C215.018 277.095 215.018 276.145 215.603 275.559C216.189 274.974 217.139 274.974 217.724 275.559C221.753 279.588 226.151 279.659 231.453 275.658L231.743 275.436C238.311 270.328 244.493 270.328 249.724 275.559C253.753 279.588 258.151 279.659 263.453 275.658L263.743 275.436Z" fill="white"/>
</g>
</g>
</g>
<defs>
<linearGradient id="paint0_linear_1_12982" x1="210.563" y1="100.358" x2="125.261" y2="141.036" gradientUnits="userSpaceOnUse">
<stop stop-color="#999DCF" stop-opacity="0.01"/>
<stop offset="1" stop-color="#999DCF"/>
</linearGradient>
<linearGradient id="paint1_linear_1_12982" x1="226.091" y1="430.272" x2="224.675" y2="412.757" gradientUnits="userSpaceOnUse">
<stop stop-color="#AE7D8E" stop-opacity="0.01"/>
<stop offset="1" stop-color="#AE7D8E"/>
</linearGradient>
<linearGradient id="paint2_linear_1_12982" x1="140.091" y1="430.272" x2="138.675" y2="412.757" gradientUnits="userSpaceOnUse">
<stop stop-color="#AE7D8E" stop-opacity="0.01"/>
<stop offset="1" stop-color="#AE7D8E"/>
</linearGradient>
<linearGradient id="paint3_linear_1_12982" x1="183.914" y1="398.689" x2="213.266" y2="408.353" gradientUnits="userSpaceOnUse">
<stop stop-color="#FC9D86" stop-opacity="0.01"/>
<stop offset="1" stop-color="#FC9D86"/>
</linearGradient>
<linearGradient id="paint4_linear_1_12982" x1="138.79" y1="710.266" x2="440.779" y2="540.331" gradientUnits="userSpaceOnUse">
<stop stop-color="#78C6E7"/>
<stop offset="0.504253" stop-color="#94E0F6"/>
<stop offset="1" stop-color="#EBDDF5"/>
</linearGradient>
</defs>
</svg>
