<svg width="378" height="497" viewBox="0 0 378 497" fill="none" xmlns="http://www.w3.org/2000/svg">
<g id="YuhPerson_DP_2d">
<g id="Combined Shape">
<path id="Mask" fill-rule="evenodd" clip-rule="evenodd" d="M259.564 445.596C264.289 450.042 264.402 457.514 259.814 462.102L225.063 496.853C219.343 491.134 218.99 481.975 224.252 475.832L235.863 462.276C236.831 461.145 237.089 459.572 236.418 458.243C235.138 455.707 232.649 451.406 228.952 447.709C223.295 442.052 208.092 426.85 208.092 426.85L224.709 410.233L256.175 442.406L259.564 445.596Z" fill="#FA5B35"/>
<mask id="mask0_1_8765" style="mask-type:luminance" maskUnits="userSpaceOnUse" x="208" y="410" width="56" height="87">
<path id="Mask_2" fill-rule="evenodd" clip-rule="evenodd" d="M259.564 445.596C264.289 450.042 264.402 457.514 259.814 462.102L225.063 496.853C219.343 491.134 218.99 481.975 224.252 475.832L235.863 462.276C236.831 461.145 237.089 459.572 236.418 458.243C235.138 455.707 232.649 451.406 228.952 447.709C223.295 442.052 208.092 426.85 208.092 426.85L224.709 410.233L256.175 442.406L259.564 445.596Z" fill="white"/>
</mask>
<g mask="url(#mask0_1_8765)">
<path id="Combined Shape_2" d="M221.13 489.472L236.023 474.58L223.295 461.852L232.487 452.659L245.215 465.387L262.156 448.446C264.39 452.774 263.692 458.224 260.064 461.852L225.063 496.854C222.968 494.759 221.657 492.177 221.13 489.472Z" fill="#151A21"/>
</g>
</g>
<g id="Combined Shape Copy 10">
<path id="Mask_3" fill-rule="evenodd" clip-rule="evenodd" d="M319.148 279.015C322.324 273.515 329.357 271.631 334.858 274.806L377.726 299.556C373.682 306.561 364.927 309.273 357.631 305.78L341.531 298.074C340.189 297.431 338.602 297.589 337.493 298.58C335.374 300.474 331.864 303.991 329.25 308.519C325.25 315.447 314.5 334.067 314.5 334.067L294.148 322.317L319.148 279.015Z" fill="#FA5B35"/>
<mask id="mask1_1_8765" style="mask-type:luminance" maskUnits="userSpaceOnUse" x="294" y="273" width="84" height="62">
<path id="Mask_4" fill-rule="evenodd" clip-rule="evenodd" d="M319.148 279.015C322.324 273.515 329.357 271.631 334.858 274.806L377.726 299.556C373.682 306.561 364.927 309.273 357.631 305.78L341.531 298.074C340.189 297.431 338.602 297.589 337.493 298.58C335.374 300.474 331.864 303.991 329.25 308.519C325.25 315.447 314.5 334.067 314.5 334.067L294.148 322.317L319.148 279.015Z" fill="white"/>
</mask>
<g mask="url(#mask1_1_8765)">
<path id="Combined Shape_3" d="M371.615 305.265L353.375 294.734L344.375 310.323L333.117 303.823L342.117 288.234L321.368 276.255C324.971 272.977 330.415 272.241 334.858 274.806L377.727 299.556C376.245 302.122 374.091 304.056 371.615 305.265Z" fill="#151A21"/>
</g>
</g>
<g id="Group 65 Copy">
<g id="Path Copy 7">
<path d="M238.109 90.3479C253.908 97.8679 280.549 100.589 282.544 111.384C284.539 122.179 268.472 139.067 266.187 159.132C263.878 179.333 276.844 202.923 274.463 221.162C272.059 239.536 254.443 252.582 234.953 258.892C215.462 265.202 193.802 264.864 176.93 256.319C159.9 247.886 147.475 231.492 141.747 215.026C136.018 198.56 137.096 182.181 128.175 167.24C119.364 152.459 100.689 139.14 99.5836 127.249C98.5019 115.223 115.125 104.647 129.055 95.1289C143.01 85.4753 154.089 77.125 166.789 71.4275C169.557 70.2039 173.448 68.292 176.317 67.3741L211.262 74.8479C220.922 78.1158 232.057 87.4111 238.109 90.3479Z" fill="#CCB1DA"/>
<path d="M238.109 90.3479C253.908 97.8679 280.549 100.589 282.544 111.384C284.539 122.179 268.472 139.067 266.187 159.132C263.878 179.333 276.844 202.923 274.463 221.162C272.059 239.536 254.443 252.582 234.953 258.892C215.462 265.202 193.802 264.864 176.93 256.319C159.9 247.886 147.475 231.492 141.747 215.026C136.018 198.56 137.096 182.181 128.175 167.24C119.364 152.459 100.689 139.14 99.5836 127.249C98.5019 115.223 115.125 104.647 129.055 95.1289C143.01 85.4753 154.089 77.125 166.789 71.4275C169.557 70.2039 173.448 68.292 176.317 67.3741L211.262 74.8479C220.922 78.1158 232.057 87.4111 238.109 90.3479Z" fill="url(#paint0_linear_1_8765)"/>
</g>
<circle id="Oval Copy 157" cx="191.406" cy="77.2403" r="18" transform="rotate(30 191.406 77.2403)" fill="#FA5B35"/>
<ellipse id="Oval Copy 158" cx="195.656" cy="69.8788" rx="18" ry="13.5" transform="rotate(30 195.656 69.8788)" fill="#CCB1DA"/>
<g id="Group 41 Copy 14">
<g id="Mask_5">
<path d="M161.595 58.874C162.699 56.9609 165.146 56.3054 167.059 57.4099L178.317 63.9099C183.012 55.7789 193.409 52.9931 201.54 57.6875L204.307 59.2851C210.73 62.9936 213.563 70.5293 211.593 77.3483L208.963 75.8298C207.767 75.1394 206.238 75.5491 205.548 76.7449C204.858 77.9406 205.267 79.4696 206.463 80.1599L209.494 81.9099L207.494 85.374L161.595 58.874Z" fill="#151A21"/>
<path d="M161.595 58.874C162.699 56.9609 165.146 56.3054 167.059 57.4099L178.317 63.9099C183.012 55.7789 193.409 52.9931 201.54 57.6875L204.307 59.2851C210.73 62.9936 213.563 70.5293 211.593 77.3483L208.963 75.8298C207.767 75.1394 206.238 75.5491 205.548 76.7449C204.858 77.9406 205.267 79.4696 206.463 80.1599L209.494 81.9099L207.494 85.374L161.595 58.874Z" fill="url(#paint1_linear_1_8765)"/>
</g>
<mask id="mask2_1_8765" style="mask-type:luminance" maskUnits="userSpaceOnUse" x="161" y="55" width="52" height="31">
<g id="Mask_6">
<path d="M161.595 58.874C162.699 56.9609 165.146 56.3054 167.059 57.4099L178.317 63.9099C183.012 55.7789 193.409 52.9931 201.54 57.6875L204.307 59.2851C210.73 62.9936 213.563 70.5293 211.593 77.3483L208.963 75.8298C207.767 75.1394 206.238 75.5491 205.548 76.7449C204.858 77.9406 205.267 79.4696 206.463 80.1599L209.494 81.9099L207.494 85.374L161.595 58.874Z" fill="white"/>
</g>
</mask>
<g mask="url(#mask2_1_8765)">
<path id="Combined Shape_4" fill-rule="evenodd" clip-rule="evenodd" d="M212.075 61.73C211.736 59.2507 212.668 57.6379 214.815 57.0581C215.055 56.9932 215.302 57.1359 215.366 57.3765C215.43 57.617 215.287 57.8645 215.047 57.9296C213.394 58.3759 212.712 59.5125 212.953 61.4952L212.968 61.6051C213.295 64.0067 212.432 65.5949 210.426 66.2188L210.228 66.2761C208.575 66.7224 207.894 67.8583 208.135 69.8409L208.149 69.9507C208.477 72.3524 207.613 73.9404 205.607 74.5644L205.41 74.6217C203.756 75.0681 203.075 76.2045 203.316 78.1874L203.331 78.2963C203.669 80.7756 202.738 82.3884 200.591 82.9682C200.35 83.0329 200.103 82.8903 200.039 82.6498C199.975 82.4092 200.119 82.1608 200.359 82.0959C202.012 81.6495 202.693 80.5137 202.452 78.5311L202.438 78.4212C202.1 75.9422 203.031 74.33 205.177 73.7502C206.831 73.3039 207.512 72.1675 207.271 70.1846L207.256 70.0756C206.918 67.5965 207.849 65.9844 209.996 65.4046C211.649 64.9582 212.331 63.8217 212.089 61.8389L212.075 61.73ZM205.146 57.73C204.808 55.2507 205.739 53.6379 207.886 53.0581C208.127 52.9932 208.374 53.1359 208.438 53.3765C208.502 53.617 208.359 53.8645 208.119 53.9296C206.466 54.3759 205.784 55.5125 206.025 57.4952L206.039 57.6051C206.367 60.0067 205.504 61.5949 203.497 62.2188L203.3 62.2761C201.647 62.7224 200.966 63.8583 201.207 65.8409L201.221 65.9507C201.549 68.3524 200.685 69.9404 198.679 70.5644L198.481 70.6217C196.828 71.0681 196.147 72.2045 196.388 74.1874L196.403 74.2963C196.741 76.7756 195.81 78.3884 193.662 78.9682C193.422 79.0329 193.175 78.8903 193.111 78.6498C193.047 78.4092 193.19 78.1608 193.431 78.0959C195.084 77.6495 195.765 76.5137 195.524 74.5311L195.51 74.4212C195.172 71.9422 196.102 70.33 198.249 69.7502C199.902 69.3039 200.584 68.1675 200.343 66.1846L200.328 66.0756C199.99 63.5965 200.921 61.9844 203.068 61.4046C204.721 60.9582 205.402 59.8217 205.161 57.8389L205.146 57.73ZM198.218 53.73C197.88 51.2507 198.811 49.6379 200.958 49.0581C201.199 48.9932 201.446 49.1359 201.51 49.3765C201.574 49.617 201.43 49.8645 201.19 49.9296C199.537 50.3759 198.856 51.5125 199.097 53.4952L199.111 53.6051C199.439 56.0067 198.575 57.5949 196.569 58.2188L196.371 58.2761C194.719 58.7224 194.037 59.8583 194.278 61.8409L194.293 61.9507C194.62 64.3524 193.757 65.9404 191.751 66.5644L191.553 66.6217C189.9 67.0681 189.218 68.2045 189.46 70.1874L189.474 70.2963C189.813 72.7756 188.881 74.3884 186.734 74.9682C186.494 75.0329 186.247 74.8903 186.183 74.6498C186.119 74.4092 186.262 74.1608 186.503 74.0959C188.156 73.6495 188.837 72.5137 188.596 70.5311L188.581 70.4212C188.243 67.9422 189.174 66.33 191.321 65.7502C192.974 65.3039 193.656 64.1675 193.415 62.1846L193.4 62.0756C193.062 59.5965 193.993 57.9844 196.139 57.4046C197.792 56.9582 198.474 55.8217 198.233 53.8389L198.218 53.73ZM191.29 49.73C190.952 47.2507 191.883 45.6379 194.03 45.0581C194.27 44.9932 194.517 45.1359 194.581 45.3765C194.645 45.617 194.502 45.8645 194.262 45.9296C192.609 46.3759 191.927 47.5125 192.169 49.4952L192.183 49.6051C192.51 52.0067 191.647 53.5949 189.641 54.2188L189.443 54.2761C187.79 54.7224 187.109 55.8583 187.35 57.8409L187.365 57.9507C187.692 60.3524 186.829 61.9404 184.823 62.5644L184.625 62.6217C182.972 63.0681 182.29 64.2045 182.531 66.1874L182.546 66.2963C182.884 68.7756 181.953 70.3884 179.806 70.9682C179.566 71.0329 179.319 70.8903 179.255 70.6498C179.191 70.4092 179.334 70.1608 179.574 70.0959C181.227 69.6495 181.909 68.5137 181.668 66.5311L181.653 66.4212C181.315 63.9422 182.246 62.33 184.393 61.7502C186.046 61.3039 186.728 60.1675 186.486 58.1846L186.472 58.0756C186.133 55.5965 187.064 53.9844 189.211 53.4046C190.864 52.9582 191.546 51.8217 191.305 49.8389L191.29 49.73Z" fill="white"/>
</g>
</g>
</g>
<g id="Rectangle Copy 150">
<path fill-rule="evenodd" clip-rule="evenodd" d="M304.123 183.815C307.299 178.314 314.332 176.43 319.832 179.605L357.504 201.355C353.915 207.573 345.964 209.704 339.746 206.114L328.846 199.821C328.072 199.374 327.137 199.303 326.305 199.628L320.842 201.763C317.588 203.034 313.932 202.757 310.907 201.01L308.332 199.524C302.832 196.348 300.947 189.315 304.123 183.815Z" fill="#FA5B35"/>
<path fill-rule="evenodd" clip-rule="evenodd" d="M304.123 183.815C307.299 178.314 314.332 176.43 319.832 179.605L357.504 201.355C353.915 207.573 345.964 209.704 339.746 206.114L328.846 199.821C328.072 199.374 327.137 199.303 326.305 199.628L320.842 201.763C317.588 203.034 313.932 202.757 310.907 201.01L308.332 199.524C302.832 196.348 300.947 189.315 304.123 183.815Z" fill="url(#paint2_linear_1_8765)"/>
</g>
<g id="Rectangle Copy 151">
<path fill-rule="evenodd" clip-rule="evenodd" d="M78.957 53.8148C82.1327 48.3144 80.2481 41.2811 74.7477 38.1055L37.0756 16.3555C33.4858 22.5733 35.6162 30.5239 41.834 34.1138L52.7336 40.4067C53.5077 40.8536 54.0367 41.6282 54.1712 42.5119L55.0543 48.3099C55.5803 51.7636 57.6477 54.7909 60.6732 56.5376L63.2477 58.0241C68.7481 61.1997 75.7814 59.3151 78.957 53.8148Z" fill="#FA5B35"/>
<path fill-rule="evenodd" clip-rule="evenodd" d="M78.957 53.8148C82.1327 48.3144 80.2481 41.2811 74.7477 38.1055L37.0756 16.3555C33.4858 22.5733 35.6162 30.5239 41.834 34.1138L52.7336 40.4067C53.5077 40.8536 54.0367 41.6282 54.1712 42.5119L55.0543 48.3099C55.5803 51.7636 57.6477 54.7909 60.6732 56.5376L63.2477 58.0241C68.7481 61.1997 75.7814 59.3151 78.957 53.8148Z" fill="url(#paint3_linear_1_8765)"/>
</g>
<g id="legs copy 3">
<g id="back leg copy">
<path id="Path" d="M156.769 232.355L216.769 232.355L216.845 251.842L216.858 252.428C217.569 281.708 226.497 299.557 243.606 309.858L244.454 310.363C252.525 315.24 258.14 315.893 264.019 313.547C272.244 310.266 282.171 301.012 292.906 284.979L293.755 283.699L343.889 316.662C326.662 342.863 307.772 360.691 286.252 369.276C262.411 378.787 237.49 376.012 214.13 362.139L213.547 361.789L212.638 361.249C176.705 339.62 158.132 302.616 156.882 254.121L156.842 252.276L156.769 232.355Z" fill="#CCB1DA"/>
<mask id="mask3_1_8765" style="mask-type:luminance" maskUnits="userSpaceOnUse" x="156" y="232" width="188" height="143">
<path id="Path_2" d="M156.769 232.355L216.769 232.355L216.845 251.842L216.858 252.428C217.569 281.708 226.497 299.557 243.606 309.858L244.454 310.363C252.525 315.24 258.14 315.893 264.019 313.547C272.244 310.266 282.171 301.012 292.906 284.979L293.755 283.699L343.889 316.662C326.662 342.863 307.772 360.691 286.252 369.276C262.411 378.787 237.49 376.012 214.13 362.139L213.547 361.789L212.638 361.249C176.705 339.62 158.132 302.616 156.882 254.121L156.842 252.276L156.769 232.355Z" fill="white"/>
</mask>
<g mask="url(#mask3_1_8765)">
<path id="Path_3" d="M184.465 252.034L192.428 252.806C189.004 288.131 202.293 314.635 232.61 332.955C261.834 350.615 289.301 339.951 316.266 299.556L317.083 298.323L323.768 302.718C294.42 347.353 262.223 360.197 228.472 339.802C195.849 320.088 181.042 291.01 184.359 253.183L184.465 252.034Z" fill="white"/>
</g>
</g>
<g id="front leg copy">
<g id="Mask_7">
<path d="M135.77 232.355L196.77 232.355C195.32 267.152 197.3 300.949 204.869 329.715C211.918 356.506 229.274 387.158 257.311 421.24L258.164 422.274L211.935 460.52C178.267 419.826 156.441 381.46 146.844 344.981C137.825 310.703 134.115 273.569 135.63 233.643L135.77 232.355Z" fill="#CCB1DA"/>
<path d="M135.77 232.355L196.77 232.355C195.32 267.152 197.3 300.949 204.869 329.715C211.918 356.506 229.274 387.158 257.311 421.24L258.164 422.274L211.935 460.52C178.267 419.826 156.441 381.46 146.844 344.981C137.825 310.703 134.115 273.569 135.63 233.643L135.77 232.355Z" fill="url(#paint4_linear_1_8765)"/>
</g>
<mask id="mask4_1_8765" style="mask-type:luminance" maskUnits="userSpaceOnUse" x="135" y="232" width="124" height="229">
<g id="Mask_8">
<path d="M135.77 232.355L196.77 232.355C195.32 267.152 197.3 300.949 204.869 329.715C211.918 356.506 229.274 387.158 257.311 421.24L258.164 422.274L211.935 460.52C178.267 419.826 156.441 381.46 146.844 344.981C137.825 310.703 134.115 273.569 135.63 233.643L135.77 232.355Z" fill="white"/>
<path d="M135.77 232.355L196.77 232.355C195.32 267.152 197.3 300.949 204.869 329.715C211.918 356.506 229.274 387.158 257.311 421.24L258.164 422.274L211.935 460.52C178.267 419.826 156.441 381.46 146.844 344.981C137.825 310.703 134.115 273.569 135.63 233.643L135.77 232.355Z" stroke="white"/>
</g>
</mask>
<g mask="url(#mask4_1_8765)">
<path id="Path_4" d="M169.769 232.355C168.215 269.66 171.329 304.904 179.582 336.274C187.612 366.794 209.067 403.033 238.769 439.355L231.769 444.355C200.324 406.346 180.37 370.708 171.846 338.31C163.508 306.619 160.354 269.777 161.769 232.355L169.769 232.355Z" fill="white"/>
</g>
</g>
</g>
<g id="Path 27 Copy">
<g id="Mask_9">
<path d="M323.151 181.251C310.448 203.253 282.315 210.791 260.314 198.089L224.906 177.646L218.448 268.603L134.539 234.642L141.81 129.671L87.1087 98.0886C65.1072 85.3861 57.5689 57.2529 70.2715 35.2515L323.151 181.251Z" fill="#151A21"/>
<path d="M323.151 181.251C310.448 203.253 282.315 210.791 260.314 198.089L224.906 177.646L218.448 268.603L134.539 234.642L141.81 129.671L87.1087 98.0886C65.1072 85.3861 57.5689 57.2529 70.2715 35.2515L323.151 181.251Z" fill="url(#paint5_linear_1_8765)"/>
</g>
<mask id="mask5_1_8765" style="mask-type:luminance" maskUnits="userSpaceOnUse" x="64" y="35" width="260" height="234">
<g id="Mask_10">
<path d="M323.151 181.251C310.448 203.253 282.315 210.791 260.314 198.089L224.906 177.646L218.448 268.603L134.539 234.642L141.81 129.671L87.1087 98.0886C65.1072 85.3861 57.5689 57.2529 70.2715 35.2515L323.151 181.251Z" fill="white"/>
</g>
</mask>
<g mask="url(#mask5_1_8765)">
<path id="Path 27" d="M230.461 183.806L215.461 173.806" stroke="#44484D" stroke-width="4" stroke-linecap="round"/>
</g>
</g>
</g>
<defs>
<linearGradient id="paint0_linear_1_8765" x1="211.819" y1="100.183" x2="158.701" y2="41.6598" gradientUnits="userSpaceOnUse">
<stop stop-color="#999DCF" stop-opacity="0.01"/>
<stop offset="1" stop-color="#999DCF"/>
</linearGradient>
<linearGradient id="paint1_linear_1_8765" x1="201.494" y1="68.5091" x2="205.378" y2="65.5895" gradientUnits="userSpaceOnUse">
<stop stop-color="#44484D" stop-opacity="0.01"/>
<stop offset="1" stop-color="#44484D"/>
</linearGradient>
<linearGradient id="paint2_linear_1_8765" x1="329.885" y1="205.797" x2="328.29" y2="186.014" gradientUnits="userSpaceOnUse">
<stop stop-color="#AE3B1B" stop-opacity="0.01"/>
<stop offset="1" stop-color="#AE3B1B"/>
</linearGradient>
<linearGradient id="paint3_linear_1_8765" x1="59.3539" y1="32.7683" x2="83.1696" y2="46.5183" gradientUnits="userSpaceOnUse">
<stop stop-color="#AE3B1B" stop-opacity="0.01"/>
<stop offset="1" stop-color="#AE3B1B"/>
</linearGradient>
<linearGradient id="paint4_linear_1_8765" x1="142.571" y1="411.62" x2="230.671" y2="386.164" gradientUnits="userSpaceOnUse">
<stop stop-color="#D6C1E1" stop-opacity="0.01"/>
<stop offset="1" stop-color="#D6C1E1"/>
</linearGradient>
<linearGradient id="paint5_linear_1_8765" x1="105.337" y1="73.775" x2="36.3037" y2="168.378" gradientUnits="userSpaceOnUse">
<stop stop-color="#44484D" stop-opacity="0.01"/>
<stop offset="1" stop-color="#44484D"/>
</linearGradient>
</defs>
</svg>
