<svg width="387" height="447" viewBox="0 0 387 447" fill="none" xmlns="http://www.w3.org/2000/svg">
<g id="YuhPerson_SP_9b">
<g id="Group 67">
<g id="Path Copy 7">
<path d="M220.653 60.0201C237.142 54.1659 257.904 37.2517 266.948 43.4742C275.992 49.6967 276.572 72.9991 289.145 88.8035C301.796 104.72 327.645 112.233 338.859 126.813C350.151 141.505 346.92 163.186 337.599 181.43C328.279 199.675 312.724 214.751 294.752 220.639C276.747 226.718 256.369 223.912 240.675 216.319C224.981 208.727 214.161 196.382 197.289 192.127C180.607 187.904 157.984 191.692 148.794 184.065C139.525 176.326 143.801 157.094 146.921 140.513C149.962 123.82 151.891 110.081 156.843 97.0724C157.935 94.2499 159.335 90.1461 160.715 87.4685L190.709 68.0434C199.851 63.5234 214.297 62.2229 220.653 60.0201Z" fill="#78C6E7"/>
<path d="M220.653 60.0201C237.142 54.1659 257.904 37.2517 266.948 43.4742C275.992 49.6967 276.572 72.9991 289.145 88.8035C301.796 104.72 327.645 112.233 338.859 126.813C350.151 141.505 346.92 163.186 337.599 181.43C328.279 199.675 312.724 214.751 294.752 220.639C276.747 226.718 256.369 223.912 240.675 216.319C224.981 208.727 214.161 196.382 197.289 192.127C180.607 187.904 157.984 191.692 148.794 184.065C139.525 176.326 143.801 157.094 146.921 140.513C149.962 123.82 151.891 110.081 156.843 97.0724C157.935 94.2499 159.335 90.1461 160.715 87.4685L190.709 68.0434C199.851 63.5234 214.297 62.2229 220.653 60.0201Z" fill="url(#paint0_linear_1_13196)"/>
</g>
<g id="Oval Copy 143">
<circle cx="178.263" cy="83.8012" r="18" transform="rotate(-15 178.263 83.8012)" fill="#FA5B35"/>
<circle cx="178.263" cy="83.8012" r="18" transform="rotate(-15 178.263 83.8012)" fill="url(#paint1_linear_1_13196)"/>
</g>
<ellipse id="Oval Copy 158" cx="176.063" cy="75.5912" rx="18" ry="13.5" transform="rotate(-15 176.063 75.5912)" fill="url(#paint2_linear_1_13196)"/>
<g id="Group 41 Copy 14">
<g id="Mask">
<path d="M144.294 91.8682C143.722 89.7343 144.989 87.541 147.122 86.9692L159.679 83.6045C157.249 74.5356 162.631 65.2139 171.7 62.7839L174.787 61.9569C181.951 60.0373 189.283 63.3622 192.712 69.5772L189.778 70.3633C188.444 70.7206 187.653 72.0915 188.01 73.4252C188.367 74.7588 189.738 75.5503 191.072 75.1929L194.453 74.2871L195.488 78.1508L144.294 91.8682Z" fill="#151A21"/>
<path d="M144.294 91.8682C143.722 89.7343 144.989 87.541 147.122 86.9692L159.679 83.6045C157.249 74.5356 162.631 65.2139 171.7 62.7839L174.787 61.9569C181.951 60.0373 189.283 63.3622 192.712 69.5772L189.778 70.3633C188.444 70.7206 187.653 72.0915 188.01 73.4252C188.367 74.7588 189.738 75.5503 191.072 75.1929L194.453 74.2871L195.488 78.1508L144.294 91.8682Z" fill="url(#paint3_linear_1_13196)"/>
</g>
<mask id="mask0_1_13196" style="mask-type:luminance" maskUnits="userSpaceOnUse" x="144" y="61" width="52" height="31">
<g id="Mask_2">
<path d="M144.294 91.8682C143.722 89.7343 144.989 87.541 147.122 86.9692L159.679 83.6045C157.249 74.5356 162.631 65.2139 171.7 62.7839L174.787 61.9569C181.951 60.0373 189.283 63.3622 192.712 69.5772L189.778 70.3633C188.444 70.7206 187.653 72.0915 188.01 73.4252C188.367 74.7588 189.738 75.5503 191.072 75.1929L194.453 74.2871L195.488 78.1508L144.294 91.8682Z" fill="white"/>
</g>
</mask>
<g mask="url(#mask0_1_13196)">
<path id="Combined Shape" fill-rule="evenodd" clip-rule="evenodd" d="M182.007 58.1936C180.015 56.6796 179.533 54.8807 180.641 52.9525C180.765 52.7367 181.041 52.6629 181.256 52.7877C181.472 52.9126 181.545 53.1888 181.422 53.4047C180.568 54.8891 180.89 56.1748 182.463 57.4064L182.55 57.4738C184.48 58.9405 184.993 60.6739 184.015 62.5337L183.916 62.7139C183.063 64.1983 183.384 65.4832 184.957 66.7147L185.045 66.7822C186.974 68.2488 187.487 69.9822 186.51 71.842L186.41 72.0223C185.557 73.5068 185.879 74.7924 187.451 76.024L187.539 76.0905C189.531 77.6045 190.013 79.4034 188.905 81.3316C188.781 81.5473 188.505 81.6211 188.29 81.4964C188.074 81.3715 188 81.0944 188.124 80.8785C188.977 79.3941 188.656 78.1093 187.083 76.8778L186.996 76.8103C185.004 75.2964 184.522 73.4982 185.63 71.5702C186.483 70.0856 186.162 68.8001 184.589 67.5685L184.501 67.502C182.509 65.9881 182.028 64.1899 183.136 62.2618C183.989 60.7773 183.667 59.4917 182.095 58.2601L182.007 58.1936ZM174.28 60.2642C172.288 58.7502 171.806 56.9513 172.914 55.0231C173.038 54.8073 173.314 54.7334 173.529 54.8583C173.744 54.9831 173.818 55.2594 173.694 55.4752C172.841 56.9597 173.163 58.2454 174.735 59.4769L174.823 59.5444C176.753 61.011 177.265 62.7444 176.288 64.6042L176.189 64.7845C175.335 66.2689 175.657 67.5538 177.229 68.7853L177.317 68.8527C179.247 70.3193 179.759 72.0528 178.782 73.9126L178.683 74.0929C177.83 75.5774 178.151 76.863 179.724 78.0946L179.811 78.1611C181.804 79.6751 182.286 81.474 181.177 83.4022C181.053 83.6178 180.778 83.6917 180.562 83.567C180.347 83.442 180.273 83.165 180.397 82.9491C181.25 81.4647 180.928 80.1798 179.356 78.9483L179.268 78.8809C177.276 77.367 176.794 75.5688 177.903 73.6407C178.756 72.1562 178.434 70.8706 176.862 69.639L176.774 69.5725C174.782 68.0586 174.3 66.2604 175.408 64.3324C176.262 62.8479 175.94 61.5622 174.367 60.3307L174.28 60.2642ZM166.552 62.3347C164.56 60.8207 164.078 59.0218 165.187 57.0936C165.311 56.8778 165.586 56.804 165.802 56.9288C166.017 57.0537 166.091 57.3299 165.967 57.5458C165.114 59.0302 165.435 60.3159 167.008 61.5475L167.096 61.6149C169.025 63.0816 169.538 64.815 168.561 66.6748L168.461 66.8551C167.608 68.3394 167.93 69.6243 169.502 70.8558L169.59 70.9233C171.52 72.3899 172.032 74.1233 171.055 75.9831L170.955 76.1634C170.102 77.6479 170.424 78.9335 171.996 80.1651L172.084 80.2316C174.076 81.7456 174.558 83.5445 173.45 85.4727C173.326 85.6884 173.05 85.7622 172.835 85.6375C172.619 85.5126 172.545 85.2355 172.669 85.0197C173.522 83.5352 173.201 82.2504 171.629 81.0189L171.541 80.9514C169.549 79.4375 169.067 77.6393 170.175 75.7113C171.028 74.2267 170.707 72.9412 169.134 71.7096L169.047 71.6431C167.055 70.1292 166.573 68.331 167.681 66.4029C168.534 64.9184 168.213 63.6328 166.64 62.4012L166.552 62.3347ZM158.825 64.4053C156.833 62.8913 156.351 61.0924 157.459 59.1642C157.583 58.9484 157.859 58.8745 158.074 58.9994C158.289 59.1243 158.363 59.4005 158.239 59.6163C157.386 61.1008 157.708 62.3865 159.28 63.618L159.368 63.6855C161.298 65.1521 161.811 66.8855 160.833 68.7453L160.734 68.9256C159.881 70.41 160.202 71.6949 161.775 72.9264L161.862 72.9938C163.792 74.4604 164.305 76.1939 163.327 78.0537L163.228 78.234C162.375 79.7185 162.696 81.0041 164.269 82.2357L164.357 82.3022C166.349 83.8162 166.831 85.6151 165.722 87.5433C165.598 87.7589 165.323 87.8328 165.107 87.7081C164.892 87.5831 164.818 87.3061 164.942 87.0902C165.795 85.6058 165.474 84.3209 163.901 83.0894L163.813 83.022C161.821 81.5081 161.34 79.7099 162.448 77.7818C163.301 76.2973 162.979 75.0118 161.407 73.7801L161.319 73.7136C159.327 72.1997 158.846 70.4015 159.954 68.4735C160.807 66.989 160.485 65.7034 158.913 64.4718L158.825 64.4053Z" fill="white"/>
</g>
</g>
</g>
<g id="Group 63">
<g id="boot">
<path id="Rectangle Copy 4" fill-rule="evenodd" clip-rule="evenodd" d="M120.908 420.572C120.908 426.924 115.759 432.072 109.408 432.072H59.9082C59.9082 424.156 66.3255 417.739 74.2415 417.739H87.5131C88.9048 417.739 90.1342 416.832 90.5457 415.503L96.2194 397.172C97.71 392.356 102.164 389.072 107.205 389.072H109.408C115.759 389.072 120.908 394.221 120.908 400.572V420.572Z" fill="#548BA3"/>
<g id="Path 20">
<path id="Mask_3" fill-rule="evenodd" clip-rule="evenodd" d="M62.3467 424.072C60.807 426.357 59.9082 429.11 59.9082 432.072H109.408C114.539 432.072 118.885 428.712 120.366 424.072H62.3467Z" fill="#151A21"/>
<mask id="mask1_1_13196" style="mask-type:luminance" maskUnits="userSpaceOnUse" x="59" y="424" width="62" height="9">
<path id="Mask_4" fill-rule="evenodd" clip-rule="evenodd" d="M62.3467 424.072C60.807 426.357 59.9082 429.11 59.9082 432.072H109.408C114.539 432.072 118.885 428.712 120.366 424.072H62.3467Z" fill="white"/>
</mask>
<g mask="url(#mask1_1_13196)">
</g>
</g>
<path id="Rectangle" d="M103.908 395.572C103.908 393.087 105.923 391.072 108.408 391.072H115.047C115.523 391.072 115.908 391.458 115.908 391.934V399.072C115.908 405.7 110.536 411.072 103.908 411.072V395.572Z" fill="#151A21"/>
</g>
<g id="Path 2">
<path d="M230.908 319.072C230.908 319.072 118.908 279.072 118.908 376.072" stroke="#FA5B35" stroke-width="60" stroke-linecap="round"/>
<path d="M230.908 319.072C230.908 319.072 118.908 279.072 118.908 376.072" stroke="url(#paint4_linear_1_13196)" stroke-width="60" stroke-linecap="round"/>
</g>
</g>
<g id="Group 38">
<g id="Rectangle Copy 157">
<path fill-rule="evenodd" clip-rule="evenodd" d="M70.3677 236.035C71.1888 232.971 69.3702 229.821 66.3056 229L25.5335 218.075C23.9192 224.099 27.4946 230.292 33.5194 231.907L44.1614 234.758C44.9128 234.959 45.5322 235.491 45.8456 236.203L48.729 242.752C49.4307 244.346 50.8177 245.536 52.4999 245.986L61.1341 248.3C64.1987 249.121 67.3486 247.302 68.1698 244.238L70.3677 236.035Z" fill="#FA5B35"/>
<path fill-rule="evenodd" clip-rule="evenodd" d="M70.3677 236.035C71.1888 232.971 69.3702 229.821 66.3056 229L25.5335 218.075C23.9192 224.099 27.4946 230.292 33.5194 231.907L44.1614 234.758C44.9128 234.959 45.5322 235.491 45.8456 236.203L48.729 242.752C49.4307 244.346 50.8177 245.536 52.4999 245.986L61.1341 248.3C64.1987 249.121 67.3486 247.302 68.1698 244.238L70.3677 236.035Z" fill="url(#paint5_linear_1_13196)"/>
</g>
<g id="Rectangle Copy 159">
<path fill-rule="evenodd" clip-rule="evenodd" d="M324.657 291.288C322.058 293.108 321.426 296.69 323.246 299.289L338.288 320.771C346.77 316.792 347.918 305.712 348.041 301.508C348.073 300.429 347.711 299.393 347.092 298.508L339.614 287.828C337.794 285.229 334.212 284.597 331.613 286.417L324.657 291.288Z" fill="#FA5B35"/>
<path fill-rule="evenodd" clip-rule="evenodd" d="M324.657 291.288C322.058 293.108 321.426 296.69 323.246 299.289L338.288 320.771C346.77 316.792 347.918 305.712 348.041 301.508C348.073 300.429 347.711 299.393 347.092 298.508L339.614 287.828C337.794 285.229 334.212 284.597 331.613 286.417L324.657 291.288Z" fill="url(#paint6_linear_1_13196)"/>
</g>
<rect id="Rectangle Copy 34" x="36.1182" y="153.506" width="29.9719" height="60.4432" rx="4.99531" fill="#151A21"/>
<path id="Combined Shape Copy 29" d="M206.747 105.983C218.014 102.964 229.996 103.917 240.115 109.716C259.868 121.037 292.7 143.019 307.26 170.886C314.189 181.105 373.685 271.778 326.606 304.743L304.746 273.524C300.968 291.51 287.535 306.823 268.558 311.908L219.007 325.185C192.359 332.326 164.968 316.513 157.828 289.865L157.6 289.014C148.922 295.526 137.724 298.252 125.72 294.973C96.0958 286.881 60.6464 269.931 42.1124 234.429L111.631 234.429C107.08 207.152 125.709 164.2 137.806 140.004C143.7 128.215 154.606 119.954 167.338 116.543L206.747 105.983Z" fill="#44484D"/>
<path id="Combined Shape Copy 34" d="M155.05 278.647C155.949 282.005 157.171 285.19 158.672 288.18C149.855 295.288 138.225 298.388 125.72 294.973C96.0955 286.881 60.6462 269.931 42.1123 234.43H143.202C146.907 248.256 151.142 264.062 155.05 278.647Z" fill="url(#paint7_linear_1_13196)"/>
<path id="Combined Shape Copy 35" d="M277.215 190.532L256.695 204.9L304.745 273.525C300.967 291.51 287.534 306.824 268.557 311.909L219.006 325.186C192.358 332.326 164.968 316.514 157.827 289.866L140.991 227.033L277.215 190.532Z" fill="url(#paint8_linear_1_13196)"/>
<path id="Rectangle Copy 35" fill-rule="evenodd" clip-rule="evenodd" d="M326.605 304.742L256.695 204.899L306.616 169.944C306.616 169.944 376.527 269.787 326.605 304.742Z" fill="url(#paint9_linear_1_13196)"/>
</g>
<g id="Group 32">
<g id="boot_2">
<path id="Rectangle Copy 4_2" fill-rule="evenodd" clip-rule="evenodd" d="M145.908 434.572C145.908 440.924 140.759 446.072 134.408 446.072H84.9082C84.9082 438.156 91.3255 431.739 99.2415 431.739H112.513C113.905 431.739 115.134 430.832 115.546 429.503L121.219 411.172C122.71 406.356 127.164 403.072 132.205 403.072H134.408C140.759 403.072 145.908 408.221 145.908 414.572V434.572Z" fill="#78C6E7"/>
<g id="Path 20_2">
<path id="Mask_5" fill-rule="evenodd" clip-rule="evenodd" d="M87.3467 438.072C85.807 440.357 84.9082 443.11 84.9082 446.072H134.408C139.539 446.072 143.885 442.712 145.366 438.072H87.3467Z" fill="#151A21"/>
<mask id="mask2_1_13196" style="mask-type:luminance" maskUnits="userSpaceOnUse" x="84" y="438" width="62" height="9">
<path id="Mask_6" fill-rule="evenodd" clip-rule="evenodd" d="M87.3467 438.072C85.807 440.357 84.9082 443.11 84.9082 446.072H134.408C139.539 446.072 143.885 442.712 145.366 438.072H87.3467Z" fill="white"/>
</mask>
<g mask="url(#mask2_1_13196)">
</g>
</g>
<path id="Rectangle_2" d="M128.908 409.572C128.908 407.087 130.923 405.072 133.408 405.072H140.047C140.523 405.072 140.908 405.458 140.908 405.934V413.072C140.908 419.7 135.536 425.072 128.908 425.072V409.572Z" fill="#548BA3"/>
</g>
<g id="Path 2_2">
<path d="M244.908 333.072C244.908 333.072 132.908 293.072 132.908 390.072" stroke="#FA5B35" stroke-width="60" stroke-linecap="round"/>
<path d="M244.908 333.072C244.908 333.072 132.908 293.072 132.908 390.072" stroke="url(#paint10_linear_1_13196)" stroke-width="60" stroke-linecap="round"/>
</g>
</g>
<g id="wheels">
<g id="Oval Copy 114">
<circle cx="251.564" cy="373.006" r="53" fill="#78C6E7"/>
<circle cx="251.564" cy="373.006" r="53" fill="url(#paint11_linear_1_13196)"/>
<circle cx="251.564" cy="373.006" r="53" stroke="#151A21" stroke-width="40"/>
<circle cx="251.564" cy="373.006" r="53" stroke="url(#paint12_linear_1_13196)" stroke-width="40"/>
</g>
<g id="Group 45 Copy 7">
<ellipse id="Oval" cx="202.222" cy="348.056" rx="11.7952" ry="2.24401" transform="rotate(128 202.222 348.056)" stroke="white" stroke-width="4" stroke-linecap="round"/>
<ellipse id="Oval_2" cx="206.281" cy="356.958" rx="12.5695" ry="2.91441" transform="rotate(124 206.281 356.958)" stroke="white" stroke-width="4" stroke-linecap="round"/>
<ellipse id="Oval_3" cx="212.97" cy="359.386" rx="7.52359" ry="1.17685" transform="rotate(120 212.97 359.386)" stroke="white" stroke-width="4" stroke-linecap="round"/>
</g>
<g id="Group 45 Copy 8">
<ellipse id="Oval_4" cx="304.805" cy="343.415" rx="11.7952" ry="2.24401" transform="rotate(-112 304.805 343.415)" stroke="white" stroke-width="4" stroke-linecap="round"/>
<ellipse id="Oval_5" cx="295.065" cy="342.479" rx="12.5695" ry="2.91441" transform="rotate(-116 295.065 342.479)" stroke="white" stroke-width="4" stroke-linecap="round"/>
<ellipse id="Oval_6" cx="289.618" cy="347.059" rx="7.52359" ry="1.17685" transform="rotate(-120 289.618 347.059)" stroke="white" stroke-width="4" stroke-linecap="round"/>
</g>
<g id="Group 45 Copy 9">
<ellipse id="Oval_7" cx="256.038" cy="432.156" rx="11.7952" ry="2.24401" transform="rotate(8 256.038 432.156)" stroke="white" stroke-width="4" stroke-linecap="round"/>
<ellipse id="Oval_8" cx="261.718" cy="424.19" rx="12.5695" ry="2.91441" transform="rotate(4 261.718 424.19)" stroke="white" stroke-width="4" stroke-linecap="round"/>
<ellipse id="Oval_9" cx="260.476" cy="417.183" rx="7.52359" ry="1.17685" stroke="white" stroke-width="4" stroke-linecap="round"/>
</g>
</g>
</g>
<defs>
<linearGradient id="paint0_linear_1_13196" x1="214.762" y1="-20.0807" x2="141.079" y2="74.1489" gradientUnits="userSpaceOnUse">
<stop stop-color="#C9E8F5"/>
<stop offset="1" stop-color="#78C6E7"/>
</linearGradient>
<linearGradient id="paint1_linear_1_13196" x1="174.712" y1="86.2929" x2="143.695" y2="86.2929" gradientUnits="userSpaceOnUse">
<stop stop-color="#FB7C5D" stop-opacity="0.01"/>
<stop offset="1" stop-color="#FB7C5D"/>
</linearGradient>
<linearGradient id="paint2_linear_1_13196" x1="133.876" y1="83.0136" x2="163.642" y2="111.41" gradientUnits="userSpaceOnUse">
<stop stop-color="#C9E8F5"/>
<stop offset="1" stop-color="#78C6E7"/>
</linearGradient>
<linearGradient id="paint3_linear_1_13196" x1="179.32" y1="70.4681" x2="180.002" y2="65.6575" gradientUnits="userSpaceOnUse">
<stop stop-color="#44484D" stop-opacity="0.01"/>
<stop offset="1" stop-color="#44484D"/>
</linearGradient>
<linearGradient id="paint4_linear_1_13196" x1="248.243" y1="317.487" x2="216.681" y2="243.161" gradientUnits="userSpaceOnUse">
<stop stop-color="#FA5B35"/>
<stop offset="0.504253" stop-color="#FA5B35"/>
<stop offset="1" stop-color="#FC9D86"/>
</linearGradient>
<linearGradient id="paint5_linear_1_13196" x1="49.5633" y1="239.315" x2="75.9175" y2="246.376" gradientUnits="userSpaceOnUse">
<stop stop-color="#AE3B1B" stop-opacity="0.01"/>
<stop offset="1" stop-color="#AE3B1B"/>
</linearGradient>
<linearGradient id="paint6_linear_1_13196" x1="343.883" y1="306.716" x2="330.309" y2="287.33" gradientUnits="userSpaceOnUse">
<stop stop-color="#AE3B1B" stop-opacity="0.01"/>
<stop offset="1" stop-color="#AE3B1B"/>
</linearGradient>
<linearGradient id="paint7_linear_1_13196" x1="40.1442" y1="240.572" x2="40.1442" y2="304.599" gradientUnits="userSpaceOnUse">
<stop stop-color="#151A21" stop-opacity="0.01"/>
<stop offset="1" stop-color="#151A21"/>
</linearGradient>
<linearGradient id="paint8_linear_1_13196" x1="176.939" y1="260.052" x2="196.04" y2="331.34" gradientUnits="userSpaceOnUse">
<stop stop-color="#151A21" stop-opacity="0.01"/>
<stop offset="1" stop-color="#151A21"/>
</linearGradient>
<linearGradient id="paint9_linear_1_13196" x1="252.71" y1="217.546" x2="299.762" y2="349.53" gradientUnits="userSpaceOnUse">
<stop stop-color="#73767A" stop-opacity="0.01"/>
<stop offset="1" stop-color="#73767A"/>
</linearGradient>
<linearGradient id="paint10_linear_1_13196" x1="262.243" y1="331.487" x2="230.681" y2="257.161" gradientUnits="userSpaceOnUse">
<stop stop-color="#FA5B35"/>
<stop offset="0.504253" stop-color="#FA5B35"/>
<stop offset="1" stop-color="#FC9D86"/>
</linearGradient>
<linearGradient id="paint11_linear_1_13196" x1="226.848" y1="353.647" x2="188.13" y2="403.08" gradientUnits="userSpaceOnUse">
<stop stop-color="#44484D" stop-opacity="0.01"/>
<stop offset="1" stop-color="#44484D"/>
</linearGradient>
<linearGradient id="paint12_linear_1_13196" x1="288.064" y1="409.506" x2="361.064" y2="336.506" gradientUnits="userSpaceOnUse">
<stop stop-color="#44484D" stop-opacity="0.01"/>
<stop offset="0.685766" stop-color="#73767A"/>
<stop offset="1" stop-color="#73767A"/>
</linearGradient>
</defs>
</svg>
