<svg width="525" height="395" viewBox="0 0 525 395" fill="none" xmlns="http://www.w3.org/2000/svg">
<g id="YuhPerson_DP_3c">
<g id="Combined Shape Copy 26">
<g id="Mask">
<path fill-rule="evenodd" clip-rule="evenodd" d="M188.736 382.179C188.932 388.663 183.729 394.027 177.241 394.027H128.095C128.095 385.938 134.321 379.212 142.385 378.589L160.181 377.213C161.665 377.099 162.961 376.169 163.426 374.755C164.313 372.056 165.595 367.255 165.595 362.027C165.595 354.027 165.595 332.527 165.595 332.527H189.095L188.595 377.527L188.736 382.179Z" fill="#FA5B35"/>
<path fill-rule="evenodd" clip-rule="evenodd" d="M188.736 382.179C188.932 388.663 183.729 394.027 177.241 394.027H128.095C128.095 385.938 134.321 379.212 142.385 378.589L160.181 377.213C161.665 377.099 162.961 376.169 163.426 374.755C164.313 372.056 165.595 367.255 165.595 362.027C165.595 354.027 165.595 332.527 165.595 332.527H189.095L188.595 377.527L188.736 382.179Z" fill="url(#paint0_linear_1_11695)"/>
</g>
<mask id="mask0_1_11695" style="mask-type:luminance" maskUnits="userSpaceOnUse" x="128" y="332" width="62" height="63">
<g id="Mask_2">
<path fill-rule="evenodd" clip-rule="evenodd" d="M188.736 382.179C188.932 388.663 183.729 394.027 177.241 394.027H128.095C128.095 385.938 134.321 379.212 142.385 378.589L160.181 377.213C161.665 377.099 162.961 376.169 163.426 374.755C164.313 372.056 165.595 367.255 165.595 362.027C165.595 354.027 165.595 332.527 165.595 332.527H189.095L188.595 377.527L188.736 382.179Z" fill="white"/>
<path fill-rule="evenodd" clip-rule="evenodd" d="M188.736 382.179C188.932 388.663 183.729 394.027 177.241 394.027H128.095C128.095 385.938 134.321 379.212 142.385 378.589L160.181 377.213C161.665 377.099 162.961 376.169 163.426 374.755C164.313 372.056 165.595 367.255 165.595 362.027C165.595 354.027 165.595 332.527 165.595 332.527H189.095L188.595 377.527L188.736 382.179Z" stroke="white"/>
</g>
</mask>
<g mask="url(#mask0_1_11695)">
<path id="Combined Shape" d="M130.533 386.027H151.595V368.027H164.595V386.027H188.553C187.072 390.667 182.726 394.027 177.595 394.027H128.095C128.095 391.064 128.993 388.312 130.533 386.027Z" fill="#151A21"/>
</g>
</g>
<g id="Combined Shape Copy 27">
<path id="Mask_3" fill-rule="evenodd" clip-rule="evenodd" d="M424.463 178.525C428.954 174.034 436.235 174.034 440.726 178.525L475.728 213.527C470.009 219.247 460.85 219.6 454.707 214.338L441.151 202.727C440.02 201.759 438.447 201.501 437.118 202.171C434.582 203.452 430.281 205.941 426.584 209.638C420.927 215.295 405.725 230.498 405.725 230.498L389.108 213.881L424.463 178.525Z" fill="#FA5B35"/>
<mask id="mask1_1_11695" style="mask-type:luminance" maskUnits="userSpaceOnUse" x="389" y="175" width="87" height="56">
<path id="Mask_4" fill-rule="evenodd" clip-rule="evenodd" d="M424.463 178.525C428.954 174.034 436.235 174.034 440.726 178.525L475.728 213.527C470.009 219.247 460.85 219.6 454.707 214.338L441.151 202.727C440.02 201.759 438.447 201.501 437.118 202.171C434.582 203.452 430.281 205.941 426.584 209.638C420.927 215.295 405.725 230.498 405.725 230.498L389.108 213.881L424.463 178.525Z" fill="white"/>
</mask>
<g mask="url(#mask1_1_11695)">
<path id="Combined Shape_2" d="M468.347 217.46L453.455 202.567L440.727 215.295L431.534 206.103L444.262 193.375L427.321 176.434C431.649 174.2 437.099 174.897 440.727 178.526L475.729 213.527C473.634 215.622 471.052 216.933 468.347 217.46Z" fill="#151A21"/>
</g>
</g>
<g id="Group 87">
<g id="Rectangle">
<path fill-rule="evenodd" clip-rule="evenodd" d="M307.243 94.3381C305.599 88.2033 309.24 81.8974 315.375 80.2536L357.393 68.9949C359.251 75.93 355.135 83.0584 348.2 84.9166L336.043 88.1741C335.18 88.4054 334.468 89.0167 334.11 89.8354L331.756 95.2073C330.354 98.4072 327.574 100.796 324.199 101.7L321.328 102.47C315.193 104.114 308.887 100.473 307.243 94.3381Z" fill="#FA5B35"/>
<path fill-rule="evenodd" clip-rule="evenodd" d="M307.243 94.3381C305.599 88.2033 309.24 81.8974 315.375 80.2536L357.393 68.9949C359.251 75.93 355.135 83.0584 348.2 84.9166L336.043 88.1741C335.18 88.4054 334.468 89.0167 334.11 89.8354L331.756 95.2073C330.354 98.4072 327.574 100.796 324.199 101.7L321.328 102.47C315.193 104.114 308.887 100.473 307.243 94.3381Z" fill="url(#paint1_linear_1_11695)"/>
</g>
<g id="Rectangle_2">
<path fill-rule="evenodd" clip-rule="evenodd" d="M56.1024 161.631C54.4586 155.496 48.1527 151.856 42.0178 153.499L5.68628e-05 164.758C1.8583 171.693 8.98668 175.809 15.9217 173.95L28.0787 170.693C28.9421 170.462 29.8638 170.635 30.5838 171.165L35.3081 174.64C38.1221 176.711 41.7247 177.389 45.0991 176.485L47.9707 175.716C54.1055 174.072 57.7462 167.766 56.1024 161.631Z" fill="#FA5B35"/>
<path fill-rule="evenodd" clip-rule="evenodd" d="M56.1024 161.631C54.4586 155.496 48.1527 151.856 42.0178 153.499L5.68628e-05 164.758C1.8583 171.693 8.98668 175.809 15.9217 173.95L28.0787 170.693C28.9421 170.462 29.8638 170.635 30.5838 171.165L35.3081 174.64C38.1221 176.711 41.7247 177.389 45.0991 176.485L47.9707 175.716C54.1055 174.072 57.7462 167.766 56.1024 161.631Z" fill="url(#paint2_linear_1_11695)"/>
</g>
</g>
<g id="Combined Shape_3">
<path id="Mask_5" d="M319.721 79.0889C326.297 103.628 311.734 128.852 287.194 135.427L247.702 146.009L307.452 214.892L224.105 250.21L155.021 170.843L94.0092 187.191C69.4697 193.766 44.2462 179.204 37.6709 154.664L319.721 79.0889Z" fill="url(#paint3_linear_1_11695)"/>
<mask id="mask2_1_11695" style="mask-type:luminance" maskUnits="userSpaceOnUse" x="196" y="0" width="285" height="172">
<path id="Mask_6" d="M478.723 3.45707e-05C485.299 24.5395 470.736 49.763 446.196 56.3383L406.704 66.9203L466.454 135.803L383.107 171.121L314.023 91.754L253.011 108.102C228.472 114.677 203.248 100.115 196.673 75.5752L478.723 3.45707e-05Z" fill="white"/>
</mask>
<g mask="url(#mask2_1_11695)">
<path id="Mask_7" fill-rule="evenodd" clip-rule="evenodd" d="M188.292 198.015C196.674 193.811 218.202 187.043 247.975 197.7C277.734 208.352 303.287 199.446 303.31 199.437L304.195 200.107C313.449 206.948 325.812 211.18 333.166 210.999C343.651 210.74 356.126 204.274 370.676 189.725C382.392 178.009 401.386 178.009 413.102 189.724C424.818 201.44 424.818 220.435 413.102 232.15C363.594 281.659 307.818 284.09 259.362 238.131L231.8 245.516C213.718 250.361 203.322 257.452 198.518 266.27C193.499 275.479 192.861 289.517 198.187 309.392C202.475 325.396 192.977 341.846 176.973 346.134C160.97 350.423 144.519 340.925 140.231 324.921C124.534 266.339 141.779 221.345 188.292 198.015Z" fill="url(#paint4_linear_1_11695)"/>
</g>
</g>
<g id="Path 19">
<path id="Mask_8" fill-rule="evenodd" clip-rule="evenodd" d="M192.433 213.47C200.816 209.266 222.344 202.498 252.117 213.155C281.876 223.807 307.428 214.901 307.452 214.892L308.337 215.562C317.591 222.403 329.954 226.635 337.307 226.454C347.792 226.195 360.268 219.729 374.818 205.18C386.533 193.464 405.528 193.464 417.244 205.179C428.959 216.895 428.959 235.89 417.244 247.606C367.735 297.114 311.959 299.546 263.503 253.586L235.941 260.971C217.86 265.816 207.464 272.907 202.659 281.725C197.641 290.935 197.003 304.972 202.328 324.847C206.616 340.851 197.119 357.301 181.115 361.589C165.111 365.878 148.661 356.38 144.373 340.376C128.676 281.794 145.921 236.8 192.433 213.47Z" fill="url(#paint5_linear_1_11695)"/>
<mask id="mask3_1_11695" style="mask-type:luminance" maskUnits="userSpaceOnUse" x="138" y="196" width="289" height="167">
<path id="Mask_9" fill-rule="evenodd" clip-rule="evenodd" d="M192.433 213.47C200.816 209.266 222.344 202.498 252.117 213.155C281.876 223.807 307.428 214.901 307.452 214.892L308.337 215.562C317.591 222.403 329.954 226.635 337.307 226.454C347.792 226.195 360.268 219.729 374.818 205.18C386.533 193.464 405.528 193.464 417.244 205.179C428.959 216.895 428.959 235.89 417.244 247.606C367.735 297.114 311.959 299.546 263.503 253.586L235.941 260.971C217.86 265.816 207.464 272.907 202.659 281.725C197.641 290.935 197.003 304.972 202.328 324.847C206.616 340.851 197.119 357.301 181.115 361.589C165.111 365.878 148.661 356.38 144.373 340.376C128.676 281.794 145.921 236.8 192.433 213.47Z" fill="white"/>
</mask>
<g mask="url(#mask3_1_11695)">
<path id="Path 19_2" d="M256.743 257.467L277.028 252.032" stroke="#78C6E7" stroke-width="4" stroke-linecap="round"/>
</g>
</g>
<g id="Group 26">
<g id="Rectangle Copy 105">
<rect x="130.637" y="72.7446" width="36" height="46" rx="18" transform="rotate(-15 130.637 72.7446)" fill="#FA5B35"/>
<rect x="130.637" y="72.7446" width="36" height="46" rx="18" transform="rotate(-15 130.637 72.7446)" fill="url(#paint6_linear_1_11695)"/>
</g>
<g id="Combined Shape Copy 12">
<path fill-rule="evenodd" clip-rule="evenodd" d="M151.111 64.1529C158.579 62.1517 166.256 66.5839 168.257 74.0524L172.657 90.4732C172.657 90.4732 166.648 82.2145 158.856 81.4668L166.211 108.918C166.476 109.906 165.89 110.921 164.902 111.186L159.929 112.519C150.327 115.092 140.457 109.393 137.884 99.7906L149.475 96.6848C152.675 95.8272 154.575 92.5371 153.717 89.3364L151.906 82.5749L146.875 83.9228C137.305 86.4869 127.484 80.74 125.031 71.1408L151.111 64.1529Z" fill="#151A21"/>
<path fill-rule="evenodd" clip-rule="evenodd" d="M151.111 64.1529C158.579 62.1517 166.256 66.5839 168.257 74.0524L172.657 90.4732C172.657 90.4732 166.648 82.2145 158.856 81.4668L166.211 108.918C166.476 109.906 165.89 110.921 164.902 111.186L159.929 112.519C150.327 115.092 140.457 109.393 137.884 99.7906L149.475 96.6848C152.675 95.8272 154.575 92.5371 153.717 89.3364L151.906 82.5749L146.875 83.9228C137.305 86.4869 127.484 80.74 125.031 71.1408L151.111 64.1529Z" fill="url(#paint7_linear_1_11695)"/>
</g>
</g>
</g>
<defs>
<linearGradient id="paint0_linear_1_11695" x1="181.161" y1="376.394" x2="181.161" y2="351.496" gradientUnits="userSpaceOnUse">
<stop stop-color="#AE3B1B" stop-opacity="0.01"/>
<stop offset="1" stop-color="#AE3B1B"/>
</linearGradient>
<linearGradient id="paint1_linear_1_11695" x1="326.138" y1="90.2987" x2="307.499" y2="95.2931" gradientUnits="userSpaceOnUse">
<stop stop-color="#AE3B1B" stop-opacity="0.01"/>
<stop offset="1" stop-color="#AE3B1B"/>
</linearGradient>
<linearGradient id="paint2_linear_1_11695" x1="29.0823" y1="175.998" x2="33.6733" y2="159.77" gradientUnits="userSpaceOnUse">
<stop stop-color="#AE3B1B" stop-opacity="0.01"/>
<stop offset="1" stop-color="#AE3B1B"/>
</linearGradient>
<linearGradient id="paint3_linear_1_11695" x1="407.612" y1="131.193" x2="339.088" y2="16.1685" gradientUnits="userSpaceOnUse">
<stop stop-color="#151A21"/>
<stop offset="1" stop-color="#44484D"/>
</linearGradient>
<linearGradient id="paint4_linear_1_11695" x1="249.125" y1="170.96" x2="147.51" y2="198.188" gradientUnits="userSpaceOnUse">
<stop stop-color="#44484D"/>
<stop offset="1" stop-color="#151A21"/>
</linearGradient>
<linearGradient id="paint5_linear_1_11695" x1="367.221" y1="384.293" x2="389.881" y2="152.965" gradientUnits="userSpaceOnUse">
<stop stop-color="#78C6E7"/>
<stop offset="0.504253" stop-color="#94E0F6"/>
<stop offset="1" stop-color="#EBDDF5"/>
</linearGradient>
<linearGradient id="paint6_linear_1_11695" x1="140.921" y1="89.488" x2="123.206" y2="94.5957" gradientUnits="userSpaceOnUse">
<stop stop-color="#FC9D86" stop-opacity="0.01"/>
<stop offset="1" stop-color="#FC9D86"/>
</linearGradient>
<linearGradient id="paint7_linear_1_11695" x1="155.176" y1="66.8835" x2="126.995" y2="70.374" gradientUnits="userSpaceOnUse">
<stop stop-color="#44484D" stop-opacity="0.01"/>
<stop offset="1" stop-color="#44484D"/>
</linearGradient>
</defs>
</svg>
