<svg width="291" height="455" viewBox="0 0 291 455" fill="none" xmlns="http://www.w3.org/2000/svg">
<g id="YuhPerson_SP_7c">
<g id="Group 57 Copy">
<g id="Mask">
<ellipse cx="201.39" cy="80.5748" rx="81.3896" ry="80.5748" fill="url(#paint0_linear_1_13765)"/>
<ellipse cx="201.39" cy="80.5748" rx="81.3896" ry="80.5748" fill="url(#paint1_linear_1_13765)"/>
</g>
<g id="Combined Shape">
<path d="M204.563 95.957C206.112 98.6151 207 101.705 207 105.003C207 114.944 198.941 123.003 189 123.003C179.059 123.003 171 114.944 171 105.003C171 101.705 171.887 98.615 173.436 95.957C176.717 97.1402 182.859 99.0029 189 99.0029C195.141 99.0029 201.282 97.1402 204.563 95.957Z" fill="#151A21"/>
<path d="M204.563 95.957C206.112 98.6151 207 101.705 207 105.003C207 114.944 198.941 123.003 189 123.003C179.059 123.003 171 114.944 171 105.003C171 101.705 171.887 98.615 173.436 95.957C176.717 97.1402 182.859 99.0029 189 99.0029C195.141 99.0029 201.282 97.1402 204.563 95.957Z" fill="url(#paint2_linear_1_13765)"/>
</g>
</g>
<g id="Group 63">
<g id="Group 19 Copy 4">
<path id="Rectangle Copy 4" fill-rule="evenodd" clip-rule="evenodd" d="M61 429.474C61 435.825 55.8513 440.974 49.5 440.974H0C0 433.058 6.41725 426.64 14.3333 426.64H27.6049C28.9966 426.64 30.226 425.734 30.6375 424.404L36.3112 406.073C37.8018 401.257 42.2555 397.974 47.297 397.974H49.5C55.8513 397.974 61 403.122 61 409.474V429.474Z" fill="#151A21"/>
<g id="Path 20">
<path id="Mask_2" fill-rule="evenodd" clip-rule="evenodd" d="M2.43853 432.974C0.898775 435.259 0 438.011 0 440.974H49.5C54.6309 440.974 58.9769 437.613 60.4577 432.974H2.43853Z" fill="#73767A"/>
<mask id="mask0_1_13765" style="mask-type:luminance" maskUnits="userSpaceOnUse" x="0" y="432" width="61" height="9">
<path id="Mask_3" fill-rule="evenodd" clip-rule="evenodd" d="M2.43853 432.974C0.898775 435.259 0 438.011 0 440.974H49.5C54.6309 440.974 58.9769 437.613 60.4577 432.974H2.43853Z" fill="white"/>
</mask>
<g mask="url(#mask0_1_13765)">
</g>
</g>
<path id="Rectangle" d="M44 404.474C44 401.988 46.0147 399.974 48.5 399.974H55.1388C55.6144 399.974 56 400.359 56 400.835V407.974C56 414.601 50.6274 419.974 44 419.974V404.474Z" fill="#44484D"/>
</g>
<g id="Path 2">
<path d="M171 327.652C171 327.652 59 287.652 59 384.652" stroke="#FA5B35" stroke-width="60" stroke-linecap="round"/>
<path d="M171 327.652C171 327.652 59 287.652 59 384.652" stroke="url(#paint3_linear_1_13765)" stroke-width="60" stroke-linecap="round"/>
</g>
</g>
<g id="Group 60 Copy">
<path id="Combined Shape_2" d="M209.359 135C221.035 135 232.374 139.029 240.642 147.272C259.236 165.813 290.879 202.578 290.879 238.071V243.071H290.759C289.597 262.609 280.001 279.922 265.982 289.549C265.642 298.301 263.081 306.513 258.845 313.614C258.769 313.741 258.693 313.867 258.616 313.993C258.482 314.213 258.347 314.432 258.21 314.65C258.131 314.776 258.051 314.902 257.971 315.027C257.843 315.226 257.715 315.424 257.585 315.62C257.486 315.77 257.386 315.919 257.285 316.067C257.154 316.261 257.023 316.453 256.89 316.645C256.794 316.782 256.696 316.919 256.599 317.056C256.471 317.236 256.342 317.415 256.212 317.594C256.104 317.741 255.994 317.888 255.885 318.034C255.744 318.222 255.604 318.409 255.461 318.595C255.364 318.721 255.265 318.846 255.167 318.971C255.022 319.156 254.877 319.341 254.729 319.523C254.62 319.659 254.508 319.793 254.397 319.928C254.251 320.106 254.104 320.284 253.955 320.46C253.851 320.583 253.746 320.704 253.641 320.825C253.48 321.011 253.32 321.197 253.157 321.38C253.082 321.464 253.006 321.548 252.931 321.632C252.741 321.842 252.551 322.051 252.358 322.258C252.244 322.38 252.129 322.501 252.014 322.622C251.851 322.793 251.689 322.965 251.524 323.134C251.398 323.263 251.269 323.39 251.141 323.519C250.991 323.669 250.841 323.82 250.689 323.969C250.508 324.146 250.324 324.32 250.14 324.495C250.037 324.592 249.936 324.691 249.833 324.787C249.662 324.947 249.488 325.103 249.314 325.261C249.18 325.383 249.046 325.507 248.91 325.628C248.826 325.703 248.74 325.775 248.655 325.849C247.743 326.649 246.802 327.417 245.833 328.15C245.61 328.319 245.388 328.487 245.162 328.652C245.053 328.732 244.943 328.809 244.834 328.888C244.618 329.043 244.402 329.198 244.184 329.35C243.907 329.542 243.628 329.733 243.347 329.92C243.296 329.954 243.245 329.988 243.193 330.021C242.897 330.218 242.598 330.411 242.297 330.601C242.274 330.615 242.252 330.629 242.229 330.644C241.926 330.834 241.621 331.021 241.313 331.205C241.263 331.235 241.213 331.265 241.162 331.295C240.872 331.467 240.581 331.637 240.287 331.804C240.231 331.836 240.175 331.868 240.118 331.899C239.838 332.057 239.557 332.212 239.273 332.364C239.201 332.403 239.129 332.441 239.057 332.479C238.766 332.634 238.473 332.787 238.179 332.936C238.111 332.97 238.042 333.004 237.974 333.038C237.68 333.185 237.385 333.329 237.089 333.471C237.042 333.493 236.995 333.515 236.948 333.537C236.621 333.692 236.291 333.843 235.96 333.991C235.937 334.001 235.914 334.011 235.892 334.021C235.556 334.171 235.218 334.317 234.878 334.459C234.827 334.48 234.776 334.5 234.726 334.521C234.43 334.643 234.133 334.764 233.834 334.881C233.747 334.915 233.66 334.948 233.572 334.981C233.279 335.094 232.984 335.205 232.688 335.312C232.618 335.338 232.547 335.363 232.477 335.389C232.179 335.495 231.88 335.6 231.579 335.701C231.52 335.721 231.461 335.742 231.402 335.762C231.067 335.873 230.73 335.979 230.392 336.084C230.344 336.099 230.297 336.114 230.249 336.129C229.926 336.228 229.601 336.323 229.274 336.415C229.198 336.437 229.122 336.459 229.046 336.48C228.724 336.57 228.401 336.656 228.076 336.739C227.985 336.763 227.894 336.786 227.803 336.809C227.749 336.822 227.695 336.835 227.641 336.849C227.519 336.879 227.397 336.909 227.274 336.938C227.157 336.967 227.039 336.993 226.922 337.021C226.823 337.043 226.723 337.066 226.624 337.089C226.556 337.104 226.489 337.119 226.421 337.134C226.262 337.169 226.102 337.204 225.942 337.237C225.92 337.242 225.897 337.247 225.874 337.252C225.49 337.332 225.104 337.408 224.717 337.479C224.666 337.489 224.615 337.498 224.563 337.507C224.432 337.531 224.3 337.554 224.168 337.577C224.082 337.592 223.996 337.607 223.91 337.621C223.153 337.748 222.389 337.857 221.62 337.949C221.537 337.959 221.455 337.969 221.372 337.979C221.215 337.997 221.058 338.014 220.901 338.03C220.872 338.033 220.842 338.037 220.812 338.04C220.644 338.057 220.476 338.073 220.308 338.089C220.25 338.094 220.192 338.1 220.134 338.105C219.992 338.118 219.85 338.13 219.708 338.142C219.63 338.148 219.552 338.154 219.475 338.16C219.333 338.171 219.19 338.182 219.048 338.191C218.985 338.196 218.922 338.2 218.858 338.204C218.695 338.215 218.53 338.224 218.366 338.233C218.312 338.236 218.257 338.239 218.202 338.242C218.011 338.252 217.82 338.26 217.629 338.268C217.609 338.268 217.59 338.27 217.57 338.271C216.916 338.296 216.258 338.31 215.598 338.31H164.487C136.899 338.31 114.534 315.95 114.534 288.362V285.938C106.541 285.974 98.9873 286.804 91.8662 288.47C87.2106 278.813 84.5358 267.635 83.8789 254.646V238.071C83.8789 210.172 115.137 170.988 134.005 149.876C142.741 140.101 155.35 135 168.461 135H209.359Z" fill="url(#paint4_linear_1_13765)"/>
<path id="Combined Shape Copy 8" d="M265.468 234.906C265.468 236.293 265.472 237.682 265.475 239.071H157.879C171.977 268.384 198.6 285.061 224.345 294.549C239.738 300.222 254.376 297.521 265.982 289.551C264.935 316.479 242.885 338.31 215.598 338.31H164.487C136.899 338.31 114.534 315.95 114.534 288.362V234.906H265.468Z" fill="url(#paint5_linear_1_13765)"/>
<path id="Combined Shape Copy 37" d="M114.534 285.937C106.54 285.972 98.9847 286.805 91.8623 288.471C87.2073 278.813 84.5358 267.634 83.8789 254.646V243.071H114.534V285.937Z" fill="url(#paint6_linear_1_13765)"/>
<path id="Rectangle Copy 166" fill-rule="evenodd" clip-rule="evenodd" d="M157.879 239.071H290.879C290.879 276.633 259.589 307.537 224.344 294.548C198.6 285.06 171.977 268.384 157.879 239.071Z" fill="url(#paint7_linear_1_13765)"/>
<g id="Combined Shape Copy 38">
<path fill-rule="evenodd" clip-rule="evenodd" d="M181.095 233.636C183.625 234.314 185.306 236.577 185.356 239.071H157.879C157.888 239.089 157.896 239.106 157.905 239.124L148.279 236.545C142.248 234.929 138.669 228.731 140.284 222.7L181.095 233.636Z" fill="#151A21"/>
<path fill-rule="evenodd" clip-rule="evenodd" d="M181.095 233.636C183.625 234.314 185.306 236.577 185.356 239.071H157.879C157.888 239.089 157.896 239.106 157.905 239.124L148.279 236.545C142.248 234.929 138.669 228.731 140.284 222.7L181.095 233.636Z" fill="url(#paint8_linear_1_13765)"/>
</g>
<rect id="Rectangle Copy 37" x="136.567" y="165.979" width="29.9719" height="60.4432" rx="4.99531" transform="rotate(-15 136.567 165.979)" fill="#151A21"/>
</g>
<g id="Group 32">
<g id="Group 19">
<path id="Rectangle Copy 4_2" fill-rule="evenodd" clip-rule="evenodd" d="M86 443.474C86 449.825 80.8513 454.974 74.5 454.974H25C25 447.058 31.4173 440.64 39.3333 440.64H52.6049C53.9966 440.64 55.226 439.734 55.6375 438.404L61.3112 420.073C62.8018 415.257 67.2555 411.974 72.297 411.974H74.5C80.8513 411.974 86 417.122 86 423.474V443.474Z" fill="#151A21"/>
<g id="Path 20_2">
<path id="Mask_4" fill-rule="evenodd" clip-rule="evenodd" d="M27.4385 446.974C25.8988 449.259 25 452.011 25 454.974H74.5C79.6309 454.974 83.9769 451.613 85.4577 446.974H27.4385Z" fill="#73767A"/>
<mask id="mask1_1_13765" style="mask-type:luminance" maskUnits="userSpaceOnUse" x="25" y="446" width="61" height="9">
<path id="Mask_5" fill-rule="evenodd" clip-rule="evenodd" d="M27.4385 446.974C25.8988 449.259 25 452.011 25 454.974H74.5C79.6309 454.974 83.9769 451.613 85.4577 446.974H27.4385Z" fill="white"/>
</mask>
<g mask="url(#mask1_1_13765)">
</g>
</g>
<path id="Rectangle_2" d="M69 418.474C69 415.988 71.0147 413.974 73.5 413.974H80.1388C80.6144 413.974 81 414.359 81 414.835V421.974C81 428.601 75.6274 433.974 69 433.974V418.474Z" fill="#44484D"/>
</g>
<g id="Path 2_2">
<path d="M185 341.652C185 341.652 73 301.652 73 398.652" stroke="#FA5B35" stroke-width="60" stroke-linecap="round"/>
<path d="M185 341.652C185 341.652 73 301.652 73 398.652" stroke="url(#paint9_linear_1_13765)" stroke-width="60" stroke-linecap="round"/>
</g>
</g>
<g id="wheels">
<g id="Oval Copy 114">
<circle cx="191.656" cy="381.587" r="53" fill="#CCB1DA"/>
<circle cx="191.656" cy="381.587" r="53" fill="url(#paint10_linear_1_13765)"/>
<circle cx="191.656" cy="381.587" r="53" stroke="#151A21" stroke-width="40"/>
<circle cx="191.656" cy="381.587" r="53" stroke="url(#paint11_linear_1_13765)" stroke-width="40"/>
</g>
<g id="Group 45 Copy 7">
<ellipse id="Oval" cx="142.314" cy="356.637" rx="11.7952" ry="2.24401" transform="rotate(128 142.314 356.637)" stroke="white" stroke-width="4" stroke-linecap="round"/>
<ellipse id="Oval_2" cx="146.372" cy="365.539" rx="12.5695" ry="2.91441" transform="rotate(124 146.372 365.539)" stroke="white" stroke-width="4" stroke-linecap="round"/>
<ellipse id="Oval_3" cx="153.062" cy="367.967" rx="7.52359" ry="1.17685" transform="rotate(120 153.062 367.967)" stroke="white" stroke-width="4" stroke-linecap="round"/>
</g>
<g id="Group 45 Copy 8">
<ellipse id="Oval_4" cx="244.896" cy="351.996" rx="11.7952" ry="2.24401" transform="rotate(-112 244.896 351.996)" stroke="white" stroke-width="4" stroke-linecap="round"/>
<ellipse id="Oval_5" cx="235.157" cy="351.06" rx="12.5695" ry="2.91441" transform="rotate(-116 235.157 351.06)" stroke="white" stroke-width="4" stroke-linecap="round"/>
<ellipse id="Oval_6" cx="229.71" cy="355.64" rx="7.52359" ry="1.17685" transform="rotate(-120 229.71 355.64)" stroke="white" stroke-width="4" stroke-linecap="round"/>
</g>
<g id="Group 45 Copy 9">
<ellipse id="Oval_7" cx="196.13" cy="440.737" rx="11.7952" ry="2.24401" transform="rotate(8 196.13 440.737)" stroke="white" stroke-width="4" stroke-linecap="round"/>
<ellipse id="Oval_8" cx="201.81" cy="432.771" rx="12.5695" ry="2.91441" transform="rotate(4 201.81 432.771)" stroke="white" stroke-width="4" stroke-linecap="round"/>
<ellipse id="Oval_9" cx="200.568" cy="425.764" rx="7.52359" ry="1.17685" stroke="white" stroke-width="4" stroke-linecap="round"/>
</g>
</g>
</g>
<defs>
<linearGradient id="paint0_linear_1_13765" x1="228.258" y1="275.396" x2="491.197" y2="58.4557" gradientUnits="userSpaceOnUse">
<stop stop-color="#D3CBEC"/>
<stop offset="0.270082" stop-color="#DFD9F1"/>
<stop offset="1" stop-color="white"/>
</linearGradient>
<linearGradient id="paint1_linear_1_13765" x1="159.807" y1="70.8262" x2="110.198" y2="107.231" gradientUnits="userSpaceOnUse">
<stop stop-color="#9794BA" stop-opacity="0.01"/>
<stop offset="1" stop-color="#9794BA"/>
</linearGradient>
<linearGradient id="paint2_linear_1_13765" x1="181.476" y1="122.001" x2="196.337" y2="112.508" gradientUnits="userSpaceOnUse">
<stop stop-color="#44484D" stop-opacity="0.01"/>
<stop offset="1" stop-color="#44484D"/>
</linearGradient>
<linearGradient id="paint3_linear_1_13765" x1="188.335" y1="326.067" x2="156.773" y2="251.741" gradientUnits="userSpaceOnUse">
<stop stop-color="#FA5B35"/>
<stop offset="0.504253" stop-color="#FA5B35"/>
<stop offset="1" stop-color="#FC9D86"/>
</linearGradient>
<linearGradient id="paint4_linear_1_13765" x1="84.1621" y1="548.811" x2="356.471" y2="319.577" gradientUnits="userSpaceOnUse">
<stop stop-color="#CCB1DA"/>
<stop offset="1" stop-color="white"/>
</linearGradient>
<linearGradient id="paint5_linear_1_13765" x1="45.8768" y1="285.463" x2="74.9684" y2="533.563" gradientUnits="userSpaceOnUse">
<stop stop-color="#999DCF" stop-opacity="0.01"/>
<stop offset="1" stop-color="#999DCF"/>
</linearGradient>
<linearGradient id="paint6_linear_1_13765" x1="82.3816" y1="303.718" x2="143.674" y2="330.894" gradientUnits="userSpaceOnUse">
<stop stop-color="#999DCF" stop-opacity="0.01"/>
<stop offset="1" stop-color="#999DCF"/>
</linearGradient>
<linearGradient id="paint7_linear_1_13765" x1="175.602" y1="403.951" x2="687.57" y2="403.951" gradientUnits="userSpaceOnUse">
<stop stop-color="white"/>
<stop offset="1" stop-color="white" stop-opacity="0.01"/>
</linearGradient>
<linearGradient id="paint8_linear_1_13765" x1="167.472" y1="224.949" x2="179.922" y2="224.949" gradientUnits="userSpaceOnUse">
<stop stop-color="#44484D" stop-opacity="0.01"/>
<stop offset="1" stop-color="#44484D"/>
</linearGradient>
<linearGradient id="paint9_linear_1_13765" x1="202.335" y1="340.067" x2="170.773" y2="265.741" gradientUnits="userSpaceOnUse">
<stop stop-color="#FA5B35"/>
<stop offset="0.504253" stop-color="#FA5B35"/>
<stop offset="1" stop-color="#FC9D86"/>
</linearGradient>
<linearGradient id="paint10_linear_1_13765" x1="166.939" y1="362.228" x2="128.221" y2="411.661" gradientUnits="userSpaceOnUse">
<stop stop-color="#44484D" stop-opacity="0.01"/>
<stop offset="1" stop-color="#44484D"/>
</linearGradient>
<linearGradient id="paint11_linear_1_13765" x1="228.156" y1="418.087" x2="301.156" y2="345.087" gradientUnits="userSpaceOnUse">
<stop stop-color="#44484D" stop-opacity="0.01"/>
<stop offset="0.685766" stop-color="#73767A"/>
<stop offset="1" stop-color="#73767A"/>
</linearGradient>
</defs>
</svg>
