<svg width="329" height="514" viewBox="0 0 329 514" fill="none" xmlns="http://www.w3.org/2000/svg">
<g id="YuhPerson_SP_7d">
<g id="Group 113">
<g id="Rectangle Copy 99">
<rect x="174.769" y="8" width="36" height="46" rx="18" fill="#BABDE4"/>
<rect x="174.769" y="8" width="36" height="46" rx="18" fill="url(#paint0_linear_1_13504)"/>
</g>
<g id="Path 12 + Path 12 Copy Mask Copy 4">
<path id="Mask" fill-rule="evenodd" clip-rule="evenodd" d="M183.219 25.1127C178.253 23.871 174.769 19.4086 174.769 14.2892C174.769 7.03097 181.59 1.70526 188.631 3.46563L202.318 6.88731C207.284 8.12895 210.769 12.5914 210.769 17.7108C210.769 24.969 203.948 30.2947 196.906 28.5344L183.219 25.1127Z" fill="#FA5B35"/>
<mask id="mask0_1_13504" style="mask-type:luminance" maskUnits="userSpaceOnUse" x="174" y="3" width="37" height="26">
<path id="Mask_2" fill-rule="evenodd" clip-rule="evenodd" d="M183.219 25.1127C178.253 23.871 174.769 19.4086 174.769 14.2892C174.769 7.03097 181.59 1.70526 188.631 3.46563L202.318 6.88731C207.284 8.12895 210.769 12.5914 210.769 17.7108C210.769 24.969 203.948 30.2947 196.906 28.5344L183.219 25.1127Z" fill="white"/>
</mask>
<g mask="url(#mask0_1_13504)">
<path id="Path 12" d="M180.769 30V6" stroke="#FC9D86" stroke-width="4" stroke-linecap="round"/>
<path id="Path 12 Copy" d="M188.769 36V12" stroke="#FC9D86" stroke-width="4" stroke-linecap="round"/>
</g>
</g>
</g>
<g id="Group 19 Copy 5">
<path id="Rectangle Copy 4" fill-rule="evenodd" clip-rule="evenodd" d="M189.769 502.5C189.769 508.851 184.62 514 178.269 514H128.769C128.769 506.084 135.186 499.667 143.102 499.667H156.373C157.765 499.667 158.995 498.76 159.406 497.431L165.08 479.1C166.57 474.284 171.024 471 176.066 471H178.269C184.62 471 189.769 476.149 189.769 482.5V502.5Z" fill="#151A21"/>
<g id="Path 20">
<g id="Mask_3">
<path fill-rule="evenodd" clip-rule="evenodd" d="M131.207 506C129.667 508.285 128.769 511.037 128.769 514H178.269C183.399 514 187.745 510.64 189.226 506H131.207Z" fill="#73767A"/>
<path fill-rule="evenodd" clip-rule="evenodd" d="M131.207 506C129.667 508.285 128.769 511.037 128.769 514H178.269C183.399 514 187.745 510.64 189.226 506H131.207Z" fill="url(#paint1_linear_1_13504)"/>
</g>
<mask id="mask1_1_13504" style="mask-type:luminance" maskUnits="userSpaceOnUse" x="128" y="506" width="62" height="8">
<g id="Mask_4">
<path fill-rule="evenodd" clip-rule="evenodd" d="M131.207 506C129.667 508.285 128.769 511.037 128.769 514H178.269C183.399 514 187.745 510.64 189.226 506H131.207Z" fill="white"/>
</g>
</mask>
<g mask="url(#mask1_1_13504)">
</g>
</g>
<path id="Rectangle" d="M172.769 477.5C172.769 475.015 174.783 473 177.269 473H183.907C184.383 473 184.769 473.386 184.769 473.861V481C184.769 487.627 179.396 493 172.769 493V477.5Z" fill="#44484D"/>
</g>
<g id="Group 19 Copy 6">
<path id="Rectangle Copy 4_2" fill-rule="evenodd" clip-rule="evenodd" d="M230.769 502.5C230.769 508.851 225.62 514 219.269 514H169.769C169.769 506.084 176.186 499.667 184.102 499.667H197.373C198.765 499.667 199.995 498.76 200.406 497.431L206.08 479.1C207.57 474.284 212.024 471 217.066 471H219.269C225.62 471 230.769 476.149 230.769 482.5V502.5Z" fill="#151A21"/>
<g id="Path 20_2">
<path id="Mask_5" fill-rule="evenodd" clip-rule="evenodd" d="M172.207 506C170.667 508.285 169.769 511.037 169.769 514H219.269C224.399 514 228.745 510.64 230.226 506H172.207Z" fill="#73767A"/>
<mask id="mask2_1_13504" style="mask-type:luminance" maskUnits="userSpaceOnUse" x="169" y="506" width="62" height="8">
<path id="Mask_6" fill-rule="evenodd" clip-rule="evenodd" d="M172.207 506C170.667 508.285 169.769 511.037 169.769 514H219.269C224.399 514 228.745 510.64 230.226 506H172.207Z" fill="white"/>
</mask>
<g mask="url(#mask2_1_13504)">
</g>
</g>
<path id="Rectangle_2" d="M213.769 477.5C213.769 475.015 215.783 473 218.269 473H224.907C225.383 473 225.769 473.386 225.769 473.861V481C225.769 487.627 220.396 493 213.769 493V477.5Z" fill="#44484D"/>
</g>
<path id="Path 32 Copy 3" d="M169.841 222.965L177.768 453.974" stroke="#151A21" stroke-width="60" stroke-linecap="round"/>
<g id="Path 32 Copy 5">
<path d="M219.819 214.965L219.769 453.965" stroke="#151A21" stroke-width="60" stroke-linecap="round"/>
<path d="M219.819 214.965L219.769 453.965" stroke="url(#paint2_linear_1_13504)" stroke-width="60" stroke-linecap="round"/>
</g>
<g id="Group 38">
<g id="Rectangle Copy 157">
<path fill-rule="evenodd" clip-rule="evenodd" d="M50.0064 175.504C50.8275 172.439 49.0089 169.289 45.9443 168.468L5.17222 157.543C3.55787 163.568 7.13327 169.761 13.1581 171.375L23.8001 174.227C24.5514 174.428 25.1709 174.96 25.4843 175.671L28.3677 182.221C29.0694 183.815 30.4563 185.004 32.1385 185.455L40.7728 187.769C43.8373 188.59 46.9873 186.771 47.8085 183.707L50.0064 175.504Z" fill="#BABDE4"/>
<path fill-rule="evenodd" clip-rule="evenodd" d="M50.0064 175.504C50.8275 172.439 49.0089 169.289 45.9443 168.468L5.17222 157.543C3.55787 163.568 7.13327 169.761 13.1581 171.375L23.8001 174.227C24.5514 174.428 25.1709 174.96 25.4843 175.671L28.3677 182.221C29.0694 183.815 30.4563 185.004 32.1385 185.455L40.7728 187.769C43.8373 188.59 46.9873 186.771 47.8085 183.707L50.0064 175.504Z" fill="url(#paint3_linear_1_13504)"/>
</g>
<g id="Rectangle Copy 159">
<path fill-rule="evenodd" clip-rule="evenodd" d="M272.863 273.826C269.799 274.647 267.98 277.797 268.801 280.861L275.589 306.193C284.919 305.355 289.788 295.336 291.342 291.427C291.741 290.424 291.756 289.327 291.476 288.283L288.102 275.69C287.281 272.625 284.131 270.807 281.066 271.628L272.863 273.826Z" fill="#BABDE4"/>
<path fill-rule="evenodd" clip-rule="evenodd" d="M272.863 273.826C269.799 274.647 267.98 277.797 268.801 280.861L275.589 306.193C284.919 305.355 289.788 295.336 291.342 291.427C291.741 290.424 291.756 289.327 291.476 288.283L288.102 275.69C287.281 272.625 284.131 270.807 281.066 271.628L272.863 273.826Z" fill="url(#paint4_linear_1_13504)"/>
</g>
<rect id="Rectangle Copy 34" x="15.7559" y="92.9746" width="29.9719" height="60.4432" rx="4.99531" fill="#151A21"/>
<path id="Combined Shape Copy 29" d="M217.5 66C229.164 66 240.491 70.0211 248.765 78.2422C265.384 94.7568 292.463 125.764 298.34 157.39C303.115 177.609 322.674 273.047 270.093 287.136L260.894 252.806C251.693 262.925 238.473 269.31 223.719 269.31H172.608C150.314 269.31 131.431 254.708 125.005 234.545C118.944 236.226 112.285 236.335 105.357 234.442C75.7332 226.35 40.284 209.4 21.75 173.898H92.1836V169.403C92.1836 141.535 123.283 102.244 142.104 81.0186C150.848 71.1564 163.52 66 176.701 66H217.5Z" fill="#44484D"/>
<path id="Combined Shape Copy 34" d="M122.655 219.361C122.655 224.655 123.479 229.757 125.005 234.545C118.944 236.226 112.285 236.334 105.357 234.441C75.7332 226.349 40.2839 209.4 21.75 173.898H122.655V219.361Z" fill="url(#paint5_linear_1_13504)"/>
<path id="Combined Shape Copy 35" d="M251.598 165.906L238.547 169.403L260.894 252.806C251.693 262.925 238.473 269.31 223.719 269.31H172.608C145.02 269.31 122.655 246.95 122.655 219.362V165.906H251.598Z" fill="url(#paint6_linear_1_13504)"/>
<path id="Rectangle Copy 35" fill-rule="evenodd" clip-rule="evenodd" d="M270.093 287.136L238.546 169.403L297.413 153.63C297.413 153.63 328.959 271.363 270.093 287.136Z" fill="url(#paint7_linear_1_13504)"/>
<g id="Rectangle Copy 5 + Rectangle Copy 5 + Rectangle Copy 5 + Rectangle Copy 5 + Rectangle Copy 5 + Rectangle Copy 5 Mask Copy 2">
<mask id="mask3_1_13504" style="mask-type:luminance" maskUnits="userSpaceOnUse" x="141" y="102" width="90" height="51">
<rect id="Mask_7" x="141.271" y="102" width="89" height="50.5" fill="white"/>
</mask>
<g mask="url(#mask3_1_13504)">
<path id="Combined Shape" d="M185.871 102C210.503 102 230.471 121.969 230.471 146.601V169.968H141.271V146.601C141.271 121.969 161.239 102 185.871 102ZM185.771 139.5C180.8 139.5 176.771 143.529 176.771 148.5V153H194.771V148.5C194.771 143.529 190.741 139.5 185.771 139.5Z" fill="#FA5B35"/>
<path id="Combined Shape_2" d="M185.871 115.369C203.368 115.369 217.552 129.553 217.552 147.05V163.677H154.19V147.05C154.19 129.553 168.374 115.369 185.871 115.369ZM185.871 134.805C179.232 134.805 173.851 140.186 173.851 146.825V153.116H197.892V146.825C197.892 140.186 192.51 134.805 185.871 134.805Z" fill="#78C6E7"/>
<path id="Combined Shape_3" d="M185.871 128.288C196.543 128.288 205.194 136.94 205.194 147.611V157.722H166.548V147.611C166.548 136.94 175.199 128.288 185.871 128.288ZM185.871 140.309C181.218 140.309 177.445 144.081 177.445 148.734V153.116H194.297V148.734C194.297 144.081 190.524 140.309 185.871 140.309Z" fill="#EFE4F7"/>
<path id="Combined Shape_4" d="M185.871 102C210.503 102 230.471 121.969 230.471 146.601V169.968H141.271V146.601C141.271 121.969 161.239 102 185.871 102ZM185.771 139.5C180.8 139.5 176.771 143.529 176.771 148.5V153H194.771V148.5C194.771 143.529 190.741 139.5 185.771 139.5Z" fill="url(#paint8_linear_1_13504)"/>
</g>
</g>
</g>
</g>
<defs>
<linearGradient id="paint0_linear_1_13504" x1="183.769" y1="53.8802" x2="222.617" y2="69.1615" gradientUnits="userSpaceOnUse">
<stop stop-color="#999DCF" stop-opacity="0.01"/>
<stop offset="1" stop-color="#999DCF"/>
</linearGradient>
<linearGradient id="paint1_linear_1_13504" x1="167.513" y1="507.132" x2="184.618" y2="507.132" gradientUnits="userSpaceOnUse">
<stop stop-color="#151A21" stop-opacity="0.01"/>
<stop offset="1" stop-color="#151A21"/>
</linearGradient>
<linearGradient id="paint2_linear_1_13504" x1="220.294" y1="-7938.23" x2="151.275" y2="-7938.23" gradientUnits="userSpaceOnUse">
<stop stop-color="#44484D" stop-opacity="0.01"/>
<stop offset="1" stop-color="#44484D"/>
</linearGradient>
<linearGradient id="paint3_linear_1_13504" x1="37.917" y1="169.093" x2="36.7185" y2="175.869" gradientUnits="userSpaceOnUse">
<stop stop-color="#999DCF" stop-opacity="0.01"/>
<stop offset="1" stop-color="#999DCF"/>
</linearGradient>
<linearGradient id="paint4_linear_1_13504" x1="278.948" y1="291.719" x2="276.443" y2="282.371" gradientUnits="userSpaceOnUse">
<stop stop-color="#999DCF" stop-opacity="0.01"/>
<stop offset="1" stop-color="#999DCF"/>
</linearGradient>
<linearGradient id="paint5_linear_1_13504" x1="15.0783" y1="174.129" x2="15.0783" y2="244.067" gradientUnits="userSpaceOnUse">
<stop stop-color="#151A21" stop-opacity="0.01"/>
<stop offset="1" stop-color="#151A21"/>
</linearGradient>
<linearGradient id="paint6_linear_1_13504" x1="147.417" y1="202.95" x2="147.417" y2="269.31" gradientUnits="userSpaceOnUse">
<stop stop-color="#151A21" stop-opacity="0.01"/>
<stop offset="1" stop-color="#151A21"/>
</linearGradient>
<linearGradient id="paint7_linear_1_13504" x1="230.476" y1="179.924" x2="229.55" y2="320.041" gradientUnits="userSpaceOnUse">
<stop stop-color="#73767A" stop-opacity="0.01"/>
<stop offset="1" stop-color="#73767A"/>
</linearGradient>
<linearGradient id="paint8_linear_1_13504" x1="118.272" y1="99.0525" x2="148.166" y2="160.682" gradientUnits="userSpaceOnUse">
<stop stop-color="white"/>
<stop offset="1" stop-color="white" stop-opacity="0.01"/>
</linearGradient>
</defs>
</svg>
